<svg xmlns="http://www.w3.org/2000/svg" xmlns:xlink="http://www.w3.org/1999/xlink" id="uuid-0ff899cf-844a-4de6-9f18-d57bd48ed8cd" viewBox="0 0 5000 3548"><defs><linearGradient id="uuid-5e4c5f1b-9141-4741-bd47-5fd077574e24" x1="0" y1="1774" x2="5000" y2="1774" gradientUnits="userSpaceOnUse"><stop offset="0" stop-color="#bae2ed"></stop><stop offset=".49" stop-color="#daf0f0"></stop><stop offset="1" stop-color="#bae2ed"></stop></linearGradient></defs><g id="uuid-805c2e46-069b-46b5-af3f-ec95c586fbb8"><g><rect y="0" width="5000" height="3548" style="fill:url(#uuid-5e4c5f1b-9141-4741-bd47-5fd077574e24);"></rect><g><path d="M1451.98,2092.62c-48.49,0-34.79-24.25-65.36-13.71-24.64,8.5-41.06,17.68-52.03,27.55,3.7,13.72,12.3,26.45,22.52,35.91,10.84,10.05,23.83,15.03,37.2,20.71,11.6,4.92,23.63,11.29,29.56,23.04,5.2,10.3,4.38,21.28,4.41,32.5,.02,8.51,0,17.41,2.36,25.67,.33,.39,.5,.94,.45,1.48,2.45,7.29,8.2,15.67,16.9,15.14,8.51-.51,9.91-12.78,11.39-19.2,2.28-9.91,8.14-18.92,14.49-26.72,7.7-9.45,16.39-18.11,23.39-28.12,6.28-8.98,11.59-18.66,15.28-29,5.33-14.95,7.65-30.55,8.57-46.28-30.89-17.15-24.11-18.97-69.14-18.97Z" style="fill:#bae2ed;"></path><path d="M1427.02,2244.46c-1.51-5.69-2.05-11.82-2.23-17.39-.28-8.32,.2-16.67-.32-24.98-.58-9.34-4.48-17.95-11.61-24.17-14.59-12.74-35.21-15.07-50.63-26.58-13.81-10.31-25.52-25.29-30.57-42.08-1.46,1.47-2.82,2.95-4.07,4.45-10.54,12.65-13.71,25.3-31.63,20.03-17.92-5.27-35.84-7.38-46.39-4.22-10.54,3.16-37.95-8.43-32.68-44.28,2.36-16.03,.49-30.99-5.68-42.55-.6,0-1.2,0-1.79,.03-9.98,.38-18.72,2.91-27.42,7.77-11.14,6.22-22.59,13.7-31.42,23.29,3.06,5,4.74,12.84,11.49,22.01,14.76,20.03,35.84,40.06,56.93,45.33,21.08,5.27,25.3,20.03,36.9,4.22,11.6-15.81,26.36-2.11,26.36,15.81s23.19,47.44-6.33,79.07c-4.3,4.61-8.16,8.82-11.63,12.72,6.88,4.28,14.6,7.69,21.59,11.74,8.92,5.17,15.09,11.88,22.01,19.39,4.32,4.69,8.9,8.67,14.7,11.43,5.82,2.77,12.03,3.97,18.18,5.77,5.41,1.58,10.76,3.63,15.13,7.3,3.47,2.91,6.34,6.37,9.38,9.71,3.35,3.68,7.19,7.82,12.21,9.07,.07,.02,.17,.04,.25,.06,.84-1.08,2.69-.69,3.15,.52,3.72,.39,8.46,.1,9.4-3.22,1.42-5.01-.67-11.29-2.04-16.13-1.63-5.76-3.64-11.4-5.28-17.16-3.06-10.72-5.21-22.56-.53-33.18,7.78-17.67,29.71-9.69,44.6-13.77Z" style="fill:#bae2ed;"></path><path d="M1168.39,2019.87c-24.15,.67-22.26-11.04-16.6-25.62-1.9,1.37-3.92,2.75-5.78,4.39-10.88,9.65-8.18,21.65-5.8,34.49,2.07,11.14,1.62,22.44-3.6,32.72-.4,.79-.82,1.55-1.26,2.3,6.63-.67,10.37,.38,12.94,2.75,9.31-9.99,21.33-17.9,33.03-24.19,8.73-4.69,17.82-7.39,27.77-7.62-8.01-12.21-21.52-19.75-40.69-19.22Z" style="fill:#bae2ed;"></path><path d="M1468.2,1559.56c-9.26,6.32-18.82,14.5-26.76,22.81-23.19,24.24-2.11,21.09-24.25,34.79-22.13,13.7-29.51,16.87-52.71,59.04-23.19,42.16-64.31,64.3-89.61,106.47-25.3,42.17-4.21,24.25,2.11,69.58,6.33,45.34-27.41,24.25-34.79,4.21-7.38-20.03-3.16-25.3-16.86-41.11-13.71-15.81-75.91-17.92-83.29-2.11-7.38,15.81-16.87,16.87-49.55,4.21-18.7-7.24-41.88,10.39-56.52,37.25-1.22-1.86-2.35-3.73-3.38-5.54-5.67-9.92-7.17-20.85-11.1-31.42-3.33-8.95-10.17-17.7-20.02-19.46-9.16-1.62-17.82,5.72-26.7,3.57-5.04-1.22-7.68-7.82-9.31-12.09-1.7-4.41-2.83-8.97-5.26-13.06-5.16-8.65-16.47-11.48-25.84-10.09-12.08,1.78-21.19,9.24-32.32,13.46-12.29,4.66-24.08-1.12-34.05-8.19-7.8-5.56-14.92-11.97-23.26-16.77-8.47-4.87-18.24-6.88-27.96-6.88s-18.97,3.21-27.33,8.13c-3.7,2.17-7.09,4.88-9.86,8.16-2.16,2.58-3.4,5.68-4.91,8.64-.53-2.39-1.06-4.82-1.61-7.34-10.54-48.49-68.52-84.34-68.52-142.32,0-16.22,.66-31.55,1.89-46.21,21.41-4.19,40.38-17.21,57.17-30.49,9.75-7.72,19.6-15.8,28.29-24.71,7.13-7.32,13.38-15.45,20.5-22.79,7.27-7.49,15.69-14.03,26.05-16.41,12.54-2.87,26.96,.69,39.11,3.84,25.2,6.53,49.16,16.32,75.72,13.12,13.12-1.58,25.83-5.58,38.58-8.87,13.37-3.45,26.82-5.23,40.59-5.99,27.18-1.49,54.33,.75,81.47,1.89,26.6,1.13,51,14.33,77.37,17.18,14.3,1.55,28.83,.7,43.16,.28,11.03-.34,21.61-.89,32.14,2.94,.71,.26,1.42,.53,2.11,.82-28.94,28.13-50.85,47.15-53.89,57.46-3.24,11.02,.91,17.43,25.97,4.67,25.05-12.76,25.58-14.2,34.5-5.22,8.91,8.98,3.39,15.1-2.79,42.95-6.18,27.86-36.59,26.43-1.79,42.51,34.8,16.06,28.36-57.15,38.02-72.32,9.66-15.18,8.38-20.53,18.11-7.18,9.74,13.36,8.76,44.75,7.11,51.48-1.65,6.71,20.31,.14,36.53-24.01,13.77-20.51,51.73-35.04,61.32-45.52,4.56,.01,9.12,.13,13.65,.18,5.21,.06,10.46,.41,15.42,2.11,2.7,.92,5.12,2.46,7.35,4.37Z" style="fill:#bae2ed;"></path><path d="M636.23,1116.07c46.21-34.56,107.4-53.21,154.34-85.67,9.36-6.47,18.35-13.52,26.49-21.49,10.14-9.93,18.94-21.19,28.02-32.07,22.66-27.14,45.02-54.67,64.63-84.13,15.87-23.85,29.88-48.22,37.37-75.63-1.22-.95-3.22-1.44-6.66-1.14-13.84,1.19-28.07,9.49-41.51,13.44-13.44,3.95-5.14-9.49-21.35-6.33-16.21,3.16,0,22.53-27.28,11.86-27.28-10.67-66.42-55.35-100.02-88.95-33.6-33.6-24.12-20.56-49.02-42.7-24.91-22.14-36.37-25.3-57.32-18.58-20.95,6.72-35.98-6.72-60.88,13.05-24.91,19.77-52.58,39.14-66.42,37.56-13.84-1.58-43.88,1.58-30.44,23.32,13.44,21.74,16.6,27.67,13.44,35.19-3.16,7.51,29.78,35.05,7.78,47.97-2.73,1.6-25.3,8.43-35.32-2.64-10.01-11.07,2.11-19.5-22.14-19.5s-19.5,10.54-29.52,10.54-25.83,7.91-17.92,13.18c7.91,5.27,6.33,18.45,4.74,22.67-1.58,4.22,2.64,21.08,18.98,25.3,16.34,4.22,2.11,10.02,17.4,6.33,15.29-3.69,27.94-23.72,23.19,1.58-4.74,25.3-13.71,39.01-35.32,28.46-21.61-10.54-43.22,15.81-62.73,28.99-19.5,13.18-24.77,24.25-18.98,45.86,5.8,21.61,.53,33.74,8.96,42.7,8.43,8.96-2.11,31.1,17.39,39.53,19.5,8.43,35.32-7.38,26.36,10.54-8.96,17.92-80.65,77.49-119.66,79.59-39.01,2.11-14.23,27.41,27.41,11.07,41.64-16.34,81.7-31.63,105.42-52.71,23.72-21.08,82.76-73.8,99.1-90.66,16.34-16.87,22.14,12.65,5.27,20.03-16.87,7.38-40.06,35.32-11.07,31.63,28.99-3.69,33.21-8.96,49.55-17.92,16.34-8.96,25.3-7.38,67.47,30.57,3.7,3.33,7.1,6.36,10.24,9.16Z" style="fill:#bae2ed;"></path><path d="M1672.31,1515.95c-12.66-11.6-17.92-10.54-40.06-3.16-22.13,7.37-25.3-30.57-1.05-46.4,24.24-15.81,7.37-30.56-1.06-27.41-8.43,3.17-17.92,10.55-39,13.7-21.09,3.17-46.38-9.49-61.15-9.49s-54.83,42.17-31.63,26.36c23.2-15.81,28.47,4.21,30.57,29.51,2.11,25.31,10.55,23.2,36.91,26.36,26.35,3.17,11.6-12.64,27.41-4.21,15.81,8.43,4.21,15.81-44.28,36.9-48.49,21.09-41.12,18.98-44.28-2.11-1.97-13.08-16.91-9.12-33.51,1.57-1.13-1.05-2.31-2.03-3.57-2.94-5.99-4.32-13.77-4.92-20.89-5.16-4.23-.14-8.51-.28-12.79-.3,.11-.52,.1-1.03-.02-1.51-2.57-10.71-44.83,11.19-56.68,3.57-11.86-7.62-16.23-22.26-27.33-23.08-11.1-.83-27.55-.37-27.55-.37-5.28-1.13-15.65-57.06-47.56-25.66-1.11,1.1-2.23,2.18-3.32,3.25-4.65-2.07-9.53-3.59-14.57-4.39-12.4-1.96-25.71-.13-38.21,.14-14.38,.31-28.6-.15-42.68-3.33-12.91-2.92-25.41-7.41-38.24-10.69-12.62-3.23-25.24-3.93-38.19-4.63-13.68-.73-27.36-1.39-41.06-1.59-13.44-.18-26.9,.17-40.28,1.55-13.15,1.34-25.8,4.56-38.54,7.98-13.48,3.61-27.03,6.85-41.08,6.54-13.33-.29-26.32-3.88-39.01-7.63-12.5-3.69-24.93-7.65-37.85-9.66-10.36-1.61-21.6-2.28-31.44,2-18.59,8.09-29.46,26.56-43.45,40.28-9.38,9.22-19.83,17.7-30.26,25.7-9.42,7.22-19.41,13.78-30.12,18.93-6.33,3.05-12.95,5.38-19.75,6.84,3.31-36.16,10.06-68.43,18.86-100.69,12.64-46.38,9.49-60.09-12.66-84.34-22.13-24.25,6.32-13.7,7.38-21.61,1.06-7.9-1.06-13.7-7.91-37.96-6.85-24.24-3.69-20.03-3.16-50.07s-12.13-20.03-23.72-31.1c-11.6-11.07-16.34-25.83-14.76-64.3,1.39-33.92-1.73-37.96-31.4-64.44,49.34-36.89,116.36-55.56,164.3-92.5,21.06-16.23,37.18-37.34,54-57.71,21.84-26.42,42.99-53.49,61.57-82.34,12.87-19.98,23.54-40.26,30.4-62.4,.61,2.23,1.79,4.33,5.37,5.44,10.28,3.17,5.53-.79,6.32-11.07,.79-10.28,10.28-15.81,9.88,6.72-.39,22.53,20.17,37.56,27.29,40.71,7.11,3.17,5.39-30.83,33.86,3.96,28.47,34.79,26.36,18.98,43.23,29.53,16.86,10.54,18.98,15.81,5.26,27.41-13.7,11.6-18.97,8.43-2.11,14.76,16.87,6.32,26.36,3.16,41.12,11.6,14.75,8.43,20.03,34.79,24.24,25.3,4.23-9.49,4.23-17.93,9.49-25.3,5.27-7.38,2.11-7.38-5.26-17.93-7.38-10.54,41.11-23.19,46.38,14.76,5.26,37.96,10.54,13.7,41.11,32.68,30.57,18.98,43.22-12.66,29.51-28.47-13.7-15.81,8.44-29.51,30.57-18.98,22.14,10.55,9.49,25.3-4.22,56.93-13.7,31.62,25.3-3.17,33.74-23.19,8.43-20.04,5.26-17.93-17.93-37.96-23.19-20.03,5.27-29.51,11.6-45.34,6.33-15.81,24.25-29.51,27.42-44.28,3.16-14.75,20.03-31.62,29.51-49.54,9.49-17.93,27.41-11.6,45.33-1.06,17.93,10.55-18.05,29.66-37.81,51.79-19.77,22.14-26.09,19.77-17,52.58,9.09,32.82-13.04,27.28-11.47,49.02,1.58,21.74,16.61,22.93,20.17,46.26,3.56,23.33,37.94,8.7,49.41-18.98,11.47-27.67-24.51-50.6-24.9-70.37-.4-19.77,34.79-68,45.47-78.28,10.67-10.28,29.24-13.04,43.09-1.98,13.83,11.08-5.53,6.72-28.47,32.02-22.93,25.3-3.96,46.26-.79,38.74,3.16-7.51,.79-34.79,13.83-45.86,13.04-11.07,34-17.4,55.34-17.4s35.19,20.96,39.53,42.7c4.36,21.74-1.18,13.44,4.74,26.88,5.93,13.44,17.8,26.49,46.65,46.65,28.86,20.17,27.28,46.64,22.13,51.39-5.13,4.74-38.34,3.57-20.56,22.14,17.79,18.58,24.91,28.47,56.14,50.21,31.23,21.74,.39,17-22.53,40.32-22.93,23.32-33.61,12.64-34.4-4.34-.79-17-15.81-30.06-30.44-15.03-14.62,15.03,12.26,28.87,34,56.53,21.74,27.68-7.9,34.4-27.67,27.68-19.77-6.72,4.34,24.91-1.19,27.68-5.53,2.77-13.04-6.33-30.83-18.19-17.79-11.86-32.82-20.56-39.14-49.42-6.32-28.86-12.26-12.64-35.18-9.09-22.93,3.56-28.47-22.13-13.44-34.39,15.02-12.26,18.98-1.19,40.32-9.89,21.34-8.7,28.86-33.21,23.32-53.37-5.53-20.17-12.26,6.32-20.56,10.28-8.3,3.96-20.96-10.68,1.98-29.26,22.93-18.58,17.4-7.12-1.19-36.38-18.58-29.24-18.58,1.19-29.64,2.78-11.08,1.58-17.79-18.59-26.1-8.31-8.3,10.28,4.36,8.31-7.11,35.59-11.47,27.28-2.77,7.9-14.63,30.43-11.86,22.53-26.48,17.4-42.3,41.12-15.81,23.71,9.89,9.09,20.96,36.37,11.07,27.28-6.32,19.38-13.04,16.6-6.72-2.77-9.09-7.11-20.56-3.56-11.47,3.56-18.98,16.61-25.7,12.66-6.72-3.96-4.74-23.32-2.37-39.14,2.37-15.81,3.94-18.45-3.44-13.17-7.37,5.27-6.32,5.27-30.56,18.98-24.25,13.7-42.17,25.3-69.59,59.04-27.41,33.73-34.79,36.9-49.54,66.41-14.76,29.51-2.11,17.92,32.68,53.77,34.79,35.85,21.09,13.7,69.58,37.96,48.49,24.24,28.47,18.98,32.68,47.43,2.09,14.07,5.2,17.58,6.67,18.3-.68,.15-1.8,.61-3.51,1.74-9.48,6.32,5.27,32.68,14.76,27.41,9.49-5.27,11.6-32.68,16.87-64.3,5.27-31.63,10.54-22.14,27.41-22.14s24.25-42.17,17.92-56.92c-6.32-14.76-14.75-22.14-2.11-24.25,12.66-2.11,20.04-36.9,21.09-60.09,1.06-23.19,5.27-22.14,9.49-27.42,4.21-5.26,33.74,2.12,56.93,24.25,23.19,22.14,26.36,10.55,18.98,42.17-7.38,31.62,25.3,54.81,42.17,39,16.86-15.81,22.13-48.49,34.79-16.87,12.64,31.63-14.76,52.72,7.38,88.57,22.13,35.84,57.98,47.43,60.09,79.07,2.11,31.62-20.04,30.57,0,47.43,20.03,16.87,10.54,15.82,20.03,33.74,9.49,17.92-5.27,31.62-17.92,20.03Z" style="fill:#bae2ed;"></path><path d="M1146.25,1939.75c-27.41,13.7-17.92,61.15-65.36,49.55-47.44-11.6-48.49-9.49-57.98-65.36-3.81-22.42,1.39-46.02,11.08-65.44-3.12-4.43-5.66-9.24-7.67-13.57-3.52-7.57-4.7-15.77-7.4-23.61-2.73-7.92-8.18-17.71-17.29-19.33-9.24-1.65-17.98,5.74-27.04,3.55-8.59-2.08-11.68-11.94-14.19-19.32-1.88-5.53-4.24-10.72-9.72-13.53-6.11-3.14-13.08-3.48-19.69-1.77-11.25,2.9-20.29,11.32-31.63,13.75-23.66,5.08-38.95-17.42-57.67-27.08-11.83-6.11-26.96-7.84-39.63-3.27-6.04,2.18-12.53,5.36-17.19,9.86-4.3,4.14-5.73,9.53-9.05,14.21,8.88,40.1,14.11,60.16,14.11,60.16,0,0-11.6,4.22,5.27,23.19,16.87,18.98,26.36,36.9,31.63,43.22,5.27,6.33,28.46,15.81,22.14-3.16-6.33-18.98-35.84-92.77-44.28-125.45-8.43-32.68,12.65,29.52,31.63,61.15,18.98,31.63,40.06,23.19,45.33,56.93,5.27,33.74,12.65,11.6,12.65,44.28s-5.27,42.17,57.98,69.58c63.25,27.41,66.42,8.43,99.1,24.25,11.72,5.67,19.92,13.24,27.17,20.23,2.22-3.84,4.21-7.83,7.35-11.04,5.06-5.17,11.34-8.59,17.93-11.42,7.08-3.04,14.85-5.67,20.54-11.07,4.91-4.66,8.66-10.26,12.7-15.66,.07-.1,.16-.18,.24-.26,.55-.97,1.19-1.92,1.92-2.84,2.79-3.47,6.35-6.43,10.06-8.89,2.19-1.45,4.17-2.77,5.42-4.52,.43-1.04,.86-2.1,1.29-3.15,.12-.85,.12-1.79-.05-2.85-.22-1.39,.97-2.29,2.03-2.28,1.31-3.58,2.42-7.15,3.04-10.57,4.22-23.19,12.65-42.17-14.76-28.46Z" style="fill:#bae2ed;"></path><path d="M1135.27,2026.91c-.8-4.42-1.33-9.01-.96-13.44-2.24,2.99-4.62,5.86-7.38,8.32-5.42,4.81-11.8,7.61-18.42,10.42-7.1,3.01-14.8,6.2-20.06,12.07-2.98,3.32-4.99,7.27-7.25,11.05,11.73,11.32,21.73,20.18,41.86,15.15,2.87-.72,5.43-1.27,7.72-1.68,1.6-2.4,2.96-4.97,3.99-7.72,2.02-5.37,3.36-11.18,3.14-16.95-.22-5.87-1.59-11.48-2.63-17.22Z" style="fill:#bae2ed;"></path><path d="M1245.84,2360.77c13.41,3.13,15.29-11.56,19.02-20.62,8.87-21.53,35.01-29.65,41.51-52.43-.65-.67-1.3-1.36-1.94-2.08-7.06-7.95-13.87-14.4-23.3-19.45-6.45-3.45-13.16-6.67-19.23-10.54-18.43,21.09-24.04,32.17-19.71,42.55,5.27,12.65,29.52,3.16,17.92,17.92-10.74,13.67-37.77,13.78-29.11,34.68,4.23,4.05,9.11,8.63,14.84,9.97Z" style="fill:#bae2ed;"></path><path d="M1396.09,2561.65c5.91-6.54,8.85-14.19,9.54-23.66,.88-12.14-.16-24.49-.49-36.64-.31-11.14-1.59-23.17-7.63-32.85-6.37-10.2-16.63-15.74-27.52-20.01-8.94-3.5-18.11-7.11-24.79-14.31-16.34-17.61-22.28-46.21-6.9-66.31,10.7-13.97,31.87-20.26,38.28-37.3-5.73-1.72-10.22-5.59-14.63-10.57-3.51-3.96-7.02-8.33-11.69-10.98-5.52-3.14-11.52-4.48-17.59-6.12-9.14-2.47-16.69-6.36-23.37-12.35-3.77,11.22-11.95,19.21-20.87,26.9-4.84,4.17-9.8,8.35-13.79,13.37-4.16,5.24-6.63,10.93-8.7,17.23-3.13,9.5-9.21,19.8-21.06,16.23-3.33-1-6.29-2.61-9.04-4.55,15.16,26.25,31.25,63.71,68.55,105.04,39.01,43.22,41.11,10.54,74.85,64.31,7.56,12.05,13,22.72,16.85,32.58Z" style="fill:#bae2ed;"></path><path d="M1501.99,2634.44c-.42-1.12,.29-1.91,1.19-2.13,1.3-3.14,1.6-6.58,2.66-9.82,1.31-4.02,3.83-7.56,6.78-10.57,13.01-13.28,32.84-19.91,51.24-16.76,.19-2.6,.46-5.2,.74-7.79,1.23-11.42,2.87-23.61-4.54-33.43-7.33-9.71-21.44-11.02-29.92-19.6-8.01-8.1-10.38-19.33-17.17-28.13-7.07-9.16-18.81-11.66-28.85-16.25-8.37-3.82-18.28-9.39-21.27-18.8-1.8-5.65-.92-12.08-3.2-17.54-1.88-4.5-5.81-8.19-10.49-9.66-8.77-2.74-18.66-.56-26.67,3.56-3.85,1.98-7.65,4.34-10.63,7.51-3.79,4.03-6.78,8.54-10.92,12.28,2.13,3.54,3.78,7.4,4.91,11.57,2.86,10.56,2.69,21.16,3.1,31.98,.45,12,1.86,24.57-1.03,36.38-.87,3.55-2.23,6.81-3.97,9.81,.15,.13,.29,.29,.41,.5,5.91,10.65,11.71,21.36,16.45,32.59,4.51,10.67,6.56,21.9,10.43,32.75,2.03,5.68,4.51,11.15,7.8,16.22,2.13,3.28,4.26,6.33,8.59,5.35,5.3-1.19,10.17-3.76,15.26-5.6,5.29-1.9,10.53-3.4,16.09-4.21,4.03-.58,7.66-.67,11.6,.28,3.69,.89,8.77,3.21,11.46-.43,0-.02-.02-.04-.03-.07Z" style="fill:#bae2ed;"></path><path d="M1518.51,3161.38c-19.74-12.1-36.01-30.74-50.04-48.93-14.98-19.43-30.01-42.71-33.7-67.43-3.89-26.04,3.12-51.58,3.52-77.58,.41-26.5-8.93-50.06-16.78-74.89-3.64-11.52-6.78-23.33-7.66-35.43-1.05-14.56-.54-29.29,.42-43.84,.96-14.64,2.44-29.23,3.72-43.84,1.22-13.93,1.43-28.04,3.4-41.88,3.94-27.66,13.47-54.09,18.42-81.54-1.3-1.17-2.37-2.67-3.29-4.09-2.8-4.32-5.24-8.85-7.14-13.64-4.56-11.52-6.58-23.77-11.3-35.25-4.64-11.28-10.44-22.02-16.34-32.68-1.29,1.78-2.69,3.47-4.23,5.05,11.53,32.23,6.23,56.3,3.87,93.31-3.16,49.55,10.54,117.02-3.16,157.08-13.7,40.06-22.14,44.28-6.33,54.82,15.81,10.54-4.22,34.79-2.11,62.2,2.11,27.41,17.92,1.05,21.08,10.54,3.16,9.49-13.7,32.68-24.25,60.09-10.54,27.41,23.19,126.51,83.28,164.46,50.42,31.84,76.34,14.71,83.38,8.37-12.18-3.53-23.98-8.31-34.77-14.92Z" style="fill:#bae2ed;"></path><path d="M1530.09,2603.65c-9.33,4.98-19.1,11.98-21.53,22.85-.56,2.51-1.29,5.58-2.56,8.18,11.53,27.87,47.77,28.24,65.58,50.14,4.01,4.93,6.31,10.19,6.8,16.56,.52,6.69-.48,13.63,.75,20.26,1.6,8.63,6.87,16.08,16.37,16.07,5.12,0,14.03,.54,18.15-2.91,.47-.39,.99-.5,1.47-.43,5.79-5.46,11.49-10.87,15.26-18.34,6.15-12.19,5.39-24.81-1.07-36.74-11.08-20.46-31.67-30.07-49.47-43.52-7.06-5.33-12.9-12.65-14.96-21.4-1.21-5.13-1.44-10.35-1.23-15.57-10.81-1.98-23.85-.34-33.55,4.85Z" style="fill:#bae2ed;"></path><path d="M1903.19,2376.2c-62.2-75.9-109.64-80.12-152.86-89.61-43.22-9.49-61.15-3.16-71.69-40.06-4.11-14.39-10.16-27.81-18.81-39.66-4.74,5.6-8.73,11.78-13.52,17.38-6.21,7.27-13.39,12.41-22.51,15.37-10.78,3.5-21.89,5.91-33.09,7.66-10.21,1.59-20.99,3.62-31.35,3.23-5.97-.22-12.68-1.16-17.04-5.7-4.16-4.34-6.02-10.26-7.6-15.92-5.4-19.42-7.61-40.94-23.42-55.19-.31-.28-.47-.58-.54-.89-.2-.2-.38-.41-.56-.64-3.67,7.34-8.04,14.34-13.06,20.96-11.3,14.9-29.35,28.75-33.84,47.78-2.2,9.31-5.03,26.69-18.67,23.26-8.88-2.23-13.81-8.57-16.54-16.22-9.77,2.83-20.19,.22-30.05,2.46-15.7,3.57-16.32,21.14-13.13,34.23,2.78,11.41,7.79,22.4,9.18,34.14,.87,7.35-2.22,12.57-10.1,12.75-1.33,.03-2.6-.05-3.81-.2-7.02,19.58-31.26,24.65-41.26,42.23-7.19,12.64-7.81,26.68-2.19,40.07,5.09,12.14,12.69,21.97,24.85,27.5,9.32,4.24,19.44,6.98,27.69,13.28,3.76,2.87,6.98,6.16,9.63,9.83,4.68-4.45,7.99-10.15,13.02-14.19,11.59-9.31,31.33-16.08,44.56-6.23,3.24,2.41,6.07,6.13,7.07,10.09,1.34,5.29,.74,11.2,2.79,16.28,4.46,11.01,17.08,15.75,27.3,19.83,9.3,3.71,18.7,7.58,23.97,16.67,5.95,10.28,9.64,22.51,20.22,29.18,9.25,5.84,21.16,8.51,26.95,18.64,5.43,9.51,4.87,19.84,3.72,30.38-1.01,9.28-2.55,19.34-.11,28.53,2.92,11,10.87,17.82,20.02,23.92,17.19,11.44,36.28,23,45.24,42.53,4.57,9.96,6.57,20.69,2.76,31.29-3.74,10.41-10.76,19.3-19.06,26.52-4.15,3.61-9.88,7.82-11.62,13.31-1.73,5.48,.66,10.29,3.59,14.88,4.61,7.21,13.44,18.45,22.79,18.93,2.33,.12,2.34,3.75,0,3.63-2.95-.15-5.75-1.16-8.25-2.72-7.74-4.82-14.45-12.15-18.95-20.08-4.58-8.07-4.49-15.86,1.87-22.93,.69-.77,1.41-1.52,2.12-2.26-3.12,.55-6.43,.57-9.39,.76-6.58,.44-13.64-.39-18.08-5.87-4.62-5.72-6.28-12.37-6.42-19.63-.15-7.47,1.12-16.31-2.54-23.17-7.8-14.65-25.57-20.4-39.23-27.95-6.68-3.69-13.58-7.38-19.37-12.42-4.58-3.99-7.84-8.65-10.31-14.01-1.51,1.43-3.47,2.26-6.06,2-3.77-.38-7.39-2.15-11.16-2.36-5.9-.34-12.12,1.11-17.69,2.93-6.08,1.99-11.92,5.12-18.08,6.76-2.46,.65-4.97,1.15-7.42,.44-2.84,15.4-7.09,30.47-10.95,45.64-3.58,14.09-6.98,28.38-8.19,42.9-1.21,14.49-2,29-3.33,43.48-1.35,14.62-2.74,29.26-3.34,43.93-.59,14.31-1.11,29.09,1.42,43.25,4.39,24.57,15.75,47.19,20.61,71.63,2.52,12.7,3.07,25.49,2.1,38.4-.99,13.12-3.11,26.14-3.96,39.27-.88,13.55-.46,27.34,3.75,40.37,4.04,12.5,10.45,24.44,17.48,35.5,6.88,10.81,14.63,21.04,23.1,30.67,8.09,9.19,16.52,18.7,26.03,26.46,13.77,11.23,29.74,18.73,46.7,23.72-7.37-11.06-66.41-101.13-45.64-116.96,22.14-16.87-1.05-46.39-13.7-55.87-12.65-9.49,32.68-25.3,25.3-56.93-7.38-31.63,27.41,4.22,15.81-13.7-11.6-17.92-41.12-27.41-18.98-30.57,22.14-3.16,44.28,35.84,40.06-10.54-4.22-46.39,20.03-14.76,46.39-22.14,26.36-7.38,6.33-53.77-8.43-75.9-14.76-22.14,17.92,4.22,46.39-2.11,28.46-6.33,46.39-68.53,67.47-104.37,21.08-35.84-5.27-52.71,52.71-76.96,57.98-24.25,79.07-45.33,74.85-105.42-4.22-60.09,128.62-49.55,66.42-125.45Z" style="fill:#bae2ed;"></path><path d="M1536.44,2221.24c1.65,6.33,2.94,13.79,6.9,19.18,3.75,5.11,10,6.35,16.02,6.46,10.6,.19,21.52-1.61,31.94-3.35,10.64-1.77,21.29-3.97,31.53-7.41,10.03-3.37,17.37-9.56,23.69-17.93,3.64-4.82,7.09-9.76,11.04-14.3-13.46-17.11-32.74-30.64-60.11-38.54-47.44-13.71-28.46-28.46-68.53-49.55-1.49-.78-2.9-1.54-4.25-2.27-.7,11.27-2.13,22.5-4.99,33.41-1.94,7.44-4.52,14.6-7.69,21.48,.3,.42,.57,.86,.87,1.28,.02,.03,.21,.27,.2,.26,.04,.05,.08,.09,.12,.14,.14,.16,.29,.3,.45,.44,.24,.21,.39,.49,.46,.79,14.44,13.19,17.61,31.81,22.33,49.9Z" style="fill:#bae2ed;"></path><path d="M1309.13,1945.02c-3.69-3.16-49.02-32.68-71.69-27.94-22.67,4.74-35.32,9.49-38.48,22.67-3.16,13.18,6.85,1.58,33.74-1.58s44.28,2.11,59.04,18.45c14.76,16.34,12.65,19.5,29.52,19.5s31.63-6.33,20.03-16.34c-11.6-10.02-32.15-14.76-32.15-14.76Z" style="fill:#bae2ed;"></path><path d="M1318.62,1862.79s-17.92-3.16-20.56-3.16-4.74,6.85,2.64,10.54,1.58,17.39-2.11,23.19c-3.69,5.8,7.91,4.22,12.65-3.16,4.74-7.38,10.02-6.85,13.7-14.23s10.54-7.91-6.33-13.18Z" style="fill:#bae2ed;"></path><path d="M1375.02,1966.11c-9.68,2.64-19.5,3.69-19.5,8.96s1.58,8.43-4.74,13.7c-6.33,5.27,16.34,25.83,34.26,20.03s11.07-3.16,26.36-6.33c15.29-3.16,35.32-5.8,22.14-16.87-13.18-11.07-41.11-24.25-58.51-19.5Z" style="fill:#bae2ed;"></path><path d="M1460.94,1990.36c-12.64,2.17-33.74,1.58-13.18,12.12,20.56,10.54,23.72,15.81,26.88,5.27,3.16-10.54,4.74-20.56-13.7-17.39Z" style="fill:#bae2ed;"></path><path d="M1307.02,1987.19c-8.94-.64-31.1,3.69-18.45,13.18,12.65,9.49,18.98,10.02,25.3,4.22,6.33-5.8,7.91-16.34-6.85-17.39Z" style="fill:#bae2ed;"></path><path d="M1528.94,2021.46s-12.12-4.22-13.18,2.11c-1.05,6.33,7.38,9.49,7.38,17.39s-1.58,14.23,5.27,18.45c6.85,4.22,11.6-3.69,12.65,7.91,1.05,11.6-3.69,15.81,4.74,16.34,8.43,.53,8.43-3.16,6.85-13.7-1.58-10.54-13.18-18.98-16.34-20.56-3.16-1.58-3.16-3.69-3.69-10.54s-.53-13.7-3.69-17.39Z" style="fill:#bae2ed;"></path><path d="M471.54,1105.33s-34,22.14-38.74,27.67c-4.74,5.53-18.98,25.3,.79,15.81,19.77-9.49,30.84-16.6,40.32-27.67,9.49-11.07,12.65-18.98-2.37-15.81Z" style="fill:#bae2ed;"></path><path d="M683.44,1271.37c-3.75-1.25-18.19,2.37-18.19,11.07s0,17.39,.79,27.67c.79,10.28,11.07,12.65,12.65-.79,1.58-13.44,1.58-9.49,6.33-17.39,4.74-7.91,.79-19.77-1.58-20.56Z" style="fill:#bae2ed;"></path><path d="M238.29,1197.05c-8.7,0-16.6,3.95-18.98,7.12-2.37,3.16-18.98-1.58-21.35,3.95s-19.77,15.81-6.33,14.23c13.44-1.58,12.65-3.95,25.3-5.53,12.65-1.58,13.44,0,24.51-8.7s-3.16-11.07-3.16-11.07Z" style="fill:#bae2ed;"></path><path d="M331.59,1022.31c-3.16-3.16-13.44-16.6-17.39-14.23-3.95,2.37-11.07,10.28-7.12,13.44,3.95,3.16,4.74,2.37,7.91,3.95,3.16,1.58,4.74,4.74,10.28,1.58,5.53-3.16,6.33-4.74,6.33-4.74Z" style="fill:#bae2ed;"></path><path d="M348.99,898.17c-1.56-3.63-22.93-28.46-33.21-15.81-10.28,12.65,5.53,13.44,10.28,24.51,4.74,11.07,4.74,15.02,12.65,13.44,7.91-1.58,17.39-5.53,10.28-22.14Z" style="fill:#bae2ed;"></path><path d="M1113.57,763.76s-34,28.46-56.93,37.95c-22.93,9.49-56.93-11.86-23.72-39.53,33.21-27.67,18.98-39.53,52.98-63.25,34-23.72,67.21,2.37,79.07,22.93s10.28,48.23,21.35,60.09c11.07,11.86,22.93,25.3,22.93,32.42s13.44-21.35,38.74-41.91c25.3-20.56,59.3-26.88,38.74,11.86-20.56,38.74-38.74,36.37-37.95,63.25,.79,26.88,9.49,25.3,11.07,48.23,1.58,22.93-12.65,46.65-37.16,37.95-24.51-8.7-42.7-22.93-63.25-18.19-20.56,4.74-47.44,26.88-56.93,1.58-9.49-25.3-31.63-40.32-23.72-55.35,7.91-15.02,24.51,3.95,34.79-18.19,10.28-22.14,13.44-60.88-6.33-52.98-19.77,7.91,6.33-26.88,6.33-26.88Z" style="fill:#bae2ed;"></path><path d="M1246.4,626.18c3.95-6.33,38.74-42.7,16.6-42.7s-52.18,14.23-59.3,19.77c-7.12,5.53-15.02,2.37-26.09,11.07-11.07,8.7-28.46,19.77-15.81,25.3s24.51-2.37,22.14,10.28c-2.37,12.65-19.77,19.77-4.74,19.77s29.25-12.65,40.32-25.3c11.07-12.65,26.88-18.19,26.88-18.19Z" style="fill:#bae2ed;"></path><path d="M1255.1,647.53c7.12,11.86,3.16,37.95,15.81,38.74,12.65,.79,21.35-29.25,30.84-37.16,9.49-7.91,7.91,9.49,11.07,22.14,3.16,12.65,2.37,2.37,8.7,18.98,6.33,16.6,15.81,26.88,5.53,31.63-10.28,4.74-23.72-.79-33.21-2.37-9.49-1.58-20.56-7.91-34-1.58-13.44,6.33-18.98,23.72-37.95,11.86-18.98-11.86-16.6-31.63-8.7-32.42,7.91-.79-10.28-7.91-9.49-20.56,.79-12.65,8.7-31.63,21.35-33.21,12.65-1.58,30.05,3.95,30.05,3.95Z" style="fill:#bae2ed;"></path><path d="M1413.24,730.55c3.16,1.58,18.98,5.53,6.33,20.56-12.65,15.02-30.05-11.86-34-15.81-3.95-3.95-22.14,8.7-26.09-2.37-3.95-11.07,8.7-11.07,0-25.3-8.7-14.23-16.6-7.91-15.02-28.46s3.16-33.21,8.7-30.05,14.23,15.02,18.19,17.39,5.53-6.33,15.02-7.91c9.49-1.58,11.07-12.65,18.19,1.58,7.12,14.23,11.86,12.65,13.44,28.46,1.58,15.81,1.58,20.56,0,27.67-1.58,7.12-4.74,14.23-4.74,14.23Z" style="fill:#bae2ed;"></path><path d="M1489.93,743.99c-11.86-5.53-22.93-13.44-8.7-16.6,14.23-3.16,22.93-7.12,34,0,11.07,7.12,2.37,7.91,31.63,12.65,29.25,4.74,39.53,11.86,45.86,7.91,6.33-3.95,33.21-25.3,49.02-47.44,15.81-22.14,7.12-18.19,49.81-54.56,42.7-36.37,27.67-30.05,56.14-45.86,28.46-15.81,24.51-18.98,43.49-26.88,18.98-7.91-1.58,.79,30.05-16.6,31.63-17.39,41.11-1.58,39.53-30.05-1.58-28.46-43.49-71.16-88.56-71.95-45.07-.79-56.14,8.7-86.97,16.6-30.84,7.91-60.09,0-71.16,15.02-11.07,15.02-27.67,29.25-14.23,49.81,13.44,20.56,50.6,26.09,30.05,31.63s-52.18-5.53-49.81-36.37c2.37-30.84,7.12-45.86-16.6-35.58-23.72,10.28-46.65,52.18-46.65,65.63s3.16,28.46-3.95,44.28c-7.12,15.81,1.58,47.44,16.6,47.44s44.28,12.65,31.63,26.88c-12.65,14.23-45.07-9.49-52.18-14.23-7.12-4.74-17.39-2.37-26.09,5.53-8.7,7.91-30.05,.79-34.79,.79s-16.6,11.86-10.28,25.3c6.33,13.44,13.44,19.77,8.7,33.21-4.74,13.44-29.25,14.23-3.16,36.37,26.09,22.14,26.88,27.67,41.91,30.05,15.02,2.37,17.39,5.53,42.7,.79,25.3-4.74,41.11,8.7,45.86-9.49,4.74-18.19-10.28-38.74-22.14-40.32-11.86-1.58-61.67-3.95-61.67-3.95Z" style="fill:#bae2ed;"></path><path d="M1414.82,543.16s-10.28,11.86-10.28,21.35,2.37,12.65-4.74,18.19c-7.12,5.53-7.91,14.23-6.33,29.25,1.58,15.02-4.74,27.67,11.86,29.25,16.6,1.58,18.98,7.91,26.09-3.16,7.12-11.07,15.02-23.72,22.93-37.16,7.91-13.44,18.19-12.65,7.91-26.88-10.28-14.23-10.28-22.14-17.39-23.72-7.12-1.58-9.49-35.58-30.05-7.12Z" style="fill:#bae2ed;"></path><path d="M1342.07,558.18c-7.12-3.16-11.07-8.7-15.81-3.95-4.74,4.74-9.49,.79-11.07,8.7-1.58,7.91,3.95,15.81-1.58,18.19-5.53,2.37-9.49-3.95-15.02-2.37-5.53,1.58-13.44,4.74-15.02,15.81-1.58,11.07-4.74,17.39,3.95,21.35s-5.53,0,14.23,3.95c19.77,3.95,41.91,15.02,39.53-10.28-2.37-25.3-7.91-30.05-.79-30.05s14.23,11.86,16.6-3.95c2.37-15.81,.79-26.88-5.53-26.88s-9.49,9.49-9.49,9.49Z" style="fill:#bae2ed;"></path><path d="M1481.23,596.14c-2.37,0-4.74-3.95-10.28,3.95-5.53,7.91-8.7,11.86-8.7,21.35s5.53,17.39,4.74,20.56c-.79,3.16-5.53,.79-8.7,6.33s-3.16,11.86,0,14.23,7.12,9.49,13.44-.79c6.33-10.28,7.12-16.6,10.28-16.6s6.33,29.25,10.28,.79c3.95-28.46,11.07-17.39,3.95-36.37-7.12-18.98-15.02-13.44-15.02-13.44Z" style="fill:#bae2ed;"></path><path d="M1504.16,553.44c.79-9.49,6.33-26.09-2.37-26.09s-14.23-11.86-19.77,1.58c-5.53,13.44-15.81,12.65-6.33,18.98,9.49,6.33,12.65,7.91,16.6,7.91s11.86-2.37,11.86-2.37Z" style="fill:#bae2ed;"></path><path d="M1794.34,642.79c-.35-3.94-14.23-50.6,10.28-53.77s43.49-16.6,75.11-34c31.63-17.39,36.37-45.07,59.3-9.49,22.93,35.58,14.23,41.91,62.46,14.23,48.23-27.67,102.79-68.79,137.58-56.93,34.79,11.86,79.07,45.86,83.02,54.56,3.95,8.7-45.86,30.05-59.3,43.49-13.44,13.44,26.88,11.86,68,6.33s71.95-2.37,30.05,57.72c-41.91,60.09-75.9,67.21-64.04,94.88,11.86,27.67,22.14,59.3,13.44,89.35-8.7,30.05-42.7,54.56-54.56,91.72-11.86,37.16,9.49,24.51-8.7,76.7s-69.58,72.74-114.65,80.65c-45.07,7.91-75.9,40.32-106.74,58.51-30.84,18.19-39.53,39.53-52.18,67.21-12.65,27.67,26.09,70.37-35.58,40.32s-95.67-131.25-79.07-175.53c16.6-44.28,62.46-52.98,64.04-72.74,1.58-19.77-57.72-18.98-44.28-60.09,13.44-41.11,36.37-63.25,35.58-90.93-.79-27.67,15.02-38.74-18.98-56.93-34-18.19-16.6,7.91-56.93-23.72-40.32-31.63-50.6-79.07-46.65-95.67,3.95-16.6-5.53-51.39,38.74-42.7s67.21,32.42,64.04-3.16Z" style="fill:#bae2ed;"></path><path d="M2174.65,1127.47s32.42-1.58,41.12,11.07c8.7,12.65-.79,48.23-15.02,60.09-14.23,11.86-49.81,23.72-69.58,3.95-19.77-19.77-21.35-27.67-28.46-53.77-7.12-26.09-1.58-39.53,11.07-34.79s60.88,13.44,60.88,13.44Z" style="fill:#bae2ed;"></path><path d="M2312.23,1311.69c-6.33,0-23.72,37.16-6.33,52.18,17.39,15.02,25.3,9.49,26.88,29.25,1.58,19.77,0,34.79-4.74,46.65-4.74,11.86-27.67,31.63-.79,34.79s63.25,1.58,69.58-18.19c6.33-19.77-3.95-34-20.56-60.88-16.6-26.88,3.95-46.65-11.86-66.42s-49.02-17.39-52.18-17.39Z" style="fill:#bae2ed;"></path><path d="M2278.23,1378.11c-3.68,1.44-27.67,18.19-29.25,45.86-1.58,27.67,15.81,56.93,37.16,30.05,21.35-26.88,30.84-11.86,31.63-41.11s-21.35-41.91-39.53-34.79Z" style="fill:#bae2ed;"></path><path d="M2826.92,2636.4c-9.18-7.37-18.5-7.69-29.81-6.25-11.79,1.5-24.47,3.74-34.27,10.95-5.34,3.92-9.42,9.24-14.54,13.43-4.3,3.52-8.82,6.79-13.68,9.49-11.17,6.2-22.83,9.45-35.36,11.54-7.03,1.17-14.05,2.64-20,6.8-4.86,3.4-9.11,7.54-12.49,12.42-3.19,4.61-5.87,9.52-8.63,14.39-2.39,4.2-4.7,9.12-8.51,12.26-6.99,5.76-16.69,5.19-24.05,10.37-4.97,3.5-7.65,8.08-8.8,13.16-.24,8.73,1.78,15.91,10.95,22.36,21.35,15.02,69.58,32.42,117.02-7.12,46.83-39.02,95.96-81.9,96.46-110.38-4.48-4.79-9.17-9.34-14.27-13.44Z" style="fill:#bae2ed;"></path><path d="M2680.9,2553.26c-13.49-2.21-27.41,1.73-40.96,.16-6.73-.78-13.16-3.16-19.17-6.24-7.39-3.78-14.4-8.73-22.6-10.6-8.27-1.88-16.69-1.79-25.12-1.64-7.13,.13-14.22,.15-21.3,.81,3.91,9.8,8.94,18.1,12.7,23.61,11.86,17.39,27.67,38.74,27.67,78.28s20.56,29.25,26.09,62.46c2.25,13.51,.71,24.66-.48,34.15,1.25-1.63,2.75-3.16,4.53-4.55,4.72-3.68,10.42-5.29,16.09-6.84,7.08-1.94,10.88-5.62,14.55-11.94,.57-.97,1.12-1.96,1.68-2.95-.4-.19-.73-.54-.9-1.08-4.32-14.03-8.25-28.71-8.26-43.5,0-14.75,5.06-27.01,11.23-40.14,3.35-7.13,6.03-14.48,8.94-21.8,2.81-7.07,5.78-14.18,7.61-21.58,1.36-5.49,1.93-11.35,3.79-16.7,1.12-3.23,2.8-5.98,4.89-8.49-.5-.27-.9-.74-1.01-1.42Z" style="fill:#bae2ed;"></path><path d="M2825.91,2525.22c-6.18-6.56-14.68-8.03-23.43-6.89-.54,.48-1.37,.58-2.03,.31-9.82,1.72-19.76,6.48-26.91,10.87-4.41,2.7-8.89,5.43-12.39,9.29-3.35,3.7-6.1,7.81-8.75,12.03-4.62,7.38-9.51,14.69-15.69,20.88,.61,.83,1.21,1.67,1.8,2.5,7.67,10.77,16.59,20.12,25.5,29.85,3.91,4.27,8.37,8.7,10.68,14.12,1.67,3.9,2.47,7.91,3.09,12.06,6.72-1.97,13.7-3.07,20.7-3.89,3.44-.41,6.87-.68,10.23-.59,.1-.2,.25-.39,.46-.56,7.6-6.2,9.69-14.62,11.42-23.85,1.87-10.02,5.72-19.14,8.86-28.78,4.76-14.58,8.25-34.8-3.56-47.34Z" style="fill:#bae2ed;"></path><path d="M2858.45,2436.65c0-.1,.02-.18,.03-.27-.29-2.41-.72-4.81-1.23-7.16-.88-4.08-2.05-11.21-5.93-13.68-2.77-1.77-6.33,.79-7.55,3.43-1.78,3.85-1.68,8.48-1.59,12.63,.2,8.43,1.8,17.61-1.32,25.68-3.48,8.98-9.48,19.03-8.68,28.99,1,12.35,14.93,14.26,20.72,23.63,2.53,4.1,2.63,8.72,4.04,13.22,1.46,4.67,5.79,8.86,9.88,4.08,6.09-7.11,9.12-19.14,6.19-28.03-3.52-10.7-12.18-18.18-13.96-29.63-1.7-10.92-.66-21.9-.6-32.88Z" style="fill:#bae2ed;"></path><path d="M2948.12,2399.13c-.37,.97-.76,1.94-1.19,2.89-4.98,10.93-13.85,20.97-22.82,28.85-8.39,7.37-18.48,14.79-29.8,16.59-5.47,.87-10.67,.59-16.13-.12-5.21-.68-11.24-1.73-16.08,.88-.12,.07-.25,.12-.37,.15-.26,6.78-.37,13.58,.83,20.2,.88,4.86,2.34,9.41,5.18,13.49,2.74,3.93,5.5,7.93,7.36,12.36,3.36,7.98,3.33,16.3,.32,24.38-1.78,4.78-4.92,12.92-10.73,14.08-8.64,1.73-11.14-7.99-12.49-14.36-1.38-6.53-5.07-10.57-10.52-14.27-3.67-2.5-7.96-4.92-10.32-8.83-1.2-2-1.96-4.09-2.38-6.23-.16,.06-.32,.12-.51,.14-14.25,1.8-24.13,11.38-25.31,25.42,9.87-1.13,19.56,.68,25.95,8.65,11.06,13.79,9.52,32.71,4.36,48.53-2.08,6.39-4.74,12.6-6.74,19.01-1.41,4.55-2.21,9.21-3.12,13.87-1.6,8.2-4.12,15.61-10.1,21.36,4.09,.61,8.04,1.95,11.73,4.49,5.9,4.06,11.17,9.07,16.11,14.38,3.12-21.37,42.32,10.16,38.55-33.48-3.95-45.86,10.28-61.67,36.37-87.76,26.09-26.09,68.79-79.07,35.58-119.39-1.38-1.68-2.63-3.44-3.77-5.28Z" style="fill:#bae2ed;"></path><path d="M2800.91,2282.75c-5.88,.23-11.06,1.45-14.11,7.76-3.4,7.02-.08,13.08,7.12,14.27,.32-6.46,.82-12.85,4.38-18.46,.82-1.28,1.69-2.47,2.61-3.57Z" style="fill:#bae2ed;"></path><path d="M2786.03,2353.79c-1.26-5.5-1.83-11.5-.47-17.05,.72-2.96,1.88-5.72,3.09-8.46-6.1-10.19-8.13-21.2-7.4-33.11-12.29-14.06-12.14-33.31-13.52-50.97-1.15-14.67-3.88-30.07-7.85-44.25-3.03-10.8-7.99-23.66-17.96-29.77-1.24,.98-2.85-.19-2.87-1.51-1.22-.54-2.5-.98-3.85-1.31-16.91-4.18-30.27,8.83-43.47,17.19-6.7,4.24-14.75,8.81-23,8.08-4.54-.4-8.27-2.08-12.27-4.18-3.99-2.1-8.59-5.1-13.26-5.16-12.94-.17-18.87,14.72-19.57,25.43-.78,11.82-.28,23.12-3.15,34.76-1.75,7.1-3.94,14.07-5.94,21.1-1.78,6.27-2.74,12.69-4.07,19.06-2.54,12.19-7.35,22.73-16.8,31.1-7.57,6.71-16.01,12.37-25.42,16.12-3.55,1.42-7.64,2.75-11.6,4.38,.51,1.64,1.01,3.35,1.51,5.13,.65,2.29,1.31,4.53,1.98,6.73,13.83-2.04,27.86-3.58,39.77,5.08,13.65,9.93,24.15,25.11,41.96,27.73,9.26,1.36,23.98-.09,28.01,10.75,3.24,8.73,1.1,17.97,1.62,26.98,.4,6.79,2.55,11.97,8.93,15.04,3.97,1.92,8.35,3.1,12.23,5.23,.15-.11,.31-.21,.5-.28,5.29-1.91,8.88-6.21,14.71-6.86,5.19-.59,10.47-.23,15.6,.69,11.52,2.07,22.32,7.72,31.79,14.5,6.04,4.32,10.83,9.67,16.42,14.48,2.94,2.53,14.11,12.32,14.56,3.08,.32-6.56-5.21-11.29-8.57-16.31-2.71-4.06-5.24-8.43-6.09-13.31-1.47-8.37-.99-18.04,2.66-25.86,6.19-13.28,18.3-15.84,31.11-13.4-2.55-7.3-6-13.98-9.96-20.7-3.73-6.33-7.67-12.92-9.32-20.16Z" style="fill:#bae2ed;"></path><path d="M3035.7,2103.95c-8.15,4.53-19.8,1.4-32.65-6.59,5.21,7.61,11.22,14.61,18.86,19.75,6.32,4.26,12.98,6.9,20.34,8.69,4.34,1.06,9.6,2.6,11.24,7.31,2.67,7.68-2.65,13.49-8.33,17.93-6.76,5.28-14.38,9.22-21.28,14.28-15.46,11.33-33.94,17.64-49.22,29.18-7.95,6.01-15.02,13.72-18.26,23.32-2.54,7.5-2.28,15.93-.82,23.64,2.3,12.16,8.48,29.1,20.62,35.02,8.91-9.54,18.93-17.11,29.47-21.52,49.02-20.56,103.58-107.53,98.04-134.41-5.53-26.88-39.53-32.42-68-16.6Z" style="fill:#bae2ed;"></path><path d="M3031.46,2126.34c-16.28-6.81-26.88-19.75-35.87-34.05-25.67-18.9-54.21-54.14-68.77-85.35-.57,5.22-2.09,10.3-4.84,14.87-10.02,16.7-28.78,24.3-43.14,36.43-18.24,15.39-27.06,37.93-25.53,61.64,1.59,24.58,13.01,48.19,30.54,65.43,8.81,8.67,19.61,16.95,31.85,19.88,12.98,3.1,26.29,1.71,39.48,1.65,.98,0,1.54,.63,1.7,1.37,6.02-9.85,15.87-17.53,25.7-23.28,8.48-4.96,17.38-9.12,25.92-13.95,7.39-4.18,14.09-9.32,21.27-13.82,4.35-2.73,8.8-5.45,12.8-8.69,2.77-2.24,6.81-5.23,7.76-8.89,2.71-10.45-12.47-10.57-18.88-13.26Z" style="fill:#bae2ed;"></path><path d="M2951.32,2223.72c.61-4.79,2.13-9.21,4.3-13.28-.14,.03-.28,.05-.44,.05-16.05,.07-33.19,2.3-48.32-4.47-12.87-5.75-24.29-14.99-33.5-26.29-7.31,5.01-12.83,12.1-19.82,17.51-7.08,5.48-14.8,6.37-23.41,7.41-2.01,.24-8.22,.12-8.48,3.06-.21,2.41-.31,4.83-.65,7.23-.72,5.21-2.08,10.33-3.71,15.32-4.04,12.4-9.46,24.97-17.42,35.39-5.64,7.38-13.29,15.05-23.11,15.23,1.43,3.61,3.32,7.05,5.83,10.23,0,0,0-.01,0-.02,1.63-4.04,4.47-8.54,8.67-10.32,4.26-1.8,8.69-1.73,13.23-1.72,10.67-9.29,25.79-9.55,39.85-5.1,21.31,6.73,38.47,20.42,55.1,34.88,8.64,7.51,18.87,14.15,25.33,23.75,4.82,7.18,8.6,16.17,15.13,22.13,2.74-26.37,15.75-54.91,33.74-75.43-17.62-9.28-24.56-38-22.32-55.57Z" style="fill:#bae2ed;"></path><path d="M2531.29,2218.82c-4.42,.4-8.84,.61-13.25,.12-6.62,14.23-5.6-2.8-2.47,29.61,10.16-6.58,17.14-16.92,15.72-29.74Z" style="fill:#bae2ed;"></path><path d="M2568.91,2240.89c-.49-3.42-.46-7.97-1.25-12.09-.47-.27-.8-.77-.76-1.51,.02-.37,.06-.73,.1-1.08-.95-3.02-2.58-5.57-5.56-6.89-7.52-3.33-16.43-1.96-24.33-1.1-.75,.08-1.5,.16-2.25,.24,1.51,14.94-6.74,26.78-18.92,34.07,.09,1.03,.19,2.1,.29,3.22,3.69,42.76,21.81,25.73,38.34,73.22,3.71-2.12,7.09-4.77,9.92-8.22,5.64-6.87,9.27-15.43,11.62-23.93,2.58-9.32,3.81-19.48,.87-28.89-2.8-8.99-6.72-17.65-8.08-27.04Z" style="fill:#bae2ed;"></path><path d="M2619.07,2213.45c-.11,.06-.24,.11-.37,.16-8.27,2.56-17.78,1.39-26.31,2.08-7.24,.59-20.34,1.54-21.75,10.59,1.24,4.9,1.09,10.34,2.04,15.23,1.99,10.31,7.3,19.84,8.89,30.15,1.52,9.85,.29,19.78-2.9,29.21-2.7,7.96-6.04,16.04-11.61,22.46-2.68,3.09-5.72,5.58-9,7.64,.44-.17,.88-.36,1.32-.53,9.59-3.79,18.25-7.68,26.51-14,10.98-8.41,17.88-18.57,20.73-32.22,1.32-6.33,2.18-12.8,3.95-19.03,1.69-5.96,3.56-11.87,5.15-17.86,1.81-6.79,3.64-13.9,3.87-20.95,.13-4.13,.05-8.26,.16-12.39-.18-.09-.36-.22-.53-.4-.04-.05-.09-.1-.13-.14Z" style="fill:#bae2ed;"></path><path d="M2591.09,2187.92c-6.08-7.42-9.44-15.86-8.45-25.54,.93-9.18,5.74-18.97,13.01-24.8,.72-.57,1.45-1.11,2.2-1.63-.1-.11-.19-.23-.26-.38-2.81-5.45-7.79-8.84-12.26-12.82-4.04-3.6-7.32-7.47-9.44-12.51-4.78-11.36-3.14-23.14-3.82-35.05-25.82,7.38-23.47,40.91-34.38,60.8-2.77,5.06-6.44,9.77-11.35,12.92-6.16,3.96-13.19,6.36-19.3,10.37-7.5,4.92-11.14,12.41-11.17,21.41-.03,7.71,2.74,14.33,6.89,20.34,18.81-3.06,24.51-5.47,17.43,12.83-.22,.57-.44,1.11-.65,1.63,4.38,.39,8.79,.08,13.19-.39,.11-.02,.23-.03,.34-.04,4.11-.44,8.21-1,12.29-1.24,6.73-.39,16.46-.65,21.47,4.89,.74,.82,1.35,1.69,1.87,2.59,3.47-5.69,11.32-7.77,18.07-8.66,5.92-.78,11.89-.95,17.85-1.17,3.85-.14,7.91-.1,11.69-1-.05-.05-.09-.1-.14-.15-7.81-8.07-17.94-13.68-25.08-22.41Z" style="fill:#bae2ed;"></path><path d="M2923.47,1999.18c-1.23-3.09-2.31-6.13-3.21-9.08-12.54-41.37-33.02-72.79-44.91-94.68-13.96,.63-27.94,.58-41.92,.5-14.91-.09-29.84-.2-44.74,.66-12.46,.72-25.52,1.22-36.7,7.4-15.06,8.33-24.11,23.03-30.52,38.6,.5,.97,.15,2.39-1.07,2.66-1.31,3.34-2.5,6.7-3.62,10.03-8.61,25.76-13.59,52.68-17,79.59-1.64,12.98-2.92,25.27,1.31,37.95,3.74,11.21,9.56,21.57,14.1,32.45,.61-2.38,1.61-4.67,3.09-6.75,4.92-6.91,14.39-7.72,22.05-5.96,11.63,2.67,21.9,8.96,33.97,10.07,10.41,.96,21.8-.18,29.74-7.72,11.79-11.21,17.86-30.63,35.29-34.65,1.01-.23,1.91,.3,2.23,1.27,2.95,8.73-1.09,26.54,12,27.25,2.86-8.49,7.13-16.48,12.93-23.35,6.78-8.03,15.13-14.05,23.77-19.91,16.57-11.24,34.18-23.4,33.11-45.73-.01-.22,.02-.42,.07-.6Z" style="fill:#bae2ed;"></path><path d="M2569.17,2034.29c-15-.47-28.07,6.34-42.14,10.36-12.58,3.6-25.53,4.77-38.42,2.08-6.05-1.27-12.17-2.78-17.91-5.11-5.04-2.05-9.87-4.67-15.03-6.43-8.65-2.96-17.26-2.05-23.46,5.18-5.32,6.21-8.08,14.33-9.81,22.21-3.73,16.95-5.15,36.73,.05,53.45,3.12,10.03,7.24,19.49,9.8,29.71,1.34,5.36,2.62,11.57,5.08,16.99,3.31,1.31,6.54,4.21,10.1,9.23,17.39,24.51-5.53,33.21,31.63,31.63,7.53-.32,14.09-1.1,19.68-1.92-3.35-5.07-5.83-10.65-6.35-16.81-.67-8,.75-17.18,6.35-23.32,10.14-11.12,27.04-12.07,34.94-25.84,12.03-20.96,9.43-55.35,36.4-63.71-.06-.28-.05-.59,.07-.93,4.16-11.98,2.29-24.64-.62-36.78-.11,.02-.23,.03-.35,.02Z" style="fill:#bae2ed;"></path><path d="M2384.48,2083.34c-8.34,.13-15.79-3.27-23.92-4.52-8.9-1.37-16.33,1.18-23.03,7.13-5.77,5.11-11.33,11.69-13.61,19.2-2.39,7.87-2,17.2-2.07,25.37-.08,9.09,.18,18.22,1.27,27.25,.93,7.73,2,16.3,5.8,23.24,3.6,6.57,9.33,10.77,15.71,14.06,8.12-1.97,16.73-4.37,26.29-7.14,0-.35,0-.71,0-1.06,.31-8.23,3.68-14.69,7.17-21.93,7.95-16.51,5.69-36.08,5.36-53.87-.17-9.23-.41-18.59,1.03-27.74Z" style="fill:#bae2ed;"></path><path d="M2271.88,2184.82c-3.97-6.24-5.29-13.37-7.55-20.3-2.46-7.53-6.43-14.05-12.6-19.12-11.57-9.5-25.84-13.73-40.57-10.77-7.06,1.42-15.13,4.01-21.2,8.62,11.37,25.13,23.82,42.14,51.91,49.26,17.39,4.41,31.74,6.99,44.73,8.04-4.37-5.98-12.3-11.93-14.71-15.73Z" style="fill:#bae2ed;"></path><path d="M2325.32,2181.94c-3.56-7.54-4.92-15.95-5.84-24.17-1.12-10.05-1.48-20.19-1.21-30.3,.22-8.39-.26-17.96,3.11-25.83,.47-1.1,1.01-2.19,1.57-3.26-.3,.1-.63,.13-1.01,.03-6.83-1.67-13.72-.79-20.59-1.82-5.37-.8-10.23-3.26-15.04-5.64-4.26-2.11-10.45-5.99-15.44-4.41-2.96,.94-5.35,3.2-7.29,5.55-5.47,6.64-9.2,14.95-11.66,23.15-1.72,5.71-4.55,14.37-1.89,20.24,.2,.13,.39,.3,.54,.52,1.53,2.17,2.42,4.69,3.82,6.93,6.03,5.25,10.51,11.66,13.02,19.34,2.97,9.1,4.35,18.7,11.85,25.39,3.67,3.28,8.66,8.08,11.49,13.15,16.99,.96,31.86-.77,48.6-4.52-5.88-3.47-10.99-7.9-14.04-14.36Z" style="fill:#bae2ed;"></path><path d="M2374.07,2039.74c-3.81-4.02-7.43-8.78-8.94-14.19-1.39-4.98-1.68-10.15-2.86-15.17-8.46,2-16.53,7.56-23.9,11.84-8.97,5.21-17.71,11.02-26.1,17.12-14.97,10.89-25.42,28.81-26.43,47.4,4.93,2.49,9.92,5.36,15.3,6.17,7.26,1.09,14.57,.24,21.78,2,.75,.18,1.14,.69,1.26,1.26,3.07-5.19,7.13-9.9,11.77-13.61,6.04-4.82,12.81-8.4,20.76-7.81,9.57,.7,18.44,5.2,28.1,4.95,.11,0,.21,.01,.3,.02,.95-5.06,2.39-10.36,5.69-14.29,1.34-1.59,2.88-2.8,4.56-3.71-.98-12.18-13.94-14.24-21.28-21.99Z" style="fill:#bae2ed;"></path><path d="M2211.15,2114.32c-1.7-6.41-6.29-9.74-12.41-11.7-7.58-2.43-18.15-4.71-26.52-2.15,6.2,14.64,11.17,27.82,16.24,39.4,6.29-4.58,14.28-7.34,21.51-8.7,1.35-5.35,2.62-11.41,1.18-16.85Z" style="fill:#bae2ed;"></path><path d="M2252.46,2103.38c-.12-.1-.23-.21-.33-.35-7.26-9.97-5.41-23.91-13.68-33.32-8.07-9.17-20.39-7.75-31.49-8.13-13.16-.44-29.16-1.68-40.28,6.79-2.35,1.79-4.43,3.85-6.3,6.07,3.89,7.91,7.33,15.5,10.44,22.75,9.7-3.12,21.81-.72,30.68,2.56,14,5.18,15.17,18.09,12.33,30.84,11.74-1.4,23.14,.9,33.16,6.97,0,0,0-.01-.01-.02-3.19-6.62-.85-15.66,1.14-22.29,1.19-3.96,2.6-7.99,4.34-11.88Z" style="fill:#bae2ed;"></path><path d="M2149.51,2053.86c3.29,5.81,6.31,11.49,9.09,17,1.87-2.08,3.93-3.99,6.25-5.63,2.18-1.53,4.47-2.76,6.86-3.75-5.45-8.15-13.61-8.15-22.2-7.62Z" style="fill:#bae2ed;"></path><path d="M2186.54,2029.29c-3.17-8.56-6.75-16.95-11.54-24.82-4.29-7.05-10.06-13.54-17.92-16.28,.06,.63,.11,1.26,.17,1.9,3.95,41.91-60.09-23.72-12.65,55.35,.98,1.63,1.92,3.24,2.85,4.84,4.61-.38,9.24-.81,13.76-.04,6.31,1.08,10.74,4.65,14,9.97,6.77-2.1,14.1-2.56,21.33-2.53-3.29-8.75-6.11-17.7-9.3-26.5-.59-.36-.96-1.03-.7-1.9Z" style="fill:#bae2ed;"></path><path d="M2365.32,2007.7c10.08,.53,19.56,4.69,29.78,4.22,9.67-.44,19.73-2.68,28.33-7.26,9.14-4.86,13.82-12.25,14.89-22.54,.43-4.12,.52-8.25,.46-12.39-.07-4.58,.11-9.44-2.28-13.55-4.71-8.11-14.25-12.64-21.6-18.02-8.64-6.32-17.12-12.87-25.98-18.88-8.86-6.01-18.03-10.97-27.58-15.76-8.94-4.48-17.41-9.95-26.61-13.89-12.03-5.16-24.49-6.67-36.8-1.48-11.69,4.93-22.11,14.11-25.25,26.82-6.46,26.14,4.18,53.22,5,79.42,.11,3.55-.13,8.57-3.98,10.26-3.71,1.63-7.87,1.27-11.81,.88-8.8-.86-17.68-.85-26.52-.44-18.21,.85-38.23,5.04-44.95,24.07,3.45,9.5,6.45,19.21,10.01,28.56,2.2,.05,4.38,.13,6.52,.2,10.95,.37,24.32-1.03,32.68,7.69,4.14,4.32,6.9,9.64,8.43,15.4,1.69,6.34,2.72,13,6.19,18.63,1.89-3.64,4.11-7.09,6.75-10.14,6.06-6.99,12.62-8.29,21.19-4.52,.04,.02,.07,.03,.11,.05,1.51-18.26,11.44-36.15,25.97-47.25,9.32-7.12,19.42-13.87,29.69-19.54,7.91-4.37,16.09-10.2,25.15-11.76,.96-.16,1.9,.23,2.21,1.2Z" style="fill:#bae2ed;"></path><path d="M2195.9,1877.5c4.75-9.3,10.52-18.27,18.09-25.53,3.85-3.7,8.04-7.1,12.57-9.93,3.65-2.28,7.56-4.1,11.06-6.62,5.67-4.08,14.6-11.34,14.43-19.16-.15-6.88-7.54-9.73-14.85-11.05-31.23,31.12-61.11,58.89-68.88,83.67-2.29,7.29-4.24,13.88-5.88,20.04,6.63-.16,13.77-.87,18.86-5.36,7.61-6.73,10.11-17.3,14.59-26.07Z" style="fill:#bae2ed;"></path><path d="M2293.01,1730.17c2.2,.19,5.18,.01,9.42-.43-2.97,3.34-6.27,7.57-9.97,12.87-14.79,21.17-33.74,41.07-52.42,59.77,.9,.21,1.82,.44,2.75,.71,.29-.27,.69-.44,1.21-.41,11.26,.53,22.23-1.09,31.64-7.68,7.88-5.52,14.36-12.75,21.79-18.83,9.81-8.02,22.47-12.81,31.42-21.77,4.15-4.16,7.66-8.87,8.77-14.76,.23-1.23,.42-2.47,.57-3.71-3.64-2.92-6.52-7.39-9.6-11.03-7.04-.16-14.22,.66-20.91,1.82-4.92,.86-9.94,1.84-14.68,3.44Z" style="fill:#bae2ed;"></path><path d="M2280.79,1894.97c-.01-10.33-.52-20.82,.09-31.13,.57-9.67,2.38-19.47-1.44-28.74-5.03-12.18-13.98-19.51-25.16-24.61,.54,.94,.93,1.98,1.14,3.14,1.18,6.65-2.86,12.83-7.27,17.46-6.16,6.46-13.59,9.93-20.88,14.82-9.38,6.3-17.15,14.54-23.06,24.17-3.06,4.98-5.77,10.16-8.15,15.49-2.06,4.62-3.74,9.52-6.51,13.79-3.79,5.85-8.99,10.33-15.91,11.93-3.98,.92-8.06,1.25-12.16,1.35-6.15,24.37-7.21,42.42-4.74,71.73,7.62,2.36,13.9,7.3,18.52,13.88,5.65,8.04,9.77,16.88,13.3,25.99,6.68-13.72,20.67-19.94,35.9-21.85,8.91-1.11,17.88-1.12,26.84-1.1,4.4,.01,8.7,.61,13.08,.84,2.14,.12,5.55,.63,7.46-.59,2.77-1.76,2.32-5.54,2.1-8.37-1.04-13.61-3.41-26.89-5.21-40.4-1.55-11.66-2.68-24.42-.21-36.05,1.76-8.28,6.2-15.79,12.25-21.75Z" style="fill:#bae2ed;"></path><path d="M2587.19,1906.36c-13.24-3.16-23.2-12.86-34.43-19.97-5.9-3.74-12.81-7.56-20.04-7.22-8.29,.39-16.82,3.46-24.09,7.37-15.17,8.16-27.98,19.85-41.72,30.1-7.16,5.34-15.05,10.31-21.39,16.65-4.32,4.32-8.4,9.24-13.68,12.43,2.49,1.94,4.86,4.08,6.6,6.72,5.28,8,4.59,19.29,3.64,28.46-.92,8.9-3.61,18.33-11.41,23.66-8.79,6-19.53,9.43-30.07,10.58-5.42,.59-10.9,.69-16.29-.29-6.08-1.1-11.99-2.97-18.15-3.45,1.01,5.72,1.16,11.87,3.98,16.93,3.29,5.9,7.8,10.97,13.64,14.44,7.61,4.51,13.83,8.64,15.06,17.51,6.03-1.85,13.15-1.17,19.25-1.16,.51,0,.9,.18,1.19,.45,2.53-10.73,7.15-21.66,16.49-26.84,7.6-4.22,15.55-3.3,23.38-.09,11.17,4.59,21.69,9.41,33.79,11.19,14.3,2.11,28.02-.65,41.49-5.42,11.16-3.95,22.22-8,34.21-7.75-.54-2.12-1.1-4.23-1.65-6.31-3.11-11.78-3.17-22.44,2.9-33.37,3.29-5.93,7.17-11.4,9.91-17.65,2.63-6.03,4.75-12.29,6.28-18.69,3.22-13.53,4.02-26.47,2.17-40.25-.29-2.2-.7-4.98-1.05-8.03Z" style="fill:#bae2ed;"></path><path d="M2367.22,1597.16c-1.02-.33-2.03-.68-3.04-1.03-3.11,6.96-9.42,8.47-21.11,5.74-23.72-5.53-77.49-11.07-79.86,18.19-2.37,29.25-37.16,28.46-.79,68,22.55,24.51,21.7,35.95,25.72,40.17,7.38-2.82,15.04-4.62,22.96-5.65,6.47-.84,13.18-1.45,19.8-1.16,30.51-15.08,64.97-47.75,73.05-65.77,10.28-22.93,20.56-41.91,34-49.81,.24-.14,.49-.29,.73-.44-23.97-.1-48.52-.93-71.46-8.22Z" style="fill:#bae2ed;"></path><path d="M2582.64,1647.73c9.49,15.81,19.77,8.7,9.49,26.88s-58.51,4.74-40.32,21.35c18.19,16.6,9.49,29.25,25.3,18.98,15.81-10.28,33.21-25.3,41.12-45.86,7.91-20.56-3.16-22.14-35.58-57.72-27.79-30.5-64.29-54.03-49.24-51.16,.21-1.3,.67-2.55,1.39-3.71,1.11-1.81,3.5-3.93,.28-5.01-6.8-2.28-13.64,.57-20.37,1.82-11.88,2.19-25.16-.22-35.53,7.28-.92,8.49-1.66,16.94-1.39,25.6,0,.04,0,.07,0,.11,2.9-.35,5.95-.44,9.19-.21,22.14,1.58,22.14-1.58,49.81,19.77,27.67,21.35,36.37,26.09,45.86,41.91Z" style="fill:#bae2ed;"></path><path d="M2522.22,1547.9c.21-.04,.42-.08,.63-.13,.05-7.53,1.76-17.89-7.71-20.14-11.62-2.75-22.49,1.46-33.47,4.73-.21,5.62-.63,11.23-1.24,16.82-.24,2.26-.5,4.5-.75,6.74,5.53-3.14,12.04-4.25,18.33-4.86,4.26-.41,8.53-.61,12.78-.99,3.91-.35,7.59-1.4,11.42-2.17Z" style="fill:#bae2ed;"></path><path d="M2474.79,1438.99c.13-.15,.26-.29,.39-.44-.89-2.17-2.06-4.28-3.56-6.36-5.89-8.17-13.53-14.83-19.57-22.87-.82-1.09-1.6-2.2-2.36-3.32-2.17,3.89-4.05,8.11-5.41,13.22-6.33,23.72-7.12,18.98-35.58,45.86-1.16,1.1-2.26,2.16-3.31,3.19,19.49-3.84,45.46-4.27,61.28,8.58,6.1-4.71,9.16-12.96,10.27-20.34,.76-5.09,.67-9.85-.54-14.37-1.41,.24-2.85-1.72-1.61-3.14Z" style="fill:#bae2ed;"></path><path d="M2519.43,1525.35c2.43,1.25,4.05,2.98,5.12,4.98,.17-.07,.35-.12,.56-.14,22.82-1.96,44.43-18.61,54.38-38.94,2.84-5.8,4.79-11.93,4.1-18.47-.64-6.03-2.68-11.72-4.1-17.58-1.39-5.76-2.08-11.65-3.45-17.4-1.56-6.58-4.47-12.1-8.8-17.29-4.02-4.81-8.52-9.12-12.99-13.5-3.29-3.23-5.76-6.68-8.54-10.31-3.31-4.31-7.86-4.44-12.92-3.81-4.86,.61-11.84,1.4-15.48,5.06-4.29,4.31-4.68,10.37-7.44,15.53-2.24,4.19-5.32,7.76-9.3,10.41-4.38,2.91-9.43,4.72-13.61,7.93-2.76,2.12-5.14,4.64-7.44,7.24,4.59,12.81,.35,31.44-10.16,40.24,2.41,2.4,4.53,5.16,6.25,8.37,4.24,7.89,5.3,16.87,5.85,25.7,.32,5.05,.39,10.11,.3,15.17,11.53-3.52,26.1-9.14,37.66-3.19Z" style="fill:#bae2ed;"></path><path d="M2627.85,1496.56c-.07-.4-.02-.81,.14-1.19,.16-4.41-3.87-8.47-8.34-10.86-6.45-3.45-13.84-5.23-21.04-6.19-3.91-.52-8.13-1.03-11.42-3.24-.07,9.01-3.44,17.34-8.62,25.01-1.12,1.66-2.31,3.29-3.55,4.88,9.13,1.6,17.78,3.2,27.1,3.45,2.91,.08,6.17,.17,8.9,1.33,5.05-2.4,10.82-4.91,14.61-9.1,1.23-1.36,1.94-2.74,2.22-4.1Z" style="fill:#bae2ed;"></path><path d="M2685.34,1615.63c-6.98-3.67-13.8-1.9-21.1-.74,5.11,8.81,5.67,21.59,5.73,31.39,6.43-5.22,13.56-9.65,19.97-13.48,1.03-.61,2.09-1.26,3.2-1.87,0-.13,.03-.26,.06-.4,1.72-6.53-2.21-11.92-7.87-14.9Z" style="fill:#bae2ed;"></path><path d="M2628.4,1569.19c-9.19-1.72-20.89-2.29-29.68,1.36-5.55,2.3-10.41,5.85-15.66,8.65,22.94,10.88,40.98,23.5,47.82,39.28,1.14,2.64,2.08,4.96,2.88,7.05,2.61-10.46,6.65-21.03,15.83-20.55-.31-7.25-3.63-14.5-6.37-21.02-3.08-7.34-6.44-13.2-14.81-14.77Z" style="fill:#bae2ed;"></path><path d="M2661.91,1379.79c5.57,7.54,9.55,16.41,11.47,25.12,2.23,10.06,3.23,19.97,8.22,29.19,4.37,8.09,9.6,15.95,16.46,22.15,.05,.05,.08,.09,.13,.14,2.99-.71,6.07-1,8.91-.88,16.19,.68,30.5,11.52,46.76,10.96,9.6-.33,16.5-5.05,24.04-10.42,4.9-3.49,9.48-5.67,14.84-6.71-6.42-8.99-9.95-19.57-16.09-28.74-7.25-10.83-17.76-17.07-30.2-19.99-3.6,5.78-11.21,10.56-17.05,13.76-7.53,4.14-14.42,9.4-21.98,13.41-7.71,4.09-15.54,5.56-23.36,.89-2.01-1.2-.18-4.34,1.83-3.14,9.37,5.59,18.4,.31,26.46-5.08,6.12-4.09,12.49-7.53,18.83-11.25,3.58-2.1,9.74-5.55,12.51-9.96-.31-.88,.16-2.05,1.12-2.42,.38-1.29,.43-2.64,.03-4.06-1.68-5.94-7.94-9.36-13.25-11.6-13.07-5.53-26.97-6.45-40.81-8.56-7.64-1.17-14.81-2.98-21.55-5.71,.83,5.11,.45,9.17-7.31,12.9Z" style="fill:#bae2ed;"></path><path d="M2763.55,1533.63c-3.37-10.66-8.75-21.19-21.48-21.06-5.74,.06-11.96,1.4-17.07,4.07-5.23,2.74-9.92,6.39-15.15,9.13-5.31,2.78-10.5,4.52-16.54,3.74-3.58-.46-6.95-1.87-10.12-3.61-1.57,5.67-7.5,11.65-10.12,15.46-2.67,3.89-5.08,8.53-9.86,10.09-7.11,2.31-14.65,2.75-21.43,6.18-6.26,3.17-12.42,5.55-19.4,2.91-5.79-2.19-10.62-5.85-15.16-9.93-.51,20.19-34.17,18.09-48.94,11.13-.27-.13-.48-.29-.63-.48-2.26,1.34-4.39,2.91-6.35,4.78,9.6,3.56,18.9,7.27,27.58,11.21,4.18-1.89,7.95-4.48,11.98-6.79,4.68-2.68,9.32-4.42,14.65-5.31,8.4-1.4,19.66-1.64,27.76,1.62,7.02,2.82,10.19,8.4,13,15.1,3.11,7.41,6.93,15.59,7,23.83,.23,.07,.45,.14,.69,.23,3.32,1.21,5.94,3.19,8.03,5.69,.09-.03,.17-.05,.27-.07,9.46-1.41,18.74-3.9,27.13,2.31,5.2,3.85,8.47,8.93,7.8,15.16,1.61-.59,3.26-.97,4.96-.95,4.98,.07,9.76,2.17,13.91,4.81,.49,.31,.95,.65,1.43,.98,8.08-10.32,20.57-12.09,33.01-12.35,.02-.19,.04-.39,.06-.58,1.31-9.78,6.48-18.77,11.6-26.99,3.79-6.1,5.1-11.38,5.84-18.48,.42-4.08,1.09-8.09,1.94-12.08-2.01,.94-5.15,1.55-6.81-.44-2.59-3.11-2.99-7.98-1.91-11.78,1.76-6.15,4.43-10.93,2.34-17.53Z" style="fill:#bae2ed;"></path><path d="M2908.72,1753.02c6.47,2.07,14.01,4,20.68,1.63,11.74-4.17,12.96-17.2,13.56-28.05,.53-9.61-.15-19.57,1.79-29.04-4.02,.02-8.04,.1-12.01,.28-7.61,.33-15.27,1.11-22.66,3.05-6.53,1.72-12.56,4.31-18.78,6.89-4.19,1.73-8.47,3.24-12.58,5.18-1.67,.79-3.89,1.71-5.87,2.91,1.34,1.05,1.88,4.48,1.54,13.29-.07,1.75-.05,3.48,0,5.19,4.79,3.69,9.45,7.61,14.8,10.66,5.99,3.42,12.94,5.9,19.51,8Z" style="fill:#bae2ed;"></path><path d="M2880.49,1862.11c.19-10.63,.23-21.25-1.23-31.8-6.57,.14-12.73-4.97-15.79-11.82-5.51-12.34-2.16-26.62-1.49-39.79-2.31,1.7-5.01,3.37-8.14,5.02-30.05,15.81-35.58,19.77-76.7,12.65-41.11-7.12-82.23-37.95-105.16-22.93-22.93,15.02,6.33,30.05-26.88,31.63-33.21,1.58-71.16-35.58-90.14-35.58s-19.66-.73-32.7-23.26c-4.04,7.8-8.41,15.38-14.48,21.86-.28,.3-.74,.5-1.2,.53-18.4,37.56,16.06,73.69,31.46,106.26,.2,.42,.23,.83,.15,1.2,5.06,.99,9.85,3.14,14.27,5.84,11.31,6.92,21.36,16.98,34.36,20.6-1.16-13.79,.03-30.21,16.82-24.71,21.59,7.07,42.49,18.76,60.43,32.61,8.83,6.81,17.42,14,26.81,20.05,8.16,5.26,17.14,10.26,26.96,11.06,4.79-11.85,11.04-23.11,20.15-31.73,17.35-16.41,40.61-16.82,63.25-17.37,24.07-.59,48.18,.4,72.23-.57-2.24-4.29-4.09-8.19-5.38-11.67-4.17-11.25,2.87-19.2,12.42-18.08Z" style="fill:#bae2ed;"></path><path d="M3162.36,1938.23c-4.2-8.09-10.6-14.73-15.39-22.39-5.56,3.96-14.83-.42-34.58-26.96-23.07-31.01-37.27-49.51-45.88-60.48-14.05-3.6-28.71-2.31-42.79-5.98-13.48-3.52-26.55-9.06-38.21-16.74-11.27-7.43-21.28-17.52-33.34-23.64-12.34-6.25-25.06-6.34-37.83-1.24-.78,.31-1.4,.05-1.78-.44-2.81,5.35-5.48,10.83-7.84,16.36-4.27,9.99-8.31,23.07-16.99,30.23-1.6,1.32-3.25,2.21-4.9,2.74,1.49,11.03,1.45,22.12,1.26,33.22,7.78,2.66,16.45,11.2,21.94,28.32,13.44,41.91,34,83.81,65.63,122.55,3.6,4.41,6.57,8.25,9.05,11.61,1.66-1.09,3.54-1.9,5.67-2.34,9.12-1.86,17.1,5.49,26.01,5.93,11.15,.55,23.06-5.29,32.11-11.37,8.24-5.54,14.81-14.1,23.85-18.38,8.51-4.03,18.41-6.08,27.7-7.28,8.29-1.07,16.51-1.66,23.86,3.05,4.14,2.65,7.64,6.09,9.55,10.41,.48-1.43,1.16-2.86,2.1-4.28,2.76-4.16,7.64-6.49,11.88-8.78,5.94-3.21,11.3-7.34,15.11-13.02,7.64-11.41,10.34-28.55,3.81-41.13Z" style="fill:#bae2ed;"></path><path d="M3127.3,2011.13c-.74-8.34-9.48-14.92-17.34-16.12-8.6-1.31-18.51,1-26.8,3.15-4.72,1.22-9.98,2.41-14.22,4.9-3.96,2.33-7.4,5.26-10.81,8.31-6.47,5.79-13.29,11.02-21.18,14.78-7.99,3.81-17.01,7.32-26,6.34-7.77-.85-15.3-7.01-23.19-5.96-1.85,.25-3.49,.88-4.97,1.81,16.3,23.09,6.45,21.38,21.27,36.87,15.98,16.71,90.01-1.95,130.14-32.07-1.84-6.74-5.19-13.6-5.63-20.38-.65-.22-1.2-.77-1.28-1.63Z" style="fill:#bae2ed;"></path><path d="M3223.09,1929.21c-3.16-18.19-24.51-30.84-51.39-40.32-14.61-5.16-15.91,15.38-22.17,24.28,5.34,8.9,13.37,16.18,17.22,25.96,4.41,11.22,3.61,25.58-1.74,36.37-2.83,5.71-6.81,10.93-11.8,14.94-4.23,3.4-9.22,5.37-13.71,8.35-12.31,8.16-5.59,20.61-2.18,31.95,2.39-1.91,4.64-3.87,6.72-5.86,36.37-34.79,82.23-77.49,79.07-95.67Z" style="fill:#bae2ed;"></path><path d="M3060.35,1815.16c-14.61-17.42-30.54-34.2-40.81-54.62-5.5-10.93-9.15-22.68-14.75-33.57-5.47-10.64-12.42-19.97-21.82-27.46-.17-.14-.3-.29-.4-.44-2.66-.22-5.31-.45-7.91-.61-8.68-.51-17.53-.86-26.34-.9,.03,.22,.04,.45-.02,.7-2.34,11.09-.92,22.78-2.17,34.02-1.16,10.4-3.61,20.73-14.05,25.24-2.95,1.27-6.03,1.84-9.17,1.91-.4,6.32-4.84,10.79-7.82,16.24-.23,.42-.45,.84-.67,1.26,11.69-4.42,23.71-4.79,35.42,.03,12.61,5.19,22.62,15.42,33.74,23.06,12.51,8.59,26.33,15.27,41.11,18.92,12.59,3.1,25.61,2.56,38.26,4.97-.67-.84-1.3-1.63-1.88-2.35-1.6-2-1.66-4.44-.71-6.39Z" style="fill:#bae2ed;"></path><path d="M3519.56,1848.76c11.41,2.32,22.95-.43,34.16,3.54,13.09,4.63,27.17,14.43,41.61,10.31,5.59-1.6,15.5-4.04,18.66-9.5,1.91-3.29,2.72-7,4.8-9.95-4.16-.56-8.32-1.09-12.43-1.68-15.09-2.2-29.41-1.04-44.53-.12-11.23,.69-22.41,.63-32.52-4.97-8.37-4.63-15.2-11.36-22.2-17.78-4.8,11.15-.32,27.55,12.46,30.16Z" style="fill:#bae2ed;"></path><path d="M3454.98,1733.73c-1.45-1.7-3.14-3.22-5.15-4.52,1.68,1.55,3.4,3.05,5.15,4.52Z" style="fill:#bae2ed;"></path><path d="M3715.58,1826.28c-7.79,.24-15.02,5.78-21.24,9.94-10.56,7.06-25.35,18.2-37.6,9.82-.11,.07-.22,.12-.35,.17-7.41,2.83-14.74,.85-22.21-.62-3.67-.72-7.39-1.31-11.12-1.84-2.81,2.26-3.34,6.04-4.87,9.18-1.36,2.79-3.16,4.83-5.82,6.45-5.85,3.57-13.2,6.78-20.07,7.57-17.01,1.95-30.26-10.33-46.31-13.01-11.38-1.9-25.86,2.39-35.7-5.33-8.96-7.03-10.96-22.45-6.01-32.57-8.64-7.88-16.31-16.49-22.61-26.38-6.18-9.7-12.05-20.26-15.94-31.11-2.74-7.65-4.58-16.29-9.29-22.93,.03,1.31-1.8,2.55-3.18,1.42-3.5-2.88-6.86-5.96-10.08-9.19-3.91,1.21-6.84,5.88-10.98,8.19-3.6,2.01-7.41,2.63-11.5,2.39-4.71-.28-11.07-1.65-15.35,.97-10.61,6.49,.79,21.44,3.57,29.71,3.66,10.92,5.64,23.47,1.17,34.45-3.71,9.12-9.16,17.21-16.83,23.47-3.99,3.26-8.24,6.17-12.67,8.8-4.5,2.67-9.77,5.17-12.69,9.73-5.52,8.62-1.2,20.32,4.17,28.01,4.93,7.07,12.79,15.09,9.61,24.45-2.93,8.58-13.19,10.48-20.21,14.27-4.51,2.44-7.33,5.39-7.01,10.77,.14,2.37,.66,5.83,2.26,7.99,.35,.35,.69,.71,1.03,1.08,.8,.62,1.78,.98,3,.91,2.13-.11,2.31,2.87,.58,3.51,.32,.46,.64,.92,.94,1.39,15.81,24.51,41.11,14.23,52.98,10.28s-15.02,9.49,16.6,78.28c31.63,68.79,37.95,86.18,45.86,96.46,7.91,10.28,28.46,4.74,41.11,4.74s11.07,26.88,18.98,34.79c7.91,7.91,18.98-42.7,15.02-66.42-3.95-23.72-23.72-22.93-5.53-50.6,18.19-27.67,69.58-52.98,78.28-72.74,8.7-19.77,1.58-60.09,38.74-34,7.94,5.58,14.62,13.28,20.46,21.91,.58-1.09,1.05-2.08,1.38-2.75,2.59-5.22,4.64-10.67,6.56-16.17,1.57-4.5,3.13-8.99,4.8-13.45,3.31-8.84,4.56-18.01,5.23-27.38,.62-8.66,.4-18.38,3.47-26.6,2.43-6.52,7.83-11.74,13.03-16.11,2.83-2.38,6.07-4.53,8.54-7.28,2.25-2.5,4.22-5.25,6.54-7.68,2.01-2.12,4.26-4.05,6.81-4.97-2.94-1.88-5.85-3.8-8.81-5.66-4.93-3.11-10.66-6.48-16.71-6.29Z" style="fill:#bae2ed;"></path><path d="M3802.92,1946.62c-3.14-4.82-7.86-8-12.46-11.3-4.34-3.12-8.31-6.55-11.71-10.7-3.69-4.49-7.09-9.14-11.1-13.36-3.37-3.55-7.02-7.15-9.56-11.38-2.16-3.61-4.14-8.23-2.77-12.5,1.58-4.92,5.36-8.93,6.07-14.13,.91-6.71,.08-13.48-2.59-19.7-2.32-5.39-6.44-8.57-11.4-11.45-.19-.11-.37-.23-.56-.34-.18,0-.37-.02-.58-.09-6.91-2.32-11.98,7.65-15.93,11.78-5.08,5.31-11.6,9.04-16.28,14.82-6.53,8.05-6.67,17.99-7.37,27.91-.59,8.43-1.04,17.04-3.21,25.25-2.88,10.88-7.22,22.12-11.57,32.5-1.03,2.47-2.64,6.62-4.87,10.15,19.98,31.38,30.22,72.3,50,68.7,10.39-1.89,21.53-9.79,31.07-14.43,1.3-6.2,3.52-12.19,4.83-18.42,1.39-6.63,3.16-12.82,7.21-18.34,2.46-3.36,6.24-5.91,9.54-8.37,8.32-6.17,20.91-14.83,13.24-26.61Z" style="fill:#bae2ed;"></path><path d="M3855.09,1968.39c7.56,6.11,15.42,11.78,24.75,14.87,3,.99,6.02,1.75,9.08,2.33-3.55-6.11-2.65-12.35,4.67-20.8,2.95-3.4,5.49-6.18,7.84-8.49-3.8-4.91-8.55-9.29-12.94-13.34-6.9-6.37-14.26-12.82-22.54-17.36-18.9-10.37-38.27,7.35-52.81,19.77,15.26,5.84,29.19,12.71,41.96,23.03Z" style="fill:#bae2ed;"></path><path d="M3798.32,1971.03c7.81,1.1,15.24,4.39,19.82,11.18,5.02,7.43,5.09,15.5,6.23,24.05,.3,2.27,.56,3.17,2.95,3.02,3.47-.22,6.9-.84,10.36-1.2,8.62-.89,17.8-.74,25.91,2.62,6.97,2.9,12.38,8.5,16.3,14.84,2.82,4.56,4.79,9.56,7.61,14.12,2.92,4.73,6.26,9.15,9.66,13.54,6.19,8,12.98,16.26,16.11,26.05,2.32,7.23,3.37,16.2-1.68,22.58-3.78,4.77-9.62,6.69-15.22,8.44-3.05,.96-6.36,1.94-8.73,3.79,.14,.06,.28,.11,.42,.17,22.14,8.7,89.35-49.81,52.18-84.6-20.99-19.65-39.71-30.22-48.32-39.97-12.53-1.93-24.16-6.64-34.57-14.81-6.95-5.46-13.72-11.05-21.46-15.38-7.6-4.25-15.64-7.51-23.76-10.61-.77-.3-1.15-.94-1.21-1.6-.84,.71-1.67,1.39-2.47,2.04-.12,.1-.24,.17-.37,.24,1.73,6.14,.11,12.22-4.79,17.24-1.49,1.53-3.18,2.92-4.95,4.27Z" style="fill:#bae2ed;"></path><path d="M3882.19,2073.17c-3.81,5.15-11.14,5.04-16.82,4.23-7.54-1.07-15.45-3.79-20.12,4.07-2.25,3.79-4.73,7.77-6.22,11.97,13.06,3.66,31.54,13.36,44.93,19.1,3.63-3.66,9.69-5.07,14.93-6.9,7.08-2.47,12.53-6.74,12.68-14.86,.22-11.31-6.68-21.47-13.23-30.11-1.52-2-3.01-3.98-4.49-5.96-7.9,3.26-7.09,12.27-11.66,18.46Z" style="fill:#bae2ed;"></path><path d="M3792.37,2051.77c-.88,36.86,.68,60.08,4,76.01,5.02-4.25,10.89-7.85,15.22-12.78,5.16-5.87,8.47-12.95,12.21-19.74,1.52-3.38,5.84-3.88,11.73-2.67,1.73-4.49,3.98-8.9,6.58-12.95,4.09-6.35,9.22-7.94,16.57-6.98,8.36,1.1,18.96,4.56,22.68-5.74,2.33-6.46,4.16-12.18,10.3-15.18-4.21-5.79-8.14-11.69-11.48-18.22-3.94-7.69-9.03-15.45-17.19-19.14-8.56-3.86-18.53-3.53-27.65-2.42-3.42,.42-11.08,2.84-13.41-1.19-1.15-1.98-1.24-4.45-1.44-6.68-.39-4.39-.58-8.86-2.03-13.06-3.62-10.52-12.28-15.92-23.14-16.71-.42-.03-.76-.18-1.03-.39-4.94,3.51-9.92,7.05-12.83,12.09-3.47,6.02-4.44,12.61-5.97,19.27-.68,2.93-1.51,5.79-2.43,8.65-.25,.76-.56,1.64-.86,2.59,12.31-4.74,21.02-.86,20.16,35.22Z" style="fill:#bae2ed;"></path><path d="M3818.09,2167.36c5.14,2.01,10.03,4.48,14.01,8.56,7.15,7.33,12.03,16.42,16.73,25.42,8.32,15.93,17.47,35.02,34.83,42.48,7.62-11.54,4.3-51.21-13.81-72.67-19.59-23.22-42.5-49.77-46.14-68.04-2.29,4.3-4.67,8.56-7.74,12.31-4.22,5.15-9.66,8.79-14.76,12.98-1.32,1.09-2.65,2.21-3.94,3.39,2.59,10.51,6.04,17.59,10.11,23.54,3.39,4.96,7.3,8.54,10.7,12.02Z" style="fill:#bae2ed;"></path><path d="M3995.57,2366.45c-15.02-3.95-75.9-32.42-76.7-40.32-.79-7.91,48.23,18.19,15.02-16.6-33.21-34.79-60.88-58.51-81.44-73.53-1.55-1.13-2.79-2.02-3.75-2.72,6.3,4.21,21.7,13.79,29.85,13.79,.82,0,1.59-.19,2.3-.55-15.59-7.48-24.74-23.54-32.59-38.43-5.16-9.79-9.96-20.6-17.78-28.61-2.08-2.13-4.37-3.83-6.79-5.27,3.28,5.4,4.31,12.19,.31,23.85-8.7,25.3-40.32-5.53-60.88-11.07-20.56-5.53,22.14,33.21,28.46,51.39,6.33,18.19,15.81,60.88,23.72,71.16,7.91,10.28,54.56,50.6,79.07,64.04,24.51,13.44,101.21,40.32,154.18,40.32s-37.95-43.49-52.98-47.44Z" style="fill:#bae2ed;"></path><path d="M4109.44,1626.21c-2.64,2.56-5.45,5.4-7.79,8.52,7.89,16.23,19.09,24.93,28.17,39.56,6.31-6.64,15.77-12.29,24.45-16.79-13.18-15.82-25.57-26.16-30.24-44.86-4.82,4.57-9.82,8.95-14.59,13.58Z" style="fill:#bae2ed;"></path><path d="M4124.48,1563.44c-7.73-11.6-19.05-20.86-30.4-28.64-20.51-14.06-46.83-11.13-69.25-20.25-18.05-7.34-33.85-20.93-48.8-33.11-31.07-25.31-64.35-53.5-106.97-49.23-.6,14.46,6.04,28.13,11.65,41.1,5.73,13.22,11.7,27.14,11.94,41.8,.38,22.94-12.68,44.69-26.9,61.78-12.95,15.56-28.51,28.34-48.17,34.19-38.68,11.52-80.68-.7-117.13-14.37-19.39-7.27-38.34-15.6-57.38-23.72-19.77-8.44-40-15.64-59.75-24.1-25.34-10.84-49.97-23.67-75.66-33.63-12.93-5.01-30.52-11.75-39.49,3.14-5.49,9.12-7.38,19.95-9.99,30.13-2.76,10.75-5.69,21.64-10.64,31.64-5.05,10.21-11.92,18.49-20.49,25.93-6.68,5.81-14.49,10.84-20.24,17.63-14.05,16.58-2.54,41.22,6.44,57.48,8.42,15.24,18.73,30.03,31.05,42.61,2.55-.25,5.19,.53,7.93,2.64,8.56,6.59,11.8,15.04,14.99,25.06,7.4,23.29,21.2,45.32,39.34,61.68,1.17-.22,2.49,.79,2.23,2.04,7.26,6.74,14.46,14.19,23.41,18.54,12.09,5.88,25.35,4.29,38.32,3.28,7.49-.59,15.06-1.23,22.58-.76,6.52,.4,13,1.45,19.46,2.45,3.15,.49,6.35,.88,9.54,1.29,.66-.32,1.28-.17,1.74,.22,3.81,.5,7.62,1.04,11.34,1.82,6.34,1.33,12.61,2.95,18.9,1.08,0-1.34,1.82-2.55,3.14-1.36,8.74,7.87,20.05,1.21,28.27-4.08,8.11-5.22,16.83-12.97,26.62-14.7,13.28-2.35,24.3,8.51,34.91,14.64,5.12,2.96,10.97,6.16,13.8,11.64,2.82,5.46,4.5,11.42,4.56,17.6,.06,5.33-.61,10.15-3.29,14.81-3.31,5.74-4.72,10.41-.84,16.32,3.27,4.98,7.62,9,11.57,13.41,3.68,4.1,6.67,8.76,10.42,12.79,6.8,7.33,17.79,11.67,22.84,20.54,.23,.41,.45,.82,.65,1.24,15.47-12.67,37.94-35.7,59.63-24.33,9.09,4.77,17.25,11.72,24.7,18.69,4.4,4.11,9.16,8.51,13.04,13.42,12.44-10.97,21.4-8.93,63.82-19.06,52.98-12.65,82.23-22.14,93.3-41.12,11.07-18.98,29.25-169.99-8.7-193.71-37.95-23.72-16.6-30.05-8.7-42.7,7.91-12.65-38.74,1.58-33.21-30.05,5.53-31.63,55.35-50.6,54.56-30.05-.79,20.56,22.93-7.91,30.84,22.14,1.12,4.25,2.43,8.05,3.88,11.52,6.06-7.76,14.81-14.35,21.1-20.28,.71-.67,1.44-1.35,2.18-2.04-.61-3.48-.99-7.23-1.07-11.34-.24-12.65,.49-23.88,2.4-33.69Z" style="fill:#bae2ed;"></path><path d="M3416.2,1693.39c.14,.99-.43,2.11-1.73,2.11-20.23-.03-48.74-.46-50.77,26.03-.79,10.34,.99,21.58-2.44,31.57-3.24,9.43-9.14,18.33-15.69,25.8-14.36,16.37-32.6,25.72-52.04,34.67-8.62,3.97-17.28,8.01-26.28,11.04-7.01,2.37-14.87,4.82-22.36,3.62,3.36,5.85,6.77,11.68,9.72,17.72,3.69,7.53,7.58,17.26,3.72,25.5-4.65,9.94-14.57,13.87-25.35,15.38,61.9,17.36,98.44,24.51,118.2,39.38-.35-2.1-.41-4.2-.27-5.97,.77-9.27,10.8-11.89,17.85-15.23,4.66-2.21,10.59-5.72,10.09-11.79-.43-5.24-3.98-9.66-6.99-13.75-5.34-7.26-10.72-16.41-10.23-25.82,.46-8.85,6.26-14.7,13.62-18.93,9.23-5.31,18.63-11.32,24.85-20.19,7.56-10.78,10.61-22.69,7.74-35.71-1.32-6-3.35-11.69-5.96-17.24-1.84-3.92-3.89-8.01-4.45-12.35-1.21-9.32,6.01-14.99,14.88-14.9,4.87,.05,10.49,1.49,15.21-.15,3.57-1.24,6.1-3.74,8.82-6.24,1.34-1.23,2.7-2.22,4.09-2.92-7.36-7.76-13.97-16.28-19.93-25.06-1.46-2.15-2.9-4.34-4.31-6.55Z" style="fill:#bae2ed;"></path><path d="M3367.51,1702.83c-5.01-3.21-8.32-8.37-12.11-12.89-1.98-2.36-4.18-5.07-7.07-6.35-4.22-1.86-8.43,.08-12,2.46-6.74,4.51-12.98,8.64-21.5,8.03-7.41-.53-14.72-4.56-22.16-3.84-10.28,.99-20.76,5.48-29.23,11.26-6.5,4.43-11.16,10.08-15.71,16.42-6.98,9.72-14.13,17.22-25.67,19.68-.82,3.59-1.85,7.14-2.81,10.67-3.22,11.72-4.86,22.19,.37,33.71,5.36,11.8,12.72,22.67,18.63,34.21,1.54,3,3.18,5.95,4.84,8.89,.4-.43,.99-.68,1.72-.53,8.9,1.85,19.2-2.39,27.34-5.58,8.56-3.36,16.82-7.39,25.26-11.03,20.51-8.85,40.25-21.74,52.59-40.82,3.18-4.93,6.66-10.42,8.13-16.16,1.36-5.33,1.57-10.79,1.6-16.26,.06-9.02-.7-19.99,4.58-27.88,.98-1.47,2.06-2.79,3.21-3.98Z" style="fill:#bae2ed;"></path><path d="M3403.87,1671.89c-8.44-1.07-17.07-1.61-25.33-3.74-9.47-2.44-18.68-4.73-28.44-5.78-7.18-.77-13.86-.61-21.03-.53-4.44,.05-10.87-.01-14-3.84-1.72-2.1-2.47-4.45-1.87-7.17,.36-1.6,1.76-4.6-.38-5.68-1.41-.71-2.98-1.05-4.56-1.13-7.51-.39-14.8,1.63-17.06,9.83-1.49,5.4-1.19,11.78-1.29,17.37-.08,4.49-.91,11.39,1.99,15.2,.04,.06,.07,.11,.1,.17,.94-.05,1.87-.07,2.79-.02,8.67,.42,16.81,5.49,25.66,3.61,8.5-1.8,14.09-9.45,22.62-10.88,12.6-2.11,17.97,15.49,27.25,20.99,11.8-9.28,29.76-8.44,44.13-8.41,.37,0,.67,.1,.92,.25-4.07-6.48-7.86-13.24-10.99-20.24-.16,.03-.33,.04-.53,.01Z" style="fill:#bae2ed;"></path><path d="M3262.91,1663.95c-8.2-4.62-16.9-8.1-24.85-13.22-15.48-9.96-30.24-21.42-47.8-27.64-8.25-2.92-16.38-3.95-25.06-4.49-7.73-.49-18.63-1.83-24.61,4.24-4.36,4.42-7.62,11.66-13.72,14.02-3.67,1.42-7.26,.55-11.06,.47-1.46-.03-2.91,.09-4.36,.28,.72,8.55-6.87,15.79-7.99,24.08-.94,6.94,1.92,15.84-.71,22.68,7.17,2.04,14.71,2.96,22.03,2.19,8.86-.93,16.55-6.16,25.4-6.81,19.98-1.45,38.91,11.08,54.91,21.43,7.81,5.05,16.75,9.67,18.16,19.86,.59,4.29,.29,8.54-.43,12.74,6.15-1.53,11.42-4.79,15.71-9.78,4.4-5.12,7.87-10.96,12.27-16.08,5.66-6.57,12.83-11.58,20.73-15.15,5-2.26,10.76-4.66,16.5-5.7-1.26-2.31-1.69-5.26-1.81-8.18-8.61-3.68-15.22-10.4-23.3-14.95Z" style="fill:#bae2ed;"></path><path d="M3298.96,1636.22c-5.04-2.37-10.04-4.61-14.37-8.19-4.81-3.97-8.89-8.64-13.11-13.22-4.4-4.77-8.79-9.69-14.61-12.79-6.6-3.51-12.7-3.64-19.9-2.1-5.14,1.1-10.18,2.05-15.44,1.14-4.83-.83-9.51-2.33-14.02-4.24-9.55-4.05-17.81-9.2-23.86-17.77-3.48-4.93-6.76-10.54-12-13.83-5.44-3.41-12.45-5.48-18.87-5.59-6.64-.12-14.72,1.18-19.66,6.09-3.82,3.79-6.02,8.64-7.62,13.72-1.9,6.02-3.37,11.95-4.03,18.25-.55,5.23-1.04,10.68-3.36,15.49-2.4,4.97-6.34,11.3-11.05,15.78,1.53,1.38,2.78,3,3.56,4.97,1.3-.18,2.6-.29,3.88-.26,4.58,.09,9.68,1.65,13.49-1.76,5.4-4.83,8.39-12,15.22-15.18,6.91-3.22,16.04-2.21,23.38-1.68,8.52,.62,16.58,1.52,24.66,4.53,17.89,6.67,32.67,17.96,48.67,28.01,8.38,5.26,17.8,8.7,26.11,13.97,6.81,4.32,12.92,9.8,20.2,13.34,.02-.91,.05-1.78,.06-2.59,.1-5.74-.43-12.65,1.1-18.22,1.66-6.01,5.78-11.95,12.31-13.14,1.6-.29,3.34-.55,5.12-.66-.04-.11-.07-.22-.1-.33-1.64-1.6-3.64-2.76-5.74-3.75Z" style="fill:#bae2ed;"></path><path d="M3865.08,1492.63c-6.68-1.37-12.95-4.2-19.61-5.56-13.25-2.7-27.6,2.45-40.74,4.3-14.02,1.97-27.75,.57-41.49-2.53-14.06-3.17-28.68-7.65-43.21-5.31-13.12,2.12-26.68,6.76-40.12,5.21-11.15-1.29-18.51-6.69-27.5-12.85-7.35-5.04-20.2-13.69-28.7-5.98-5.45,4.94-5.48,12.81-8.41,19.14-9.24,20-35.47,2.35-50.58,3.02-7.06,.32-14.96,1.05-21.8,2.95-5.54,1.54-10.62,4.08-15.64,6.83-6.73,3.68-13.56,7.51-21.01,8.86,2.82,1.13,5.52,2.29,8.01,3.31,25.93,10.65,50.95,23.44,76.83,34.25,18.94,7.91,38.22,14.9,57.1,22.99,38.64,16.57,78.62,35.29,120.92,39.74,19.34,2.04,39.67,1.01,57.61-7.18,20.62-9.42,36.82-27.1,48.46-46.24,6.32-10.39,12.18-22.1,13.49-34.37,1.11-10.36-.75-20.51-4.03-30.29-6.48,.95-13.12,1.03-19.56-.29Z" style="fill:#bae2ed;"></path><path d="M3407.83,1478.78c-12.43-6.51-24.62-13.5-36.53-20.91-11.38-7.08-22.26-15.12-33.97-21.64-22.3-12.42-46.96-19.36-72.27-22.12-12.66-1.38-25.33-1.74-38.04-2.2-10.81-.4-21.97-1.09-32.64,1.16-11.38,2.4-22.92,7.65-31.65,15.44-5.54,4.94-7.27,9.08-6.7,16.3,.57,7.26-.26,15.22-3.86,21.71-3.45,6.23-9.89,9.06-16.79,9.61-17.37,1.4-34.54-5.92-51.45-8.83-12.5-2.15-25.13-3.86-37.82-4.26-10.65-.33-23.42-.89-33.29,3.82-16.58,7.92-34.22,31.4-24.08,50.24,7.57,14.06,22.7,21.07,37.45,27.41,7.76-5.82,15.95-8.91,25.66-9.53,7.87-.51,18.52-.59,24.94,4.84,7.68,6.48,2.74,15.92-4.45,20.56-3.82,2.47-8.16,4.14-11.88,6.75-4.44,3.11-5.59,7.3-5.38,12.57,.01,.29-.03,.54-.12,.76,.52,2.12,.86,4.29,1.07,6.53,.53,5.68,.65,12.01,4.08,16.86,7.37,10.45,19.9,13.92,31.38,17.78,3.97,1.34,8.66,2.76,12.51,5.09,3.62-3.39,6.57-8.03,8.98-11.76,4-6.2,4.26-13.19,5.17-20.27,.66-5.14,1.9-10.1,3.46-15.05,2.82-8.94,6.97-17.22,16.11-20.95,10.68-4.36,22.99-3.15,33.22,1.98,10.12,5.08,13.43,16.04,21.53,23.19,7.93,6.99,19.55,12.24,30.01,13.71,11.66,1.64,22.19-5.44,33.67,.04,11.13,5.31,17.79,15.45,26.43,23.76,4.75,4.58,9.9,7.92,15.88,10.64,1.86,.85,3.63,1.72,5.27,2.75-1.1-19.18,26.01-30.97,41.67-34.25,27.33-5.72,55.34-2.64,82.99-2.19,.58,0,1.01,.24,1.3,.58,2.86-2.78,5.53-5.74,7.84-8.99,6.76-9.52,11.02-20.33,14.22-31.5,3.14-10.96,5.01-22.52,9.15-33.17,2.43-6.26,5.73-13.02,11.68-16.67,1.22-.75,2.49-1.34,3.79-1.8-23.81-6.59-46.69-16.54-68.54-27.99Z" style="fill:#bae2ed;"></path><path d="M4492.12,838.08c6.33-26.09-7.91-54.56,4.74-70.37,12.65-15.81,31.63-4.74,57.72-15.02,26.09-10.28,34.79-113.07-16.6-99.62-51.39,13.44-32.42,49.81-74.32,20.56-41.91-29.26-92.51-49.02-145.48-28.46s-62.46,18.98-68,37.95c-5.53,18.98-52.18,57.72-75.11,36.37-22.93-21.35-24.51-37.16-56.93-35.58s-60.09-2.37-71.95,15.81c-11.86,18.19-49.02-39.53-111.48-31.63-62.46,7.91-36.37,18.19-69.58,54.56-33.21,36.37-68,42.7-108.32,10.28-40.32-32.42-38.74,7.91-98.83,17.39-60.09,9.49-106.74,45.86-141.53,33.21-34.79-12.65,40.32-66.42,3.95-106.74-36.37-40.32-84.6-54.56-101.21-52.18-16.6,2.37-37.95-29.26-50.6-8.7-12.65,20.56-.79,5.53-8.7,54.56-7.91,49.02-16.6,64.04-42.7,62.46-26.09-1.58-59.3,41.91-59.3,60.09s39.53,5.53,26.09,24.51c-13.44,18.98-68.79-1.58-60.09,27.67,8.7,29.25-26.09,30.84-39.53,37.16-13.44,6.33-34-26.09-52.18-12.65-18.19,13.44-28.46,9.49-20.56,50.6,7.91,41.12,15.02,82.23-11.07,79.86-26.09-2.37-61.67-26.88-69.58-19.77-7.91,7.12,16.6,41.91-4.74,49.81-21.35,7.91-41.11,16.6-56.93,22.93-15.81,6.33-26.09,10.28-42.7,15.02-16.6,4.74-44.28-12.65-55.35,22.14-11.07,34.79-15.02,30.84-32.42,49.02-17.39,18.19-51.39,15.02-59.3-3.95-7.91-18.98,24.51-13.44,38.74-21.35,14.23-7.91,61.67,2.37,27.67-37.95-34-40.32-49.02-56.93-87.76-68-38.74-11.07-59.3-23.72-101.21-28.46-41.91-4.74-111.48,105.16-136.79,139.95-25.3,34.79-27.67,68-45.86,83.81-18.19,15.81-32.42-30.05-31.63,44.28,.62,58.26,23.59,80.56,40.72,77.2-3.83,2.79-6.46,9.92-9.09,26.37-4.55,28.42-14.81,38.86-22.58,51.3,2.1,3.22,4.4,6.31,7,9.22,6.62,7.44,14.69,14.73,19.25,23.77,4.79-4.9,9.71-8.5,16.13-11.98,5.96-3.23,11.15-7.46,13.56-14.01,1.6-4.36,2.69-9.73,6.09-13.15,4.05-4.06,10.53-6.34,16.88-7.14-20.71-4.69-24.7-5.31-24.7-14.29,0-12.65,26.88-50.6,3.95-49.81-10.06,.35-16.92-2.2-21.99-1.82,2.93-1.47,5.58-3.78,7.76-6.87,15.02-21.35,34.79,17.4,37.95,24.51,3.16,7.12,58.51,30.84,64.04,3.16,5.53-27.67,15.81-29.25,7.91-66.42-7.91-37.16-26.88-35.58,0-75.11s45.07-80.65,51.39-52.18c6.33,28.46,4.74,29.25-6.33,56.14-11.07,26.88-17.39,27.67-4.74,50.6,12.65,22.93,47.44,8.7,54.56,21.35,5.5,9.77-10.7,32.27-22.36,51.84,0,0,0,.01,.01,.02,1.25,3.09,6.24,4.17,9.09,4.82,4.47,1.02,9.02,1.58,13.58,1.96,7.48,.62,14.96,.97,22.36,2.3,9.58,1.72,15.21,6.88,16.64,16.64,1.1,7.52,1.43,16.81-2.41,23.76,2.55,1.37,4.91,3.02,6.86,5.07,4.16,4.37,4.96,8.53,3.8,12.34,11.47,2.78,22.16,8.45,29.34,18.09,7.75,10.42,11.59,23.1,19.45,33.45,.57-.05,1.15-.09,1.74-.12,8.7-.4,16.39,.57,23.27,6.34,10.27,8.61,18.08,19.5,31.16,24.37,6.52,2.43,13.27,3.65,20.18,4.31,5.34,.51,11.46,.17,16.6,1.84,7.59,2.47,7.94,8.73,7.01,15.73-1.15,8.71-2.28,17.83-7.84,24.99-1.16,1.49-2.42,2.82-3.77,4.02,.07,.26,.1,.55,.03,.88-2.84,14.8,.44,32.15,8.69,44.8,3.67,5.62,8.19,10.1,14.28,13,5.34,2.54,10.98,4.35,16.46,6.57,3.94,1.6,8.23,3.53,11.93,6.12,6.06-2.12,12.23-2.82,18.7-2.11,6.1,.67,11.84,3,17.65,4.84,10.15,3.21,20.69,6.86,27.63,15.39,.78,.95,.66,2.14-.37,2.85-12.68,8.86-29.56,12.85-45.75,11.99,3.61,3.04,6.91,6.49,9.88,10.21,8.34,10.45,15.99,22.65,26.37,31.26,7.02,5.82,17.14,10.04,20.78,18.97,.4,.97-.43,1.92-1.27,2.23-6.87,2.55-14.24,2.69-21.59,2.26,7.76,6.87,13.98,15.17,18.74,24.43,5.57,10.84,9.21,22.54,14.68,33.41,10.39,20.65,26.16,37.53,40.86,55.14,.99-.55,2.17-.83,3.48-.7,11.44,1.12,31.21,7.36,61.09,30.44,51.54,39.83,19.03,20.27,95.91,41.87,7.51-.23,14.96-1.25,21.47-4.65,6.43-3.36,11.93-8.65,11.4-16.46-.45-6.62-3.32-12.83-6.48-18.56-5.67-10.28-11.41-20.46-16.9-30.84-5.79-10.94-13.37-21.36-17.68-33-3.76-10.16-3.09-19.44-.36-29.73,1.06-3.97,2.51-8.28,3.65-12.67-2.15,.08-2.08-3.37,.16-3.64,.24-.03,.47-.07,.7-.1,.93-4.57,1.29-9.16,.27-13.47-1.42-6.04-5.11-9.46-10.17-12.71-5.02-3.23-10-6.53-15.1-9.64-11.14-6.79-23.5-13.79-36.74-15.1-6.42-.63-12.01,.47-17.97,2.8-4.81,1.87-9.6,3.46-14.79,3.86-8.07,.61-16.11-.37-23.82-2.62-.26,.34-.54,.68-.85,1-5.87,6.11-14.66,6.99-22.57,4.92-8.53-2.24-16.92-6.79-23.13-13.11-7.17-7.29-6.65-15.49-7.03-25.13-.49-12.68-6.92-25.69-16.6-33.9-8.58-7.28-18.53-13.41-25.42-22.47-7.07-9.31-7.56-18.79-1.34-28.77,5.23-8.39,11.51-16.67,19.1-23.14-6.63-2.93-13.19-5.98-19.29-9.88-9.87-6.31-19.7-15.31-21.15-27.6-2.66-22.57,17.44-45.69,39.3-48.93,23.02-3.4,47.01,.1,69.67,4.46,8.22,1.58,16.21,4.17,24.42,5.81,8.1,1.62,17.98,3.46,25.92,.13,8.15-3.41,10.73-13.8,10.61-21.92-.08-5.12-1.41-10.52,1.05-15.32,4.14-8.08,13.56-13.72,21.37-17.62,8.91-4.46,18.36-7.2,28.32-7.89,11.44-.79,22.98,0,34.42,.39,12.24,.4,24.49,1.25,36.6,3.07,24.19,3.63,47.8,11.04,68.81,23.75,11.06,6.69,21.61,14.22,32.64,20.97,11.54,7.06,23.27,13.81,35.3,20,23.76,12.25,48.56,22.77,74.62,29.03,3.89,.14,7.89,.98,11.8,2.16,.22-.09,.49-.13,.79-.1,12.94,1.1,23.18-7.4,34.33-12.49,6.06-2.77,11.88-3.93,18.43-4.99,6.36-1.03,12.8-2.03,19.24-1.33,6.21,.67,12.16,2.83,18.16,4.42,5.32,1.41,11.4,3.06,16.79,1.03,8.12-3.05,8.3-13.07,11.17-20,2.71-6.52,8.86-11.12,16.15-10.71,9.84,.55,18.04,6.8,25.81,12.26,4.22,2.97,8.68,6.47,13.73,7.88,6.88,1.92,13.92,2.16,20.99,1.24,13.58-1.78,26.82-6.54,40.66-5.29,12.43,1.13,24.33,4.8,36.56,7.11,13.64,2.58,26.82,2.55,40.47,.13,10.86-1.93,23.22-5.72,34.25-3.47,6.15,1.25,11.93,3.76,18.03,5.19,6.7,1.58,13.53,1.93,20.34,.97-6.98-18.8-19.57-38.07-17.91-58.88,.09-1.08,.77-1.69,1.82-1.82,18.49-2.23,36.79,1.35,53.52,9.41,36.56,17.62,62.79,50.37,98.29,69.59,21.27,11.51,46.49,8.65,68.07,18.91,14.26,6.77,28.62,18.19,38.37,31.87,4.82-19.37,14.89-32.6,32.09-39.68,26.88-11.07,22.14,4.74,41.11-19.77,18.98-24.51,28.46-33.21,31.63-43.49,3.16-10.28,8.7-25.3,8.7-48.23s-3.95-41.91-5.53-55.35c-.02-.13-.03-.27-.05-.4-.72-5.98,6.81-9.2,10.62-4.54,9.53,11.66,22.05,28.71,32.12,48.43,18.98,37.16,27.67,71.16,26.09,37.16-1.58-34-8.7-45.07-15.02-74.32-6.33-29.25-29.25-69.58-39.53-84.6-10.28-15.02-48.23-42.7-46.65-22.14,1.58,20.56-39.53-5.53-53.77-6.33-14.23-.79-22.93-112.28,60.88-141.53,83.81-29.25,47.44,12.65,76.7-7.91,29.25-20.56,9.49-15.02,20.56-62.46,11.07-47.44,26.09-27.67,41.11-22.14,15.02,5.53,35.58-15.81,28.46,42.7-7.12,58.51-44.28,68.79-16.6,120.97,27.67,52.18,45.07,95.67,61.67,109.9,16.6,14.23,58.51-41.91,47.44-128.88-11.07-86.97-37.95-95.67-25.3-125.72,12.65-30.05,17.39-44.28,34-30.84,16.6,13.44,10.28-56.14,43.49-71.16,33.21-15.02,66.42,9.49,41.12-26.88-25.3-36.37-75.11-37.16-68.79-63.25Z" style="fill:#bae2ed;"></path><path d="M3352.28,1602.88c-10.68,1.83-22.1,4.56-31.07,10.94-8.02,5.7-15.49,14.4-13.17,24.46,.39,.42,.76,.87,1.11,1.35,.19,.26,.29,.52,.33,.77,2.1,.27,4.1,.88,5.8,2.04,1.96,1.34,2.64,3.87,2.16,6.12-.56,2.62-1.77,6.01,1.23,7.76,1.3,.76,2.69,1.29,4.18,1.52,7.34,1.16,14.9-.33,22.32,.38,9.95,.95,20.07,2.16,29.65,5.09,9.12,2.79,18.54,3.63,27.96,4.8-1.53-3.75-2.85-7.57-3.91-11.45-2.4-8.77-3.48-18.49,.02-27.11,2.91-7.14,8.95-12.36,14.79-17.11,4.24-3.44,8.64-6.86,12.77-10.55-24.63-.52-49.74-3.21-74.17,.98Z" style="fill:#bae2ed;"></path><path d="M4156.7,1660.47c-5.22,2.73-10.34,5.65-15.14,9.1-3.26,2.34-6.77,5.17-9.58,8.39,.4,.72,.79,1.45,1.18,2.19,11.86,22.93,61.67,49.02,40.32,6.33-5.29-10.58-11.07-18.88-16.78-26Z" style="fill:#bae2ed;"></path><path d="M2892.58,1750.78c-6.72-2.74-12.28-7.33-17.91-11.78,.97,13.28,3.16,25.49-8.96,36.63-.09,6.83-.98,13.6-1.35,20.42-.33,6.1-.75,13.01,1.5,18.81,1.88,4.85,5.91,11.06,11.52,12,.6,.1,1.18,.12,1.75,.1,.57-1.09,2.15-1.48,2.92-.64,3.57-1.45,6.33-5.07,8.35-8.27,5.15-8.17,8.09-17.23,12.35-25.82,3.04-6.14,5.82-12.43,9.2-18.4,2.65-4.68,6.91-9.03,7.33-14.53-9.25-.83-18.78-5.28-26.69-8.52Z" style="fill:#bae2ed;"></path><path d="M2996.5,1620.67c-6.81-7.21-16.48-10.27-25.78-13.2-5.6-1.76-11.15-4.08-17.07-4.51-4.77-.34-9.28,.13-13.73,1.39,3.01,2.85,5.23,6.36,5.87,10.79,.61,4.22,.57,8.86-1.57,12.53,1.58,.83,3.1,1.76,4.58,2.74,16.41,2.14,34.19-1.08,47.7-9.74Z" style="fill:#bae2ed;"></path><path d="M2986.6,1677.26c-9.19-9.29-16.63-19.83-24.89-29.9-4.09-4.98-8.68-9.71-13.98-13.41-2.95-.41-5.86-.99-8.68-1.73-3.48,1.47-7.79,1.51-11.31,1.52-12.91,.04-26.12,2.71-38.75-1.09-6.44-1.94-12.58-4.65-18.73-7.33-5.41-2.35-10.66-5.67-16.44-7.04-13.3-3.15-27.12,5.98-37.45,13.43-10.15,7.32-19.4,15.97-32.14,18.31-9.24,1.7-20.6-2.17-27.28-8.8-4.52-4.49-6.6-10.04-6.66-16.08-11.12,.2-22.69,1.55-29.89,10.84,2.32,1.81,4.5,3.75,6.55,5.85,11.28,1.53,22.46,11.47,26.49,26.45,5.53,20.56,8.7,31.63,21.35,37.95,12.65,6.32,19.77,12.65,36.37,13.44,16.6,.79,18.19,1.58,30.84,.79,12.65-.79,13.44-3.16,21.35-3.16,1.05,0,2.02-.15,2.93-.37,4.19-5.91,13.98-8.65,20.04-11.04,12.59-4.95,24.39-9.84,38.06-11.12,15.32-1.44,31.08-.74,46.44-.14,11.83,.46,24.79,3.25,36.39-.22-4.22-7.67-14.62-11.12-20.58-17.16Z" style="fill:#bae2ed;"></path><path d="M2668.49,1362.96c2.73,1.23,5.56,2.27,8.5,3.09,9.36,2.61,18.99,3.6,28.6,4.83,6.9,.88,13.82,2.26,20.44,4.4,2.62,.85,5.37,1.79,8.04,2.96,4.08-7.31,3.65-18.79,1.01-26.3-3.3-9.4-15.34-9.79-23.85-10.43-7.38-.55-14.85-.82-22.13-2.24-4.35-.84-9.96-1.99-13.01-5.54-2.61,4.53-4.88,8.85-6.47,12.75-2.67,6.56-1.99,11.92-1.13,16.48Z" style="fill:#bae2ed;"></path><path d="M2565.25,1397.88c-6.6-1.83-12.48-3.35-17.72-4.66,.27,.3,.53,.62,.79,.94,3.09,4.04,5.98,7.82,9.65,11.39,8.34,8.12,17.84,16.94,20.92,28.59,1.62,6.12,2.27,12.43,3.75,18.57,1.36,5.6,3.39,11.15,4.2,16.87,.03,.23,.05,.46,.08,.69,.28,.08,.56,.23,.81,.5,2.98,3.22,7.96,3.53,12.06,4.06,3.3,.42,6.45,1.07,9.66,1.97,7.35,2.05,15.47,4.89,20.02,11.48,1.48,2.14,2.21,4.16,2.35,6.05,4.45,.21,8.71,1.41,13.13,2.16,4.52,.76,8.93,.56,13.48,.46,6.6-.14,14.69-.63,20.12,3.8,.87,.71,.62,2.37-.37,2.85-9.09,4.4-19.67,6.43-28.4,11.59,4.13-1.17,8.4-1.83,12.71-1.81,4.68,.02,11.3,.1,15.95,2.48,1.35-2.55,3.15-4.74,4.79-7.21,2.41-3.62,3.22-7.25,2.75-11.55-.75-6.86-3.36-13.38-3.98-20.26-.55-6,.77-11.44,5.53-15.43,1.92-1.61,4.23-2.88,6.71-3.83-5.76-5.53-10.53-12.28-14.41-19.21-4.71-8.42-6.97-16.79-8.69-26.24-1.96-10.77-6.05-21.9-12.72-30.89-4.29,1.6-10.13,3.17-18.05,4.75-47.44,9.49-23.72,26.09-75.11,11.86Z" style="fill:#bae2ed;"></path><path d="M2892.56,1491.32c-3.43-4.5-12.88-3.39-17.88-3.87-5.64-.54-11.37-1.14-16.84-2.68-11.97-3.37-21.75-10.42-30.42-19.17-4.07-4.11-7.92-8.87-13.3-11.34-4.13-1.9-8.58-2.22-13.08-2.06-6.27,.22-11.82,.78-17.23,4.23-4.2,2.68-8.01,5.96-12.3,8.49-8.52,5.02-18.05,6.25-27.68,4.13-9.92-2.19-19.12-6.84-29.06-8.91-5.46-1.14-11.24-1.57-16.64,.13-4.61,1.45-10.37,3.83-11.94,8.94-2.55,8.34,1.97,17.2,3.09,25.44,.57,4.21,.74,8.33-.91,12.33-1.69,4.08-5.12,7.09-7,11.06,1.15,1.19,1.8,2.47,2.05,3.81,6.89,3.92,14.18,5.88,21.96,2.13,6.64-3.2,12.34-8.14,19.1-11.09,8.98-3.92,21.47-6.42,30.18-.41,4.17,2.88,7.23,6.82,9.19,11.48,2.53,6,5.6,13.17,3.71,19.79-.96,3.37-3.15,6.91-3.23,10.47-.07,3.37,.47,7.88,4.67,5.59,.73-.39,1.44-.8,2.15-1.21,.26-.36,.64-.56,1.04-.62,4.54-2.71,8.88-5.66,13.79-7.82,9.41-4.15,47.68-10.36,39.83,10.53-1.79,4.77-4.83,9.37-4.53,14.7,.14,2.52,1.37,4.14,3.97,4.56,2.2,.35,6.22,1.01,7.85-1.05,2.53-3.18,2.18-9,3.35-12.8,1.47-4.77,3.07-9.63,5.42-14.05,5.03-9.47,13.35-12.72,23.16-15.67,5.39-1.62,10.73-3.73,15.2-6.91,.18-.22,.41-.4,.7-.5,3.51-2.65,6.42-6,8.3-10.4,2.13-5,2.87-10.29,3.63-15.63,.46-3.24,1.89-8.68-.33-11.6Z" style="fill:#bae2ed;"></path><path d="M2678.61,1523.14c-1.07-.7-1.01-1.96-.4-2.74-.42-.18-.75-.49-.91-.91-4.52-2.66-11.55-2.68-16.32-2.41-6.76,.38-13.12,2.02-19.13,5.16-.58,.3-1.13,.27-1.6,.05-2,1.42-4.13,2.64-6.52,3.35-6.18,1.84-12.48,3.14-18.66,4.96-.5,.15-.93,.08-1.29-.11-1.39,3.53-3.33,6.84-6,9.59-.67,.69-1.37,1.33-2.08,1.94,.07,.13,.14,.26,.19,.42,.32,1.01,.57,1.98,.77,2.91,.2,.08,.39,.2,.58,.37,4.64,4.37,9.85,9.38,16.09,11.32,7.54,2.34,12.41-.78,19.14-3.69,4.68-2.02,9.69-3.04,14.64-4.13,5.48-1.21,7.86-2.64,11.08-7.16,2-2.8,10.96-12.31,11.77-18.06-.45-.28-.9-.57-1.35-.86Z" style="fill:#bae2ed;"></path><path d="M2602.67,1544.35c-11.98,8.24-28.1,8.81-41.15,14.87,14.44,5.94,47.56,8.2,41.15-14.87Z" style="fill:#bae2ed;"></path><path d="M2664.64,1627.9c-1.42-6.73-4.15-16.23-11.67-18.47-.21-.06-.41-.11-.62-.16-.82,.52-2,.42-2.53-.34-8.72-.06-11.78,12.14-13.91,22.59,3.87,11.6,3.52,15.33,16.32,33.61,.33,.47,.66,.95,.99,1.42,2.9-6.49,7.63-12.16,13.14-17.16-.02-7.17-.23-14.45-1.71-21.49Z" style="fill:#bae2ed;"></path><path d="M2714.68,1643.78c2.28-1.14,4.68-1.81,7.13-2.05-2.35-2.15-4.87-4.09-7.6-5.7-4.32-2.55-9.7-5.55-14.87-3.85-4.01,1.32-7.63,3.76-11.19,5.97-12.24,7.59-27.19,17.79-32.46,32,14.81,21.62,25.73,39.83,35.27,36.89,10.28-3.16,19.77-8.7,17.39-23.72-2.37-15.02-7.91-32.42,6.33-39.53Z" style="fill:#bae2ed;"></path><path d="M2615.01,1526.83c5.88-1.65,12-2.62,17.74-4.7,5.29-1.93,8.49-6.11,13.15-8.94,8.55-5.18,18.37-7.47,27.49-11.39-5.69-2.47-13.92-1.19-19.54-1.09-7.66,.14-14.95-2.59-22.5-2.76-2.07,6.38-10.59,11.07-17.01,14.22,3.12,3.67,1.95,10.01,.81,14.17-.05,.16-.1,.33-.15,.49Z" style="fill:#bae2ed;"></path><path d="M2525.85,1533.75c1.05,4.18,.7,9.02,.64,13.37,2.37-.34,4.8-.45,7.06,.11,1.99,.5,5.51,1.33,6.57,3.44,1.91,3.8-2.34,6.78-3.08,10.44,2.23,.65,5.02,1.57,8.44,2.81,.69,.25,1.37,.5,2.06,.75,13.81-14.75,36.47-12.08,52.53-22.88,4.5-3.03,8.31-7.19,10.26-12.32,1.39-3.65,4.56-12.15,.88-15.38-3.69-3.25-10.66-1.86-15.13-2.08-7.75-.39-15.22-2.34-22.84-3.67-.3-.05-.54-.16-.73-.3-11.89,13.78-28.38,23.92-46.65,25.72Z" style="fill:#bae2ed;"></path><path d="M2476.23,1554.21c1.32-11.27,2.26-22.65,1.92-34.01-.28-9.46-.42-20.26-4.76-28.93-12.67-25.33-48.8-24.01-72.23-18.35-.13,.03-.26,.05-.38,.05-19.25,20.34-15.33,25.92-37.95,30.87-24.99,5.47-66.16,1.68-37.49,13.77,.7,.3,1.45,.45,2.22,.46,6.17,.11,36.31,2.48,38.44,37.96,1.03,17.19,1.31,29.14-.65,36.71,1.3,.44,2.6,.87,3.92,1.27,24.28,7.26,49.89,7.75,75.05,7.77,8.66-5.8,17.88-12.52,29.86-14.92-.26-11.04,.76-21.67,2.05-32.64Z" style="fill:#bae2ed;"></path><path d="M2503.51,1766.64c-9.19-8.52-10.73-22.22-17.29-32.54-5.77-9.07-15.16-16.56-19.61-26.41-1.61,.24-3.25,.54-4.94,.93-27.67,6.33-77.49,11.07-106.74,27.67-5.54,3.15-9.77,3.25-13.28,1.75-.24,1.56-.56,3.1-1.01,4.59-1.55,5.08-4.46,9.58-8.21,13.33-9.7,9.71-22.95,14.72-33.38,23.57-7.69,6.53-14.6,14.37-23.24,19.7-6.93,4.29-14.46,6.33-22.3,6.95,12.1,5.07,22.65,12.47,28.2,25.07,4.3,9.75,3.78,18.83,3.01,29.24-.76,10.35-.41,20.84-.33,31.24,8.4-6.78,19.06-10.86,29.84-10.66,11.95,.23,22.85,5.22,33.18,10.83,11.25,6.12,23.06,11.42,33.95,18.15,11.37,7.02,21.97,15.14,32.72,23.04,4.78,3.51,9.72,6.76,14.53,10.22,6.94-3.66,11.38-10.49,17.33-15.43,7.01-5.83,14.61-11.01,21.89-16.49,14.21-10.71,27.64-23.46,44.21-30.49,6.78-2.88,14.57-5.84,22.08-5.38,.07,0,.13,.02,.2,.02-16.33-33.73-50.17-70.19-30.84-108.92Z" style="fill:#bae2ed;"></path><path d="M2505.28,1763.34c.03-.06,.07-.12,.1-.18,.57-.99,1.62-1.05,2.39-.63,4.99-6.08,8.78-12.96,12.36-19.99-13.38-23.22-27.4-37.01-49.86-35.26,4.49,9.25,13.94,16.27,19.08,24.98,5.67,9.61,7.68,23.1,15.93,31.08Z" style="fill:#bae2ed;"></path><path d="M2422.08,2125.94c-4.01-10.53-6.47-21.05-6.41-32.37,.04-7.23,.47-14.44,1.41-21.61,.38-2.91,.86-6.06,1.51-9.28-.16,.04-.32,.07-.51,.07-9.09-.02-21.56-1.95-26.37,7.9-6.87,14.06-4.66,31.87-4.53,47,.12,14.14,1.72,29.53-3.36,43.06-2.69,7.15-7.42,13.51-8.75,21.15-.3,1.69-.44,3.35-.44,4.97,32.6-10.13,46.94-25.24,58.5-24.95-1.17-3.07-2.06-6.24-2.86-9.23-2.44-9.12-4.84-17.87-8.2-26.7Z" style="fill:#bae2ed;"></path><path d="M2698.49,2076.36c-3.73-10.6-4.75-21-3.46-32.15,3.03-26.25,7.16-52.58,14.55-77.99,2.01-6.92,4.22-14.12,6.88-21.19-9.92-1.11-19.19-6.01-27.43-11.43-10.73-7.06-20.48-15.39-30.75-23.06-9.77-7.3-20.55-13.48-31.42-18.98-5.99-3.04-12.19-5.61-18.42-8.11-3.38-1.36-7.25-3.19-10.97-3.22-10.82-.09-7.45,19.91-6.64,26.31,1.65,13.07,3.07,25.41,.87,38.53-2.07,12.33-5.53,24.64-11.5,35.69-5.27,9.75-12.64,18.65-11.97,30.39,.53,9.34,4.26,18.22,6.04,27.35,2.06,10.59,3.01,22.17-.34,32.61,.87,.11,1.51,.81,1.6,1.78,1.11,13.06-1.82,27.14,5.2,39.05,5.12,8.69,15.32,12.77,19.98,21.8,.06,.11,.09,.21,.13,.32,5.75-3.31,12.15-5.27,18.69-6.72,6.16-1.37,12.24-2.52,17.98-5.3,5.3-2.58,10.28-5.71,14.98-9.26,5.7-4.31,11.29-8.84,16.44-13.79,2.32-2.23,5.04-4.42,7.04-6.94,1.42-1.79,2.66-3.81,4.27-5.45,5.68-5.78,12.33-4.33,15,3.23,1.63,4.62,2.57,9.14,6.28,12.66,3.11,2.94,7.05,5.32,10.8,4.74-.2-.18-.37-.41-.49-.7-4.21-10.15-9.69-19.79-13.35-30.16Z" style="fill:#bae2ed;"></path><path d="M2729.38,2139.97c-6.41-5.78-12.26-11.84-14.13-20.56-.62-2.91-.94-5.94-.81-8.93-5.29,1.59-11.3-1.06-15.49-5.43-2.72-2.84-4.51-5.82-5.7-9.57-1-3.18-2.89-11.96-8.1-8.35-2.39,1.66-3.98,4.03-5.7,6.32-1.6,2.14-3.69,3.95-5.6,5.81-4.61,4.49-9.42,8.67-14.45,12.69-8.6,6.87-17.94,13.51-28.68,16.55-9.27,2.62-19.15,3.44-27.65,8.36-8.97,5.19-15.21,14.34-16.68,24.67-1.6,11.22,3.52,20.81,11.54,28.35,7.18,6.75,15.13,12.24,22.03,19.26,.6-8.26,2.37-16.54,8.59-22.5,6.49-6.23,13.34-8.64,21.88-5.2,8.24,3.32,15.11,9.38,24.55,6.99,17.8-4.52,29.84-22.6,48.29-25.25,6.43-.92,12.3,.1,17.44,2.57,1.92-3.75,1.12-9.51-.55-12.93-2.53-5.19-6.56-9.04-10.8-12.86Z" style="fill:#bae2ed;"></path><path d="M2852.32,2092.84c.05-.17,.11-.34,.16-.51-14.2-1.44-11.23-17.45-13.9-28.11-16.59,5.11-21.4,25.84-34.7,35.53-7.71,5.62-17.47,7.38-26.86,6.72-10.89-.77-20.02-4.68-30.19-8.23-9.16-3.2-23.3-5.61-27.46,5.75,.88,.56,1.39,1.86,.49,2.89-.5,.58-1.03,1.08-1.57,1.53-.98,6.64,.57,13.97,4.42,19.36,5.75,8.04,15.61,12.97,20.01,22.02,2.47,5.08,3.98,12.43,1.17,17.74,6.11,3.87,10.99,9.89,14.27,17.03,6.69,14.55,8.56,30.46,11.52,46.03,2.83,14.9,1.23,31.97,5.79,46.68,11.79,.55,20.51-11.35,25.91-20.34,6.58-10.96,11.67-23.11,14.67-35.55,1.18-4.9,1.13-9.87,2.11-14.75,.92-4.61,6.13-4.81,9.97-5.35,4.59-.65,9.38-.65,13.84-2.01,4.61-1.41,8.59-3.97,12.18-7.17,5.68-5.07,10.72-10.82,16.98-15.2-18.14-23.88-26.66-55.97-18.81-84.06Z" style="fill:#bae2ed;"></path><path d="M2784.89,2304c.49,7.05,2.22,13.71,5.58,20.09,.43-1.03,.85-2.08,1.23-3.14,1.41-4.01,1.81-8.27,2.05-12.56-3.48-.57-6.63-2.12-8.85-4.4Z" style="fill:#bae2ed;"></path><path d="M2939.55,2359.14c-3.8-2.95-6.76-6.79-9.34-10.87-2.9-4.58-5.47-9.38-8.57-13.83-3.27-4.7-7.05-8.06-11.44-11.66-10.47-8.6-20.28-18.01-31.1-26.17-15.21-11.47-36-23.76-55.9-21.85-6.11,.59-12.25,3.13-16.9,7.25-.14,.19-.31,.36-.53,.48-3.07,2.87-5.43,6.44-6.6,10.65-1.81,6.52-1.12,13.15-1.91,19.79-.63,5.29-2.33,10.05-4.51,14.88-.02,.04-.03,.07-.05,.11,.04,.07,.08,.13,.12,.2,.82,1.27-.18,2.46-1.34,2.64-2.21,5.46-3.54,10.88-2.83,17.01,.71,6.09,2.84,11.78,5.75,17.16,5.52,10.2,11.47,19.6,15.06,30.68,13.04,3.48,26.24,11.42,34.26,17.95,2.6-2.16,6.04-3.32,9-1.43,4.7,2.99,6.51,9.42,7.68,14.53,1.18,5.17,2.09,10.59,2.14,15.91,0,.63-.26,1.09-.64,1.38,0,.12-.01,.25-.02,.38,8.34-3.4,17.74,.59,26.42,.15,11.76-.6,22.17-6.69,30.97-14.2,9.12-7.79,18.84-17.61,23.87-28.66,1.02-2.23,1.86-4.51,2.57-6.82-5.11-10.36-6.94-22.66-6.16-35.64Z" style="fill:#bae2ed;"></path><path d="M2841.26,2416.21c-9.61-7.88-21.25-14.34-33.39-17.17-6.47-1.51-13.73-2.26-20.05,.33-6.88,2.81-10.84,9.22-12.32,16.3-2.45,11.7-.5,22.27,6.81,31.8,3.93,5.12,11.85,15.48,5.51,21.96-7.61,7.79-22.83-10.11-27.56-14.87-4.5-4.52-10.44-8.12-16-11.2-5.22-2.89-10.68-5.91-16.52-7.3-6.01-1.43-12.45-2.51-18.64-1.81-5.07,.57-8.58,3.84-12.91,5.97,3.96,3.02,7.57,7.43,7.13,12.41-.44,5.02-5.26,8.54-9.2,10.94-5.83,3.55-12.16,6.17-17.96,9.75-2.65,1.64-5.65,3.5-7.44,6.13-2.32,3.41-2.75,8.01-2.9,12.03-.4,10.56,.42,23.31,5.32,32.9,4.41,8.62,10.62,16.28,12.81,25.76,.58,.13,1.16,.27,1.75,.42,6.28,.57,12.45-1.27,18.76-.93,4.67,.25,9.29,1.29,13.41,3.59,6.78,3.79,11.99,9.46,16.66,15.55,7.8-8.01,12.79-17.83,19.38-26.77,6.35-8.61,14.77-14.45,24.26-19.25,5.96-3.02,13.58-6.02,21.32-7.44,1.02-16.48,12.55-27.52,28.99-29.6,.04,0,.08,0,.13,0-.19-5.43,1.43-11.03,3.38-16.12,1.83-4.79,4.04-9.44,5.75-14.27,1.38-3.89,1.38-8,1.26-12.09-.24-7.92-2.15-17.89,1.31-25.37,.25-.55,.58-1.1,.95-1.64Z" style="fill:#bae2ed;"></path><path d="M2770.48,2617.89c-3-5.07-7.21-9.34-11.22-13.62-7.89-8.43-15.74-16.76-22.44-26.2-5.68-8-11.8-17.14-20.8-21.72-9.49-4.83-19.01-1.64-28.79-2.07-3.72,3.65-6.33,7.54-7.5,12.7-1.29,5.66-2.18,11.43-3.88,16.99-3.93,12.9-9.01,26-14.69,38.23-6.24,13.4-12.38,26.04-12.09,41.19,.27,13.97,3.58,27.54,7.62,40.84,3.91-6.99,7.98-13.98,13.84-19.46,4.14-3.88,8.83-7.41,14.2-9.39,5.91-2.18,12.04-3.03,18.21-4.08,12.87-2.19,25.32-6.86,36.1-14.31,9.85-6.81,17.01-17.25,27.84-22.57,2.43-1.19,4.91-2.21,7.44-3.08-.65-4.63-1.42-9.39-3.83-13.46Z" style="fill:#bae2ed;"></path><path d="M2680.12,2549.47c-2.09-7.61-7.16-14-10.89-20.91-3.56-6.6-5.19-13.58-6.17-20.98-1.54-11.6-3.19-26.56,7.1-34.57,7.89-6.13,18.24-8.64,25.81-15.17,3.15-2.72,5.04-6.04,2.47-9.94-4.23-6.42-11.15-8.15-17.78-11.12-3.95-1.77-8.5-4.3-10.42-8.43-1.97-4.23-2.53-8.78-2.47-13.41,.07-5.35,.67-10.7,.11-16.04-.33-3.18-.77-7.33-3.05-9.83-4.54-4.96-13.62-4.43-19.72-5.13-9.75-1.11-18.28-4.42-26-10.52-7.91-6.24-14.6-14.05-23.11-19.52-10.81-6.95-22.74-4.74-34.73-3.07,17.35,54.7,40.5,83.13,4.76,113.65-24.53,20.95-22.96,47.19-15.59,67.82,7-.68,13.98-.84,21.05-.97,7.73-.14,15.59-.43,23.25,.87,16.79,2.86,29.5,16.26,46.69,17.75,12.83,1.11,25.91-2.16,38.69-.49Z" style="fill:#bae2ed;"></path><path d="M3041.76,2481.63s-28.46,4.22-30.57,14.76c-2.11,10.54,2.11,34.79,8.43,40.06,6.33,5.27-20.03-1.05-29.52,44.28-9.49,45.33-12.65,105.42,32.68,72.74,45.33-32.68,57.98-90.66,72.74-124.4,14.76-33.74,46.39-88.56,12.65-93.83-33.74-5.27-44.28-14.76-66.42,46.39Z" style="fill:#bae2ed;"></path><path d="M3140.86,2076.8s-2.11,14.76,3.16,13.7c5.27-1.05,20.03-1.05,17.92-8.43-2.11-7.38-10.54-12.65-21.08-5.27Z" style="fill:#bae2ed;"></path><path d="M2993.26,2418.37c.01,.43,.06,.93,.13,1.49,.67,5.02,5.37,8.49,10.36,7.65h0c2.69-.45,5.04-2.1,6.36-4.49l.46-.83c1.73-3.11,1.45-6.93-.69-9.77-5.92-7.86-17.41-19.96-16.63,5.95Z" style="fill:#bae2ed;"></path><path d="M3716.47,2067.31c-6.33,0-18.98,0-17.92,3.16,1.05,3.16,9.49,8.43,9.49,8.43l11.6-2.11-3.16-9.49Z" style="fill:#bae2ed;"></path><path d="M3946.95,2241.92c-1.19,3.56-3.16,43.88,35.58,65.63,38.74,21.74,39.93,31.63,66.02,14.23,26.09-17.39,27.28-34.39,30.44-54.16,3.16-19.77,1.98-34.79-3.16-56.14s11.46-61.28-13.44-54.16c-24.91,7.12-115.44,84.6-115.44,84.6Z" style="fill:#bae2ed;"></path><path d="M4105.08,2257.34c-3.16,3.16-17.79,12.65-17,45.07,.79,32.42,1.98,61.67,12.26,60.49,10.28-1.19-4.74-49.42,18.98-35.58,23.72,13.84,56.14,49.02,39.53,5.93-16.6-43.09-30.44-52.98-10.67-53.77,19.77-.79,38.74-8.3,39.14-19.77,.4-11.46-21.35-26.88-42.3-22.14-20.95,4.74-39.93,19.77-39.93,19.77Z" style="fill:#bae2ed;"></path><path d="M4150.15,2387.01c-11.86-1.98-34.39-3.16-41.91-.79-7.51,2.37-31.23-5.53-13.05,13.44,18.19,18.98,29.65,35.19,44.28,29.25,14.63-5.93,18.98-8.3,37.16-13.84,18.19-5.53,35.18-12.26,24.12-20.56-11.07-8.3-50.6-7.51-50.6-7.51Z" style="fill:#bae2ed;"></path><path d="M4301.56,2284.22c-1.58-3.16-22.53-19.77-30.84-9.49-8.3,10.28,12.26,45.46,24.12,50.6,11.86,5.14,30.05,4.74,41.91,15.42,11.86,10.67,25.7,31.23,45.46,45.07,19.77,13.84,37.56-11.07,71.95-5.93,34.39,5.14,35.19,39.14,56.53,37.56,21.35-1.58,5.93-30.05-2.37-43.49-8.3-13.44-1.19-24.91-26.49-40.32-25.3-15.42-111.48-56.14-146.27-54.16-34.79,1.98-34,4.74-34,4.74Z" style="fill:#bae2ed;"></path><path d="M4231.99,2242.71c-5.14-4.74-29.65-19.37-29.65-11.46s.4,29.25,3.16,38.74c2.77,9.49,2.77,40.72,11.07,21.35,8.3-19.37,17-26.49,17-36.37s-1.58-12.26-1.58-12.26Z" style="fill:#bae2ed;"></path><path d="M4246.61,2310.32c-16.73,1.83-8.7-6.72-33.21-5.53-24.51,1.19-40.72-1.19-34.39,7.12,6.33,8.3,19.37,15.81,33.21,16.6,13.84,.79,22.93-.4,32.81,.4,9.88,.79,22.93,5.14,20.95,.79s9.49-22.53-19.37-19.37Z" style="fill:#bae2ed;"></path><path d="M4148.17,2130.83c-2.18,3.66,1.58,26.88,6.33,30.05s7.12,15.02,26.09,15.81c18.98,.79,22.93-40.32,17.39-52.18-5.53-11.86,5.53-11.86-16.6-32.42-22.14-20.56-50.6-28.46-57.72-45.07-7.12-16.6,3.95-34,1.58-44.28-2.37-10.28-34.79-17.39-39.53-11.86-4.74,5.53-1.58,41.11,4.74,51.39,6.33,10.28,5.53,26.09-.79,34.79-6.33,8.7,34.79,22.93,45.86,33.21,11.07,10.28,30.05-8.7,12.65,20.56Z" style="fill:#bae2ed;"></path><path d="M4097.04,1869.12c-3.06,.97-14.76-1.05-17.39,16.87s-2.11,44.8,6.33,47.44c8.43,2.64,33.74,7.38,30.05-21.08-3.69-28.46-8.96-46.39-18.98-43.22Z" style="fill:#bae2ed;"></path><path d="M4221.97,1756.84s-9.49,18.98-24.77-11.07c-15.29-30.05-11.07-40.59,14.23-53.24,25.3-12.65,57.98-36.9,66.94-52.18,8.96-15.29,23.72-34.26,20.03-55.87-3.69-21.61-5.8-25.83-11.07-42.7-5.27-16.87-7.38-70.11-1.05-78.01s18.98,15.81,35.84,17.39c16.87,1.58,60.62-44.8,70.63-49.55,10.02-4.74-24.25,53.77-38.48,72.21-14.23,18.45-31.63,23.72-22.14,58.51s31.1,72.74,14.23,111.22c-16.87,38.48-57.98,50.08-85.39,60.62-27.41,10.54-26.36-27.41-39.01,22.67Z" style="fill:#bae2ed;"></path><path d="M4556.16,2311.9s12.65,8.43-7.38,21.61c-20.03,13.18-30.05-3.69-33.21,10.02-3.16,13.71,21.08,31.1,43.75,10.54,22.67-20.56,44.8-17.39,28.99-31.1-15.81-13.7-35.32-41.64-32.15-11.07Z" style="fill:#bae2ed;"></path><path d="M4612.56,2345.63c-5.27,0-18.98,7.38-7.38,18.98,11.6,11.6,23.19,10.54,23.19,10.54,0,0,11.6-5.27,9.49-8.43-2.11-3.16-25.3-21.08-25.3-21.08Z" style="fill:#bae2ed;"></path><path d="M4664.22,2379.37c-4.22-1.05-9.75,3.69-7.38,7.38,2.37,3.69,2.9,6.85,8.17,4.48,5.27-2.37,11.07,3.16,7.64-4.22-3.43-7.38-8.43-7.64-8.43-7.64Z" style="fill:#bae2ed;"></path><path d="M4691.89,2397.95c-5.67-2.11-7.64,2.9-9.88,4.35s-5.67,.26-7.91,3.69c-2.24,3.43-4.09,6.06,.4,8.04s5.27,3.56,8.96,1.58c3.69-1.98,7.38-3.43,8.7-4.48,1.32-1.05,5.27-4.48,3.56-7.78s-3.82-5.4-3.82-5.4Z" style="fill:#bae2ed;"></path><path d="M4701.91,2418.77c-1.71,.79-6.33,4.35-7.25,6.72-.92,2.37-5.4,6.46,1.32,6.33,6.72-.13,7.77,4.74,8.96-.79,1.19-5.53,2.5-7.77,.4-10.02-2.11-2.24-3.43-2.24-3.43-2.24Z" style="fill:#bae2ed;"></path><path d="M4778.6,2507.46c-3.16-3.16-18.98-22.67-18.98-17.92s1.58,19.5,6.33,22.67c4.74,3.16,11.6,10.02,15.81,13.18,4.22,3.16,10.02,14.23,6.85,3.16-3.16-11.07-10.02-21.08-10.02-21.08Z" style="fill:#bae2ed;"></path><path d="M4745.4,2601.28c-2.64-3.16-25.83-17.92-30.05-14.76-4.22,3.16,2.64,25.83,7.38,28.99,4.74,3.16,19.5,11.07,24.25,11.6,4.74,.53,12.65,10.02,11.07-4.22-1.58-14.23-12.65-21.61-12.65-21.61Z" style="fill:#bae2ed;"></path><path d="M4428.07,2441.57s11.07,18.98,15.81,36.37c4.74,17.39-3.16,61.67,33.21,93.3,36.37,31.63,104.37,86.97,79.07,129.67-25.3,42.7-28.46,115.44-44.28,132.83-15.81,17.39-39.53,37.95-45.86,50.6-6.33,12.65-82.23,41.11-94.88,41.11s-37.95-6.33-56.93-39.53c-18.98-33.21-26.88-25.3-26.88-45.86s18.98-34.79,1.58-26.88c-17.39,7.91-11.07,30.05-30.05,7.91-18.98-22.14-23.72-42.7-49.02-44.28-25.3-1.58-71.16,22.14-91.72,23.72-20.56,1.58-74.32,28.46-102.79,15.81-28.46-12.65-33.21,22.14-33.21-37.95s-20.56-66.42-3.16-118.6c17.39-52.18-18.98-50.6,25.3-72.74,44.28-22.14,50.6,28.46,113.86-34.79,63.25-63.25,72.74-72.74,85.39-74.32,12.65-1.58,22.14-3.16,52.18-22.14,30.05-18.98,58.51-6.33,61.67,6.33s33.21,25.3,55.35,25.3,23.72-60.09,55.35-45.86Z" style="fill:#bae2ed;"></path><path d="M4409.1,2963.41c-5.1-2.55-17.39,6.33-36.37,3.16s-39.53,1.58-25.3,36.37c14.23,34.79,18.98,55.35,39.53,31.63s31.63-66.42,22.14-71.16Z" style="fill:#bae2ed;"></path><path d="M4733.27,3010.85c-5.3,3.45-74.32,66.42-83.81,74.32-9.49,7.91-30.05,11.07-30.05,36.37s7.91,39.53,56.93,11.07c49.02-28.46,69.58-83.81,107.53-105.95,37.95-22.14,74.32-71.16,63.25-80.65-11.07-9.49-26.88-12.65-34.79-31.63-7.91-18.98-15.81-53.77-25.3-56.93-9.49-3.16,17.39,26.88,1.58,63.25-15.81,36.37-23.72,69.58-55.35,90.14Z" style="fill:#bae2ed;"></path><path d="M2503.57,1603.45c-3.16,0-11.07,20.56-10.28,26.09,.79,5.53,1.58,8.7,1.58,26.09s4.74,22.93,9.49,23.72c4.74,.79,13.44,12.65,13.44-9.49s3.16-23.72,3.16-37.95-17.39-28.46-17.39-28.46Z" style="fill:#bae2ed;"></path><path d="M2727.33,1726.01c-5.87,2.49-21.35,5.53-21.35,5.53,0,0,7.91,17.39,25.3,12.65,17.39-4.74,26.09,1.58,17.39-4.74s4.74-24.51-21.35-13.44Z" style="fill:#bae2ed;"></path><path d="M2838.82,1732.33s-15.81,2.37-15.81,5.53,3.95,11.07,10.28,10.28,1.58,2.37,12.65-2.37c11.07-4.74,15.81-7.91,15.81-7.91,0,0-.79-3.16-3.95-4.74-3.16-1.58-18.98-.79-18.98-.79Z" style="fill:#bae2ed;"></path><path d="M2583.43,661.76c-3.95,.79-29.25,9.49-41.91,18.98s-27.67,13.44-43.49,15.81c-15.81,2.37-43.49,8.7-23.72,43.49,19.77,34.79,33.21,30.84,44.28,55.35,11.07,24.51,20.56,52.18,37.95,31.63s12.65-75.11,26.09-71.16c13.44,3.95,46.65,63.25,49.81,31.63s-26.88-55.35-21.35-61.67c5.53-6.33,39.53,0,37.16-23.72s-12.65-33.21-34-37.16c-21.35-3.95-30.84-3.16-30.84-3.16Z" style="fill:#bae2ed;"></path><path d="M2892.58,550.28c-13.47-1.92-41.91-.79-45.86,28.46-3.95,29.25,2.37,39.53-3.95,47.44-6.33,7.91-7.12,22.93-12.65,6.33-5.53-16.6-.79-22.93-12.65-22.14-11.86,.79-3.95,1.58-20.56,7.12-16.6,5.53-20.56-5.53-30.05,5.53-9.49,11.07,3.95,34.79,9.49,37.95,5.53,3.16,26.09,5.53,37.95-2.37,11.86-7.91,43.49,3.16,51.39,3.95s26.09-3.95,26.09-23.72,25.3,17.39,30.84-6.33-3.16,6.33,11.07-32.42c14.23-38.74-4.74-52.98-14.23-37.16-9.49,15.81-22.93,30.05-28.46,40.32-5.53,10.28-10.28,24.51-15.81,11.07-5.53-13.44-11.86-18.19-3.95-29.26,7.91-11.07,3.16-14.23,11.86-18.19,8.7-3.95,31.63-13.44,9.49-16.6Z" style="fill:#bae2ed;"></path><path d="M3210.44,506c-15.81-3.95-49.81-20.56-45.07,9.49,4.74,30.05,33.21,50.6,39.53,64.84,6.33,14.23,18.98,16.6,32.42,22.14,13.44,5.53,24.51,10.28,40.32,7.12,15.81-3.16,33.21-11.07,24.51-26.88-8.7-15.81-12.65-25.3-35.58-37.16s-43.49-33.21-45.86-34.79c-2.37-1.58-10.28-4.74-10.28-4.74Z" style="fill:#bae2ed;"></path><path d="M3306.11,562.93s6.33,5.53,12.65,17.39c6.33,11.86,7.12,17.39,3.16,30.05-3.95,12.65-9.49,22.14,4.74,18.98,14.23-3.16,20.56-10.28,26.88-16.6,6.33-6.33,7.12-7.91,11.86-11.07,4.74-3.16-1.58-31.63-11.07-36.37-9.49-4.74-7.91-20.56-23.72-15.02-15.81,5.53-31.63,11.07-24.51,12.65Z" style="fill:#bae2ed;"></path><path d="M3050.72,773.25c-2.37,3.16-18.19,33.21-30.05,45.86-11.86,12.65-15.02,10.28-18.98,31.63-3.95,21.35,3.16,64.84,6.33,79.86,3.16,15.02,10.28,10.28,7.91,22.14s27.67,56.93-14.23,18.19c-41.91-38.74-36.37-13.44-48.23-49.81-11.86-36.37-27.67,5.53-11.86-48.23,15.81-53.77,17.39-56.93,30.84-74.32,13.44-17.39,24.51-36.37,33.21-41.11,8.7-4.74,30.84-15.81,35.58-17.39,4.74-1.58,47.44-3.16,39.53,5.53s-13.44,15.81-17.39,19.77c-3.95,3.95-12.65,7.91-12.65,7.91Z" style="fill:#bae2ed;"></path><path d="M3790,562.93s-14.23-10.28-19.77-6.33-12.65,11.07-21.35,11.07-17.39-5.53-18.19,15.02,21.35,30.84,34.79,37.95c13.44,7.12,23.72,18.98,34,7.12,10.28-11.86,13.44-18.19,26.09-22.14,12.65-3.95,25.3,6.33,23.72-11.07-1.58-17.39,12.65-33.21-12.65-33.21s-46.65,1.58-46.65,1.58Z" style="fill:#bae2ed;"></path><path d="M3895.16,559.76c-6.33,0-18.19,5.53-18.19,5.53,0,0-16.6,5.53,0,11.86,16.6,6.33,17.39,3.95,22.93,6.33,5.53,2.37,6.33,6.33,15.02,2.37,8.7-3.95,18.98-10.28,16.6-13.44-2.37-3.16,1.58-21.35-9.49-21.35s-26.88,8.7-26.88,8.7Z" style="fill:#bae2ed;"></path><path d="M3849.3,629.34c-6.33,.79-14.23-3.95-16.6,.79-2.37,4.74-2.37,11.86,1.58,11.86s15.81-2.37,16.6-4.74-1.58-7.91-1.58-7.91Z" style="fill:#bae2ed;"></path><path d="M3899.11,630.93c-8.7,0-26.09-3.95-24.51,9.49,1.58,13.44,3.16,12.65,7.91,15.02,4.74,2.37,8.7,3.95,15.02,2.37,6.33-1.58,16.6,9.49,15.02-5.53-1.58-15.02-13.44-21.35-13.44-21.35Z" style="fill:#bae2ed;"></path><path d="M4196.67,1802.7c-1.58,2.64,3.69,14.23,3.69,14.23,0,0,4.74,2.11,4.74-.53s8.43-6.33,4.22-12.65-12.65-1.05-12.65-1.05Z" style="fill:#bae2ed;"></path><path d="M4168.73,1828c-3.16,0-2.11,8.96-2.11,8.96l5.27,2.64s1.58-1.58,1.58-4.74-4.74-6.85-4.74-6.85Z" style="fill:#bae2ed;"></path></g></g></g></svg>