<?xml version="1.0" encoding="UTF-8"?>
<svg xmlns="http://www.w3.org/2000/svg" xmlns:xlink="http://www.w3.org/1999/xlink" id="uuid-a67b1afa-c8a2-4288-8653-8e15d4ff0845" viewBox="0 0 7800 5200">
  <defs>
    <clipPath id="uuid-ff6ceb85-d991-43e1-b27a-7dbd82d197f4">
      <rect width="7800" height="5200" style="fill:none;"></rect>
    </clipPath>
  </defs>
  <g id="uuid-1e7ba1fb-4874-406c-81e5-fd4e5f9b19fb">
    <g style="clip-path:url(#uuid-ff6ceb85-d991-43e1-b27a-7dbd82d197f4);">
      <rect width="7800" height="5200" style="fill:#006c35;"></rect>
      <path d="M4287.1,2152.86c-32.73,36.08-46.88,78.59-54.52,123.21-2.51,14.67-8.43,20.41-21.52,24.2-52.45,15.17-105.59,27.11-159.37,36.27-50.37,8.58-101.06,14.85-151.69,21.63-28.51,3.82-49.02,21.67-61.33,47.01-7.96,16.4-7.01,33.7,10.19,49.54,11.56,10.64,24.6,19.2,38.34,26.56,14.48,7.76,29.49,14.53,44.2,21.86,27.49,13.7,34.54,33.97,21.64,62.26-1.79,3.93-4.18,7.58-6.08,11.46-6.44,13.2-15.84,17.47-31.3,16.28-67.97-5.24-133.48-19.54-195.59-48.12-36.46-16.77-69.87-38.18-98.99-65.96-20.19-19.26-37.43-40.84-50.39-65.68-2-3.84-3.7-7.89-6.16-11.42-3.82-5.47-12.03-7.49-18.58-5.46-8.7,2.7-14.87,8.68-20.31,15.51-8.64,10.84-17.02,21.88-25.63,32.74-23.18,29.2-47.58,57.32-74.29,83.39-43.26,42.23-92.45,75.37-148.51,98.33-63.64,26.06-156.1,4.49-200.02-58.31-9.1-13.02-14.48-27.46-19.7-42.15-5.33-14.99-5.98-15.26-19.96-9.57-38.46,15.66-76.7,31.91-115.4,46.94-49.19,19.11-98.58,37.8-149.84,50.85-10.89,2.77-21.97,4.88-33.05,6.75-5.92,1-12.02,1.24-17.86-1.35-3.87-1.72-5.7-6.65-4.29-10.78,2.07-6.07,6.67-10.05,10.91-14.32,18.36-18.48,38.42-34.97,59.32-50.48,35.52-26.35,73.06-49.59,110.76-72.61,46.55-28.42,92.99-57.04,139.42-85.65,6.63-4.09,12.82-8.91,19.52-12.86,7.24-4.26,10.93-10.47,12.93-18.42,4.02-15.94,8.31-31.81,12.88-47.59,6.52-22.52,14.91-44.32,27.13-64.43,7.1-11.67,15.18-22.61,27.69-30.96,5.15,6.53,2.82,12.53,2.46,18.02-.46,6.9-1.63,13.75-2.48,20.63-.74,6.01-1.71,12.01-2.14,18.05-.49,6.91-.56,13.85-.68,20.77-.1,6.05-.02,12.1-.02,17.58,5.45,4.13,8.78,.52,11.94-1.96,44.31-34.8,87.71-70.65,127.8-110.33,4.92-4.87,9.39-10.21,14.35-15.04,37.28-36.26,31.71-88.17,16.44-120.52-8.18-17.34-18.95-33.03-32.13-46.99-4.75-5.04-9.5-10.14-14.72-14.67-41.45-35.94-40.89-81.5-28.12-128.78,5.85-21.68,24.06-33.4,44.55-40.13,9.92-3.26,20.44-1.87,30.52,2.19,11.52,4.64,21.22,11.7,29.74,20.45,29.73,30.56,47.96,67.51,59.22,108.16,2.74,9.88-2.55,15.1-12.49,12.96-5.06-1.09-9.88-3.28-14.93-4.35-4.86-1.03-9.69-4.32-14.91-1.14-.1,1.61-.91,3.7-.2,4.67,25.52,34.73,32.97,75.57,40.2,116.65,7.92,45.01,1.77,88.16-17.11,129.27-21.48,46.78-50.12,88.91-86.25,125.83-24.35,24.88-51.52,46.3-80.13,65.96-16.41,11.28-32.83,22.6-49.73,33.12-8.91,5.54-10.59,12.68-9.14,22.08,3.72,24.14,21.02,43.38,45.33,47.23,28.89,4.57,57.63,1.73,83.1-13.18,89.43-52.35,159.93-123.51,209.57-214.89,7.21-13.27,10.35-27.26,11.4-42.21,3.86-55.12-4.65-108.79-17.85-161.99-5.43-21.87-12.77-43.01-21.21-63.94-16.17-40.12-30.76-80.88-46.81-121.05-7.73-19.34-7.56-38.56-4.63-58.63,3.72-25.53,21-40.89,39.33-55.69,3.79-3.06,8.65-1.77,12.1,.97,13.57,10.8,26.02,22.4,34.53,38.15,30.23,55.96,51.94,115.04,66.94,176.72,10.46,43.04,16.68,86.69,19.04,130.89,.62,11.59,2.71,22.27,12.16,30.31,4.94,4.2,10.49,3.83,12.34-2.14,9.01-29,30.2-48.09,53.31-65.27,48.6-36.13,103.42-59.27,161.53-75.02,19.21-5.2,38.63-9.62,58.54-11.5,5.16-.49,10.26-1.59,15.37-2.56,6.62-1.26,10.32-5.58,12.55-11.76,2.73-7.54,2.69-15.29,2.65-23.09-.08-16.46-.24-32.92-.25-49.38-.02-27.67,8.21-52.9,23.39-75.83,12.69-19.17,29.34-34.13,50.28-43.88,20.12-9.37,40.32-12.29,62.92-6.83,76.86,18.57,105.61,64.89,108.1,132.8,1.65,45.17-14.62,84.84-46.35,117.57-20.85,21.5-46.04,36.38-73.5,47.84-38.67,16.15-79.34,24.25-120.5,30.37-6.84,1.02-13.8,1.18-20.13,4.54-3.25,1.73-5.97,3.94-5.52,7.79,.45,3.81,4.12,5.91,7.1,6.45,6.74,1.23,13.7,1.7,20.57,1.74,47.65,.27,95.3,.34,142.96,.49,64.11,.2,128.23,.65,192.34,.4,13.69-.05,25.62,2.56,36.75,13.4Zm-677.98,115.19c2.67,15.74,5.94,32.67,12.73,48.79,21.22,50.34,59.46,84.17,106.14,109.83,2.99,1.64,6.34,2.8,9.66,3.65,9.31,2.38,15.61-1.15,17.36-10.23,1.13-5.88,1.73-12.02,1.47-17.99-.33-7.76-2.15-15.46-2.61-23.22-1.88-31.77,10.55-55.66,39.93-69.3,11.74-5.45,24.03-9.73,36.17-14.27,6.56-2.45,12.81-5.21,17.72-10.38,5.82-6.12,6.55-14.48,1.67-21.33-5.79-8.1-13.94-12.76-23.28-15.61-10.85-3.32-22.05-4.14-33.29-5.14-44.81-3.97-89.96-4.89-134.14-14.79-4.96-1.11-10.39-1.17-15.47-.59-20.06,2.32-34.73,19.41-34.08,40.58Zm414.89-306.09c9.37,.27,15.14-1.09,18.82-6.76,3.87-5.96,1.73-11.64-1.8-16.77-10.93-15.92-25.93-24.9-45.48-25.01-12.36-.07-18.76,10.49-12.66,21.33,9.58,17.04,25.17,25.1,41.11,27.21Z" style="fill:#fbfdfc; fill-rule:evenodd;"></path>
      <path d="M2495.46,3688.17c7.5-5.14,12.69-3.51,17.62-3.34,67.54,2.44,135.05,5.6,202.61,7.38,119.52,3.14,239.03,6.79,358.63,7.11,197.55,.53,395.09,2.9,592.64,4.37,142.96,1.06,285.93,2.13,428.89,2.83,243.48,1.2,486.96,2.11,730.44,3.13,9.29,.04,18.59,0,29.15,0-1.22-10.33-8.39-14.83-11.92-21.27-18.35-33.5-5.71-69.08,29.89-83.07,9.55-3.75,12.3-2.69,15.98,6.21,.66,1.6,1.54,3.19,1.82,4.86,1.76,10.68,7.37,15.78,18.64,17.93,16.01,3.05,21.49,11.09,22.13,27.3,.41,10.47-2.12,20.63-5.1,30.61-1.45,4.84-3.09,9.62-4.43,13.8,5.95,6.04,12.29,4.12,17.97,4.49,55.33,3.6,110.87,3.25,166.08,8.99,3.44,.36,7,.03,10.36,.72,36.45,7.5,72.4,.47,108.47-3.5,12.04-1.33,24.12-2.58,36.22-3.12,25.13-1.1,45.33,9.31,61.7,27.82,10.46,11.81,18.12,25.37,23.57,40.1,15.57,42.1,22.92,84.98,14.14,129.94-6.47,33.14-24.3,54.74-57.6,62.69-5.89,1.41-11.78,2.85-17.67,4.26-18.63,4.45-36.16,.47-46.32-15.33-11.91-18.53-26.69-19.53-46.17-18.16-64.01,4.5-128.16,2.51-192.25,.63-18.19-.53-36.4-.79-54.55-1.97-10.3-.67-18.06,1-24.18,10.64-5.65,8.9-14.37,14.73-25.85,15.25-9.28,.42-17.21-1.9-23.06-9.31-3.21-4.06-6.34-8.31-8.69-12.9-17.08-33.38-24.99-68.11-14.72-105.35,1.1-4,2.84-8.08,.51-12.37-6.39-3.77-13.48-2.22-20.26-2.21-240.03,.3-480.05,.71-720.08,1.09-157.71,.25-315.41,.49-473.12,.7-257.36,.34-514.71,.69-772.07,.97-41.6,.05-83.16-.77-124.51-6.25-41.37-5.49-81.84-14.3-120.17-31.32-51.1-22.69-92.31-57.12-124.74-104.36Zm2579.04,151.9c-51.53-.87-91.25-1.54-130.96-2.23-3.45-.06-6.92-.53-10.35-.32-7.54,.46-13.1,4.78-14.54,12.32-1.11,5.85-1.58,12.03-1.04,17.95,1.24,13.67,5.74,17.63,19.46,18.75,12.91,1.06,25.79,2.58,38.72,3.1,18.11,.74,36.24,.76,54.36,1.04,7.22,.11,12.39-2.55,17.72-8.25,18.76-20.05,52.11-20.54,71.36-1.43,3.91,3.88,7.14,6.96,12.77,7.14,21.58,.7,43.14,1.55,64.72,2.28,4.43,.15,8.65-.8,11.66-4.36,8.69-10.28,9.03-22.17,5.34-34.2-3.27-10.62-13-9.81-21.53-10.26-12.93-.68-25.88-1.39-38.83-1.48-30.22-.21-60.45-.07-78.86-.07Z" style="fill:#fbfdfc; fill-rule:evenodd;"></path>
      <path d="M5228.77,1415.8c-1.58-18.1-2.92-36.22-4.81-54.29-3.12-29.76,10.91-51.62,31.89-70.29,5.96-5.3,12.25-4.72,18.88,.31,5.03,3.81,7.98,9.06,10.86,14.38,30.92,57.1,61.75,114.25,92.72,171.32,5.6,10.33,8.89,20.6,3.47,32.11-4.02,8.54-10.33,11.21-18.75,7-4.62-2.31-8.92-5.27-13.48-7.71-2.29-1.22-7.62,2.52-7.39,5.18,1.27,14.67,2.88,29.3,3.96,43.98,1.73,23.32,3.63,46.65,4.55,70.01,.94,23.9,6.72,45.28,21.33,65.21,25.59,34.91,49.14,71.31,73.58,107.07,3.42,5,7,9.9,10.63,14.75,.36,.48,1.61,.25,2.44,.42,1.92,.4,3.32-.55,3.11-2.81-1.05-11.16-1.93-22.36-3.55-33.45-16.96-115.66-36.55-230.87-58.44-345.7-3.89-20.39-6.95-40.91-7.75-61.79-1.36-35.14,17.42-58.83,43.48-78.06,13.5-9.96,22.99-7.19,32.87,6.8,2.49,3.53,4.76,7.25,6.8,11.06,32.12,59.69,57.59,122.03,74.25,187.83,1.48,5.85,2.81,11.84,3.26,17.84,.99,13.29-3.6,19.56-16,22.74-2.48,.64-5.21,.31-7.74,.82-10.68,2.18-12.9,4.48-12.55,15.75,.33,10.36,1.12,20.8,2.85,31.01,6.36,37.54,13.32,74.98,19.82,112.5,13.59,78.48,27.44,156.93,35.58,236.24,1.59,15.51,3.99,30.94,5.26,46.46,1.16,14.25,6.16,26.41,14.5,38.1,41.78,58.5,82.11,117.99,120.78,178.63,15.37,24.1,23.78,49.33,26.36,77.6,3,32.93,4.72,65.63-.74,98.43-1.71,10.26-3.68,20.18-12.67,28.99-16.55-23.86-28.44-48.76-42.64-72.26-14.33-23.72-28.21-47.7-42.47-71.46-14.15-23.59-28.18-47.27-43.06-69.67-6.14,1.4-5.93,5.04-5.94,8.38-.07,30.33-.47,60.66,.06,90.98,.28,16.05-3.11,30.93-10.03,45.16-16.07,33.07-37.78,62.06-64.09,87.65-3.06,2.97-6.79,5.3-10.38,7.67-2.86,1.88-7.72-.39-7.83-3.62-.21-6.05-.29-12.11-.13-18.16,1.57-60.66,1.45-121.34-1.19-181.93-2.71-62.3-7.68-124.51-11.36-186.77-1-16.92-6.39-31.56-16.33-45.47-24.16-33.81-47.33-68.32-70.68-102.23-9.32,1.65-5.77,8.31-5.68,12.49,1.34,62.37,3.44,124.72,4.52,187.09,.87,50.24,.55,100.51,.86,150.76,.22,35.57-1.81,71.06-5.2,106.41-6.57,68.6-43.93,115.2-106.09,142.14-29.48,12.78-59.72,10.73-87.5-5.6-20.09-11.81-39.21-25.45-57.81-39.52-9.54-7.21-16.94-17.23-25.41-25.87-4.82-4.92-9.22-10.61-14.89-14.26-19.28-12.41-39.32-7.78-51.38,11.88-9.54,15.56-16.43,32.33-20.21,50.35-4.97,23.71-10.27,47.36-15.67,70.98-3.67,16.07-9.1,31.59-15.99,46.58-7.35,16-17.68,29.84-31.29,40.96-20.74,16.94-43.66,20.46-67.88,8.42-39.59-19.68-71.74-46.77-94.25-86.2-36.27-63.51-43.55-130.5-30.09-200.83,5.86-30.6,17.09-52.02,35.63-73.56,5.71,1.11,2.68,5.29,2.43,8-4.18,46.03-3.41,91.72,8.81,136.69,7.31,26.94,18.15,52.28,33.76,75.51,8.57,12.76,20.15,21.26,35.13,24.89,16.96,4.1,30.92-1.11,41.15-14.92,4.58-6.19,7.99-13.38,11.14-20.47,13.36-30.05,26.16-60.35,39.67-90.33,10.31-22.87,20.92-45.63,32.23-68.02,8.99-17.8,20.02-34.49,33.19-49.55,6.25-7.15,12.9-14.1,20.2-20.13,22.52-18.62,42.85-16.9,66.25,6.59,4.2,4.22,6.88,9.94,10.34,14.91,13.86,19.9,27.51,39.95,41.76,59.56,5.56,7.66,12.23,14.58,18.86,21.39,21.79,22.41,60.94,10.53,69.27-13.9,5.3-15.56,10.94-30.97,14.88-46.95,7.48-30.38,11.12-61.33,13.47-92.44,.52-6.86,.02-13.83-.39-20.73-4.3-71.78-8.72-143.54-13.01-215.32-4.45-74.37-9.05-148.73-12.99-223.13-.86-16.28-6.19-29.52-16.32-42.31-51.65-65.18-102.64-130.88-153.88-196.39-3.2-4.09-6.58-8.05-9.82-12.12-24.1-30.28-36.96-64.17-34.22-103.44,1.75-25.06,2.67-50.18,4-75.27,.14-2.59,.24-5.23,.82-7.75,3.95-17.19,6.94-26.95,28.7-10.37,42.38,32.27,78.6,70.5,113.75,110.03,2.28,2.56,4.72,4.98,7.08,7.46,1.19,6.69,8.02,11.91,6.17,19.11-2.66,10.36-12.73,6.08-19.39,8.5-7.18,2.61-9.92,7.21-7.05,13.55,5.34,11.79,22.04,30.42,37.74,41.76,.17-28.59-4.8-55.95-8.76-83.4Z" style="fill:#fafcfc; fill-rule:evenodd;"></path>
      <path d="M2839.92,1903.8c10.55-3.76,20.86-8.23,31.6-11.08,19.65-5.21,31.91,2.8,35.23,23.07,1.53,9.31,.97,18.96,1.51,28.45,.83,14.73,7.88,22.33,22.36,23.59,10.48,.91,20.58-.53,30.38-5.03,8.31-3.81,14.12-9.08,17.74-17.71,4.33-10.34,9.59-20.34,15.14-30.09,5.17-9.09,12.09-16.94,20.68-23.06,18.09-12.9,36.48-9.74,49.7,8.38,6.78,9.3,9.84,20.17,12.92,30.99,1.89,6.63,6.3,10.07,12.85,11.15,11.18,1.85,18.14-2.47,20.62-14.02,2.19-10.13,3.65-20.47,4.7-30.79,1.57-15.47,9.42-25.19,24.07-30.51,12.98-4.71,25.73-9.92,39.36-12.14,4.45,6.83,2.55,13.81,2.12,20.41-2.93,44.98-8.89,89.62-16.08,134.08-4.04,24.96-18.41,42.63-41.31,53.01-30.41,13.78-60.45,12.87-89.71-3.63-3-1.69-5.51-4.26-8.51-5.94-10.09-5.66-19.93-5.14-28.95,2.28-3.99,3.29-7.29,7.42-11.21,10.81-18.66,16.16-39.67,27.66-64.25,32.03-25.17,4.48-48.15,.12-68.52-16.08-3.69-2.93-7.32-9.05-13.06-4.75-4.49,3.35-3.9,9.3-3.38,14.44,1.76,17.23,3.89,34.43,5.55,51.67,5.95,61.62,4.3,122.73-10.79,183.22-11.53,46.21-32.46,87.51-62,124.55-50.22,62.96-113.93,108.25-186.85,141.16-64.71,29.2-132.25,46.2-203.66,45.33-31.4-.38-62.23-5.41-91.62-16.48-70.2-26.44-110.36-78.18-123.8-151.13-6.95-37.74-6.46-75.86-2.33-113.9,1.96-18.07,4.59-36.08,7.3-54.06,1.82-12.05,5.62-23.66,11.35-34.38,3.21-6.01,7.44-11.76,12.29-16.54,6.82-6.72,16.87-5.28,22.59,2.56,6.26,8.56,9.74,18.43,11.04,28.81,1.94,15.46,3.55,30.98,4.5,46.53,1.58,25.99,5.48,51.58,10.18,77.17,8.46,45.99,35.66,75.76,77.73,93.32,42.6,17.78,87.12,22.94,132.48,16.41,149.9-21.56,244.72-108.85,293.43-249.43,15.97-46.1,22.8-94.16,24.54-142.88,.21-5.94-.68-12.09-2.11-17.88-1.91-7.73-10.16-10.32-16.3-5.62-8.62,6.59-13.7,15.13-15.51,26.03-2.83,17.07-5.9,34.13-9.72,51-11.36,50.22-29.78,97.67-57.8,141.03-36.68,56.77-84.61,100.62-148.32,125.29-45.5,17.62-92.26,22.94-140.15,10.53-74.52-19.31-125.87-78.15-137.84-155.72-8-51.79-.53-101.81,13.59-151.37,3.55-12.46,8.26-24.59,12.34-36.91,2.83-8.53,8.97-12.45,17.59-12.67,8.07-.21,12.62,5,15.76,11.52,4.93,10.23,7.62,21.18,8.62,32.44,1.9,21.57,3.4,43.17,5.27,64.74,1.34,15.52,2.36,31.11,4.67,46.49,7.98,53.18,49.16,85.69,102.45,81.21,36.8-3.1,71.04-15.3,103.7-31.62,34.32-17.15,65.07-39.63,91.46-67.68,21.61-22.96,38.8-48.68,48.23-79.15,3.38-10.91,5.19-21.92,3.81-33.26-.46-3.77-3.63-6.16-7.41-5.21-4.11,1.03-8.25,2.7-11.8,4.99-9.45,6.09-18.46,12.88-27.89,19.02-26.05,16.96-54.52,20.63-84.65,15.06-13.1-2.42-24.32-8.57-34.98-16.28-12.66-9.16-19.32-21.07-21.6-36.76-5.84-40.18-2.6-79.96,8.37-118.39,12.08-42.32,40.98-72.47,81.75-88.55,36.91-14.56,71.64-8.36,100.34,20.86,7.88,8.01,14.69,17.06,22.23,25.42,6.37,7.06,12.72,14.22,19.76,20.58,11.43,10.34,20.41,10.4,32.03,.29,12.66-11.02,18.08-25.09,15.39-41.88-5.35-33.34-10.94-66.63-16.19-99.99-11.57-73.55-22.92-147.13-34.49-220.67-9.55-60.71-19.31-121.4-28.93-182.1-1.63-10.27-3.4-20.53-4.48-30.85-3.35-32.16,10.95-55.25,41.27-67.16,3.21-1.26,6.55-2.19,9.85-3.23,20.19-6.35,26.99-4.5,40.57,11.68,8.42,10.04,14.08,21.8,19.61,33.55,14,29.8,25.59,60.58,36.41,91.64,7.97,22.88,15.21,46.01,23.26,68.85,2.53,7.17-.02,11.69-5.33,15.54-8.14,5.91-17.2,7.61-27.11,5.68-5.91-1.15-11.91-1.89-17.9-2.49-3.14-.31-4.86,2.42-4.84,4.81,.07,6.91,.48,13.86,1.38,20.71,5.72,43.79,11.6,87.55,17.44,131.33,7.91,59.22,15.81,118.44,23.76,177.65,1.25,9.32,.45,19.15,6.5,27.69Zm-252.87,147.35c21.28,.33,27.42-3.55,31.08-19.28,2.89-12.42-3.26-26.6-14.35-33.09-11.07-6.48-26.11-4.87-35.27,5.19-5.66,6.22-10.14,13.77-14.03,21.3-3.97,7.68-1.07,14.49,6.13,20.05,8.19,6.33,17.71,5.41,26.45,5.83Z" style="fill:#fafdfc; fill-rule:evenodd;"></path>
      <path d="M2651.1,1527.42c4.79,16.06,8.84,32.63,14.66,48.55,18.04,49.3,26.07,100.43,29.06,152.5,1.52,26.39-7.43,49.32-25.15,68.84-10.59,11.66-23.1,20.94-36.84,28.49-19.82,10.89-40.87,18.68-62.74,24.4-23.37,6.11-44.63,2.04-63.67-12.83-8.87-6.92-17.57-14.08-26.18-21.33-8.95-7.54-19.31-11.56-30.82-12.3-11.98-.77-23.66,3.44-27.62,17.98-3,11.04-4.66,21.85-4.61,33.17,.15,31.28,5.45,62.09,8.04,93.15,5.77,69.21,8.09,138.34-2.61,207.31-2.93,18.88-7.91,37.23-15.59,54.78-4.9,11.19-11.04,21.61-19.91,30.16-10.53,10.15-17.34,12.4-35.65,11.86-.56-3.2-1.51-6.52-1.68-9.88-3.6-74.41-7.08-148.82-10.66-223.23-1.33-27.69-2.68-55.37-4.36-83.04-1.45-23.9-15.3-38.41-38.66-41-4.29-.47-8.66-.55-12.98-.38-30.57,1.22-52.53-14.67-71.02-36.49-7.9-9.33-12.44-20.87-13.62-33.22-.99-10.33-1.56-20.73-1.59-31.1-.15-54.58-.09-109.16-.06-163.74,0-9.54,.23-19.08-2.97-28.28-2.67-7.66-10.84-9.25-16.21-2.78-10.05,12.09-18.08,25.14-20.56,41.23-3.04,19.75-4.54,39.56-4.67,59.52-.18,28.59-.75,57.16-5.26,85.5-2.19,13.78-5.47,27.22-11.55,39.74-16.53,34.09-55.15,45.63-88,26.35-17-9.97-28.34-25.02-37.13-42.38-13.51-26.66-19.97-55.37-23.9-84.57-9.65-71.67-6.24-143.49-.74-215.27,.13-1.71,.47-3.43,.94-5.09,1.62-5.79,10.42-7.71,15.02-3.38,5.92,5.56,8.41,12.91,10.99,20.29,6.89,19.69,10.57,40.14,14.55,60.51,6.8,34.82,11.82,70,21.22,104.28,3.66,13.35,7.32,26.77,14.66,38.71,11.4,18.53,24.04,18.14,34.62-1.05,5.07-9.2,7.39-19.29,9.29-29.57,6.29-34.03,12.66-68.04,19.4-101.98,6.46-32.51,17.39-63.38,35.31-91.51,7.95-12.47,16.77-24.22,28.4-33.56,5.42-4.36,11.18-7.86,18.37-9.03,23.7-3.85,35.47,2.23,45.39,24.52,8.61,19.34,10.79,40.11,11.92,60.84,2.46,45.07,1.74,90.07-6.49,134.65-4.07,22.09,3.35,40.86,16.77,57.79,3.2,4.04,7.2,7.35,12.33,9.18,6.12,2.18,12.43,.82,16.23-4.34,4.72-6.42,7.21-13.76,8.07-21.63,1.42-12.96,1.77-25.97,.02-38.9-8.93-66.03-16.46-132.28-33.77-196.91-3.55-13.27-5.44-27.29-5.88-41.04-1-31.15-.41-62.35-.88-93.53-.19-12.39,5.02-21.73,14.23-29.14,12.26-9.86,25.79-9.49,37.72,1.03,11.96,10.55,20.09,23.7,25.06,38.82,8.43,25.61,12.32,52.12,16.23,78.7,6.33,42.96,6.2,86.36,9.63,129.51,2.61,32.87,7.12,65.36,15.48,97.31,2.69,10.29,6.77,19.6,14.02,27.4,5.73,6.16,13.25,8.05,18.51,4.8,7.66-4.74,11.89-14.59,8.78-22.23-2.94-7.19-6.68-14.06-10.17-21.01-26.64-52.98-38.34-109.07-35.75-168.3,.61-13.97,3.39-27.48,6.65-40.94,1.21-5,3.26-9.89,5.54-14.53,10.59-21.61,33.46-25.62,48.05-6.44,17.15,22.55,35.92,44.82,40.99,74.31,.59,3.4,1.37,6.86,2.69,10.03,15.6,37.55,12.61,76.26,7.66,115.18-4.05,31.9-7.7,27.11,19.03,50.98,15.49,13.83,32.05,26.46,48.18,39.56,12.31,10,26.34,12.51,41.57,9.01,9.14-2.1,13.18-6.56,13.15-16.45-.11-31.7-6.21-62-24.31-88.71-22-32.48-40.28-66.64-49.99-104.92-4.49-17.68-7.3-35.57-7.14-53.9,.12-13.43,4.12-25.62,11.35-36.71,15.01-23.01,39.65-28.95,63.25-15.1,21.26,12.47,38.91,28.65,51.12,50.5,8.91,15.95,15.7,32.73,21.85,49.85,2.57,7.14,2.52,13.48-3.04,19.18-5.58,5.73-12.07,5.48-19.21,3.63-3.68-.96-6.17-6.49-12.39-2.41Z" style="fill:#fafcfb; fill-rule:evenodd;"></path>
      <path d="M3550.89,1511.93c0,25.98,.36,51.97-.08,77.95-.69,40.76,22.3,68.61,56.13,82,26.76,10.59,49.25,5.81,68.48-14.98,12.98-14.04,23.26-30.11,33.23-46.38,2.87-4.68,3.75-9.55,4.33-14.71,6.95-61.91,4.3-122.69-20.03-181.2-14.87-35.77-13.56-70.84,6.34-104.71,5.7-9.69,10.7-19.79,16.31-29.53,2.58-4.48,5.55-8.82,8.89-12.76,9.81-11.56,20.04-11.29,26.67,1.8,16.84,33.26,31.57,67.13,34.48,105.27,2.5,32.85,4.26,65.67,4.75,98.59,.64,43.41,4.56,86.44,15.2,128.67,3.6,14.31,8.11,28.3,15.65,41.09,14.81,25.13,37.69,32.95,64.24,21.3,7.02-3.08,13.45-7.83,19.56-12.57,10.02-7.79,14.96-17.84,15.7-31.15,1.9-34.52-4.39-67.23-18.63-98.5-10.77-23.64-22.33-46.95-36.68-68.62-17.26-26.05-22.32-53.9-15.83-84.27,1.8-8.44,2.26-17.16,3.69-25.68,4.11-24.35,18.55-40.77,40.82-49.93,21.92-9.02,43.21-6.27,60.27,10.52,25.53,25.12,45.58,54.41,58.69,87.92,3.39,8.68,5.92,17.94,2,27.82-4.32,10.88-9.39,15.91-20.77,16.24-6,.17-12.02-1.29-18.05-1.58-7.82-.37-13.24,4.68-13.48,12.41-.11,3.44,0,6.98,.71,10.32,1.27,5.92,2.42,12,4.79,17.52,12.43,28.86,18.3,59.46,24.49,89.99,2.76,13.62,6.71,26.88,12.33,39.57,7.37,16.62,20.15,25.51,38.6,25.65,22.05,.16,43.05-2.58,60.64-18.1,5.71-5.04,12.95-8.7,20.03-11.75,8.94-3.84,17.48,1.19,19.88,10.67,1.96,7.75,2.04,15.52-.92,23-10.88,27.44-23.3,54.08-41.99,77.26-8.22,10.2-17.79,18.58-30.11,24.04-10.57,4.68-20.34,5.61-28.82-2.7-7.56-7.41-8.07-16.8-3.81-26.41,1.4-3.15,2.69-6.37,4.29-9.42,7.11-13.46-.94-18.88-14.19-18.42-10.98,.38-19.82,5.99-25.81,15.3-5.15,8-9.96,16.23-14.68,24.49-6.02,10.52-12.08,21.02-17.62,31.79-7.97,15.53-20.5,25.19-36.74,30.93-21.55,7.63-43.64,10.81-66.4,9.13-26.05-1.91-45.91-14.34-59.68-36.34-5.04-8.06-8.78-16.94-13.89-24.94-15.5-24.24-40.38-27.53-61.35-7.69-17.61,16.67-35.11,33.55-51.4,51.48-34.02,37.47-97.81,50.35-151.46,12.04-18.93-13.52-30.19-33.16-38.44-54.38-8.22-21.14-12.03-43.38-13.01-65.96-1.13-25.95-1.43-51.94-2.2-77.91-.18-6.02-.26-12.12-1.32-18.02-1.38-7.71-10.56-10.34-16.03-4.73-8.68,8.9-13.72,19.64-16.44,31.83-5.09,22.79-10.37,45.55-16.38,68.11-5.13,19.23-11.88,37.99-20.5,55.99-5.25,10.96-11.28,21.45-19.34,30.65-9.7,11.08-21.37,14.95-36.51,15.77-33.6,1.82-55.74-14.87-74.24-39.64-20.47-27.41-33.72-58.3-43.14-90.98-19.88-68.96-20.97-138.23-3.35-207.78,1.7-6.7,3.81-13.31,5.94-19.89,1.41-4.36,4.26-7.56,9.02-8.23,4.82-.68,8.24,1.84,10.74,5.68,5.26,8.1,8.51,17.12,10.34,26.46,5.51,28.01,10.55,56.11,15.81,84.16,5.25,28.06,10.3,56.16,15.91,84.14,3.65,18.24,12.62,34.03,24.95,47.79,9.84,10.97,19.04,10.13,27.51-2.22,7.44-10.86,11.49-23.21,14.63-35.87,8.56-34.46,18.62-68.46,31.66-101.51,13.38-33.93,29.3-66.6,51.63-95.66,8.41-10.95,17.96-21.06,27.24-31.32,6.52-7.21,14.78-12.06,24.03-14.9,12.62-3.88,24.04-1.24,33.64,7.85,7.04,6.66,12.47,14.58,14.23,24.25,2.01,11.05,4.38,22.2,4.66,33.35,.67,26.83,.22,53.68,.22,80.53h-.02Z" style="fill:#fafcfc; fill-rule:evenodd;"></path>
      <path d="M4208.84,1392.8c1.48-21.52,.96-43.23,8.38-64.07,5.38-15.1,13.96-27.72,25.82-38.26,4.6-4.09,9.42-3.77,13.66,.63,1.8,1.87,3.57,3.8,5.06,5.92,26.33,37.58,54.51,73.9,78.26,113.25,21.17,35.07,37.78,72.02,44.84,112.73,.59,3.39,1.11,6.81,1.31,10.23,.3,5.03-4.13,8.2-8.31,5.96-4.54-2.43-8.72-5.65-13.43-7.61-3.61-1.51-6.83,.54-7.57,4.5-2.1,11.25-.71,22.52,1.3,33.58,7.42,40.96,11.11,82.35,14.92,123.73,.24,2.59,.48,5.18,.58,7.77,.84,22.1,8.34,41.09,20.75,59.94,81.91,124.46,157.8,252.48,223.88,386.17,8.6,17.39,13.11,35.39,15.25,54.57,3.96,35.5,4.68,70.86-.82,106.21-1.83,11.74-3.48,23.7-13.87,33.88-15.36-21.15-24.01-44.77-36-66.49-12.13-21.97-23.3-44.46-35.13-66.6-11.83-22.14-23.81-44.2-35.96-66.17-12.15-21.97-24.46-43.85-36.94-65.64-12.48-21.79-25.16-43.45-37.91-65.08-12.72-21.57-25.63-43.03-38.24-64.15-7.72,1.37-5.87,6.51-5.73,10.26,2.65,67.52,5.19,135.04,8.31,202.54,2.88,62.34,3.29,124.68,1.81,187.06-.95,40.17-13.28,76.47-35.9,109.42-8.88,12.93-19.4,24.4-32.08,33.76-6.33,4.67-13.3,8.06-20.95,10.03-4.86,1.25-8.24-1.23-8.26-6.55-.01-6.06,.25-12.12,.55-18.18,6.69-131.62,5.74-263.22,.23-394.86-2.65-63.2-6.38-126.31-12.61-189.24-4.1-41.35-10.07-82.5-14.5-123.82-1.1-10.25-6.39-17.78-11.72-25.52-35.88-52.04-71.35-104.39-108.09-155.83-35.73-50.03-71.54-100.11-109.77-148.22-26.36-33.17-37.53-69.4-36.03-110.72,.41-11.24,.05-22.56,3.5-33.48,4.48-14.22,12.09-19.72,26.8-19.38,7.01,.16,13.58,1.85,20.13,4.48,13.82,5.55,26.19,13.23,37.48,22.9,23.69,20.28,47.68,40.22,71.23,60.66,7.14,6.2,13.18,13.66,19.85,20.41,4.14,4.19,5.93,10.75,12.53,12.44,.73,1.3,1.87,3.82,2.12,3.73,4.3-1.48,2.33-4.31,1.26-6.93Zm23.11,134.48c1.59-.52,3.17-1.04,4.76-1.57-3.11-15.13-6.88-30.16-9.16-45.41-3.51-23.43-6.27-23-31.86-19.06-.83,.13-1.99,.45-2.3,1.05-1.13,2.14-2.72,4.44-2.71,6.67,0,2.39,1.11,5.15,2.58,7.12,12.79,17.14,25.78,34.14,38.7,51.19Z" style="fill:#fbfdfc; fill-rule:evenodd;"></path>
      <path d="M5526.64,2585.99c.63,1.51,1.43,4.35,1.86,4.3,2.48-.32,5.24-.8,7.24-2.18,22.22-15.35,46.48-26.99,71.27-37.13,38.01-15.54,68.58-39.86,92.89-72.63,9.8-13.22,19.55-26.52,30.18-39.06,9.8-11.56,15.96-24.62,19.62-39.05,6.63-26.11,10.56-52.34,8.79-79.6-3.36-51.86-4.59-103.85-8-155.71-3.86-58.76-8.66-117.47-13.96-176.12-5.22-57.78-11.01-115.53-17.57-173.17-7.06-61.94-14.93-123.79-23.16-185.58-8.46-63.5-18.71-126.78-26.43-190.37-5.53-45.53-.17-89.96,23.29-130.73,2.58-4.49,5.22-8.98,8.28-13.13,3.66-4.97,9.66-4.9,12.72,.5,28.23,49.83,65.61,93.58,94.74,142.79,7.03,11.88,13.81,24.09,19,36.84,5.39,13.25-.64,21.54-15.1,23.37-3.42,.43-6.93,.14-10.38,.39-17.33,1.27-21.15,5.31-18.49,23.06,4.74,31.67,9.93,63.29,15.71,94.78,11.1,60.52,18.74,121.47,24.84,182.67,14.87,149.34,17.83,299.13,17.62,449.05-.06,43.31-.49,86.65-2.32,129.91-2.11,49.79-13.52,98.01-34.9,142.9-21.53,45.2-57.58,77.4-101.82,100.39-31.08,16.15-64.59,24.75-98.86,30.39-20.49,3.37-41.25,5.04-61.86,7.71-10.57,1.37-20.84,.46-30.49-3.93-11.41-5.19-15.57-15.98-11.81-28.02,3.51-11.21,11.2-19.27,19.33-27.18,4.24-4.13,10.51-6.57,11.85-13.16,.14-.7-2.27-1.91-3.5-2.88l-.57,.58Z" style="fill:#fafcfb; fill-rule:evenodd;"></path>
      <path d="M4735.38,2137.59c0,64.95-.33,112.61,.11,160.27,.33,36.2-7.39,70.55-22.17,103.3-23.24,51.5-51.68,100-86.68,144.43-18.3,23.23-39.23,43.93-63.38,61.21-31.5,22.54-66.28,36.68-104.53,43.54-21.04,3.78-39.45-.5-57.19-10.77-16.1-9.32-29.02-21.94-37.27-38.78-4.9-9.99-2.69-16.35,7.37-20.58,104.47-43.9,187.79-116.38,265.84-196.1,13.51-13.8,19.07-30.63,21.13-49.06,2.71-24.28,.25-48.46-1.92-72.64-4.41-49.18-8.99-98.34-13.21-147.54-6.74-78.54-13.02-157.12-19.91-235.65-5.45-62.13-10.82-124.28-17.54-186.28-6.91-63.71-14.27-127.41-23.62-190.79-6.71-45.49-4.61-89.67,8.54-133.54,6.02-20.06,15.41-38.56,26.18-56.37,5.79-9.58,12.63-10,17.76-1.22,30.67,52.44,57.54,106.64,75.38,164.94,2.27,7.42,4.13,15.08,5.08,22.77,1.93,15.57-2.67,22.64-16.91,27.91-.81,.3-1.66,.49-2.48,.77-20.47,6.92-20.83,7.2-21.4,28.67-.32,12.12,.54,24.06,3.01,36.11,18.8,91.69,32.73,184.16,42.16,277.26,9.6,94.87,13.82,190.09,15.67,268.11Z" style="fill:#fafcfb; fill-rule:evenodd;"></path>
      <path d="M4863.07,2341.75c-1.65-119.68-14.4-238.34-31.66-356.66-18.23-125.04-42.33-249.02-65.98-373.08-5.83-30.59-11.6-61.2-18.02-91.66-8-37.92-6.36-75.76,0-113.58,4.6-27.31,11.07-54.19,18.89-80.8,3.35-11.39,9.3-20.31,18.42-27.38,3.3-2.55,6.55-1.33,8.84,1.75,1.53,2.06,2.73,4.45,3.66,6.86,14.19,36.51,35.1,69.39,55.21,102.73,16.53,27.41,32.76,55,48.71,82.75,3.83,6.67,6.72,14.09,8.82,21.5,2.5,8.79-3.16,15.51-12.27,15.31-6.03-.13-12.04-1.49-18.07-1.66-12.78-.36-19.71,5.4-20.61,18.04-.48,6.8,.29,13.84,1.58,20.57,17.03,89.3,28.48,179.45,40.89,269.43,11.47,83.15,22.99,166.37,30.77,249.91,5.77,61.95,13.65,123.84,12.74,186.44-.73,50.01-15.57,95.2-38.75,138.43-5.32,9.92-11.88,19.13-20.11,26.97-4.41,4.2-8.99,8.22-15.14,9.63-3.72,.85-7.3-.02-7.7-4.3-.56-5.99-.22-12.07-.22-18.12,0-27.7,0-55.4,0-83.09Z" style="fill:#f9fcfa; fill-rule:evenodd;"></path>
      <path d="M3192.17,1454.81c-2.9,3.86-5.21,7.46-8.02,10.62-45.98,51.73-92.25,103.21-142.12,151.28-11.19,10.78-23.2,20.74-35.13,30.71-6.01,5.02-12.98,8.13-21.14,8.94-34.56,3.43-69.07,3.87-103.57-.6-2.51-.33-5.55-.85-5.85-3.67-.24-2.27,.5-5.44,2.04-6.96,7.35-7.31,14.73-14.67,22.79-21.14,33.72-27.07,67.77-53.74,101.56-80.73,31.09-24.83,62.27-49.57,90.51-77.73,18.66-18.61,18.23-27.02-2.06-43.26-3.36-2.69-7.04-5.03-10.79-7.15-8.04-4.55-12.51-11.77-15.41-20.12-9.04-26.08-1.47-58.07,19.82-78.77,6.36-6.18,14.99-8.07,23.33-10.62,20.06-6.12,39.4-2.96,58.51,3.55,3.94,1.34,7.88,3.81,10.84,6.75,16.15,16,22.42,52.46,12.41,72.94-2.61,5.33-6.61,10.1-10.56,14.61-2.81,3.21-6.82,5.32-9.92,8.31-8.91,8.59-8.71,15.12,.79,23.98,3.79,3.53,8.12,6.46,12.06,9.83,3.24,2.78,6.26,5.82,9.9,9.23Zm-85.98-77.99c1.09,14.9,7.74,25.4,19.6,32.32,5.35,3.12,11.53,3.86,17.05,.18,5.44-3.61,7.77-9.38,6.79-15.6-2.1-13.3-8.38-24.12-20.88-30.41-11.71-5.9-22.96,1.43-22.56,13.52Z" style="fill:#f7fbfa; fill-rule:evenodd;"></path>
      <path d="M5184.44,1723.72c0,5.39,.43,8.9-.14,12.24-.42,2.48-2.35,4.85-5.35,4.51-5.98-.68-11.89-2.05-17.88-2.61-11.7-1.08-18.29,2.84-21.54,13.9-1.92,6.53-2.51,13.55-2.93,20.39-2.1,34.48-3.96,68.98-5.89,103.48-.2,3.45-.22,6.91-.61,10.34-.56,4.96-4.32,7.75-8.86,6.6-10.11-2.57-19.56-6.7-28.45-12.17-40.26-24.78-73.76-56.79-101.67-94.82-15.85-21.59-15.12-45.05-7.74-69.18,2.1-6.85,6.29-12.23,13.23-15.05,5.58-2.28,10.96-5.16,16.7-6.91,18.24-5.55,26.39-2.24,36.6,14.34,1.8,2.93,3.47,5.98,4.82,9.14,3.6,8.45,10.63,10.64,18.9,10.84,10.3,.24,16.11-5.86,14.71-16.39-1.02-7.68-3.41-15.17-4.52-22.84-3.12-21.6,9.08-42.19,28.93-49.45,20.92-7.65,42.25-.69,53.96,18.62,12.41,20.47,15.48,43.68,17.76,65.02Z" style="fill:#f9fcfa; fill-rule:evenodd;"></path>
      <path d="M2002.02,2154.81c-.92-12.74,3.57-21.23,7.29-29.79,5.88-13.57,13.81-25.99,22.94-37.57,42-53.31,93.57-94.47,155.73-122.04,16.66-7.39,33.99-12.36,52.06-15.45,15.77-2.7,31.04-1.17,46.41,1.65,13.77,2.53,23.76,9.71,28.31,23.58,2.68,8.16,5.93,16.12,8.87,24.01-17.66,12.81-279.66,139.67-321.59,155.62Z" style="fill:#f9fcfa; fill-rule:evenodd;"></path>
      <path d="M1958.41,2505.27c.35-58.06,13.41-113.21,38.36-165.53,4.82-10.11,10.81-19.74,17.01-29.1,2.63-3.97,5.13-11.04,10.76-9.52,6.49,1.75,3.29,8.79,2.83,13.34-2.03,19.8-4.48,39.55-7.08,59.28-4.55,34.5-3.91,69.13-2.4,103.75,.37,8.57,2.37,17.13,4.21,25.56,1.47,6.72,3.08,14.35,10.96,16.22,8.21,1.95,12.27-4.82,16.18-10.46,3.44-4.97,6.04-10.54,9.62-15.39,2.52-3.4,5.79-6.43,9.23-8.92,3.76-2.73,8.36-2.69,12.21-.12,8.17,5.46,14.62,12.42,15.44,22.81,2.92,36.77-5.57,70.46-27.99,100.13-10.28,13.6-24.2,19.07-41.1,16.73-27.85-3.85-48.48-16.94-58.44-44.54-8.69-24.1-9.78-49.06-9.79-74.24Z" style="fill:#f7fbfa; fill-rule:evenodd;"></path>
      <path d="M5251.49,1930.67c3.54,23.25-7.34,40.69-25.35,55.32-53.15,43.18-109.6,81.48-168.93,115.6-.75,.43-1.56,.74-2.33,1.14-23.4,12.37-28.83,9.21-31.75-18.86-.71-6.82-.44-13.88,.42-20.7,1.56-12.42,6.28-23.34,17.47-30.41,2.19-1.38,4.18-3.07,6.29-4.59,59.03-42.33,118.01-84.74,177.14-126.94,18.59-13.27,24.73-10.19,26.97,13.06,.5,5.14,.07,10.37,.07,16.38Z" style="fill:#f7fbfa; fill-rule:evenodd;"></path>
      <path d="M4084.99,2541.27c1.79-10.82,2.15-17.69-.05-24.44-3.26-9.97-12.15-15.24-22.23-12.81-4.15,1-7.96,3.39-12.1,4.39-6,1.45-12.08,1.79-16.45-3.99-5.09-6.74-6.16-14.17-3.03-21.95,.93-2.32,2.98-4.21,4.62-6.21,15.55-18.86,34.75-33.46,54.89-46.96,7.76-5.21,16.34-5.97,24.83-3.41,12.77,3.85,19.85,8.37,15.38,24.27-2.34,8.3-4.86,16.6-6.49,25.05-2.15,11.17-2.47,22.33,4.05,32.57,5.22,8.19,13.67,11.09,22.14,7.11,3.1-1.46,6.02-3.37,8.86-5.31,23.01-15.77,49.36-19.9,76.28-21.33,16.55-.87,25.85,8.1,27.06,24.44,.74,10-3.21,17.05-13.31,19.17-42.54,8.96-81.86,26.73-121.68,43.24-2.39,.99-4.84,1.88-7.31,2.62-19.46,5.78-34.66-4.62-36.11-24.99-.36-5.09,.57-10.28,.65-11.45Z" style="fill:#f4f9f7; fill-rule:evenodd;"></path>
      <path d="M5527.21,2585.42c-2.76-.92-4.54,.57-6.66,2.16-28.57,21.45-59.97,37.28-94.27,47.42-8.44,2.49-16.88,3.58-25.57,2.87-8.11-.66-15.8-3.21-18.96-11.25-3.36-8.53-1.82-17.21,4.44-24.22,4-4.48,8.77-8.29,13.29-12.29,7.12-6.29,14.53-12.26,21.43-18.78,15.16-14.32,14.38-33.98-6.68-43.83-3.89-1.82-7.91-3.73-11.19-6.43-8.03-6.58-10.78-15.24-8.48-25.44,2.29-10.17,7.61-17.54,18.62-18.74,16.29-1.77,32.56-4.29,49.01-.96,6.02,1.22,11.68,2.92,16.88,6.19,8.95,5.64,11.77,11.94,7.94,21.73-3.75,9.6-8.54,18.81-13.23,28.02-6.98,13.7-3.27,20.95,12.16,22.48,5.13,.51,10.36,.09,15.54,.16,4.31,.06,8.66-.08,12.93,.38,8.45,.92,12.53,5.1,12.77,13.34,.18,5.91-.34,11.84-.54,17.76,0,0,.56-.58,.56-.58Z" style="fill:#f5faf8; fill-rule:evenodd;"></path>
      <path d="M3678.97,1874.76c.87-7.64,.87-15.59,2.87-23.01,2.09-7.76,7.24-13.64,16.06-15.14,8.96-1.52,15.43,2,17.89,10.6,1.41,4.93,1.58,10.29,3.49,14.98,1.68,4.13,5.83,6.33,10.52,6.27,5.1-.07,7.53-3.42,8.8-7.9,1.66-5.8,2.8-11.82,5.08-17.36,3.08-7.46,14.87-8.47,19.22-1.59,2.71,4.28,4.25,9.36,5.93,14.21,1.39,4.02,1.67,8.5,3.47,12.29,1.45,3.03,4.54,4.99,8.45,4.94,4.33-.05,6.41-3.2,7.05-6.35,1.01-5.02,.52-10.32,1.1-15.46,.73-6.41,4.4-11.12,9.57-14.8,10.1-7.19,24.88-3.08,27.04,9.03,3.33,18.64,5.61,37.64,6.2,56.56,.45,14.29-9.89,23.31-21.52,30.25-15.37,9.17-32.59,11.25-49.88,12.63-13.97,1.11-27.69-1.58-41.07-5.16-22.51-6.02-34.76-21.62-38.49-44.15-1.13-6.8-1.21-13.78-1.78-20.84Z" style="fill:#f7fbfa; fill-rule:evenodd;"></path>
      <path d="M5208.56,2220.88c3.33-17.58-1.05-38.43-9.39-58.81-6.21-15.18-11.8-30.62-17.92-45.84-6.23-15.51-8.36-31.68-8.16-48.21,.16-13.3,6.56-22.94,18.34-29.03,13.41-6.93,25.03-5.05,34.8,6.48,4.41,5.21,8.49,11.09,11.15,17.34,20.76,48.73,29.48,99.14,19.69,151.86-2.88,15.5-8.97,29.81-18.3,42.49-4.04,5.49-9.05,10.47-14.37,14.76-6.28,5.07-14.57,2.23-16.12-5.41-1.36-6.7-2-13.66-1.99-20.5,0-6.88,1.19-13.77,2.28-25.12Z" style="fill:#f5faf8; fill-rule:evenodd;"></path>
      <path d="M2574.03,1337.3c0,11.14,.27,16.34-.05,21.5-1.21,19.67-10.61,34.91-27.7,44.01-32.17,17.14-64.75,14.96-96.77-1.1-7.99-4.01-13.28-10.94-17-18.95-9.09-19.56-10.45-39.91-5.21-60.65,1.01-3.99,3.39-8.04,6.18-11.1,9.41-10.32,24.05-6.94,28.17,6.3,1.52,4.9,1.99,10.21,4.07,14.82,1.84,4.09,6.1,6.16,10.77,5.55,3.55-.47,6.45-2.62,7.53-6.2,1.74-5.75,3.03-11.63,4.72-17.39,1.33-4.53,4.44-7.4,9.23-7.71,5.54-.36,10.03,1.55,12.89,6.74,2.98,5.41,4.19,11.19,5.06,17.25,.46,3.18,2.33,6.48,4.45,8.96,1.43,1.67,4.35,2.39,6.73,2.84,3.2,.61,4.78-2.18,5.3-4.49,.94-4.13,.53-8.59,1.57-12.68,1.25-4.93,2.64-10.15,5.41-14.27,3.99-5.93,10.04-9.42,17.73-8.51,7.32,.87,14.44,7.16,15.57,15.21,1.19,8.52,1.19,17.21,1.35,19.88Z" style="fill:#f4f9f7; fill-rule:evenodd;"></path>
      <path d="M4559.94,1651.49c.15,14.12,.09,24.33-3.86,34.31-6.86,17.34-19.53,28.24-36.67,34.03-26.43,8.91-52.69,7.38-78.36-3.21-10.77-4.44-18.63-12.22-23.51-22.95-8.53-18.76-9.74-38.25-5.61-58.17,1.04-5.02,3.14-9.75,7.07-13.57,10.28-9.99,23.58-6.6,27.62,7.16,1.44,4.91,2.41,10.1,4.71,14.59,2,3.9,6.19,6.22,10.87,5.24,3.42-.71,6.32-3.05,7.28-6.62,1.34-4.97,1.87-10.17,3.36-15.09,1.57-5.18,4.7-9.21,10.75-9.67,6.07-.46,11.31,2.95,13.66,9.63,1.7,4.86,2.32,10.1,3.99,14.97,1.07,3.12,2.73,6.33,4.99,8.66,1.5,1.55,4.47,2.05,6.86,2.29,3.23,.32,4.46-2.66,5-4.95,.78-3.3,.79-6.84,.75-10.28-.07-5.4,1.62-10.22,4.55-14.58,4.68-6.96,11.01-10.84,19.71-9.6,7.38,1.05,13.56,6.94,14.97,15.77,1.36,8.49,1.5,17.17,1.89,22.04Z" style="fill:#f5faf8; fill-rule:evenodd;"></path>
      <path d="M4517.77,1433.54c-3.46,28.95-10.71,61.65-27.23,91.69-2.45,4.45-5.57,8.64-10.51,11.14-4.57,2.31-11.36-.66-12.04-5.84-.33-2.54-.63-5.19-.29-7.71,.69-5.13,1.84-10.2,2.77-15.3,6.36-34.97,1.18-66.92-22.97-94.73-9.6-11.05-17.27-23.76-26.12-35.49-6.55-8.67-8.69-18.73-9.96-29.05-1.65-13.49,4.12-23.8,15.96-29.67,17.28-8.57,33.35-6.3,47.83,6.96,3.17,2.91,6.06,6.18,8.79,9.52,18.71,22.88,33.51,64.09,33.78,98.47Z" style="fill:#f4f9f7; fill-rule:evenodd;"></path>
      <path d="M5603.8,1616.13c9.37-33.96-2.28-62.86-21.2-90.17-7.36-10.62-13.5-22.08-20.2-33.15-6.93-11.45-9.36-24.04-9.15-37.22,.22-13.62,7.53-22.79,19.47-28.04,12.63-5.56,26.31-2.4,35.58,7.31,7.24,7.59,12.57,16.52,16.87,25.96,13.72,30.15,23.08,61.82,23.42,94.9,.38,35.81-9.24,69.95-25.26,102.08-1.47,2.94-4.24,5.33-6.72,7.64-2.87,2.68-9.9,.79-10.78-2.95-.98-4.17-1.84-8.46-1.94-12.72-.27-11.21-.09-22.43-.09-33.63Z" style="fill:#f5faf8; fill-rule:evenodd;"></path>
      <path d="M3040.93,1708.71c-.17-25.27,8.05-47.37,26.36-65.07,4.88-4.71,10.94-8.34,16.84-11.81,6.96-4.09,15.33-6.3,22.13-1.74,7.88,5.29,5.01,14.13,2.15,21.28-5.61,14.02-6.61,28.44-5.44,43.17,.34,4.26,.95,8.62,2.28,12.66,3.58,10.84,14.99,15.57,25.01,9.93,5.93-3.33,10.88-8.38,16.52-12.28,5.61-3.88,10.99-8.35,18.38-8.72,3.4-.17,7.2,3.01,6.3,6.27-6.53,23.63-16.93,45.05-35.9,61.42-1.29,1.11-2.8,2.21-4.4,2.68-20.9,6.25-42.08,10.55-62.55-.53-18.29-9.89-25.65-27.08-27.64-46.95-.34-3.41-.05-6.89-.05-10.33Z" style="fill:#f4f9f7; fill-rule:evenodd;"></path>
      <path d="M2112.01,1436.76c6.22-24.36-2.7-45.14-17.62-64.42-6.86-8.86-12.96-18.31-19.54-27.38-5.24-7.23-7.32-15.56-8.53-24.13-1.79-12.71,3.23-21.87,15.13-26.8,11.71-4.85,23.38-4.53,34.92,1.38,13.76,7.05,23.15,18.26,28.94,31.99,10.59,25.1,15.01,51.23,9.39,78.41-4.21,20.33-9.51,40.32-20.12,58.42-3.01,5.13-6.18,10.64-13.5,10.45-4.98-.13-8.4-6.02-9-16.65-.39-6.87-.07-13.79-.07-21.27Z" style="fill:#f4f9f7; fill-rule:evenodd;"></path>
      <path d="M3576.17,1413.59c2.44-33.51,6.74-64.29,12.58-94.83,2.44-12.77,7.49-24.87,15.29-35.42,3.53-4.77,7.88-9.23,12.67-12.71,7.54-5.48,17.15-3.59,22.83,4.1,7.47,10.11,10.36,21.58,9.33,34.16-1.77,21.55-4.53,42.97-10.35,63.81-4.17,14.94-9.48,29.57-14.28,44.34-2.45,7.54-6.5,14.1-12.33,19.48-7.44,6.88-18.1,8.86-26.34,4.71-8.13-4.1-9.6-11.55-9.41-19.74,.08-3.45,.01-6.91,.01-7.9Z" style="fill:#f5faf8; fill-rule:evenodd;"></path>
      <path d="M3005.92,2295.31c1.15-9.25,2.28-17.81,3.27-26.39,3.08-26.57-4.43-49.47-23.72-68.3-6.18-6.03-12.52-11.96-18.14-18.49-9.89-11.51-12.28-26.66-5.41-35.7,8.27-10.9,20.28-12.34,32.74-10.59,9.85,1.38,18.02,6.72,23.64,14.69,24.77,35.11,40.31,72.48,25.3,116.22-3.91,11.39-8.56,22.58-13.73,33.45-2.12,4.46-6.26,8.12-9.98,11.62-3.81,3.59-10.86,.96-12.13-4.42-.98-4.15-1.32-8.45-1.86-12.08Z" style="fill:#f4f9f7; fill-rule:evenodd;"></path>
      <path d="M3305.85,1371.84c-.15-43.61,20.22-75.38,50.5-102.15,6.55-5.79,13.97-10.07,22.45-12.37,5.18-1.41,10.52,1.96,11.47,7.36,1.71,9.65,1.41,18.6-6.15,26.43-7.76,8.05-14.8,16.83-21.9,25.49-8.13,9.93-10.63,21.35-8.47,33.98,1.93,11.27,6.24,14.84,17.47,13.45,3.39-.42,6.64-1.95,10.03-2.44,5.59-.82,9.41,4.03,8.08,9.94-3.16,14.07-10.25,25.72-22.61,33.3-6.54,4.01-13.87,6.9-21.1,9.59-7.85,2.92-15.54,1.53-21.72-4.21-11.54-10.71-23.14-21.61-18.04-38.38Z" style="fill:#f4f9f7; fill-rule:evenodd;"></path>
      <path d="M5228.77,1415.8c3.96,27.45,8.92,54.81,8.76,83.4-15.7-11.34-32.39-29.97-37.74-41.76-2.87-6.34-.13-10.94,7.05-13.55,6.66-2.42,16.73,1.87,19.39-8.5,1.85-7.21-4.98-12.43-6.17-19.11,2.91-.16,5.81-.32,8.72-.48Z" style="fill:#237d4d; fill-rule:evenodd;"></path>
      <path d="M3609.12,2268.06c-.65-21.16,14.01-38.26,34.08-40.58,5.08-.59,10.5-.52,15.47,.59,44.18,9.9,89.33,10.81,134.14,14.79,11.24,1,22.44,1.82,33.29,5.14,9.33,2.85,17.49,7.51,23.28,15.61,4.89,6.84,4.15,15.21-1.67,21.33-4.92,5.17-11.17,7.93-17.72,10.38-12.14,4.54-24.43,8.82-36.17,14.27-29.38,13.63-41.81,37.52-39.93,69.3,.46,7.77,2.28,15.46,2.61,23.22,.25,5.97-.34,12.11-1.47,17.99-1.75,9.09-8.05,12.62-17.36,10.23-3.32-.85-6.67-2.01-9.66-3.65-46.68-25.66-84.92-59.49-106.14-109.83-6.79-16.12-10.07-33.05-12.73-48.79Z" style="fill:#066f39; fill-rule:evenodd;"></path>
      <path d="M4024.01,1961.97c-15.94-2.1-31.53-10.17-41.11-27.21-6.1-10.83,.3-21.39,12.66-21.33,19.55,.1,34.54,9.09,45.48,25.01,3.52,5.13,5.67,10.82,1.8,16.77-3.68,5.66-9.45,7.02-18.82,6.76Z" style="fill:#0d723d; fill-rule:evenodd;"></path>
      <path d="M5074.5,3840.07c18.42,0,48.64-.14,78.86,.07,12.95,.09,25.89,.81,38.83,1.48,8.53,.45,18.26-.36,21.53,10.26,3.7,12.03,3.35,23.92-5.34,34.2-3.01,3.56-7.23,4.51-11.66,4.36-21.57-.73-43.14-1.59-64.72-2.28-5.63-.18-8.86-3.26-12.77-7.14-19.25-19.12-52.6-18.62-71.36,1.43-5.33,5.7-10.5,8.36-17.72,8.25-18.12-.29-36.26-.31-54.36-1.04-12.93-.52-25.81-2.05-38.72-3.1-13.72-1.12-18.22-5.08-19.46-18.75-.54-5.92-.08-12.1,1.04-17.95,1.44-7.54,7-11.86,14.54-12.32,3.43-.21,6.9,.26,10.35,.32,39.72,.69,79.43,1.36,130.96,2.23Z" style="fill:#0d723d; fill-rule:evenodd;"></path>
      <path d="M2587.05,2051.15c-8.74-.43-18.26,.5-26.45-5.83-7.2-5.56-10.1-12.37-6.13-20.05,3.89-7.53,8.37-15.07,14.03-21.3,9.16-10.06,24.2-11.67,35.27-5.19,11.09,6.49,17.24,20.67,14.35,33.09-3.66,15.72-9.79,19.6-31.08,19.28Z" style="fill:#0d723d; fill-rule:evenodd;"></path>
      <path d="M4231.95,1527.28c-12.93-17.04-25.91-34.04-38.7-51.19-1.47-1.97-2.58-4.73-2.58-7.12,0-2.24,1.58-4.54,2.71-6.67,.32-.6,1.48-.92,2.3-1.05,25.59-3.94,28.35-4.37,31.86,19.06,2.28,15.25,6.06,30.28,9.16,45.41-1.59,.52-3.17,1.04-4.76,1.57Z" style="fill:#237d4d; fill-rule:evenodd;"></path>
      <path d="M4208.84,1392.8c1.07,2.62,3.04,5.45-1.26,6.93-.25,.09-1.39-2.43-2.12-3.73,1.08-1.11,2.21-2.18,3.38-3.2Z" style="fill:#006c35; fill-rule:evenodd;"></path>
      <path d="M3106.19,1376.82c-.4-12.09,10.85-19.41,22.56-13.52,12.5,6.29,18.78,17.11,20.88,30.41,.98,6.23-1.35,11.99-6.79,15.6-5.53,3.68-11.7,2.94-17.05-.18-11.85-6.92-18.51-17.42-19.6-32.32Z" style="fill:#237d4d; fill-rule:evenodd;"></path>
    </g>
  </g>
</svg>
