<svg xmlns="http://www.w3.org/2000/svg" xmlns:xlink="http://www.w3.org/1999/xlink" width="72.142" height="64.904" viewBox="0 0 72.142 64.904"><defs><clipPath id="a"><rect width="72.142" height="64.904" transform="translate(0 0)" fill="#000c1e"/></clipPath></defs><g transform="translate(0 0)"><g clip-path="url(#a)"><path d="M15.08,50.416l-1.963,1.9A5.7,5.7,0,0,0,8.67,50.31,5.712,5.712,0,0,0,2.8,56.33a5.685,5.685,0,0,0,5.748,6.019c3.016,0,4.791-1.56,5.216-4.293H9.379V55.573h7.286c.011.212.024.426.024.639,0,4.753-3.017,8.692-8.138,8.692A8.581,8.581,0,1,1,8.67,47.743a8.454,8.454,0,0,1,6.41,2.673" fill="#000c1e"/><path d="M33.048,58.08c0,4.6-3.111,6.824-7.026,6.824S19,62.681,19,58.08V48.05H21.67v9.829c0,3.158,1.786,4.459,4.352,4.459s4.353-1.3,4.353-4.459V48.05h2.673Z" fill="#000c1e"/><rect width="2.673" height="16.558" transform="translate(36.255 48.051)" fill="#000c1e"/><path d="M48.935,48.05c5.18,0,8.6,3.288,8.6,8.28s-3.418,8.279-8.6,8.279H42.359V48.05Zm-3.9,2.531v11.5h3.9c3.891,0,5.8-2.414,5.8-5.748,0-3.371-1.9-5.749-5.8-5.749Z" fill="#000c1e"/><path d="M72.142,64.609H60.066V48.051H71.988v2.506H62.739v4.46h8.93v2.507h-8.93V62.1h9.4Z" fill="#000c1e"/><path d="M48.133,17.481v1.2A15.008,15.008,0,0,1,48,20.77a13.831,13.831,0,0,1-.975,3.487,11.27,11.27,0,0,1-10.6,6.777c-6.174,0-12.443-4.25-12.443-12.35,0-7.163,5.28-12.363,12.55-12.363a12.183,12.183,0,0,1,8.727,3.368l-1.7,1.711a9.775,9.775,0,0,0-7.03-2.66c-5.974,0-10.144,4.09-10.144,9.944,0,6.522,5.052,9.93,10.037,9.93a8.894,8.894,0,0,0,8.394-5.333,10.645,10.645,0,0,0,.8-2.846c.014-.174.04-.361.054-.549H36.532l1.375-2.4Z" fill="#000c1e"/><path d="M54.308,17.481v1.2a23.849,23.849,0,0,1-.214,3.167,20.539,20.539,0,0,1-1.483,5.267,16.921,16.921,0,0,1-15.958,10.21c-12.363,0-18.818-9.382-18.818-18.644C17.835,7.858,25.814,0,36.813,0A18.4,18.4,0,0,1,49.938,5.011l-1.7,1.711A16.028,16.028,0,0,0,36.813,2.4c-9.769,0-16.572,6.7-16.572,16.279,0,10.665,8.246,16.238,16.412,16.238a14.566,14.566,0,0,0,13.753-8.767A17.186,17.186,0,0,0,51.7,21.5a15.259,15.259,0,0,0,.16-1.618H49.557l1.357-2.4Z" fill="#000c1e"/></g></g></svg>