<?xml version="1.0" standalone="no"?>
<!DOCTYPE svg PUBLIC "-//W3C//DTD SVG 20010904//EN"
 "http://www.w3.org/TR/2001/REC-SVG-20010904/DTD/svg10.dtd">
<svg version="1.0" xmlns="http://www.w3.org/2000/svg"
 width="512.000000pt" height="512.000000pt" viewBox="0 0 512.000000 512.000000"
 preserveAspectRatio="xMidYMid meet">
<metadata>
Created by potrace 1.14, written by Peter Selinger 2001-2017
</metadata>
<g transform="translate(0.000000,512.000000) scale(0.100000,-0.100000)"
fill="#000000" stroke="none">
<path d="M2459 5116 c-2 -2 -44 -7 -93 -11 -49 -4 -98 -8 -110 -10 -11 -2 -39
-6 -61 -10 -35 -5 -65 -10 -128 -21 -10 -2 -26 -5 -35 -8 -9 -3 -28 -7 -42
-10 -151 -26 -432 -125 -627 -220 -312 -152 -638 -421 -850 -701 -221 -292
-373 -621 -449 -974 -27 -126 -30 -141 -49 -299 -13 -108 -13 -489 0 -587 33
-253 85 -464 167 -675 49 -127 131 -296 174 -360 13 -19 24 -38 24 -42 0 -8
102 -156 153 -223 254 -331 621 -608 1012 -763 162 -64 389 -130 505 -147 19
-3 46 -8 58 -11 13 -3 43 -7 65 -10 23 -3 48 -7 54 -9 33 -11 239 -20 433 -20
177 1 347 12 430 30 8 2 60 13 115 24 103 21 235 56 270 71 11 4 56 21 100 36
115 41 333 151 455 231 437 287 757 702 935 1215 30 86 76 249 91 323 22 109
35 190 40 245 3 36 8 72 10 80 3 8 8 115 11 238 l6 222 -24 1 c-29 0 -429 0
-446 0 -9 -1 -36 -42 -88 -136 -6 -11 -32 -56 -58 -101 -26 -45 -47 -84 -47
-87 0 -4 57 -6 128 -6 212 1 191 6 186 -43 -16 -164 -29 -252 -55 -368 -11
-47 -22 -95 -24 -106 -11 -49 -88 -261 -126 -345 -139 -309 -350 -576 -614
-776 -298 -226 -659 -366 -1058 -410 -141 -16 -453 -9 -617 12 -411 54 -840
236 -1165 494 -82 66 -235 215 -290 286 -22 28 -43 52 -47 55 -3 3 -40 56 -81
117 -201 301 -317 646 -352 1043 -6 76 -7 350 -1 405 2 17 7 64 11 105 4 41 9
77 10 80 2 3 6 26 10 50 34 234 140 524 276 752 215 363 550 656 953 834 203
90 483 167 686 189 36 4 74 9 85 12 39 9 471 12 540 3 39 -5 92 -12 119 -15
28 -3 59 -8 70 -10 12 -2 35 -6 51 -9 138 -20 382 -94 535 -163 73 -32 205
-103 275 -146 46 -28 205 -149 253 -192 l51 -46 116 112 c63 62 115 116 115
120 0 8 -10 19 -61 64 -258 228 -574 400 -926 505 -59 18 -119 34 -133 37 -14
2 -33 6 -42 9 -36 11 -208 41 -283 50 -22 2 -53 7 -70 9 -35 6 -521 16 -526
11z"/>
<path d="M2439 4246 c-2 -2 -29 -6 -59 -10 -280 -31 -565 -132 -790 -281 -364
-242 -608 -612 -697 -1055 -26 -134 -37 -448 -19 -566 4 -23 9 -59 11 -79 3
-21 12 -68 20 -104 112 -489 418 -877 860 -1090 166 -81 277 -120 435 -154
178 -39 413 -52 603 -34 250 24 516 117 724 253 49 31 90 59 93 63 3 3 25 22
50 42 197 159 376 412 464 656 91 256 114 393 120 706 l2 127 -26 1 c-122 2
-1412 0 -1414 -2 -9 -10 -186 -318 -186 -323 0 -3 267 -5 593 -5 325 0 613 0
639 -1 l47 0 -5 -37 c-2 -20 -6 -48 -9 -62 -2 -14 -7 -43 -10 -64 -8 -48 -46
-175 -74 -245 -118 -296 -357 -545 -648 -676 -92 -40 -273 -90 -373 -102 -120
-13 -373 -7 -440 11 -8 2 -31 7 -50 10 -137 23 -355 108 -485 190 -339 211
-557 553 -603 945 -9 81 -9 328 1 395 74 528 398 920 894 1084 77 25 141 40
283 67 19 3 112 7 205 9 305 5 543 -51 776 -182 45 -25 118 -75 162 -110 l80
-65 65 64 c35 34 88 86 118 115 l53 52 -42 38 c-174 159 -402 283 -652 353
-81 23 -89 25 -175 39 -30 6 -71 13 -90 17 -38 7 -444 16 -451 10z"/>
</g>
</svg>
