<?xml version="1.0" encoding="UTF-8"?>
<svg id="Layer_2" data-name="Layer 2" xmlns="http://www.w3.org/2000/svg" viewBox="0 0 40.5 40.5">
  <defs>
    <style>
      .cls-1 {
        fill: #ffde00;
      }

      .cls-2 {
        fill: #de2910;
      }
    </style>
  </defs>
  <g id="_ÎÓÈ_1" data-name="—ÎÓÈ_1">
    <g>
      <circle class="cls-2" cx="20.25" cy="20.25" r="20.25"/>
      <polygon class="cls-1" points="22.04 2.96 21.91 4.39 23.22 4.95 21.82 5.27 21.69 6.69 20.96 5.46 19.57 5.78 20.51 4.7 19.78 3.48 21.09 4.04 22.04 2.96"/>
      <polygon class="cls-1" points="21.96 17.1 21.9 18.52 23.24 19.02 21.86 19.41 21.8 20.84 21.01 19.65 19.63 20.03 20.52 18.91 19.73 17.72 21.07 18.22 21.96 17.1"/>
      <polygon class="cls-1" points="26.73 7.45 26.06 8.72 27.05 9.75 25.64 9.5 24.97 10.76 24.77 9.35 23.36 9.1 24.65 8.47 24.45 7.05 25.44 8.08 26.73 7.45"/>
      <polygon class="cls-1" points="27.17 14.21 26.04 15.09 26.53 16.44 25.34 15.63 24.21 16.51 24.61 15.14 23.43 14.34 24.85 14.29 25.25 12.91 25.74 14.26 27.17 14.21"/>
      <polygon class="cls-1" points="11.12 4.83 12.47 8.98 16.83 8.98 13.3 11.55 14.65 15.71 11.12 13.14 7.58 15.71 8.93 11.55 5.4 8.98 9.77 8.98 11.12 4.83"/>
    </g>
  </g>
</svg>