<svg xmlns="http://www.w3.org/2000/svg" xmlns:xlink="http://www.w3.org/1999/xlink" viewBox="0 0 40.5 40.5" xmlns:v="https://vecta.io/nano"><style><![CDATA[.M{fill:#c8b100}.N{fill:#fff}.O{fill:#ad1519}.P{fill:#db4446}.Q{fill:#ccc}.R{fill:#058e6e}.S{fill:#005bbf}.T{fill:#ed72aa}.U{fill:#0039f0}]]></style><path d="M40.5,20.25c0,3.7-.99,7.15-2.71,10.12H2.71c-1.73-2.97-2.71-6.43-2.71-10.12s.99-7.14,2.71-10.12H37.79c1.73,2.98,2.71,6.44,2.71,10.12Z" fill="#ffc400"/><path d="M37.79 10.12H2.71C6.21 4.08 12.76 0 20.25 0s14.04 4.08 17.54 10.12zm0 20.26c-3.5 6.06-10.03 10.12-17.54 10.12S6.21 36.44 2.71 30.38h35.08z" fill="#c60b1e"/><path d="M15.12 15.32c-.63-.21-1.11.04-1.87-.29a2.57 2.57 0 0 0-1.36-.16c-.08-.01-.71-.11-1.36.16-1.07.41-1.8-.07-2.64.77l.08.46.74.75c.2.05.56.28.74.39l2.45-.19c.35-.06 2.07.15 2.45.19.18-.11.53-.34.74-.39l.74-.75.08-.46c-.26-.24-.55-.39-.77-.47z" class="O"/><path d="M14.35 17.41l-2.45-.19c-.36-.06-2.07.15-2.45.19-.17-.11-.54-.34-.74-.39l-.74-.76-.08-.47c.87-.85 1.54-.35 2.65-.77a2.57 2.57 0 0 1 1.36-.16c.08-.01.71-.11 1.36.16.77.33 1.25.08 1.87.29.21.08.51.23.78.48l-.08.47-.74.76c-.2.05-.56.28-.74.39zM8.72 17c.2.05.56.28.73.38l2.45-.19c.35-.06 2.06.15 2.45.19.17-.11.53-.34.73-.38l.73-.75.08-.45c-.27-.25-.56-.39-.77-.47-.64-.21-1.11.05-1.93-.32-.66-.25-1.26-.14-1.3-.14a2.76 2.76 0 0 0-1.41.19c-1.07.37-1.72-.09-2.57.73l.08.45.73.75z"/><path d="M17.31 19.35h.95v6.42h-.95z" class="Q"/><path d="M18.28,25.78h-.99v-6.45h.99v6.45Zm-.95-.04h.91v-6.38h-.91v6.38Z"/><path d="M18.26 19.35h.15v6.42h-.15z" class="Q"/><path d="M18.42,25.78h-.18v-6.45h.18v6.45Zm-.15-.04h.11v-6.38h-.11v6.38Z"/><path d="M18.4 19.35h.23v6.42h-.23z" class="Q"/><path d="M18.65,25.78h-.27v-6.45h.27v6.45Zm-.23-.04h.19v-6.38h-.19v6.38Z"/><use xlink:href="#B" class="S"/><use xlink:href="#C"/><use xlink:href="#B" y="-0.19" class="Q"/><use xlink:href="#C" y="-0.19"/><use xlink:href="#B" y="-0.38" class="S"/><use xlink:href="#C" y="-0.38"/><use xlink:href="#B" y="-0.57" class="Q"/><use xlink:href="#C" y="-0.57"/><use xlink:href="#B" y="-0.76" class="S"/><path d="M19.24 27c-.33.01-.35-.12-.64-.12-.3 0-.3.12-.63.12s-.33-.12-.63-.12-.32.13-.64.12v-.24c.3 0 .31-.12.64-.12s.33.12.63.12.3-.12.63-.12.34.13.64.12V27zm-1.89-.16c.35.03.61.23.97.06.31-.15.56.05.89.07v-.17c-.28 0-.29-.12-.61-.12s-.32.12-.63.12c-.3 0-.3-.12-.63-.12-.31 0-.32.11-.61.12v.17c.31 0 .31-.12.61-.12z"/><path d="M18.66 19.26h-1.38c-.05 0-.06-.05-.06-.09 0-.03.02-.06.06-.06h1.38c.08 0 .08.15 0 .15z" class="M"/><use xlink:href="#D"/><path d="M18.67 18.93h-1.41s-.05-.04-.04-.07c0-.02.02-.04.04-.04h1.41c.06 0 .06.11 0 .11z" class="M"/><path d="M18.67 18.95h-1.4s-.07-.04-.06-.09c0-.03.03-.06.06-.06h1.4c.09 0 .09.15 0 .15zm-1.4-.11s-.04.08 0 .08h1.4c.03 0 .03-.03.03-.05 0-.01-.01-.03-.03-.03h-1.4z"/><path d="M18.62 18.93h-1.29c.1.1 0 .18 0 .18h1.29s-.1-.08 0-.18z" class="M"/><path d="M18.67 19.13h-1.4c.09-.05.11-.13 0-.21h1.38c-.1.08-.08.16.01.21zm-1.3-.04h1.21s-.03-.1 0-.14h-1.21s.03.1 0 .14z"/><path d="M17.05 26.23h1.85v.47h-1.85z" class="M"/><path d="M18.91,26.72h-1.89v-.51h1.89v.51Zm-1.85-.04h1.81v-.43h-1.81v.43Z"/><path d="M18.66 25.99h-1.38c-.05 0-.06-.05-.06-.09 0-.03.02-.06.06-.06h1.38c.08 0 .08.15 0 .15z" class="M"/><use xlink:href="#D" y="6.73"/><path d="M18.64 25.99h-1.35s.04.09-.17.24h1.69c-.21-.15-.17-.24-.17-.24z" class="M"/><path d="M18.87 26.24h-1.8c.18-.11.24-.24.2-.27h1.41c-.05.04.02.17.2.28zm-1.69-.04h1.58c-.12-.1-.14-.17-.14-.2h-1.31s-.02.11-.14.2z"/><path d="M5.23 19.35h.95v6.42h-.95z" class="Q"/><path d="M6.2,25.78h-.99v-6.45h.99v6.45Zm-.95-.04h.91v-6.38h-.91v6.38Z"/><path d="M6.18 19.35h.15v6.42h-.15z" class="Q"/><path d="M6.35 25.78h-.18v-6.45h.18v6.45zm-.15-.04h.11v-6.38H6.2v6.38z"/><path d="M6.33 19.35h.23v6.42h-.23z" class="Q"/><path d="M6.57 25.78H6.3v-6.45h.27v6.45zm-.23-.04h.19v-6.38h-.19v6.38z"/><use xlink:href="#E" class="S"/><use xlink:href="#F"/><use xlink:href="#E" y="-0.19" class="Q"/><use xlink:href="#F" y="-0.19"/><use xlink:href="#E" y="-0.38" class="S"/><path d="M7.16 27.38c-.33.01-.35-.12-.64-.12-.3 0-.3.12-.63.12s-.33-.12-.63-.12-.32.13-.64.12v-.24c.3 0 .32-.13.64-.12.33 0 .33.12.63.12s.3-.12.63-.12.34.13.64.12v.24zm-1.9-.16c.35.03.61.23.97.05.31-.15.56.05.89.07v-.17c-.29 0-.29-.12-.61-.12s-.32.12-.63.12c-.3 0-.3-.12-.63-.12-.31 0-.32.11-.61.12v.17c.31 0 .31-.12.61-.12z"/><use xlink:href="#E" y="-0.57" class="Q"/><use xlink:href="#F" y="-0.57"/><use xlink:href="#E" y="-0.76" class="S"/><path d="M7.16 27c-.33.01-.35-.12-.64-.12-.3 0-.3.12-.63.12s-.33-.12-.63-.12-.32.13-.64.12v-.24c.3 0 .32-.12.64-.12.33 0 .33.12.63.12s.3-.12.63-.12.34.13.64.12V27zm-1.9-.16c.35.03.61.23.97.05.31-.15.56.05.89.07v-.17c-.29 0-.29-.12-.61-.12s-.32.12-.63.12c-.3 0-.3-.12-.63-.12-.31 0-.32.11-.61.12v.17c.31 0 .31-.12.61-.12z"/><path d="M5.2 19.26h1.38c.05 0 .06-.05.06-.09 0-.03-.02-.06-.06-.06H5.2c-.08 0-.08.15 0 .15z" class="M"/><path d="M6.57 19.28H5.23a.09.09 0 0 1 0-.18h1.34c.12 0 .12.19 0 .19zm-1.34-.15c-.07 0-.07.11 0 .11.24-.02 1.48.06 1.4-.06.09-.12-1.18-.03-1.4-.06z"/><path d="M5.19 18.93H6.6s.05-.04.04-.07c0-.02-.02-.04-.04-.04H5.19c-.06 0-.06.11 0 .11z" class="M"/><path d="M6.6 18.95H5.2s-.07-.04-.06-.09c0-.03.03-.06.06-.06h1.4c.09 0 .09.15 0 .15zm-1.4-.11s-.04.08 0 .08h1.4c.01 0 .03-.01.03-.03s0-.05-.03-.05H5.2z"/><path d="M5.25 18.93h1.29c-.1.1 0 .18 0 .18H5.25s.1-.08 0-.18z" class="M"/><path d="M6.59 19.13h-1.4c.09-.05.11-.13 0-.21h1.38c-.1.08-.08.16.01.21zm-1.3-.04H6.5s-.03-.1 0-.14H5.29s.03.1 0 .14z"/><path d="M4.97 26.23h1.85v.47H4.97z" class="M"/><path d="M6.84 26.72H4.96v-.51h1.88v.51zm-1.85-.04H6.8v-.43H4.99v.43z"/><path d="M5.2 25.99h1.38c.05 0 .06-.05.06-.09 0-.03-.02-.06-.06-.06H5.2c-.08 0-.08.15 0 .15z" class="M"/><path d="M6.57 26.01H5.23c-.12 0-.12-.19 0-.19h1.34c.12 0 .12.19 0 .19zm-1.34-.15c-.07 0-.07.11 0 .11.24-.02 1.48.06 1.4-.06.09-.12-1.18-.03-1.4-.06z"/><path d="M5.22 25.99h1.35s-.04.09.17.24H5.05c.21-.15.17-.24.17-.24z" class="M"/><path d="M6.79 26.24h-1.8c.18-.11.24-.24.2-.27H6.6c-.05.04.02.16.2.28zM5.1 26.2h1.58c-.12-.1-.14-.17-.14-.2H5.23s-.02.11-.14.2z"/><path d="M18.63 21.91v.64s.6-.06.67-.31c0-.29-.15-.31-.15-.31l-.52-.02z" class="O"/><path d="M18.61 22.57v-.68l.54.02s.17.03.16.33c-.08.28-.66.33-.7.33zm.04-.64v.6c.1-.01.58-.08.63-.3 0-.27-.12-.29-.13-.29l-.5-.02z"/><path d="M16.01 20.94s2.29-.54 3.51.5c.19.13-.18.65-.22.8 0 0-.63-1.17-3.29-.52v-.79z" class="O"/><path d="M19.3 22.28l-.02-.03s-.71-1.16-3.29-.5v-.83c.03 0 2.32-.53 3.54.51.21.14-.19.69-.23.86zm-1.83-.77c.78-.02 1.55.27 1.82.69.03-.14.39-.62.21-.75-1.15-.98-3.29-.54-3.48-.5v.75a6.06 6.06 0 0 1 1.44-.19z"/><path d="M16.81 22.26s.09-.16.5-.18v.77l-.4-.29-.09-.31z" class="O"/><path d="M17.31 22.87l-.41-.29-.1-.33s.1-.17.51-.19c.01 0 .02 0 .02.02v.77s0 .02-.02.02zm-.39-.32l.37.26v-.72c-.33.02-.44.14-.46.16l.09.29z"/><path d="M19.34 24.41s0 .15-.19.23-.11.28-.11.28-.42-.3 0-.74l.23-.02.07.24z" class="O"/><path d="M19.04 24.94c-.21-.1-.3-.53-.01-.77l.24-.02.09.26c0 .01 0 .17-.2.25-.21.1-.06.26-.12.28zm.01-.74c-.22.2-.23.51-.04.67 0-.07 0-.19.14-.25.17-.07.18-.19.18-.21l-.06-.23-.21.02z"/><path d="M16.81 22.26s.34.52 1.3.84 1.33.66 1.33.66l-.11.67s-.55-.44-1.29-.67c-.69-.21-1.31-.77-1.31-.77l.08-.72z" class="O"/><path d="M19.34 24.43s-.55-.44-1.3-.67c-.69-.21-1.31-.77-1.32-.77-.02-.02.08-.72.07-.74 0 0 0-.01.01-.02.04 0 .34.52 1.31.84.96.31 1.33.66 1.34.66 0 .02-.05.59-.12.7zm-2.58-1.46c.07.06.66.56 1.3.76.65.2 1.16.57 1.27.66l.1-.63c-.05-.05-.44-.36-1.32-.65-.81-.27-1.18-.68-1.28-.8l-.07.67z"/><path d="M5.23 21.91v.64s-.6-.06-.67-.31c0-.29.15-.31.15-.31l.52-.02z" class="O"/><path d="M5.25 22.57s-.62-.05-.7-.33c-.01-.31.15-.34.16-.34l.54-.02v.68zm-.04-.64l-.5.02s-.14.03-.13.3c.05.21.53.28.63.29v-.6z"/><path d="M7.85 20.94s-2.29-.54-3.51.5c-.19.13.18.65.22.8 0 0 .63-1.17 3.29-.52v-.79z" class="O"/><path d="M4.56 22.29c-.05-.17-.44-.72-.23-.86 1.23-1.03 3.5-.51 3.54-.5v.83c-2.58-.66-3.3.49-3.29.5l-.02.03zm1.96-1.46c-.72 0-1.58.13-2.17.63-.06.05-.07.13-.04.21l.25.54c.71-.76 1.52-.86 3.27-.5v-.75a6.7 6.7 0 0 0-1.31-.13z"/><path d="M7.05 22.26s-.09-.16-.5-.18v.77l.4-.29.09-.31z" class="O"/><path d="M6.56 22.87s-.02 0-.02-.02v-.77s0-.02.02-.02c.41.02.51.18.51.19l-.1.33c-.02 0-.4.29-.42.29zm.02-.77v.72l.37-.26.09-.29s-.13-.14-.46-.16z"/><path d="M14.08 14.53s2.05-.2 1.7.99c-.05.16-.19.23-.19.23l.24.38c.64-.68.21-1.98-1.91-1.73l.09.19.06-.06z" class="M"/><path d="M15.83 16.17l-.27-.43c.25-.08.31-.66.11-.82-.37-.45-1.47-.37-1.58-.36l-.08.08-.12-.25c1.93-.23 2.74.77 1.94 1.79zm-.2-.41l.21.33c.67-.98-.07-1.82-1.87-1.66l.06.12.05-.04c.06 0 1.23-.12 1.64.38.19.19.18.73-.08.88z"/><path d="M4.53 24.41s0 .15.19.23.11.28.11.28.42-.3 0-.74l-.23-.02-.07.24z" class="O"/><path d="M4.83 24.94c-.06-.02.09-.19-.12-.28-.2-.08-.2-.24-.2-.25s.06-.28.09-.26l.23.02c.3.24.21.68 0 .77zm-.28-.53s.01.14.18.21c.14.06.15.18.14.25.18-.16.18-.47-.04-.67l-.21-.02-.06.23z"/><path d="M13.89 15.52s.76-.52.06-1.12c.05.31.06.37 0 .69l-.2.24.06.19h.08z" class="M"/><path d="M13.89 15.55h-.11l-.07-.22.2-.25c.08-.33.04-.43 0-.74.22.17.37.4.35.62-.02.35-.35.57-.38.59zm-.07-.05h.06c.26-.15.54-.68.11-1.03.05.3.04.35-.02.64l-.19.23.05.16z"/><path d="M7.05 22.26s-.34.52-1.3.84-1.33.66-1.33.66l.11.67s.55-.44 1.29-.67c.69-.21 1.31-.77 1.31-.77l-.08-.72z" class="O"/><path d="M4.53 24.43c-.07-.11-.12-.68-.12-.7 0 0 .38-.35 1.34-.66.98-.32 1.27-.82 1.31-.84 0 0 .01 0 .01.02s.09.72.07.74c0 0-.63.56-1.32.77-.75.23-1.26.66-1.3.67zm-.09-.68c0 .07.06.48.1.63.11-.08.62-.46 1.27-.66.64-.2 1.23-.7 1.3-.76l-.07-.67c-.1.13-.47.54-1.28.8-.88.29-1.26.6-1.32.65z"/><g class="M"><path d="M16.88 20.91h.13l-.15.52h-.16l-.23-.5h.13l.17.4h0l.1-.42zm.31 0h.14v.47h.22v.05h-.36v-.53zm.42.01l.39.04v.05l-.13-.01-.04.47h-.14l.04-.48h-.13v-.06z"/><path d="M18.17 20.97c.08.02.33.06.39.11.09.07.03.24-.1.21.15.03.05.21.06.29l-.14-.03s.06-.2.02-.24c-.03-.02-.11-.03-.15-.05l-.05.25-.14-.03.11-.51zm.29.2c.04-.11-.1-.09-.16-.12l-.04.17c.08.02.19.07.2-.05z"/><path d="M19 21.23l.15.08-.07.55-.12-.06.02-.1-.19-.1-.07.07-.12-.06.4-.38zm-.17.33l.16.09.05-.29h0l-.21.2zm-6.64-7.24s.35-.24.77-.24c.83-.01 1.35.83.67 1.24l.19.35.09-.09-.1-.21c.59-.43.16-1.44-.85-1.42-.66 0-.94.35-.94.35l.18.02z"/></g><path d="M13.82 15.71l-.22-.41s.31-.11.32-.53c0-.41-.57-.67-.96-.67-.42 0-.74.23-.76.24l-.23-.02c.06-.06.28-.38.99-.4 1-.03 1.48.97.88 1.45l.1.21-.13.13zm-.15-.38l.16.3.05-.05-.11-.22c.6-.41.17-1.4-.82-1.38-.51 0-.8.22-.89.31h.12c.06-.02.38-.23.77-.23.79-.01 1.41.79.71 1.27z"/><g class="M"><path d="M4.82 21.22c.1-.03.37-.17.45-.1.19.18-.02.3-.2.35l.07.19-.14.05-.18-.49zm.37.02c-.03-.12-.14-.05-.22-.03l.07.2c.09-.03.2-.06.14-.18zm.29-.23l.14-.02.08.46.23-.04v.05l-.36.06-.09-.51zm.91-.1h.14l-.17.52h-.17l-.23-.51h.14l.17.4h0l.12-.42z"/><path d="M6.69 21.08c-.09-.24.55-.2.45.04H7c.05-.19-.18-.17-.18-.09 0 .12.35.15.33.3 0 .19-.4.14-.46.05-.03-.03-.02-.1-.02-.15h.14s-.01.12.01.14c.05.05.2.05.18-.06 0-.1-.29-.17-.32-.24z"/></g><path d="M15.91 16.01l-.16-.23s.44-.45.01-.99l.04-.03c.41.51.09.94.01 1.03l.14.19-.04.03z"/><use xlink:href="#G" class="N"/><use xlink:href="#H"/><use xlink:href="#G" x="0.29" y="-0.04" class="N"/><use xlink:href="#H" x="0.29" y="-0.04"/><use xlink:href="#G" x="0.56" y="-0.04" class="N"/><use xlink:href="#H" x="0.55" y="-0.04"/><use xlink:href="#G" x="0.83" class="N"/><use xlink:href="#H" x="0.83"/><use xlink:href="#G" x="1.09" y="0.07" class="N"/><use xlink:href="#H" x="1.09" y="0.07"/><use xlink:href="#G" x="1.34" y="0.22" class="N"/><use xlink:href="#H" x="1.34" y="0.22"/><use xlink:href="#G" x="1.56" y="0.4" class="N"/><use xlink:href="#H" x="1.56" y="0.39"/><use xlink:href="#G" x="1.83" y="0.37" class="N"/><use xlink:href="#H" x="1.83" y="0.37"/><use xlink:href="#G" x="2.1" y="0.37" class="N"/><use xlink:href="#H" x="2.1" y="0.37"/><use xlink:href="#G" x="2.38" y="0.38" class="N"/><use xlink:href="#H" x="2.38" y="0.38"/><use xlink:href="#G" x="2.66" y="0.43" class="N"/><use xlink:href="#H" x="2.66" y="0.42"/><use xlink:href="#G" x="2.93" y="0.54" class="N"/><use xlink:href="#H" x="2.93" y="0.53"/><use xlink:href="#G" x="3.18" y="0.66" class="N"/><use xlink:href="#H" x="3.18" y="0.66"/><use xlink:href="#G" x="3.39" y="0.84" class="N"/><use xlink:href="#H" x="3.39" y="0.83"/><use xlink:href="#G" x="3.58" y="1.03" class="N"/><use xlink:href="#H" x="3.58" y="1.03"/><use xlink:href="#G" x="3.71" y="1.26" class="N"/><use xlink:href="#H" x="3.71" y="1.26"/><use xlink:href="#G" x="3.78" y="1.54" class="N"/><use xlink:href="#H" x="3.78" y="1.54"/><use xlink:href="#G" x="3.77" y="1.79" class="N"/><use xlink:href="#H" x="3.77" y="1.79"/><use xlink:href="#G" x="3.68" y="2.03" class="N"/><use xlink:href="#H" x="3.68" y="2.03"/><use xlink:href="#G" x="1.7" y="0.64" class="N"/><use xlink:href="#H" x="1.7" y="0.63"/><path d="M15.38 16.66c-.09.1-.84.73-.8.06l-.05.03s-.11.21-.46.15c-.35-.05-.28-.57-.28-.57s-.08-.18-.08-.03c-.08.62-.82.65-.9.06 0 0 0 .34-.43.34s-.38-.55-.38-.55l-.1-.07-.1.07s.04.55-.38.55-.43-.34-.43-.34c-.08.6-.82.56-.9-.06 0-.15-.08.03-.08.03s.08.52-.28.57-.46-.15-.46-.15l-.05-.03c.05.67-.71.04-.8-.06l-.03.14c.06.09.71.76.94.17 0 0 .47.33.8-.22 0 0 .45.44.88-.03 0 0 .42.43.9-.09.47.52.9.09.9.09.43.48.88.03.88.03.32.55.8.22.8.22.23.59.89-.07.94-.17l-.03-.14z" class="M"/><path d="M9 17.24c-.29 0-.64-.4-.64-.44.01-.02 0-.2.07-.15.11.09.78.72.76.06.02-.01.08.02.09.04 0 0 .1.19.44.14a.27.27 0 0 0 .18-.1c.12-.18.07-.43.08-.45.08-.17.13-.11.13-.02.07.58.76.63.85.05 0-.03.05-.03.05 0 .07.48.83.44.76-.2 0-.02.1-.08.11-.1h.03c.01.02.11.07.11.1-.07.64.69.69.76.2 0-.03.05-.03.05 0 .09.58.78.52.85-.05 0-.09.05-.15.13.02 0 .03-.04.28.08.45.17.24.64.03.61-.04.03-.02.1-.07.1-.01-.05.64.69-.01.75-.08.01-.01.04 0 .04.01s.04.15.02.16c-.02.02-.43.51-.73.41 0 0-.17-.02-.25-.22a.57.57 0 0 1-.79-.22c-.17.19-.66.26-.87-.04-.19.21-.67.22-.89-.09-.23.31-.71.29-.89.09-.22.3-.71.22-.87.04a.57.57 0 0 1-.79.22c-.13.25-.22.2-.34.23zm-.59-.44c.12.15.68.7.89.17 0-.02.03-.02.04-.01.17.14.6.14.76-.21.06-.05.18.18.46.18.15 0 .29-.07.42-.21.06-.03.15.16.42.16.26.01.34-.18.51-.25.24.33.71.28.86.09.11.01.2.22.44.21.23 0 .44-.18.43-.18.09 0 .15.27.4.3.21.05.4-.08.4-.08.01-.01.03 0 .04.01.06.19.22.21.22.21.25.09.61-.31.67-.38l-.02-.08c-.18.18-.81.63-.81.05h0c0 .11-.52.31-.7.04-.12-.16-.09-.42-.09-.47 0-.02-.02-.04-.03-.05 0 .48-.72.82-.92.18-.24.48-.9.29-.84-.3l-.07-.05-.07.05c.06.58-.61.78-.84.3-.2.64-.93.3-.92-.18 0 .01-.02.03-.03.05.1.6-.47.79-.78.43h0c0 .58-.63.12-.81-.05l-.02.08z"/><use xlink:href="#G" x="1.75" y="0.9" class="N"/><use xlink:href="#H" x="1.75" y="0.9"/><use xlink:href="#G" x="1.75" y="1.15" class="N"/><use xlink:href="#H" x="1.75" y="1.15"/><use xlink:href="#G" x="1.66" y="1.38" class="N"/><use xlink:href="#H" x="1.66" y="1.38"/><use xlink:href="#G" x="-0.26" y="0.1" class="N"/><use xlink:href="#H" x="-0.26" y="0.1"/><path d="M13.97 15.82s.01-.25-.08-.35c-.12.05-.21.29-.21.29s-.09-.13-.13-.15c.07.28 0 .62.2.55.17.14.23-.2.4-.43-.05 0-.18.09-.18.09z" class="M"/><path d="M13.84 16.22l-.09-.03c-.23.06-.16-.35-.22-.57.03-.09.12.05.15.09.16-.36.31-.33.32.06.05-.03.18-.12.18-.03-.03 0-.23.5-.33.48zm-.09-.08c.16.12.19-.15.34-.36-.26.18-.07-.1-.21-.27-.2.11-.12.44-.3.17.05.18 0 .53.17.46z"/><path d="M14.15 16.46s.25.01.35-.08c-.05-.12-.29-.21-.29-.21s.13-.09.15-.13c-.28.07-.62 0-.55.2-.14.17.2.23.43.4 0-.05-.09-.18-.09-.18z" class="M"/><path d="M14.23 16.67c-.29-.19-.59-.25-.46-.43-.06-.23.34-.16.57-.22.09.02-.05.12-.09.15.36.16.32.31-.06.32.02.05.11.15.04.18zm.06-.59c-.32.07-.49-.02-.47.18-.13.13.24.22.37.33-.18-.26.1-.07.27-.21-.11-.2-.44-.13-.17-.3z"/><path d="M13.27 16.29s-.24-.09-.29-.21c.09-.09.35-.08.35-.08s-.09-.13-.09-.18c.23.17.57.23.43.4.07.21-.28.13-.55.2.02-.04.15-.13.15-.13z" class="M"/><path d="M13.12 16.44c-.08-.03.06-.12.1-.15-.36-.16-.32-.31.06-.32-.22-.38.19-.02.38.06.08.03.07.14.04.19.06.23-.34.16-.58.22zm-.11-.36c.11.2.44.13.17.3.32-.07.49.02.47-.18.13-.13-.24-.22-.37-.33.18.26-.1.07-.27.21z"/><path d="M14.99 16.65s-.21-.12-.23-.23c.1-.06.33 0 .33 0s-.06-.12-.05-.16c.17.17.49.3.34.41.03.19-.29.06-.53.07.02-.03.15-.08.15-.08z" class="M"/><path d="M15.29 16.8c-.17-.04-.72.01-.36-.15-.06-.04-.18-.13-.2-.22.03-.09.24-.05.31-.04-.14-.36.19.03.35.12.08.05.05.13 0 .17 0 .05-.02.12-.1.12zm-.38-.08c.31 0 .42.11.44-.06.13-.08-.21-.24-.28-.33.13.24-.14.04-.28.11.05.15.38.19.12.28z"/><path d="M13.89 16.26c-.04.22-.35.14-.3-.07.04-.22.35-.14.3.07z" class="O"/><path d="M13.74 16.42c-.18 0-.25-.26-.1-.36.13-.09.31.04.27.2h0c-.01.09-.09.16-.18.16zm0-.33c-.31.06.01.49.13.17h0c.02-.09-.04-.17-.13-.17z"/><path d="M15.43 16.64s-.1-.41.13-.51l.04.11s.38-.34.43.13c0 0-.38-.15-.49.34l-.12-.07z" class="M"/><path d="M15.54 16.74s-.13-.07-.14-.09c0-.02-.1-.43.15-.54.04-.02.05.07.06.09.06-.04.19-.13.3-.09.05-.02.22.27.11.29-.26-.08-.36.06-.48.34zm-.09-.11l.08.05c.05-.25.28-.39.47-.33-.02-.28-.27-.19-.38-.08-.05.04-.06-.07-.07-.1-.16.1-.11.4-.1.46z"/><use xlink:href="#G" x="3.56" y="2.27" class="N"/><use xlink:href="#H" x="3.56" y="2.27"/><path d="M15.51 16.79c-.34.26-.2-.39.04-.21.04.05.02.15-.04.21z" class="O"/><path d="M15.39 16.88c-.22-.02-.08-.37.1-.35.14.01.13.19.04.29h0s-.09.07-.14.07zm.09-.3c-.2 0-.21.39 0 .2h0c.06-.07.09-.19 0-.2zm.03.22h0z"/><path d="M12.93 16.36c-.03.18-.21.15-.18-.03s.21-.15.18.03z" class="N"/><path d="M12.83 16.5c-.15 0-.1-.34.04-.31.06 0 .09.09.08.17h0c-.01.06-.05.14-.12.14zm.03-.27c-.18.04-.03.42.06.13h0c.01-.07-.01-.13-.06-.13z"/><path d="M14.66 16.7c-.05.17-.23.12-.17-.05.05-.17.23-.12.17.05z" class="N"/><path d="M14.55 16.83c-.09 0-.1-.11-.08-.19.06-.2.27-.13.2.07h0c-.02.06-.06.12-.13.12zm.05-.27c-.18.03-.09.41.04.14h0c.02-.07 0-.14-.04-.14z"/><path d="M14.48 17.85l-.31-.21-1.18-.24h-2.18l-1.18.24c-.06.06-.56.28-.27.38.17.05 1.12.32 2.54.32s2.37-.27 2.54-.32.04-.17.04-.17z" class="M"/><path d="M11.9 18.36c-1.23 0-2.12-.2-2.54-.32-.14-.02-.12-.17-.06-.21l.33-.22 1.18-.24h2.18l1.19.24.32.22c.37.35-1.65.52-2.6.53zm-2.26-.7c-.04.05-.52.26-.27.33.78.39 4.28.39 5.06 0 .08-.01.09-.08.04-.12l-.31-.21-1.18-.24h-2.17l-1.17.24z"/><path d="M14.64 17.36l-.07-.11c-.59-.12-1.52-.26-2.13-.27h-.47l-.08.04-.08-.04h-.47c-.61.02-1.53.16-2.13.27l-.07.11c.24.13.16.49.16.49.45-.29 1.93-.36 2.58-.36s2.13.07 2.58.36c0 0-.07-.36.16-.49z" class="M"/><path d="M14.48 17.88c-1.25-.55-3.98-.43-5.19-.03 0 0 .07-.34-.15-.46-.01 0-.02-.02 0-.04 0-.01.07-.12.08-.12.59-.12 1.52-.26 2.13-.27h.48c.02 0 .06.04.08.04 0 0 .07-.04.08-.04h.47c.61.02 1.54.16 2.13.27.02 0 .07.11.08.12v.04c-.26.15-.1.48-.18.49zm-2.58-.41c.68 0 2.06.07 2.55.34-.01-.11-.01-.34.16-.45l-.05-.08c-.58-.12-1.51-.26-2.11-.27h-.47c-.02 0-.08.06-.1.04l-.08-.04h-.47c-.6.01-1.53.15-2.11.27l-.05.08c.17.11.17.35.16.45.49-.27 1.87-.34 2.55-.34z"/><path d="M14.79 17.21c-1.49-.36-2.89-.32-2.89-.32s-1.4-.04-2.89.32c0 0-.12.23.17.14 0 0 .88-.33 2.73-.33s2.73.33 2.73.33c.29.08.17-.14.17-.14z" class="M"/><path d="M14.73 17.4c-.22-.02-.86-.34-2.83-.35-1.82 0-2.71.32-2.72.33-.21.08-.27-.07-.2-.18 1.44-.38 2.92-.32 2.92-.33.01 0 1.42-.04 2.9.32.06.03.07.23-.07.21zM11.9 17c1.83 0 2.73.33 2.73.33.13.04.19 0 .14-.1-1.47-.35-2.86-.31-2.88-.31s-1.41-.04-2.88.31c-.05.11.01.14.15.1 0 0 .9-.33 2.73-.33z"/><path d="M14.17 17.93c-.69.28-3.5.38-4.55 0 .7-.25 1.47-.23 2.21-.26.71 0 1.8.04 2.35.26z" class="O"/><path d="M11.97 18.21c-.81 0-1.65-.04-2.43-.28.65-.25 1.36-.25 2.04-.28.83 0 1.91-.02 2.66.29l-.06.02s-1.46.29-2.21.26zm-.3-.05c.64.05 2.2-.13 2.42-.23-.79-.24-1.77-.23-2.59-.22-.6.03-1.23.04-1.81.23.64.17 1.31.22 1.98.23z"/><use xlink:href="#G" x="1.52" y="1.58" class="N"/><use xlink:href="#H" x="1.52" y="1.58"/><use xlink:href="#G" x="0.13" y="3.47" class="N"/><use xlink:href="#H" x="0.13" y="3.46"/><use xlink:href="#G" x="1.46" y="3.61" class="N"/><use xlink:href="#H" x="1.46" y="3.61"/><path d="M12.18 17.36c-.16-.02-.68.06-.65-.07-.04-.2.26-.1.65-.12.1 0 .1.2 0 .2z" class="O"/><path d="M12.16 17.38c-.17-.02-.66.08-.65-.12-.02-.21.47-.1.65-.12.16 0 .16.25 0 .25zm-.52-.2c-.09 0-.09.15 0 .15h.52c.09 0 .09-.15 0-.15h-.52z"/><path d="M13.46 17.45l-.43-.04c-.1 0-.08-.21.02-.2.1.03.53 0 .49.12 0 .05-.02.12-.08.12z" class="R"/><path d="M13.44 17.47c-.13-.02-.67.02-.46-.25.05-.06.4.01.47 0 .15.01.14.25-.01.25zm-.38-.23c-.09 0-.1.14 0 .15l.38.03c.09 0 .11-.14.01-.15-.01 0-.37-.03-.38-.03z"/><path d="M14.23 17.48l.31-.03.09.13-.17.07-.23-.17z" class="O"/><path d="M14.46 17.68l-.3-.21.4-.04.11.17-.21.08zm-.16-.18l.17.12.12-.05-.06-.09-.23.02z"/><path d="M9.71 14.53s-2.05-.2-1.7.99c.05.16.19.23.19.23l-.24.38c-.64-.68-.21-1.98 1.91-1.73l-.09.19-.06-.06z" class="M"/><path d="M7.96 16.17c-.79-1.02 0-2.01 1.94-1.79l-.12.25-.08-.08c-.11 0-1.21-.09-1.58.36-.2.17-.14.75.11.82l-.27.43zm1.41-1.77c-1.48.01-2.02.83-1.41 1.69l.21-.33c-.26-.15-.28-.69-.08-.88.42-.49 1.58-.38 1.64-.38l.05.04.06-.12c-.17-.02-.32-.02-.46-.02z"/><path d="M9.91 15.52s-.76-.52-.06-1.12c-.05.31-.06.37 0 .69l.2.24-.06.19h-.08z" class="M"/><path d="M10.01 15.55H9.9s-.35-.24-.38-.59c-.02-.21.13-.45.35-.62-.04.32-.08.41 0 .74l.2.25-.07.22zm-.09-.05h.06l.05-.16-.19-.24-.06-.33.04-.3c-.43.34-.16.88.11 1.03z"/><path d="M11.6 14.32s-.35-.24-.77-.24c-.83-.01-1.35.83-.67 1.24l-.19.35-.09-.09.1-.21c-.59-.43-.16-1.44.85-1.42.66 0 .94.35.94.35l-.18.02z" class="M"/><path d="M9.97 15.71l-.13-.13.1-.21c-.6-.48-.12-1.48.88-1.45.72.02.93.34.99.4l-.23.02s-.34-.23-.76-.24c-.39 0-.96.26-.96.67 0 .42.29.51.32.53l-.22.41zm-.06-.14l.05.05.16-.3c-.7-.48-.07-1.28.71-1.27.39 0 .72.2.77.24h.12c-.09-.1-.37-.32-.89-.32-.99-.02-1.42.97-.82 1.38l-.11.22zm-2.03.44l.16-.23s-.44-.45-.01-.99l-.04-.03c-.41.51-.09.94-.01 1.03l-.14.19.04.03z"/><use xlink:href="#I" class="N"/><use xlink:href="#H" x="-1.17"/><use xlink:href="#I" x="-0.29" y="-0.04" class="N"/><use xlink:href="#H" x="-1.46" y="-0.04"/><use xlink:href="#I" x="-0.55" y="-0.04" class="N"/><use xlink:href="#H" x="-1.72" y="-0.04"/><use xlink:href="#I" x="-0.83" class="N"/><use xlink:href="#H" x="-2"/><use xlink:href="#I" x="-1.09" y="0.07" class="N"/><use xlink:href="#H" x="-2.26" y="0.07"/><use xlink:href="#I" x="-1.34" y="0.22" class="N"/><use xlink:href="#H" x="-2.51" y="0.22"/><use xlink:href="#I" x="-1.56" y="0.4" class="N"/><use xlink:href="#H" x="-2.73" y="0.39"/><use xlink:href="#I" x="-1.83" y="0.37" class="N"/><use xlink:href="#H" x="-3" y="0.37"/><use xlink:href="#I" x="-2.1" y="0.37" class="N"/><use xlink:href="#H" x="-3.27" y="0.37"/><use xlink:href="#I" x="-2.38" y="0.38" class="N"/><use xlink:href="#H" x="-3.55" y="0.38"/><use xlink:href="#I" x="-2.66" y="0.43" class="N"/><use xlink:href="#H" x="-3.83" y="0.42"/><use xlink:href="#I" x="-2.93" y="0.54" class="N"/><use xlink:href="#H" x="-4.1" y="0.53"/><use xlink:href="#I" x="-3.18" y="0.66" class="N"/><use xlink:href="#H" x="-4.35" y="0.66"/><use xlink:href="#I" x="-3.39" y="0.84" class="N"/><use xlink:href="#H" x="-4.56" y="0.83"/><use xlink:href="#I" x="-3.58" y="1.03" class="N"/><use xlink:href="#H" x="-4.75" y="1.03"/><use xlink:href="#I" x="-3.71" y="1.26" class="N"/><use xlink:href="#H" x="-4.88" y="1.26"/><use xlink:href="#I" x="-3.78" y="1.54" class="N"/><use xlink:href="#H" x="-4.95" y="1.54"/><use xlink:href="#I" x="-3.77" y="1.79" class="N"/><use xlink:href="#H" x="-4.94" y="1.79"/><use xlink:href="#I" x="-3.68" y="2.03" class="N"/><use xlink:href="#H" x="-4.85" y="2.03"/><use xlink:href="#I" x="-1.7" y="0.64" class="N"/><use xlink:href="#H" x="-2.87" y="0.63"/><use xlink:href="#I" x="-1.75" y="0.9" class="N"/><use xlink:href="#H" x="-2.92" y="0.9"/><use xlink:href="#I" x="-1.75" y="1.15" class="N"/><use xlink:href="#H" x="-2.92" y="1.15"/><use xlink:href="#I" x="-1.66" y="1.38" class="N"/><use xlink:href="#H" x="-2.83" y="1.38"/><use xlink:href="#I" x="0.26" y="0.1" class="N"/><use xlink:href="#H" x="-0.91" y="0.1"/><path d="M9.82 15.82s-.01-.25.08-.35c.12.05.21.29.21.29s.09-.13.13-.15c-.07.27 0 .62-.2.55-.17.14-.23-.2-.4-.43.05 0 .18.09.18.09z" class="M"/><path d="M9.95 16.22c-.1.03-.31-.48-.33-.48 0-.09.13 0 .18.03 0-.39.17-.42.32-.06.26-.35.09.17.09.38 0 .09-.11.12-.16.1-.02.01-.05.03-.09.03zm-.25-.44c.19.27.17.46.35.36.17.07.11-.31.16-.46-.17.27-.1-.06-.3-.17-.14.17.05.46-.21.27z"/><path d="M9.64 16.46s-.25.01-.35-.08c.05-.12.29-.21.29-.21s-.13-.09-.15-.13c.27.07.62 0 .55.2.14.17-.2.23-.43.4 0-.05.09-.18.09-.18z" class="M"/><path d="M9.56 16.67c-.07-.02.02-.13.04-.18-.39 0-.42-.17-.06-.32-.35-.26.17-.09.38-.09.09 0 .12.11.1.16.13.18-.17.24-.46.43zm.09-.23c.07.02-.03.1-.04.15.27-.19.46-.17.36-.35.07-.17-.31-.11-.46-.16.27.17-.06.1-.17.3a.54.54 0 0 0 .32.06z"/><path d="M10.52 16.29s.24-.09.29-.21c-.09-.09-.35-.08-.35-.08s.09-.13.09-.18c-.23.17-.57.23-.43.4-.07.21.28.13.55.2-.02-.04-.15-.13-.15-.13z" class="M"/><path d="M10.67 16.44c-.24-.07-.64 0-.58-.22-.15-.19.26-.28.45-.43.09 0 0 .13-.03.18.39 0 .42.17.06.32.04.04.17.12.1.15zm-.17-.57c-.27.19-.46.17-.36.35-.07.17.31.11.46.16-.27-.17.06-.1.17-.3-.17-.14-.46.05-.27-.21z"/><path d="M8.8 16.65s.21-.12.23-.23c-.1-.06-.33 0-.33 0s.06-.12.05-.16c-.17.17-.49.3-.34.41-.03.19.29.06.53.07-.02-.03-.15-.08-.15-.08z" class="M"/><path d="M8.5 16.8c-.07 0-.1-.07-.1-.12-.04-.04-.07-.12 0-.17.15-.09.49-.48.35-.12.07 0 .27-.05.31.04-.02.09-.14.17-.2.22.36.16-.19.11-.36.15zm.22-.47c-.22.21-.38.21-.27.35-.03.15.32.03.43.04-.26-.08.07-.12.12-.28-.14-.07-.41.12-.28-.11z"/><path d="M9.9 16.26c.04.22.35.14.3-.07-.04-.22-.35-.14-.3.07z" class="O"/><path d="M10.05 16.42c-.09 0-.16-.07-.18-.16h0c-.03-.16.14-.29.27-.2.15.09.08.36-.1.36zm0-.33c-.08 0-.14.08-.13.17h0c.11.32.44-.11.13-.17z"/><path d="M8.36 16.64s.1-.41-.13-.51l-.04.11s-.38-.34-.43.13c0 0 .38-.15.49.34l.12-.07z" class="M"/><path d="M8.25 16.74c-.08-.12-.09-.27-.22-.32-.15-.08-.25 0-.28-.02-.03-.33.26-.36.43-.2.01-.02.02-.11.06-.09.25.11.15.52.15.54s-.12.09-.14.09zm-.36-.41c.19 0 .32.13.37.34l.08-.05c.01-.06.06-.36-.1-.46-.01.02-.02.13-.07.1-.07-.08-.36-.23-.38.08.02 0 .06-.01.1-.01zm.47.31h0z"/><use xlink:href="#I" x="-3.56" y="2.27" class="N"/><use xlink:href="#H" x="-4.73" y="2.27"/><path d="M8.28 16.79c.34.26.2-.39-.04-.21-.04.05-.02.15.04.21z" class="O"/><path d="M8.4 16.88s-.1-.02-.14-.07h0c-.17-.17.01-.4.18-.22.1.1.1.28-.04.29zm-.1-.1c.22.19.2-.2 0-.2-.09.01-.07.13 0 .2h0z"/><path d="M10.86 16.36c.03.18.21.15.18-.03s-.21-.15-.18.03z" class="N"/><path d="M10.96 16.5c-.07 0-.11-.07-.12-.14h0c-.04-.2.18-.24.21-.03.01.09-.02.17-.09.17zm-.08-.14s.04.11.09.11c.17-.08-.1-.42-.09-.11h0z"/><path d="M9.13 16.7c.05.17.23.12.17-.05-.05-.17-.23-.12-.17.05z" class="N"/><path d="M9.24 16.83c-.06 0-.1-.06-.13-.12h0c-.07-.19.14-.26.2-.07.03.07 0 .18-.08.19zm-.05-.27c-.05 0-.06.07-.04.14h0c.13.27.22-.11.04-.14z"/><use xlink:href="#I" x="-1.51" y="1.58" class="N"/><use xlink:href="#H" x="-2.68" y="1.58"/><use xlink:href="#I" x="-0.13" y="3.47" class="N"/><use xlink:href="#H" x="-1.3" y="3.46"/><use xlink:href="#I" x="-1.46" y="3.61" class="N"/><use xlink:href="#H" x="-2.63" y="3.61"/><path d="M10.33 17.45l.43-.04c.1 0 .08-.21-.02-.2-.1.03-.53 0-.49.12 0 .05.02.12.08.12z" class="R"/><path d="M10.35 17.47c-.15 0-.16-.24-.01-.25.07 0 .41-.07.47 0 .21.27-.33.23-.46.25zm.38-.23l-.38.03c-.09 0-.08.16.01.15l.38-.03c.09 0 .08-.15 0-.15z"/><path d="M9.56 17.48l-.31-.03-.09.13.17.07.23-.17z" class="O"/><path d="M9.33 17.68l-.21-.08.11-.17.4.04-.3.21zm-.13-.11l.12.05.17-.12-.23-.02-.06.09z"/><path d="M12.19 14.35c.02-.61-.62-.61-.59 0 0 .5-.14.93-.14.93l.44.29.44-.29s-.14-.43-.14-.93z" class="M"/><path d="M11.9 15.61l-.47-.31s.14-.42.14-.94c-.01-.27.12-.5.32-.48.2-.02.34.21.32.48 0 .52.13.9.14.94l-.47.31zm-.41-.33l.41.27.41-.27c-.03-.09-.13-.48-.13-.92.01-.24-.1-.45-.27-.43-.17-.02-.28.19-.27.43a3.26 3.26 0 0 1-.14.92z"/><path d="M12.1 14.41c0-.43-.2-.39-.2-.39s-.2-.04-.2.39-.09.8-.09.8l.3.21.3-.21s-.09-.37-.09-.8z" class="M"/><path d="M11.9 15.44l-.33-.23s.09-.36.1-.81c0-.23.05-.41.23-.41.17 0 .23.18.23.41 0 .45.09.78.1.81l-.33.23zm-.27-.25l.27.19.27-.19a3.62 3.62 0 0 1-.09-.79c-.01-.26-.05-.36-.18-.36s-.17.11-.18.36a3.62 3.62 0 0 1-.09.79z"/><path d="M11.97 14.2c0 .1-.15.1-.15 0s.15-.1.15 0z" class="N"/><path d="M11.9 14.29c-.12 0-.12-.19 0-.19s.12.19 0 .19zm0-.15c-.07 0-.07.11 0 .11s.07-.11 0-.11z"/><use xlink:href="#G" x="-0.58" y="0.61" class="N"/><use xlink:href="#H" x="-0.58" y="0.6"/><path d="M12.01 14.71c0 .15-.24.15-.24 0s.24-.15.24 0z" class="N"/><path d="M11.9 14.85c-.18 0-.18-.27 0-.27s.18.27 0 .27zm0-.24c-.13 0-.13.2 0 .2s.13-.2 0-.2z"/><path d="M12.04 15.03c0 .19-.3.19-.3 0s.3-.19.3 0z" class="N"/><path d="M11.9 15.2c-.22 0-.22-.34 0-.33.22 0 .22.34 0 .33zm0-.3c-.17 0-.17.26 0 .26s.17-.26 0-.26z"/><path d="M12.03 15.31c0 .18-.27.18-.27 0s.27-.18.27 0z" class="N"/><path d="M11.9 15.47c-.2 0-.2-.31 0-.31s.2.31 0 .31zm0-.27c-.15 0-.15.24 0 .24s.15-.24 0-.24z"/><path d="M12.26 13.55c0 .51-.8.46-.73-.05.05-.44.74-.39.73.05z" class="S"/><path d="M11.89 13.93c-.49 0-.49-.76 0-.76s.49.75 0 .76zm0-.74c-.46 0-.46.72 0 .71a.36.36 0 0 0 0-.71z"/><path d="M12.26 13.5h-.27v-.53h.25v-.18h-.25v-.2h-.18v.2h-.25v.18h.25v.53h-.27a.36.36 0 0 0 .02.18h.69a.36.36 0 0 0 .02-.18z" class="M"/><path d="M12.25 13.69h-.7c-.03-.06-.04-.13-.02-.2h.27v-.51h-.25v-.2h.25v-.2h.2v.2h.25v.2H12v.51h.27c.02.06 0 .14-.02.2zm-.69-.02h.67s.03-.11.02-.16h-.27v-.55h.25v-.16h-.25v-.2h-.16v.2h-.25v.16h.25v.55h-.27c0 .05 0 .11.02.16z"/><path d="M12.04 15.63s-.04-.25-.15-.32c-.11.07-.15.32-.15.32s-.11-.11-.16-.12c.12.26.12.6.31.5.19.1.19-.24.31-.5-.05.01-.16.12-.16.12z" class="M"/><path d="M11.97 16.05s-.06 0-.07-.01c-.22.11-.22-.31-.33-.52 0-.09.12.03.17.06.02-.07.06-.29.18-.29.09.06.13.22.15.29.04-.03.16-.15.17-.06-.05.07-.13.57-.26.53zm-.07-.07c.17.1.16-.22.26-.42-.22.23-.09-.08-.26-.23-.17.15-.04.46-.26.23.1.2.09.52.26.42z"/><path d="M12.34 16.22s.25-.04.32-.15c-.07-.11-.32-.15-.32-.15s.11-.11.12-.16c-.26.12-.6.12-.5.31-.1.19.24.19.5.31-.01-.05-.12-.16-.12-.16z" class="M"/><path d="M12.46 16.4c-.26-.12-.63-.12-.53-.33-.11-.22.31-.22.52-.33.09 0-.03.12-.06.17.07.02.29.06.3.18-.06.09-.22.13-.3.15.03.04.14.14.07.17zm-.06-.59c-.15.08-.52.1-.42.25-.06.19.12.14.42.27-.23-.22.09-.09.23-.26-.14-.17-.46-.04-.23-.26z"/><path d="M11.45 16.22s-.25-.04-.32-.15c.07-.11.32-.15.32-.15s-.11-.11-.12-.16c.26.12.6.12.5.31.1.19-.24.19-.5.31.01-.05.12-.16.12-.16z" class="M"/><path d="M11.33 16.4c-.07-.03.04-.12.07-.17-.07-.02-.29-.06-.3-.18.06-.09.22-.13.3-.15-.29-.33.18-.05.39-.01.09.01.1.13.07.18.1.21-.27.22-.53.33zm-.17-.33c.14.17.46.04.23.26.15-.08.52-.1.42-.25.06-.19-.12-.14-.42-.27.23.22-.09.09-.23.26z"/><path d="M12.06 16.07c0 .22-.34.22-.33 0 0-.22.34-.22.33 0z" class="O"/><path d="M11.9 16.27a.2.2 0 0 1 0-.39.2.2 0 0 1 0 .39zm0-.34c-.18 0-.18.29 0 .28.18 0 .18-.29 0-.28zm-2.18 1.96v.07s-.06-.02-.08-.02h0s.05-.03.08-.04zm.15-.04V18l-.08-.02v-.11l.08-.02zm.15-.04v.21s-.05-.01-.07-.02v-.18s.05-.01.07-.02zm.15-.02v.27s-.05-.01-.07-.01v-.24s.05 0 .07-.01zm.15-.02v.32s-.05 0-.07-.01v-.29s.04 0 .07-.01zm.15-.02v.35h-.06v-.34h.06zm.15-.02v.39h-.06v-.38h.06zm.15-.01v.42h-.05v-.41h.05zm.15-.01v.44h-.05v-.44h.05zm.15-.01v.46h-.05v-.46h.05zm.15-.01v.48h-.04v-.48h.04zm.15-.01v.5h-.04v-.49h.04zm.15 0v.51h-.04v-.5h.04zm.12-.01h.03v.51h-.03zm.18 0v.52h-.03v-.52h.03zm.13 0h.02v.52h-.02zm.15 0h.02v.51h-.02zm.17.01v.5l-.02-.51zm.14 0h.01v.5h-.01zm.16.01v.48h-.01v-.48z"/><path d="M7.85 18.25h4.08v4.5H7.85z" class="O"/><path d="M11.96,22.78H7.83v-4.55h4.13v4.55Zm-4.08-.05h4.03v-4.45H7.88v4.45Z"/><path d="M11.93 18.25h4.08v4.5h-4.08z" class="Q"/><path d="M16.04,22.78h-4.13v-4.55h4.13v4.55Zm-4.08-.05h4.03v-4.45h-4.03v4.45Z"/><path d="M13.32 21.34h-.12c.06-.15.43-.06.22.07-.03 0-.05-.06-.1-.07z" class="P"/><path d="M13.41 21.43s-.05-.07-.09-.07c-.04-.01-.1 0-.15 0 .09-.24.54-.07.24.06zm-.14-.11c.06 0 .12.03.15.08.16-.09-.1-.16-.17-.08z"/><path d="M13.22 21.63s-.06.04-.08.06c-.08-.1.12-.24.18-.12.04.08-.05.04-.1.07z" class="P"/><path d="M13.13 21.72c-.16-.16.25-.33.2-.09-.07.04-.09-.02-.2.09zm.12-.17c-.07 0-.13.05-.11.12.04-.04.1-.07.16-.06 0-.01-.01-.07-.05-.06z"/><path d="M13.43,21.84s.05,.08,.09,.11c-.02-.1,.02-.13,.04-.2-.1-.06-.16-.02-.13,.09Z" class="P"/><path d="M13.54 21.98c-.06-.03-.11-.08-.13-.13h0c-.04-.13.05-.18.16-.11.02.06-.07.07-.04.24zm-.09-.14a.5.5 0 0 0 .05.07c0-.05.01-.11.05-.15-.08-.04-.12-.02-.1.08h0z"/><use xlink:href="#J" class="O"/><use xlink:href="#K"/><path d="M13.82 26.37c-1.13 0-1.88-.49-1.88-1.62 0 1.13-.81 1.39-1.94 1.39s-1.37.07-1.37-1.06l-.55.33c-.48 2.46 3.86 2.42 3.86 2.42s3.95.14 4.01-2.32l-.63-.15c-.99.42-.37 1.02-1.5 1.02z" class="Q"/><path d="M12.04 27.85c-.5.05-4.54-.18-3.99-2.46.01 0 .59-.35.6-.36 0 1.04.15 1.1 1.16 1.08.98.01 2.1-.08 2.09-1.36h.05c0 1.03.66 1.6 1.86 1.6.6 0 .69-.17.81-.4.1-.19.23-.43.69-.62l.65.15c.11 2.02-3.08 2.44-3.93 2.37zm-.1-.05c.42.07 4.04-.14 3.98-2.28l-.6-.14a1.15 1.15 0 0 0-.65.59c-.12.24-.22.42-.85.42-1.1 0-1.75-.46-1.88-1.32-.18 1.08-1.34 1.1-2.26 1.08-.89 0-1.05-.09-1.07-1.04l-.51.3c-.54 2.16 3.41 2.43 3.84 2.38z"/><use xlink:href="#J" class="O"/><use xlink:href="#K"/><use xlink:href="#J" x="-4.08" class="O"/><path d="M9.89,27.42c-1.14,0-2.06-.93-2.06-2.07v-2.63h4.13v2.63c0,1.14-.93,2.07-2.07,2.07Zm-2.01-4.64v2.58c0,1.11,.9,2.02,2.01,2.02s2.02-.9,2.02-2.02v-2.58H7.88Z"/><path d="M14.45 21.01c0-.2-.23-.14-.36-.13-.14.03-.33 0-.44.11-.06.09-.01.2-.04.3.03-.03.05-.07.08-.1.02.05.03.1.05.15.02 0 .04-.02.05-.04.07.18-.21.27-.26.08 0-.03 0-.06-.03-.08-.07-.01-.18.12-.11.18.06.03 0 .08-.05.06-.13-.03-.08.25.07.09.04-.01.07.03.04.06-.04.03-.03.07.02.08.15.07.13-.02.18-.1.11.01.14.09.32.05.28-.02-.05-.31.06-.46.14-.11.36.05.42-.26z" class="T"/><path d="M13.55 21.82c-.24-.05-.1-.12-.11-.16-.05-.04-.11.13-.18-.01-.04-.19.1-.09.14-.14-.08-.05-.05-.15.02-.2.05-.06.13-.03.13.06a.12.12 0 0 0 .23-.04c-.07.07-.08-.07-.1-.11-.01.01-.08.13-.09.06.02-.1-.03-.21.04-.3.16-.13.4-.1.6-.13.12-.02.24.02.24.16h0c-.01.13-.12.23-.25.24-.08 0-.2-.02-.19.1-.02.12.11.22.07.34-.08.1-.29.09-.39.03-.1-.08-.05.12-.17.11zm-.13-.21c.07 0 .07.09.03.12 0 .03.07.05.1.05.08 0 .04-.09.1-.12.04-.02.07 0 .1.03.08.05.26.05.33-.02 0-.12-.14-.27-.06-.41.13-.12.37.04.42-.25h0c0-.13-.09-.14-.2-.12-.23.03-.69-.02-.6.34.08-.14.08.03.11.09.02 0 .03-.05.06-.02.09.21-.26.31-.29.08 0-.13-.21.07-.09.12.04.11-.11.06-.14.08-.02.03 0 .11.04.1.03-.01.05-.05.08-.05zm1.03-.6h0z"/><path d="M13.36 19.09c-.05 0-.07.05-.02.07.09.04.15.12.23.18.13.03.38.06.48 0-.02-.08-.19 0-.26-.04-.18 0-.25-.25-.44-.2z" class="P"/><path d="M13.88 19.38c-.32.02-.29-.04-.54-.2-.04 0-.07-.07-.02-.09.1-.03.21-.02.27.07.1.12.24.14.4.12.04 0 .09.01.08.06-.02.06-.14.04-.2.04zm-.51-.27s-.05.02-.01.03c.09.03.15.12.23.18.14.03.32.04.46 0-.14-.04-.3.02-.42-.1-.07-.08-.14-.15-.25-.12z"/><path d="M12.88 18.95c.2 0 .15.38 0 .25.01-.08.05-.17 0-.25z" class="P"/><path d="M12.92 19.25c-.14-.02.04-.18-.08-.32.18-.03.28.29.08.32zm-.01-.27c.03.07 0 .15-.01.22.12.08.13-.19.01-.22z"/><path d="M12.67 19.31c-.06-.08-.16-.11-.25-.09.07-.14.39-.07.25.09z" class="P"/><path d="M12.66 19.33c-.06-.09-.18-.12-.28-.08.14-.26.5-.06.28.08zm-.18-.13c.08 0 .14.03.19.09.07-.12-.13-.16-.2-.09z"/><path d="M12.51 19.49s-.06.08-.05.13c.05-.08.17-.04.21-.11.03-.08-.13-.04-.16-.02z" class="P"/><path d="M12.45 19.66c-.03-.06-.01-.14.05-.18h0c.07-.06.3-.03.14.09-.07.01-.15.02-.19.1zm.07-.15h0s-.04.05-.05.07c.05-.05.14-.02.18-.07.01-.05-.11-.01-.13 0z"/><path d="M11.93 22.75v2.6a2.05 2.05 0 0 1-2.04 2.04 2.05 2.05 0 0 1-2.04-2.04v-2.6h4.08z" class="M"/><path d="M9.89 27.42c-1.11.02-2.09-.96-2.06-2.07v-2.63h4.13v2.63c.03 1.11-.96 2.09-2.07 2.07zm-2.01-4.64v2.58c-.02 1 .8 1.91 1.79 2 1.15.16 2.27-.84 2.24-2v-2.58H7.88z"/><path d="M12.77 20.26c-.07-.03-.14.03-.18.09.13-.05.14 0 .23.01.04-.03-.03-.09-.06-.1z" class="P"/><path d="M12.81 20.38c-.1-.06-.16-.04-.27 0 .05-.08.12-.18.23-.14.04 0 .13.13.04.14zm-.11-.08s.08.02.12.04c.02-.02-.04-.06-.05-.07-.05-.02-.09 0-.12.04h.06z"/><path d="M12.67 20.54s-.08.06-.08.11c.08-.03.2 0 .26-.08 0-.08-.13-.06-.18-.03z" class="P"/><path d="M12.58 20.67c-.02-.13.15-.21.25-.16.14.13-.17.13-.25.16zm.1-.11s-.06.04-.07.07c.07-.03.26-.02.2-.08-.04-.02-.1 0-.14.01z"/><path d="M12.86 20.79c0 .05.04.1.09.11-.02-.08-.02-.17.03-.23-.06-.07-.13.06-.12.12z" class="P"/><path d="M12.97 20.92a.14.14 0 0 1-.13-.13h0c-.02-.09.09-.24.15-.13-.05.08-.05.17-.02.26zm-.09-.13a.19.19 0 0 0 .05.08c-.01-.07-.02-.14.04-.2-.07-.01-.08.08-.08.12h0z"/><path d="M14.36 21.88c-.05.02-.09.07-.09.12.07-.04.15-.05.22-.06.15-.09-.06-.12-.13-.07z" class="P"/><path d="M14.25 22.04c-.04-.26.49-.25.25-.07a.45.45 0 0 0-.25.07zm.12-.14s-.06.04-.08.07c.06-.05.2 0 .23-.08-.02-.04-.1-.01-.15 0z"/><path d="M14.46 22.15c-.01.05-.02.11 0 .16.02-.07.07-.11.1-.16 0-.06-.1-.06-.11 0z" class="P"/><path d="M14.48 22.36c-.05-.06-.05-.14-.03-.21h0c.01-.08.14-.08.14 0-.03.07-.1.12-.11.2zm.04-.23s-.03.01-.04.04h0v.1c0-.05.13-.12.04-.14z"/><path d="M14.73 22.27s.07.07.11.07c-.03-.05.02-.11-.02-.15-.11-.09-.14-.02-.09.08z" class="P"/><path d="M14.84 22.36c-.05 0-.1-.04-.12-.08h0c-.1-.23.13-.17.15-.05-.02.05 0 .07 0 .12zm-.09-.1s.04.05.07.06c-.01-.09.04-.12-.09-.16 0 .03 0 .08.01.1h0zm-.89-3.06l-.04.05-.02-.07.06.02z"/><path d="M13.94 19.21l-.05.05-.02-.06.07.01zm-.09.23h-.07l.03-.06.04.06z"/><path d="M13.91 19.44h-.07l.04-.06.03.06z"/><path d="M12.63 19.43h.06c.11-.08-.12-.05-.07-.18.08-.11.12.03.19.02.07-.18.18-.12.18-.04-.11.13-.02.25.12.3.15.13.34.21.55.17.07 0 .15-.01.19-.08.03-.08-.1-.09-.11-.15.06-.06.17 0 .24-.05.07-.06.04-.21-.05-.23-.08 0-.15 0-.16-.1-.03-.13.14-.08.22-.07.04 0 .05-.05.07-.08.17-.16.39.05.5.19.08.1.04.22.05.33.05.03.07.1.04.15-.01-.05-.07-.08-.12-.07 0 .16.24.24.17.41-.03-.06-.08-.11-.15-.13 0 .08.04.2-.02.26-.02-.08-.08-.14-.15-.17a.65.65 0 0 1 .01.31c-.02-.04-.05-.07-.09-.08 0 .38.58 1.1.79.46.01-.13-.06-.25-.1-.37-.15-.44.06-.89.12-1.32.04.05.07.11.09.17l.24-.21c.04.15-.08.29-.18.39.06 0 .19-.07.15 0-.26.28 0 .17-.36.42-.11.36.26.68.17 1.04-.04.23-.27.27-.44.35-.18.14-.06.42.14.48.09.05 0 .17-.04.23-.09.12-.1.29-.03.41-.06.03-.17.05-.19-.04.01-.11-.1-.06-.07.03-.08.02-.2-.05-.13-.13.03-.02.12 0 .11-.06-.02-.04-.08 0-.11-.02.02-.05-.04-.19.07-.13.22.04.13-.24 0-.3 0 .04 0 .08-.02.12-.03-.04-.07-.07-.1-.11v.14c-.12-.09-.24-.24-.18-.4.04-.1.15-.18.12-.29-.2-.24-.63-.3-.71-.66-.04-.15-.17-.19-.31-.19-.15-.09-.25-.24-.46-.2.04-.04.11-.05.13-.1-.06-.05-.16-.04-.23-.06.03-.03.08-.04.12-.04-.05-.04-.05-.12-.11-.15-.07-.01-.2.04-.19-.09 0-.02 0-.05.02-.07z" class="T"/><path d="M14.77 22.23c-.13-.01-.09-.09-.12-.13-.05 0 0 .1-.05.09-.08.02-.22-.08-.13-.16.03-.03.09 0 .1-.04-.02-.02-.07 0-.1-.01-.02-.02 0-.05 0-.08-.01-.04 0-.1.04-.1.2.1.19-.15.05-.22-.01.15-.05.1-.12.02 0 .01.02.13-.03.11-.14-.1-.24-.26-.19-.42.1-.17.23-.31-.03-.41-.21-.12-.45-.24-.54-.48-.03-.08-.07-.18-.15-.21-.32 0-.3-.26-.62-.22-.08-.02.11-.1.11-.12 0-.01-.29-.04-.22-.08.03-.02.06-.04.09-.04-.07-.21-.16-.05-.26-.15-.02-.05-.03-.12.02-.15.03-.02.09.02.08-.03-.16-.02-.11-.25.04-.18.02.01.04.05.06.04.02-.08.11-.17.19-.08.07.08-.08.14-.02.23.03.06.09.1.15.12.15.12.32.2.52.17.07 0 .3-.04.16-.13-.13-.07-.06-.14.06-.13.08.02.15-.03.14-.11-.01-.2-.23-.03-.25-.23-.05-.21.22-.03.27-.13.09-.17.34-.1.44.03.16.12.18.28.16.46.05.03.08.15.02.18-.03-.02-.04-.08-.09-.08.02.13.25.25.17.4-.03.04-.08-.1-.14-.11 0 .07.05.22-.05.25-.03-.05-.05-.12-.11-.15 0 .09.04.22-.01.29-.03 0-.04-.06-.07-.07.01.35.56 1.03.75.43.01-.12-.06-.25-.1-.36-.15-.38.05-.92.12-1.33.05-.05.1.11.12.15l.22-.19c.12.03-.03.31-.11.37.13-.05.17.01.06.11-.17.23.01.14-.31.36-.1.35.26.69.17 1.04-.04.24-.27.28-.45.36-.16.13-.06.38.13.45.11.06.03.19-.04.25a.35.35 0 0 0-.03.39c0 .05-.08.05-.12.06zm-.12-.17c.1.01-.01.19.2.11-.07-.14-.05-.33.06-.44.04-.04.09-.13.03-.17-.22-.07-.32-.36-.14-.51.17-.09.39-.1.43-.34.08-.35-.29-.69-.17-1.04.05-.08.16-.08.2-.16.02-.11.09-.19.16-.27-.38.12.08-.13.02-.34 0 0-.23.21-.24.19-.03-.04-.04-.11-.07-.15-.07.39-.26.92-.12 1.27.12.22.18.59-.15.65-.33.02-.56-.45-.57-.74.03-.01.06.02.09.04.02-.09-.02-.19-.01-.27.08 0 .14.09.16.15.02-.16-.07-.37.15-.14 0-.08-.07-.15-.12-.21-.1-.11-.07-.25.07-.13 0-.03-.02-.07-.04-.08-.04-.11.04-.23-.06-.34-.08-.1-.2-.27-.35-.24-.06 0-.11.02-.13.08-.03.14-.29-.06-.27.1 0 .09.07.09.14.09.1.03.14.18.06.26-.07.06-.16 0-.23.04.37.26-.27.29-.44.21-.2-.14-.53-.23-.35-.46 0-.07-.1-.07-.12 0 0 .02 0 .05-.03.06-.06.03-.09-.07-.15-.05-.05.01-.05.09 0 .1.03 0 .08.03.07.07-.01.05-.07.04-.1.04-.06.16.07.1.16.12.06.02.08.11.12.16 0 .05-.07.01-.09.03.1.03.33.04.12.15.17-.03.27.13.4.2.15 0 .27.04.32.2.08.37.52.41.71.67.04.1-.08.21-.12.3-.05.13.03.27.15.36 0-.18.03-.12.12-.02 0-.18.07-.07.15 0 .09.12-.03.3-.16.2-.04.02 0 .08 0 .11.12-.03.15.1.02.1-.11 0-.02.12.06.1 0-.04.02-.09.06-.09zm-2.02-2.63h0z"/><path d="M13.61 19.92c-.19.17-.43.48-.7.42-.04-.05-.09-.07-.13-.01-.1.12.08.06.1.13-.03.08-.13.03-.09.17h.1v.07c.08.04.19 0 .14-.1.04-.06.2-.03.27-.11v.13c.06-.05.1-.12.16-.17.03 0 0 .06.04.07.1-.15.37-.12.44-.29l-.32-.3z" class="T"/><path d="M12.94 20.73c-.07 0-.11 0-.08-.09-.03 0-.08 0-.09-.02 0-.04-.02-.1.03-.14.02-.02.06-.02.07-.04-.02-.04-.1 0-.12-.05-.03-.04.04-.14.11-.13.25.21.57-.21.76-.36.02-.02.04 0 .03.03-.18.15-.49.55-.75.4-.04-.06-.11 0-.11.05.03.02.12 0 .12.07 0 .08-.13.05-.1.16.05.01.12-.02.09.08.04.02.11.02.11-.04-.02-.03-.02-.08.03-.09.21 0 .27-.2.27.02.04-.03.18-.24.19-.09.06-.08.22-.11.31-.16.11-.04.13-.17.15-.1-.06.18-.35.16-.45.3-.03.03-.05-.02-.05-.06-.09.08-.2.29-.19.06-.06.06-.17.04-.23.08.04.06-.01.13-.08.13z"/><path d="M14.18 20.29l-.12-.18c-.03.03-.1.16-.14.13-.05-.05 0-.14-.06-.2-.07.05-.16.12-.25.12-.02-.07 0-.16 0-.23-.02-.12-.2-.05-.29-.08-.09-.04.32-.31.04-.03.26 0 .32 0 .29.3.19-.08.27-.24.29.09.04-.01.08-.15.14-.13.01 0 .09.15.1.16.02-.01.05-.21.09-.17l.07.07c.02.02-.01.04-.03.02l-.05-.05s-.06.19-.08.18zm-.09-1.26h.04c-.03.02-.01.06.02.05.04-.02.07 0 .1.03.02-.07-.16-.18-.16-.08z"/><path d="M13.83 19.06c0 .06-.06.06-.06 0s.06-.06.06 0z"/><path d="M12.91 27.37c-.13.23-.54.21-.8.21-.03 0-.12 0-.08-.04.25-.19.58-.25.88-.17z" class="R"/><path d="M12.23 27.6c-.06 0-.27.03-.21-.08.12-.18.97-.3.91-.12-.19.18-.45.2-.7.19zm-.18-.05c.29.02.63.04.86-.17-.29-.08-.62-.01-.86.17z"/><path d="M11.82 27.49c-.23-.19-.51-.24-.8-.2-.02 0-.03.02-.01.03.23.24.59.37.91.27.03-.04-.06-.06-.09-.09z" class="R"/><path d="M11.68 27.64c-.26 0-.54-.12-.7-.33.24-.12.63 0 .85.17h0s.15.07.09.12c-.06.04-.17.03-.24.04zm-.66-.33c.23.23.58.36.88.26l-.09-.06h0c-.22-.18-.51-.24-.79-.2z"/><path d="M11.93 27.56c-.02.07-.06.14-.04.2.2 0 .13-.24.14-.38 0-.05-.02-.13-.08-.11-.04.08.02.19-.02.28z" class="R"/><path d="M11.87 27.79c-.02-.08.02-.15.04-.23h0c.04-.09-.07-.4.11-.27.04.06.01.25.02.32.01.1-.06.18-.18.18zm.08-.22c-.02.06-.05.12-.05.18.17-.01.09-.25.11-.36 0-.04 0-.1-.06-.09 0 .08.02.18 0 .27h0z"/><path d="M14.78 19.07l-.03.04.07.04v-.08h-.04z" class="M"/><path d="M14.74 19.12s.02-.05.03-.06c0 0 .06 0 .06.01 0 .12 0 .1-.09.04zm.04-.04l-.02.02.05.03v-.05h-.03z"/><path d="M14.91 19.18c.08.02-.03-.12-.08-.04-.02.03.06.02.08.04z" class="M"/><path d="M14.82 19.16s.04-.07.06-.06c.05 0 .1.11.02.08-.03-.02-.06-.01-.09-.03zm.09-.03s-.06-.01-.07.02c.03 0 .06 0 .08.02h0c.01-.01.01-.03-.01-.04z"/><path d="M14.83 19.17s-.04-.02-.02-.04c.02-.01.04.02.02.04z" class="M"/><path d="M14.8 19.17c-.06-.07.1-.06.03 0h0-.03zm.02-.03s-.02 0-.02.01.03 0 .02-.01zm0 .03h0z"/><path d="M14.7 19.08s-.07 0 0-.11c0 0-.14.08-.13-.02 0 0-.1.01-.03-.12-.11.1-.12 0-.12 0-.09.03-.05-.13-.05-.13-.08.1-.1.03-.1.03-.04.04-.09-.07-.09-.07.02.06-.01.21-.01.21.24.1.27.13.43.33 0 0 .14-.06.2-.06 0 0-.12-.02-.09-.07z" class="M"/><path d="M14.59 19.22c-.19-.24-.18-.2-.44-.34 0 0 .03-.15.01-.21.01-.05.06.1.09.06.04.05.07-.02.12-.04.01.03-.02.1.01.12 0 .01.04-.01.05 0 .02.11.11-.04.12 0-.04.08-.02.11.02.1.02 0 0 .04.02.04.03.03.1-.03.12-.02 0 .05-.05.07-.03.09.01.02.02 0 .03.01-.01.04.05.05.09.06.01 0 .01.02 0 .02-.07 0-.2.07-.21.06zm-.4-.51c0 .06-.01.13-.01.16q.25.11.43.33s.09-.04.15-.05c-.03-.01-.06-.02-.06-.06-.04-.01-.03-.05 0-.09-.04.02-.12.03-.12-.03-.05 0-.07-.04-.05-.1-.04.03-.09.02-.1-.02-.06.02-.07-.06-.06-.1-.03.03-.07.05-.09.01-.03.01-.05-.02-.07-.04z"/><path d="M14.53 19.02s-.05-.02-.03-.03c.01-.02.05.02.03.03zm.12.14s-.05-.02-.03-.03.05.02.03.03zm-.05-.05s-.05-.06-.06-.06c-.01-.01 0-.04.02-.02.01.01.1.09.03.08z"/><path d="M14.32 18.65l-.04.02v.05l.08-.01-.04-.06z" class="M"/><path d="M14.27 18.73v-.06s.04-.04.05-.02c.07.1.05.08-.05.09zm.02-.05v.03h.06l-.03-.04-.03.02z"/><path d="M14.44 18.71h-.08l.05.07.03-.03v-.04z" class="M"/><path d="M14.4 18.79c-.06-.09-.08-.09.04-.1.02 0 .01.05.02.06 0 0-.04.05-.05.04zm-.02-.07l.03.05.02-.02v-.03h-.05z"/><path d="M14.4 18.62h-.04v.08l.07-.04-.03-.04z" class="M"/><path d="M14.36 18.71l-.01-.09c0-.02.06-.01.07 0 0 0 .04.04.03.05 0 0-.07.06-.08.05zm0-.08v.06l.05-.03-.02-.02h-.03z"/><path d="M14.34 18.7s.03.04.04.02-.03-.04-.04-.02z" class="M"/><path d="M14.34 18.74s-.02-.02 0-.04h0c.05-.07.09.07 0 .04zm.02-.03c-.02.02.01.01 0 0z"/><path d="M14.24 18.62l-.08.03.06.06.03-.04-.01-.05z" class="M"/><path d="M14.22 18.71c-.07-.07-.09-.07.02-.1.02 0 .02.05.03.05 0 0-.03.06-.05.05zm-.03-.06l.04.04.02-.02v-.03l-.06.01z"/><path d="M14.12 18.56c-.03-.07.13 0 .06.07-.03.03-.04-.06-.06-.07z" class="M"/><path d="M14.15 18.65s-.02-.06-.05-.08h0c-.05-.06.08-.05.09 0 .01.03 0 .09-.04.08zm0-.09s-.06-.02-.04 0h0l.04.07c.02-.02.02-.06 0-.07z"/><path d="M14.14 18.64s.03.04.04.01c0-.03-.03-.04-.04-.01z" class="M"/><path d="M14.15 18.67s-.01-.02-.01-.03h0c.05-.08.1.07.01.03zm.02-.03h-.02s.03.01.02 0zm.19.26s.03.04.04.03c.01-.02-.03-.04-.04-.03zm-.16-.09s.03.04.04.02-.03-.04-.04-.02zm.06.04c-.03-.06.07 0 .08.01.02 0 0 .04-.01.03l-.07-.04z"/><path d="M14.47 18.99l-.06-.05c-.03-.07.07.01.08.02.02.01 0 .04-.02.02z"/><path d="M14.55 18.83l.03.08.04-.02.01-.05-.08-.01z" class="M"/><path d="M14.57 18.92c-.04-.1-.07-.11.05-.09.02 0 0 .05 0 .06s-.05.03-.06.03zm0-.07l.02.05h.03v-.05h-.05z"/><path d="M14.52 18.76l-.05.01-.01.05.09.01-.03-.07z" class="M"/><path d="M14.46 18.83s0-.06.01-.06c0 0 .05-.03.06-.01.05.11.03.09-.07.07zm.02-.05v.03h.05l-.02-.05h-.03z"/><path d="M14.61 18.75l-.05-.01-.01.08.08-.03-.02-.04z" class="M"/><path d="M14.55 18.83h0v-.09c0-.02.06 0 .06 0 .05.08 0 .05-.06.09zm.03-.08v.06l.05-.02v-.03h-.05z"/><path d="M14.56 18.84s-.05 0-.03-.02.05 0 .03.02z" class="M"/><path d="M14.53 18.85s0-.07.04-.05c.03.02 0 .07-.04.05zm.02-.03s-.02 0-.01.02c.01 0 .02 0 .01-.02z"/><path d="M14.71 18.98l.01.08.05-.01.01-.04-.07-.03z" class="M"/><path d="M14.72 19.07c-.02-.1-.05-.12.07-.08.02 0 0 .05 0 .06 0 0-.05.02-.06.02zm0-.08v.06h.04v-.03l-.04-.02z"/><path d="M14.69 18.9l-.04.01-.02.04.08.03-.02-.08z" class="M"/><path d="M14.62 18.96s.01-.06.02-.06c0 0 .06-.02.06 0 .03.12.02.09-.08.06zm.03-.04v.03l.04.02v-.05h-.04z"/><path d="M14.79 18.91l-.05-.02-.02.08.08-.01-.01-.05z" class="M"/><path d="M14.71 18.98s.03-.08.02-.09c0-.02.05.01.06.01 0 0 .03.06.01.07 0 0-.09.02-.09.01zm.04-.07l-.02.05h.06v-.04h-.03z"/><path d="M14.72 19s-.05-.01-.03-.03.05.01.03.03z" class="M"/><path d="M14.69 19.01s.01-.08.04-.04c.02.03-.01.07-.04.04zm.02-.03s-.02.03 0 .02z"/><path d="M11.72 27.29c-.25-.1-.26-.45 0-.55.07-.02.05-.09.02-.14.08 0 .1.05.14.07.03-.03.05-.1.06-.13.05.03.09.09.09.15 0-.06.07-.1.13-.11 0 .04-.02.09-.02.13.21.03.34.35.17.5-.15.15-.4.15-.59.08z" fill="#ffd691"/><path d="M11.97 27.36c-.08 0-.18-.01-.26-.05-.29-.12-.27-.51.01-.61.05-.03-.02-.11-.04-.14.06 0 .14.01.19.07.04-.05.04-.13.07-.13.04.03.07.06.09.1.03-.05.1-.06.15-.07l-.03.15c.44.16.23.7-.2.67zm-.24-.09c.23.08.52.06.63-.17.04-.17-.07-.35-.25-.37l.02-.12s-.06.04-.07.08h-.05s-.03-.08-.06-.11c-.01.03-.04.12-.09.12-.03-.02-.05-.06-.08-.06.04.1-.04.12-.1.15-.2.11-.16.4.05.48zm.13-.62z"/><path d="M12.03 27c0 .15-.08.27-.08.27s-.08-.12-.08-.27.08-.27.08-.27a.54.54 0 0 0 .08.27z" class="O"/><path d="M11.95 27.3s-.09-.12-.1-.3c0-.18.08-.26.1-.3.02.04.09.12.1.3 0 .18-.08.26-.1.3zm0-.54c-.08.08-.08.39 0 .47.08-.08.08-.39 0-.47z"/><path d="M10.05 18.77v.13h-.1v-.13h-.09v.13h-.1v-.13h-.14v.2h.57v-.2h-.14z" class="M"/><path d="M10.21,18.99h-.6v-.23h.17v.13h.06v-.13h.13v.13h.06v-.13h.17v.23Zm-.57-.04h.53v-.16h-.1v.13h-.14v-.13h-.06v.13h-.14v-.13h-.1v.16Z"/><path d="M9.62 18.97h.57v.13h-.57z" class="M"/><path d="M10.21,19.12h-.6v-.17h.6v.17Zm-.57-.04h.53v-.09h-.53v.09Z"/><path d="M9.76 19.1h.29v.05h-.29z" class="M"/><path d="M10.07,19.17h-.33v-.09h.33v.09Zm-.29-.04h.25v-.02h-.25v.02Z"/><path d="M9.76 19.31h.29v.13h-.29z" class="M"/><path d="M10.07,19.46h-.33v-.17h.33v.17Zm-.29-.04h.25v-.09h-.25v.09Z"/><path d="M9.76 19.6h.29v.13h-.29z" class="M"/><path d="M10.07,19.75h-.33v-.17h.33v.17Zm-.29-.04h.25v-.09h-.25v.09Z"/><path d="M10.05 20.2H9.9v.15h.29v-.15h-.15z" class="M"/><use xlink:href="#L"/><path d="M9.91 20.34h-.15v.15h.29v-.15H9.9z" class="M"/><use xlink:href="#M"/><path d="M10.2,20.34h-.15v.15h.29v-.15h-.15Z" class="M"/><use xlink:href="#M" x="0.29"/><path d="M10.48,20.34h-.14v.15h.28v-.15h-.14Z" class="M"/><path d="M10.64,20.51h-.31v-.18h.31v.18Zm-.28-.04h.24v-.11h-.24v.11Z"/><path d="M10.34,20.2h-.15v.15h.29v-.15h-.15Z" class="M"/><use xlink:href="#L" x="0.3"/><path d="M10.62,20.2h-.13v.15h.26v-.15h-.13Z" class="M"/><path d="M10.77,20.36h-.3v-.18h.3v.18Zm-.26-.04h.23v-.11h-.23v.11Z"/><path d="M10.05 20.49H9.9v.15h.29v-.15h-.15z" class="M"/><use xlink:href="#N"/><path d="M10.34,20.49h-.15v.15h.29v-.15h-.15Z" class="M"/><use xlink:href="#N" x="0.3"/><path d="M10.62,20.49h-.13v.15h.26v-.15h-.13Z" class="M"/><path d="M10.77,20.65h-.3v-.18h.3v.18Zm-.26-.04h.23v-.11h-.23v.11Z"/><path d="M10.05 20.78H9.9v.15h.29v-.15h-.15z" class="M"/><use xlink:href="#O"/><path d="M10.34,20.78h-.15v.15h.29v-.15h-.15Z" class="M"/><use xlink:href="#O" x="0.3"/><path d="M10.62,20.78h-.13v.15h.26v-.15h-.13Z" class="M"/><path d="M10.77,20.94h-.3v-.18h.3v.18Zm-.26-.04h.23v-.11h-.23v.11Z"/><path d="M10.05 21.07H9.9v.15h.29v-.15h-.15z" class="M"/><use xlink:href="#P"/><path d="M10.34,21.07h-.15v.15h.29v-.15h-.15Z" class="M"/><use xlink:href="#P" x="0.3"/><path d="M10.62,21.07h-.13v.15h.26v-.15h-.13Z" class="M"/><path d="M10.77,21.23h-.3v-.18h.3v.18Zm-.26-.04h.23v-.11h-.23v.11Z"/><path d="M10.05 21.36H9.9v.17h.29v-.17h-.15z" class="M"/><use xlink:href="#Q"/><path d="M10.34,21.36h-.15v.17h.29v-.17h-.15Z" class="M"/><use xlink:href="#Q" x="0.3"/><path d="M10.62,21.36h-.13v.17h.26v-.17h-.13Z" class="M"/><path d="M10.77,21.55h-.3v-.21h.3v.21Zm-.26-.04h.23v-.13h-.23v.13Z"/><path d="M10.31,21.71h-.15v.16h.29v-.16h-.15Z" class="M"/><use xlink:href="#R"/><path d="M10.6,21.71h-.15v.16h.29v-.16h-.15Z" class="M"/><use xlink:href="#R" x="0.29"/><path d="M10.43,21.87h-.15v.14h.29v-.14h-.15Z" class="M"/><use xlink:href="#S"/><path d="M10.72,21.87h-.15v.14h.29v-.14h-.15Z" class="M"/><use xlink:href="#S" x="0.29"/><path d="M10.88,21.71h-.13v.16h.26v-.16h-.13Z" class="M"/><path d="M11.03 21.88h-.3v-.19h.3v.19zm-.26-.04H11v-.12h-.23v.12z"/><path d="M9.91 19.73h.99v.13h-.99z" class="M"/><path d="M10.91 19.88H9.89v-.17h1.02v.17zm-.99-.04h.95v-.09h-.95v.09z"/><path d="M9.91 20.01h.99v.19h-.99z" class="M"/><path d="M10.91 20.22H9.89V20h1.02v.22zm-.99-.04h.95v-.15h-.95v.15z"/><path d="M9.76 19.15h.15v.16h-.15z" class="M"/><path d="M9.92,19.33h-.18v-.2h.18v.2Zm-.15-.04h.11v-.13h-.11v.13Z"/><path d="M9.91 19.15h.15v.16h-.15z" class="M"/><path d="M10.07,19.33h-.18v-.2h.18v.2Zm-.15-.04h.11v-.13h-.11v.13Z"/><path d="M10.62 19.22v.12h-.1v-.12h-.09v.12h-.11v-.12h-.13v.2h.57v-.2h-.14z" class="M"/><path d="M10.77,19.43h-.6v-.23h.17v.13h.06v-.13h.13v.13h.06v-.13h.17v.23Zm-.57-.04h.53v-.16h-.1v.13h-.14v-.13h-.06v.13h-.14v-.13h-.1v.16Z"/><path d="M10.19 19.42h.57v.13h-.57z" class="M"/><path d="M10.77,19.56h-.6v-.17h.6v.17Zm-.57-.04h.53v-.09h-.53v.09Z"/><path d="M10.33 19.55h.29v.05h-.29z" class="M"/><path d="M10.64,19.62h-.33v-.09h.33v.09Zm-.29-.04h.25v-.02h-.25v.02Z"/><path d="M10.34 20.11h.27v.09h-.27z" class="M"/><use xlink:href="#T"/><path d="M10.33 19.6h.15v.13h-.15z" class="M"/><use xlink:href="#U"/><path d="M10.47 19.6h.15v.13h-.15z" class="M"/><use xlink:href="#U" x="0.15"/><path d="M9.76 19.45h.15v.15h-.15z" class="M"/><path d="M9.92,19.62h-.18v-.19h.18v.19Zm-.15-.04h.11v-.12h-.11v.12Z"/><path d="M9.91 19.45h.15v.15h-.15z" class="M"/><path d="M10.07,19.62h-.18v-.19h.18v.19Zm-.15-.04h.11v-.12h-.11v.12Z"/><path d="M10.6 19.86h.15v.15h-.15z" class="M"/><use xlink:href="#V"/><path d="M10.75 19.86h.15v.15h-.15z" class="M"/><use xlink:href="#V" x="0.14"/><path d="M10.75 20.2h.14v.15h-.14z" class="M"/><path d="M10.91,20.36h-.18v-.18h.18v.18Zm-.14-.04h.11v-.11h-.11v.11Z"/><path d="M10.62 20.34h.13v.15h-.13z" class="M"/><path d="M10.77,20.51h-.17v-.18h.17v.18Zm-.13-.04h.1v-.11h-.1v.11Z"/><path d="M9.91 20.63h-.15v.15h.29v-.15H9.9z" class="M"/><use xlink:href="#W"/><path d="M10.2,20.63h-.15v.15h.29v-.15h-.15Z" class="M"/><use xlink:href="#W" x="0.29"/><path d="M10.48,20.63h-.14v.15h.28v-.15h-.14Z" class="M"/><path d="M10.64,20.8h-.31v-.18h.31v.18Zm-.28-.04h.24v-.11h-.24v.11Z"/><path d="M10.62 20.63h.13v.15h-.13z" class="M"/><path d="M10.77,20.8h-.17v-.18h.17v.18Zm-.13-.04h.1v-.11h-.1v.11Z"/><path d="M9.91 20.92h-.15v.15h.29v-.15H9.9z" class="M"/><use xlink:href="#X"/><path d="M10.2,20.92h-.15v.15h.29v-.15h-.15Z" class="M"/><use xlink:href="#X" x="0.29"/><path d="M10.48,20.92h-.14v.15h.28v-.15h-.14Z" class="M"/><path d="M10.64,21.09h-.31v-.18h.31v.18Zm-.28-.04h.24v-.11h-.24v.11Z"/><path d="M10.62 20.92h.13v.15h-.13z" class="M"/><path d="M10.77,21.09h-.17v-.18h.17v.18Zm-.13-.04h.1v-.11h-.1v.11Z"/><path d="M9.91 21.22h-.15v.15h.29v-.15H9.9z" class="M"/><use xlink:href="#Y"/><path d="M10.2,21.22h-.15v.15h.29v-.15h-.15Z" class="M"/><use xlink:href="#Y" x="0.29"/><path d="M10.48,21.22h-.14v.15h.28v-.15h-.14Z" class="M"/><path d="M10.64,21.38h-.31v-.18h.31v.18Zm-.28-.04h.24v-.11h-.24v.11Z"/><path d="M10.62 21.22h.13v.15h-.13z" class="M"/><path d="M10.77,21.38h-.17v-.18h.17v.18Zm-.13-.04h.1v-.11h-.1v.11Z"/><path d="M10.18,21.53h-.15v.18h.29v-.18h-.15Z" class="M"/><use xlink:href="#Z"/><path d="M10.47,21.53h-.15v.18h.29v-.18h-.15Z" class="M"/><use xlink:href="#Z" x="0.29"/><path d="M10.75,21.53h-.14v.18h.28v-.18h-.14Z" class="M"/><path d="M10.91,21.73h-.31v-.22h.31v.22Zm-.28-.04h.24v-.14h-.24v.14Z"/><path d="M10.89 21.53h.13v.18h-.13z" class="M"/><path d="M11.04,21.73h-.17v-.22h.17v.22Zm-.13-.04h.1v-.14h-.1v.14Z"/><path d="M10.05 19.86h.15v.15h-.15z" class="M"/><use xlink:href="#V" x="-0.56"/><path d="M10.2 19.86h.15v.15h-.15z" class="M"/><use xlink:href="#V" x="-0.41"/><path d="M10.47 19.73h-.17l.04.38h.27l.04-.38h-.17z" class="M"/><use xlink:href="#a"/><path d="M10.41 20.49c-.31 0-.18.4-.2.64h.41c-.03-.24.11-.64-.2-.64z" class="M"/><use xlink:href="#b"/><path d="M10.41 20.55c-.22 0-.12.37-.14.52h.28c-.02-.15.08-.52-.14-.52z" class="U"/><path d="M9.76,20.2h.15v.15h-.29v-.15h.15Z" class="M"/><use xlink:href="#L" x="-0.29"/><path d="M9.62,20.34h.15v.15h-.29v-.15h.15Z" class="M"/><use xlink:href="#M" x="-0.29"/><path d="M9.33,20.34h.14v.15h-.28v-.15h.14Z" class="M"/><path d="M9.49,20.51h-.31v-.18h.31v.18Zm-.28-.04h.24v-.11h-.24v.11Z"/><path d="M9.47,20.2h.15v.15h-.29v-.15h.15Z" class="M"/><use xlink:href="#c"/><path d="M9.19,20.2h.13v.15h-.26v-.15h.13Z" class="M"/><path d="M9.34,20.36h-.3v-.18h.3v.18Zm-.26-.04h.23v-.11h-.23v.11Z"/><path d="M9.76,20.49h.15v.15h-.29v-.15h.15Z" class="M"/><use xlink:href="#N" x="-0.29"/><path d="M9.47,20.49h.15v.15h-.29v-.15h.15Z" class="M"/><use xlink:href="#c" y="0.29"/><path d="M9.19,20.49h.13v.15h-.26v-.15h.13Z" class="M"/><path d="M9.34,20.65h-.3v-.18h.3v.18Zm-.26-.04h.23v-.11h-.23v.11Z"/><path d="M9.76,20.78h.15v.15h-.29v-.15h.15Z" class="M"/><use xlink:href="#O" x="-0.29"/><path d="M9.47,20.78h.15v.15h-.29v-.15h.15Z" class="M"/><use xlink:href="#c" y="0.58"/><path d="M9.19,20.78h.13v.15h-.26v-.15h.13Z" class="M"/><path d="M9.34,20.94h-.3v-.18h.3v.18Zm-.26-.04h.23v-.11h-.23v.11Z"/><path d="M9.76,21.07h.15v.15h-.29v-.15h.15Z" class="M"/><use xlink:href="#P" x="-0.29"/><path d="M9.47,21.07h.15v.15h-.29v-.15h.15Z" class="M"/><use xlink:href="#c" y="0.87"/><path d="M9.19,21.07h.13v.15h-.26v-.15h.13Z" class="M"/><path d="M9.34,21.23h-.3v-.18h.3v.18Zm-.26-.04h.23v-.11h-.23v.11Z"/><path d="M9.76,21.36h.15v.17h-.29v-.17h.15Z" class="M"/><use xlink:href="#Q" x="-0.29"/><path d="M9.47,21.36h.15v.17h-.29v-.17h.15Z" class="M"/><path d="M9.63 21.55H9.3v-.21h.33v.21zm-.29-.04h.25v-.13h-.25v.13z"/><path d="M9.19,21.36h.13v.17h-.26v-.17h.13Z" class="M"/><path d="M9.34,21.55h-.3v-.21h.3v.21Zm-.26-.04h.23v-.13h-.23v.13Z"/><path d="M9.5,21.71h.15v.16h-.29v-.16h.15Z" class="M"/><use xlink:href="#R" x="-0.82"/><path d="M9.21,21.71h.15v.16h-.29v-.16h.15Z" class="M"/><use xlink:href="#R" x="-1.11"/><path d="M9.38,21.87h.15v.14h-.29v-.14h.15Z" class="M"/><use xlink:href="#S" x="-1.04"/><path d="M9.09,21.87h.15v.14h-.29v-.14h.15Z" class="M"/><use xlink:href="#S" x="-1.34"/><path d="M9.24 22h.14v.14h-.27V22h.14z" class="M"/><path d="M9.4,22.16h-.31v-.17h.31v.17Zm-.27-.04h.24v-.1h-.24v.1Z"/><path d="M8.95 22h.15v.14h-.31V22h.15z" class="M"/><path d="M9.13,22.16h-.34v-.17h.34v.17Zm-.31-.04h.27v-.1h-.27v.1Z"/><path d="M8.93 21.71h.13v.16H8.8v-.16h.13z" class="M"/><path d="M9.08,21.88h-.3v-.19h.3v.19Zm-.26-.04h.23v-.12h-.23v.12Z"/><path d="M8.92 19.73h.99v.13h-.99z" class="M"/><path d="M9.92 19.88H8.9v-.17h1.02v.17zm-.99-.04h.95v-.09h-.95v.09z"/><path d="M8.92 20.01h.99v.19h-.99z" class="M"/><path d="M9.92 20.22H8.9V20h1.02v.22zm-.99-.04h.95v-.15h-.95v.15z"/><path d="M9.19 19.22v.12h.1v-.12h.1v.12h.1v-.12h.13v.2h-.56v-.2h.13z" class="M"/><path d="M9.64 19.43h-.6v-.23h.17v.13h.06v-.13h.13v.13h.06v-.13h.17v.23zm-.57-.04h.53v-.16h-.1v.13h-.14v-.13H9.3v.13h-.14v-.13h-.1v.16z"/><path d="M9.06 19.42h.57v.13h-.57z" class="M"/><path d="M9.64,19.56h-.6v-.17h.6v.17Zm-.57-.04h.53v-.09h-.53v.09Z"/><path d="M9.19 19.55h.29v.05h-.29z" class="M"/><path d="M9.5,19.62h-.33v-.09h.33v.09Zm-.29-.04h.25v-.02h-.25v.02Z"/><path d="M9.2 20.11h.27v.09H9.2z" class="M"/><use xlink:href="#T" x="-1.14"/><path d="M9.34 19.6h.15v.13h-.15z" class="M"/><use xlink:href="#U" x="-0.99"/><path d="M9.19 19.6h.15v.13h-.15z" class="M"/><use xlink:href="#U" x="-1.13"/><path d="M9.06 19.86h.15v.15h-.15z" class="M"/><use xlink:href="#V" x="-1.54"/><path d="M8.92 19.86h.15v.15h-.15z" class="M"/><path d="M9.08 20.03H8.9v-.19h.18v.19zm-.15-.04h.11v-.12h-.11v.12z"/><path d="M8.92 20.2h.14v.15h-.14z" class="M"/><path d="M9.08 20.36H8.9v-.18h.18v.18zm-.14-.04h.11v-.11h-.11v.11z"/><path d="M9.06 20.34h.13v.15h-.13z" class="M"/><path d="M9.21,20.51h-.17v-.18h.17v.18Zm-.13-.04h.1v-.11h-.1v.11Z"/><path d="M9.62,20.63h.15v.15h-.29v-.15h.15Z" class="M"/><use xlink:href="#W" x="-0.29"/><path d="M9.33,20.63h.14v.15h-.28v-.15h.14Z" class="M"/><path d="M9.49,20.8h-.31v-.18h.31v.18Zm-.28-.04h.24v-.11h-.24v.11Z"/><path d="M9.06 20.63h.13v.15h-.13z" class="M"/><path d="M9.21,20.8h-.17v-.18h.17v.18Zm-.13-.04h.1v-.11h-.1v.11Z"/><path d="M9.62,20.92h.15v.15h-.29v-.15h.15Z" class="M"/><use xlink:href="#X" x="-0.29"/><path d="M9.33,20.92h.14v.15h-.28v-.15h.14Z" class="M"/><path d="M9.49,21.09h-.31v-.18h.31v.18Zm-.28-.04h.24v-.11h-.24v.11Z"/><path d="M9.06 20.92h.13v.15h-.13z" class="M"/><path d="M9.21,21.09h-.17v-.18h.17v.18Zm-.13-.04h.1v-.11h-.1v.11Z"/><path d="M9.62,21.22h.15v.15h-.29v-.15h.15Z" class="M"/><use xlink:href="#Y" x="-0.29"/><path d="M9.33,21.22h.14v.15h-.28v-.15h.14Z" class="M"/><path d="M9.49,21.38h-.31v-.18h.31v.18Zm-.28-.04h.24v-.11h-.24v.11Z"/><path d="M9.06 21.22h.13v.15h-.13z" class="M"/><path d="M9.21,21.38h-.17v-.18h.17v.18Zm-.13-.04h.1v-.11h-.1v.11Z"/><path d="M9.63,21.53h.15v.18h-.29v-.18h.15Z" class="M"/><use xlink:href="#Z" x="-0.54"/><path d="M9.34 21.53h.15v.18H9.2v-.18h.15z" class="M"/><use xlink:href="#Z" x="-0.83"/><path d="M9.06,21.53h.14v.18h-.28v-.18h.14Z" class="M"/><path d="M9.22,21.73h-.31v-.22h.31v.22Zm-.28-.04h.24v-.14h-.24v.14Z"/><path d="M8.8 21.53h.12v.18H8.8z" class="M"/><path d="M8.94,21.73h-.16v-.22h.16v.22Zm-.12-.04h.09v-.14h-.09v.14Z"/><path d="M8.8 21.87h.15v.14H8.8z" class="M"/><path d="M8.96,22.02h-.18v-.17h.18v.17Zm-.15-.04h.11v-.1h-.11v.1Z"/><path d="M9.38 22h.15v.14h-.15z" class="M"/><path d="M9.55 22.16h-.18v-.17h.18v.17zm-.15-.04h.11v-.1H9.4v.1z"/><path d="M10.56 22h-.14v.14h.27V22h-.14z" class="M"/><path d="M10.72,22.16h-.31v-.17h.31v.17Zm-.27-.04h.24v-.1h-.24v.1Z"/><path d="M10.85 22h-.15v.14h.31V22h-.15z" class="M"/><path d="M11.03,22.16h-.34v-.17h.34v.17Zm-.31-.04h.27v-.1h-.27v.1Z"/><path d="M10.28 22h.15v.14h-.15z" class="M"/><path d="M10.44,22.16h-.18v-.17h.18v.17Zm-.15-.04h.11v-.1h-.11v.1Z"/><path d="M9.62 19.86h.15v.15h-.15z" class="M"/><path d="M9.78 20.03H9.6v-.19h.18v.19zm-.15-.04h.11v-.12h-.11v.12z"/><path d="M9.91 21.44c-.48.03-.37.39-.38.7h.76c-.01-.31.1-.68-.38-.7z" class="M"/><path d="M10.3 22.16h-.79c0-.32-.1-.71.4-.74.5.02.39.42.4.74zm-.76-.04h.72c0-.29.09-.64-.36-.67-.45.02-.35.38-.36.67z"/><path d="M10.11 21.68l.14-.13.08.22h-.18l-.04-.09z" class="M"/><path d="M10.33 21.78c-.18-.01-.18.05-.24-.1-.02-.02.14-.14.15-.15.04-.04.09.21.11.22 0 .01 0 .02-.02.02zm-.17-.04h.14l-.06-.17-.11.1.03.07z"/><path d="M9.47 19.86h.15v.15h-.15z" class="M"/><use xlink:href="#V" x="-1.14"/><path d="M9.34 19.73h.17l-.04.38H9.2l-.04-.38h.17z" class="M"/><use xlink:href="#a" x="-1.14"/><path d="M9.41 20.49c.31 0 .18.4.2.64H9.2c.03-.24-.11-.64.2-.64z" class="M"/><use xlink:href="#b" x="-1"/><path d="M9.41 20.55c.22 0 .12.37.14.52h-.28c.02-.15-.08-.52.14-.52z" class="U"/><path d="M9.91 19.73h-.17l.04.38h.27l.04-.38h-.17z" class="M"/><use xlink:href="#a" x="-0.57"/><path d="M9.77 20.11h.27v.09h-.27z" class="M"/><use xlink:href="#T" x="-0.57"/><path d="M9.7 21.68l-.14-.13-.08.22h.18l.04-.09z" class="M"/><path d="M9.66 21.78s-.22.02-.2-.02c.01 0 .07-.26.11-.22 0 .01.16.13.15.15 0 .01-.04.1-.06.1zm-.15-.04h.14l.03-.07-.11-.1-.06.17z"/><path d="M9.9 21.41h-.14l.14.31.15-.31H9.9z" class="M"/><path d="M9.9 21.74l-.16-.34c-.01-.02.31 0 .31 0 .01 0 .02.01.02.03l-.16.32zm-.12-.31l.12.25.12-.25h-.24z"/><path d="M9.91 21.59c-.34.01-.22.32-.24.53h.49c-.02-.22.1-.52-.24-.53z" class="U"/><path d="M8.76 22.75v4.3a2.25 2.25 0 0 1-.43-.38v-3.92h.43z" class="O"/><path d="M8.79 27.1c-.18-.12-.34-.26-.48-.42v-3.95h.48v4.37zm-.43-.44c.11.13.24.24.38.34v-4.23h-.38v3.88z"/><path d="M9.67 22.75v4.63a2.98 2.98 0 0 1-.43-.09v-4.54h.43z" class="O"/><path d="M9.69 27.41c-.16-.02-.32-.05-.48-.1v-4.58h.48v4.68zm-.43-.14c.12.04.25.07.38.08v-4.58h-.38v4.49z"/><path d="M10.58 22.75v4.53a2.07 2.07 0 0 1-.43.1v-4.63h.43z" class="O"/><path d="M10.12 27.41v-4.68h.48v4.57c-.15.06-.32.09-.48.11zm.05-4.63v4.57a2.34 2.34 0 0 0 .38-.09v-4.48h-.38z"/><path d="M11.49 22.75v3.88c-.12.15-.27.29-.43.4v-4.28h.43z" class="O"/><path d="M11.03 27.08v-4.35h.48v3.91c-.13.17-.3.32-.48.44zm.05-4.3v4.2a1.85 1.85 0 0 0 .38-.36v-3.85h-.38z"/><g class="M"><path d="M14.16 23.35c0 .27-.42.27-.42 0s.42-.27.42 0zm-.27.81h.12v.63h-.12z"/><path d="M13.89 23.47h.12v.33h-.12z"/><path d="M13.75 23.75v.41h.39v-.41h-.39zm.26.32h-.12v-.22h.12v.22zm.15 2.71c0-.27-.42-.27-.42 0s.42.27.42 0zm-.27-1.77h.12v.72h-.12z"/><path d="M13.89 26.08h.12v.58h-.12z"/><path d="M14.15 26.11v-.41h-.39v.41h.39zm-.14-.09h-.12v-.22h.12v.22zm1.25-1.74h.12v.47h-.12zm0 .7h.12v.39h-.12zm0-1.51h.12v.51h-.12z"/><path d="M15.12 23.93v.41h.39v-.41h-.39zm.26.32h-.12v-.22h.12v.22zm-.26 1.04v.41h.39v-.41h-.39zm.26.32h-.12v-.22h.12v.22zm-.58.92c-.03-.05-.08-.16-.11-.22l-.36.19.18.35.36-.19-.07-.13zm-.08.05l-.2.1h0l-.05-.11c.05-.03.14-.07.19-.1l.06.11z"/><path d="M15.46 23.5c-.19.2-.49-.11-.3-.3.19-.2.49.11.3.3zm-1.501 1.264l.424-.466.089.081-.424.466z"/><path d="M14.71 24.12l-.09-.09.57-.58.09.08-.57.59z"/><path d="M14.56 23.91l-.28.3.29.26.28-.3-.29-.26zm-.02.41l-.09-.08.15-.16.09.08-.15.16zm.71 1.66c-.19-.2-.49.11-.3.3.19.2.49-.11.3-.3zm-1.297-1.011l.089-.081.424.466-.089.081z"/><path d="M14.71 25.61l-.09.08.39.42.09-.08-.39-.42z"/><path d="M14.85 25.56l-.28-.3-.29.26.28.3.29-.26zm-.16.02l-.09.08-.15-.16.09-.08.15.16zm.63-.93c-.27 0-.27.42 0 .42s.27-.42 0-.42zm0 .29c-.1 0-.1-.16 0-.16s.1.16 0 .16zm-1.29-.14h.36v.12h-.36z"/><path d="M14.77 24.8h.36v.12h-.36z"/><path d="M14.8 24.67h-.41v.39h.41v-.39zm-.32.26v-.12h.22v.12h-.22zm-.45-1.64h.36v.12h-.36zm.74 0h.36v.12h-.36z"/><path d="M14.8 23.15h-.41v.39h.41v-.39zm-.32.26v-.12h.22v.12h-.22z"/></g><path d="M14.16 24.86c0 .27-.42.27-.42 0s.42-.27.42 0z" class="R"/><g class="M"><path d="M14.47 26.58l.05.1c-.19.1-.6.17-.57.16v-.12s.38-.06.53-.15h-.02z"/><path d="M15.38 25.67c-.1.46-.35.72-.65.91l-.05-.1c.28-.18.5-.41.59-.83l.12.02zm-1.64-2.32c0 .27.42.27.42 0s-.42-.27-.42 0zm.15.81h.12v.63h-.12z"/><path d="M13.89 23.47h.12v.33h-.12z"/><path d="M13.75 23.75v.41h.39v-.41h-.39zm.14.09h.12v.22h-.12v-.22zm-.15 2.94c0-.27.42-.27.42 0s-.42.27-.42 0zm.15-1.77h.12v.72h-.12z"/><path d="M13.89 26.08h.12v.58h-.12z"/><path d="M14.15 26.11v-.41h-.39v.41h.39zm-.26-.32h.12v.22h-.12v-.22zm-1.37-1.51h.12v.47h-.12zm0 .7h.12v.39h-.12zm0-1.51h.12v.51h-.12z"/><path d="M12.39 23.93v.41h.39v-.41h-.39zm.14.09h.12v.22h-.12v-.22zm-.14 1.27v.41h.39v-.41h-.39zm.14.09h.12v.22h-.12v-.22zm.5 1.29l.36.19.18-.35-.36-.19-.18.35zm.15-.08l.05-.1c.05.03.14.07.19.1l-.05.1h0l-.2-.1h0z"/><path d="M12.44 23.5c.19.2.49-.11.3-.3-.19-.2-.49.11-.3.3zm.995.882l.089-.081.424.466-.089.081z"/><path d="M13.19 24.12l.09-.09-.57-.58-.09.08.57.59z"/><path d="M13.05 24.17l.28.3.29-.26-.28-.3-.29.26zm.16-.02l.09-.08.15.16-.09.08-.15-.16zm-.56 1.83c.19-.2.49.11.3.3-.19.2-.49-.11-.3-.3zm.776-.633l.424-.466.089.081-.424.466z"/><path d="M13.19 25.61l.09.08-.39.42-.09-.08.39-.42z"/><path d="M13.34 25.82l.28-.3-.29-.26-.28.3.29.26zm.02-.41l.09.08-.15.16-.09-.08.15-.16zm-.99-.55c0 .27.42.27.42 0s-.42-.27-.42 0zm.13 0c0-.1.16-.1.16 0s-.16.1-.16 0zm1.01-.06h.36v.12h-.36z"/><path d="M12.77 24.8h.36v.12h-.36z"/><path d="M13.1 25.06h.41v-.39h-.41v.39zm.09-.14v-.12h.22v.12h-.22zm.32-1.63h.36v.12h-.36zm-.74 0h.36v.12h-.36z"/><path d="M13.1,23.54h.41v-.39h-.41v.39Zm.09-.14v-.12h.22v.12h-.22Z"/></g><path d="M13.74 24.86c0 .27.42.27.42 0s-.42-.27-.42 0z" class="R"/><g class="M"><path d="M13.43 26.58l-.05.1c.19.1.6.17.57.16v-.12s-.38-.06-.53-.15h.02z"/><path d="M12.52 25.67c.1.46.35.72.65.91l.05-.1c-.28-.18-.5-.41-.59-.83l-.12.02z"/></g><path d="M13.2,22.75c-.03,1.95-2.51,1.95-2.54,0,.03-1.95,2.51-1.95,2.54,0Z" class="O"/><path d="M11.93 24.26c-1.7-.03-1.7-2.98 0-3.02 1.7.03 1.7 2.98 0 3.02zm0-2.96c-1.63.03-1.63 2.88 0 2.91 1.63-.03 1.63-2.88 0-2.91z"/><path d="M12.85,22.75c-.02,1.41-1.82,1.41-1.84,0,.02-1.42,1.82-1.41,1.84,0Z" class="S"/><path d="M11.93 23.85c-1.24-.02-1.24-2.18 0-2.2 1.24.02 1.24 2.18 0 2.2zm0-2.15c-1.17.02-1.17 2.08 0 2.1 1.17-.02 1.17-2.08 0-2.1z"/><path d="M12.43 22.43c.1-.23-.07-.41-.07-.41s-.17.18-.07.41c0 0-.33-.16-.19.18 0 0 .17-.12.17.07h.19c0-.2.17-.07.17-.07.14-.34-.19-.18-.19-.18z" class="M"/><path d="M12.45 22.7h-.19c-.05-.03.02-.18-.16-.08-.08 0-.14-.35.15-.23-.06-.23.08-.42.12-.39a.42.42 0 0 0 .09.39c.28-.12.23.22.15.23-.18-.1-.11.05-.16.08zm-.17-.04h.15c0-.12.11-.13.18-.08.09-.24-.07-.16-.2-.14.05-.17 0-.35-.06-.4-.04.05-.14.2-.06.38 0 .01-.01.03-.02.02-.11-.06-.26-.06-.17.14.07-.05.18-.04.18.08z"/><path d="M12.19 22.68h.34v.08h-.34z" class="M"/><use xlink:href="#d"/><path d="M12.46 22.77h-.21l-.07.15.1-.03.07.06.07-.06.1.03-.07-.15z" class="M"/><path d="M12.36 22.96s-.06-.05-.07-.05c-.21.09-.08-.05-.05-.15 0-.02.22 0 .23-.01.02 0 .07.16.08.16.01.06-.1 0-.12 0 0 0-.06.06-.07.05zm-.07-.09s.06.05.07.05c.06-.06.06-.06.14-.03l-.04-.1h-.19l-.04.1.07-.02z"/><use xlink:href="#e" class="M"/><path d="M11.6 22.7h-.19c-.05-.03.02-.18-.16-.08-.08 0-.13-.35.15-.23-.07-.22.09-.39.09-.39.04-.02.18.16.12.39.28-.12.23.22.15.23-.18-.1-.11.05-.16.08zm-.17-.04h.15c0-.12.11-.13.18-.08.09-.24-.07-.17-.2-.14.05-.17 0-.35-.06-.4-.04.05-.14.2-.06.38 0 .01-.01.03-.02.02-.11-.06-.26-.06-.17.14.07-.05.18-.04.18.08z"/><path d="M11.33 22.68h.34v.08h-.34z" class="M"/><use xlink:href="#d" x="-0.85"/><path d="M11.4 22.77h.21l.07.15-.1-.03-.07.06-.07-.06-.1.03.07-.15z" class="M"/><path d="M11.51 22.96s-.06-.05-.07-.05c-.02 0-.13.07-.12 0 0 0 .06-.17.08-.16 0 0 .23-.01.23.01.02.09.16.24-.05.15 0 0-.06.06-.07.05zm-.07-.09s.06.05.07.05c.06-.05.06-.06.14-.03l-.04-.11h-.19l-.04.11.07-.02z"/><use xlink:href="#e" x="0.43" y="0.72" class="M"/><path d="M12.03 23.42h-.19c-.05-.03.02-.18-.16-.08-.08 0-.13-.35.15-.23-.06-.23.08-.42.12-.39a.42.42 0 0 0 .09.39c.28-.12.23.22.15.23-.18-.1-.11.05-.16.08zm-.17-.04h.15c0-.12.11-.13.18-.08.09-.24-.07-.17-.2-.14.05-.17 0-.35-.06-.4-.04.05-.14.2-.06.38 0 .01-.01.03-.02.02-.11-.06-.26-.06-.18.14.07-.05.18-.04.18.08z"/><path d="M11.76 23.41h.34v.08h-.34z" class="M"/><path d="M12.1 23.51s-.38.02-.36-.02c0-.02-.02-.11.02-.1h.34c.03 0 .01.09.02.1 0 .01 0 .02-.02.02zm-.33-.04h.31v-.05h-.31v.05z"/><path d="M11.83 23.49h.21l.07.15-.1-.03-.07.06-.07-.06-.1.03.07-.15z" class="M"/><path d="M11.93 23.69s-.06-.05-.07-.05c-.02 0-.13.06-.12 0 0 0 .06-.17.08-.16 0 0 .23-.01.23.01.03.09.16.24-.05.15 0 0-.06.06-.07.05zm-.07-.09s.06.05.07.05c.06-.06.06-.06.14-.03l-.04-.11h-.19l-.04.11.07-.02z"/><path d="M5.29 18.05c.23.02.47-.09.7-.06.17 0 .35.09.51.05.04-.03.02-.08-.02-.08-.38-.11-.84-.15-1.2.04-.01.02 0 .04 0 .05z" class="M"/><path d="M5.33 18.07s-.03 0-.05-.01h0s0-.08.03-.09c.36-.15.77-.14 1.16-.02.05 0 .07.07.03.1-.47 0-.61-.11-1.18.02zm-.03-.03c.86-.11.65-.01 1.2 0 .08-.13-.51-.15-.6-.16-.14 0-.61.04-.6.17h0z"/><path d="M6.48 18.22c-.06-.08-.26-.1-.34-.13h-.49c-.08.03-.28.05-.34.13-.05.08.26.12.58.14.32-.01.63-.06.58-.14z" class="M"/><path d="M5.89 18.37c-.27-.01-.79-.05-.51-.21.24-.09.52-.07.76-.07l.27.07.07.06c.05.11-.34.14-.59.15zm-.51-.2s-.12.07-.06.09c.13.1 1.14.13 1.15-.03-.05-.08-.26-.1-.33-.13-.24 0-.51-.02-.75.07z"/><path d="M6.51 18.08v-.03c-.18-.04-.43-.09-.6-.08h-.02c-.19 0-.44.04-.61.08v.03l.02.14c.29-.14.87-.14 1.16 0 0 0-.02-.1.04-.14z" class="M"/><path d="M6.48 18.23c-.28-.14-.88-.14-1.16 0-.03 0 .02-.1-.04-.14 0 0 .01-.04.02-.04.14-.03.47-.11.6-.07.14-.04.46.03.6.07 0 0 .03.04.02.04-.06.04-.02.13-.04.14zm-1.19-.15s.04.1.04.13c.3-.13.85-.13 1.15 0 0-.03 0-.09.04-.13v-.02a2.99 2.99 0 0 0-.59-.08c-.02.01-.02.01-.04 0-.17 0-.42.03-.58.08v.02z"/><path d="M6.55 18.04c-.34-.1-.65-.09-.65-.09s-.32-.01-.65.09c-.03.12.2-.07.65-.05.45-.02.69.17.65.05z" class="M"/><path d="M6.53 18.1s-.19-.1-.64-.1c-.45-.02-.69.18-.66.04.32-.11.66-.09.66-.09s.32-.01.65.09c.01 0 .02.06-.02.06zm-.64-.11c.45-.02.66.16.65.06-.33-.1-.64-.09-.65-.09 0 0-.32-.01-.65.09-.01.09.2-.09.65-.06z"/><path d="M6.41 18.25c-.16.08-.79.11-1.03 0 .21-.08.44-.08.67-.07.12 0 .28.02.36.07z" class="O"/><path d="M5.91 18.32c-.18 0-.38-.01-.55-.08.2-.09.46-.08.68-.07.11 0 .29.02.38.08-.02 0-.12.05-.38.07H5.9zm-.07-.01a1.94 1.94 0 0 0 .55-.07c-.19-.07-.41-.07-.61-.06-.13 0-.26.01-.38.06.14.05.3.06.44.07z"/><path d="M6.11 18.06s-.06.04-.06 0 .06-.04.06 0z" class="N"/><path d="M6.08 18.1s-.05-.07 0-.07.05.07 0 .07zm0-.06s-.03.05 0 .05.03-.05 0-.05z"/><path d="M5.89 17.35s-.28-.06-.53.09c0 0-.49.04-.32.38.06.09.09.14.19.19h.04l.02-.06.08.03.07-.03.04-.07.32-.03.08-.1v-.39z" class="O"/><path d="M5.24 18.02c-.14-.06-.3-.28-.22-.43.08-.14.31-.16.34-.17.26-.15.52-.09.54-.09v.4l-.08.11-.32.03-.04.07-.07.03-.08-.03-.02.05h-.05zm-.09-.07l.1.06h.03l.03-.06.08.03.06-.02.04-.07.33-.03.07-.09v-.38s-.3-.04-.52.09c0 0-.25.02-.32.16-.07.09.04.25.1.34z"/><path d="M5.98 18.08H5.8s-.03-.06 0-.06h.18c.03 0 .03.06 0 .06z" class="O"/><path d="M5.97 18.09h-.16s-.05-.07 0-.07h.16c.05 0 .05.07 0 .07zm-.16-.06s-.03.04 0 .04c.02 0 .26.02.16-.04h-.16z"/><path d="M6.31 18.13s-.16 0-.15-.05h0s.02-.02.04-.02c.02.01.16 0 .15.05h0s-.02.02-.04.02z" class="R"/><path d="M6.31 18.13s-.23-.02-.13-.09c.02 0 .13.02.15.02.04.01.02.07-.02.07zm0-.01s.04-.02.02-.03c0-.01-.13-.02-.14-.03-.03 0-.04.04 0 .04l.12.02z"/><path d="M5.68 18.06s.06.04.06 0-.06-.04-.06 0z" class="N"/><path d="M5.67 18.06s.07-.04.07 0-.07.04-.07 0zm.01 0s.05.03.05 0-.05-.03-.05 0z"/><path d="M5.48 18.13s.16 0 .15-.05h0s-.02-.02-.04-.02c-.02.01-.16 0-.15.05h0s.02.02.04.02z" class="R"/><path d="M5.43 18.1c-.01-.06.12-.05.15-.06.05-.01.07.06.01.07l-.12.02c-.02 0-.04 0-.05-.03zm.16 0s.02-.05 0-.04c-.02 0-.22.02-.11.06l.12-.02z"/><path d="M6.42 18.12l.07-.01.02.04-.04.02-.05-.05z" class="O"/><path d="M6.47 18.17l-.07-.06h.09l.02.04-.05.02zm-.04-.05l.04.03h.03l-.01-.04h-.05z"/><path d="M5.37 18.12l-.07-.01-.02.04.04.02.05-.05z" class="O"/><path d="M5.32 18.17l-.05-.02.02-.05h.09l-.07.07zm-.03-.03h.03l.04-.02h-.05l-.01.02zm.11.09v.02h-.02s.01 0 .02-.01zm.04-.01v.04l-.02-.03z"/><path d="M5.47 18.21v.06l-.02-.05zm.04 0v.08l-.02-.07zm.03-.01v.09l-.02-.08zm.03-.01v.1l-.01-.1zm.04 0v.11l-.01-.11zm.03 0v.12l-.01-.11zm.04-.01v.12l-.01-.12zm.03 0v.13H5.7v-.13h.01zm.03 0v.13h-.01v-.13h.01zm.04 0v.13h-.01v-.13h.01zm.03-.01v.15H5.8v-.15h.01zm.07 0v.15h-.01v-.15h.01zm.1 0v.15h0v-.15h0zm.07.01v.13h0v-.13h0z"/><path d="M5.9 17.35s.28-.06.53.09c0 0 .49.04.32.38-.06.09-.09.14-.19.19h-.04l-.02-.06-.08.03-.07-.03-.04-.07-.32-.03-.08-.1v-.39z" class="O"/><path d="M6.55 18.02H6.5l-.02-.06-.08.03-.07-.03s-.03-.07-.04-.07l-.32-.03-.08-.11v-.4c.02 0 .28-.06.54.09.03 0 .26.03.34.17s-.08.36-.22.43zm-.04-.03h.03c.13-.05.28-.26.2-.39-.07-.13-.32-.16-.32-.16-.21-.13-.47-.1-.52-.09v.38l.07.09.33.03.04.07.06.02.08-.03.03.05z"/><path d="M6.54 17.46s-.1.03-.23.23l-.1.14-.11-.03.06-.13c.07-.07.21-.23.31-.26.02 0 .06.04.07.05z" class="M"/><path d="M6.2 17.85c-.16-.04-.1-.03-.04-.17l.2-.21c.07-.03.1-.08.15-.04.12.07-.04.03-.18.27-.09.13-.11.15-.12.15zm-.09-.05l.09.03c.02-.06.3-.4.32-.37-.01 0-.04-.03-.06-.04-.09.02-.24.19-.3.26l-.06.12z"/><path d="M5.89 17.75h.16s.39-.54.5-.28c0 0-.1-.12-.39.29l.15.02-.03.12-.08.05s-.09-.04-.11-.07l-.08.05-.08-.03c-.04-.06-.04-.09-.04-.16z" class="M"/><path d="M6.2 17.96s-.09-.04-.11-.06c-.08.05-.07.05-.16.02-.05-.06-.05-.09-.05-.17 0-.02.16 0 .17 0 .02-.04.42-.55.51-.26-.11-.04-.16 0-.38.28 0 0 .15.01.14.03-.03.11 0 .12-.12.17zm-.07-.05l.07.03.07-.04.03-.11s-.17-.01-.15-.04c.2-.27.28-.32.38-.31-.15-.17-.47.32-.47.31h-.15c0 .06 0 .09.04.14l.07.02c.07-.03.07-.07.12-.01z"/><path d="M5.93 17.73l.09-.03.03.05-.03.04-.12-.03.03-.03z" class="M"/><path d="M6.02 17.81l-.14-.04c.04-.06.08-.05.14-.07l.04.06-.04.06zm-.11-.05l.1.03.02-.03-.02-.04s-.09.02-.1.04z"/><path d="M6.69 17.87l-.09-.07-.05.03.01.05.12.01.01-.02z" class="M"/><path d="M6.69 17.9h0l-.13-.01v-.07l.05-.04.1.09-.02.03zm-.12-.03h.1l-.08-.07-.04.02v.04z"/><path d="M6.69 17.84s.01-.06.03-.05c.01-.02.09 0 .07.02-.05 0-.12.15-.11.03z" class="M"/><path d="M6.7 17.9s-.01-.15.03-.12c.02-.02.12.01.07.04-.05 0-.06.07-.1.08zm.02-.1s-.01.03-.02.04h0v.04c.03-.02.05-.07.09-.08-.04-.03-.06.01-.07 0zm-.03.04h0z"/><path d="M5.24 17.47s.11.03.24.23l.1.14.11-.03-.06-.13c-.07-.07-.21-.23-.31-.26l-.03.03-.06.02z" class="M"/><path d="M5.59 17.85s-.02-.02-.11-.15c-.13-.19-.24-.22-.24-.22-.03-.02.05-.03.06-.03 0 0 .02-.04.04-.04.11.03.24.19.31.26.06.15.12.14-.04.17zm-.32-.39l.32.36.09-.03-.06-.12c-.06-.06-.21-.24-.3-.26-.02.03-.03.04-.06.04z"/><path d="M5.89 17.75h-.16s-.4-.54-.51-.28c0 0 .11-.13.4.29l-.15.02.03.12.08.05s.09-.04.11-.07l.08.05.08-.03c.04-.06.04-.09.04-.16z" class="M"/><path d="M5.58 17.96c-.12-.05-.09-.06-.12-.17-.01-.02.14-.03.14-.03-.22-.28-.27-.31-.39-.27.09-.29.49.22.52.26 0 0 .17-.01.17 0 0 .07 0 .1-.05.17-.09.03-.08.04-.16-.02-.02.02-.08.05-.11.06zm-.07-.06l.07.04c.13-.05.06-.1.19-.02l.07-.02a.23.23 0 0 0 .04-.14h-.15s-.33-.47-.48-.31c.1-.01.18.04.39.31.02.02-.14.03-.15.04l.03.11z"/><path d="M5.1 17.87l.08-.07.05.03v.05l-.12.01-.01-.02z" class="M"/><path d="M5.1 17.9l-.02-.03.1-.09.06.04v.07l-.14.01zm0-.03h0 .1v-.04l-.03-.02-.08.07z"/><path d="M5.09 17.84s-.01-.06-.03-.05c-.01-.02-.09 0-.07.02.05 0 .12.15.11.03z" class="M"/><path d="M5.08 17.9s-.04-.06-.11-.09c0-.03.06-.05.08-.03.03-.02.05.03.05.05h0s.01.06-.02.06zm-.09-.1s.06.06.09.08v-.04h0s0-.03-.02-.04c-.01.02-.04-.02-.07 0z"/><path d="M6.68 17.89s-.19.2-.18.02h-.01c-.09.13-.19 0-.17-.11 0 0-.02-.05-.02 0-.02.18-.19.17-.2.02-.04.18-.21.09-.18-.06l-.02-.02-.02.02c.02.15-.15.24-.18.06-.01.16-.19.16-.2-.02 0-.04-.02 0-.02 0 .03.11-.07.24-.17.12H5.3c.01.17-.15.02-.18-.02v.04s.16.22.21.05c0 0 .11.09.18-.06 0 0 .1.12.2 0 0 0 .1.12.2-.03.11.15.2.03.2.03.1.13.2 0 .2 0 .07.15.18.06.18.06.05.17.2-.02.21-.05v-.04z" class="M"/><path d="M5.24 18.05c-.06 0-.14-.11-.14-.12v-.05c.01 0 .09.1.14.1s.03-.09.04-.09c.1.12.19.03.17-.11.04-.11.01.13.13.13.08 0 .08-.12.09-.12s0 .09.1.1c.08.01.08-.15.08-.15.03-.03.03-.03.05 0 0 0 0 .08.03.13.07.08.16-.03.14-.06.01 0 .03.12.1.12.12 0 .09-.24.13-.12-.02.13.07.22.17.1.02 0 0 .08.04.09.05 0 .13-.1.14-.1 0 0 .01.04 0 .05 0 0-.1.14-.16.11 0 0-.04 0-.06-.06-.05.04-.15.02-.18-.06-.04.05-.15.07-.2 0-.04.06-.15.06-.2-.02-.05.09-.16.08-.2.02-.05.08-.16.06-.2 0-.03.08-.13.11-.18.06-.03.07-.05.06-.08.07zm-.13-.12s.16.2.2.04c.05.04.14.04.18-.06.06.06.12.08.2 0 .05.07.13.05.2-.03.05.09.16.08.19.03.09.09.14.07.2 0 .04.1.13.1.18.06.05.15.17 0 .2-.04v-.02c-.05.06-.19.17-.19.01h0s-.12.09-.16.01c-.03-.06-.01-.12-.03-.15 0 .13-.16.23-.21.05-.06.15-.21.04-.19-.08l-.02-.02-.02.02c.02.13-.13.24-.19.08-.04.18-.22.08-.21-.05-.02.03 0 .09-.03.15-.04.07-.16.02-.16-.01h0c0 .15-.14.05-.18-.02v.02z"/><path d="M5.47 17.78l.05-.13-.07-.03-.07.05.09.11z" class="M"/><path d="M5.48 17.8l-.11-.13.07-.06.09.03h0l-.05.16zm-.08-.13l.07.09.04-.11-.06-.02-.05.04z"/><path d="M5.44 17.77l-.09-.01-.02.05.03.04.12-.06-.04-.02z" class="M"/><path d="M5.36 17.86l-.05-.05.03-.07c.06 0 .11 0 .15.05l-.13.07zm-.02-.05l.03.03.09-.05-.02-.02h-.08l-.02.03z"/><path d="M5.5 17.76l.09-.05.03.05-.02.05-.12-.02.02-.03z" class="M"/><path d="M5.61 17.82l-.15-.02c.03-.06.08-.07.13-.1l.05.05-.03.06zm-.11-.03h.1l.02-.03-.03-.03s-.08.04-.09.06z"/><path d="M5.44 17.79c0 .05.09.04.08-.01 0-.05-.09-.04-.08.01z" class="M"/><path d="M5.47 17.83c-.08 0-.04-.14.03-.09.04.03.02.09-.03.09zm0-.08s-.04.07 0 .06c.04 0 .03-.06 0-.06z"/><path d="M5.08 17.91s.07 0 .04-.03c-.03-.04-.07 0-.04.03z" class="M"/><path d="M5.11 17.94s-.07-.08-.01-.08c.04 0 .06.08.01.08zm-.02-.06s0 .04.01.04c.03 0 0-.05-.01-.04z"/><path d="M5.89 17.23s-.11.06-.11.23.11.27.11.27.11-.11.11-.27-.11-.23-.11-.23z" class="M"/><path d="M5.89 17.74s-.12-.11-.12-.28.11-.23.12-.23c.02 0 .12.06.13.23 0 .17-.11.28-.12.28zm0-.5c-.15.06-.11.4 0 .47.11-.08.15-.41 0-.47z"/><path d="M5.89 17.27c-.08.04-.05.37 0 .41.05-.04.08-.36 0-.41z" class="M"/><path d="M5.89 17.69c-.07-.02-.1-.42 0-.43.08.04.06.4 0 .43zm0-.4c-.06.03-.05.34 0 .38.05-.04.06-.34 0-.38z"/><path d="M5.89 17.75l-.06-.13.06-.04.07.04-.07.13z" class="M"/><path d="M5.89 17.77l-.08-.14.08-.05.08.05h0l-.08.14zm-.06-.14l.06.1.06-.1-.06-.03-.06.03z"/><path d="M5.97 17.25c0 .1-.15.1-.15 0s.15-.1.15 0z" class="M"/><path d="M5.89 17.34c-.11 0-.11-.17 0-.17s.11.17 0 .17zm0-.15c-.09 0-.08.13 0 .13.09 0 .09-.13 0-.13z"/><path d="M5.96 17.23h-.05v-.1h.05v-.05h-.05v-.05h-.05v.05h-.05v.05h.05v.1h-.05v.05h.14v-.05z" class="M"/><path d="M5.97 17.28h-.15c-.01-.04 0-.07.05-.06v-.08c-.06 0-.05 0-.05-.06 0-.02.04 0 .05 0 0-.06 0-.04.06-.05.02 0 0 .04 0 .05.06 0 .05 0 .05.06 0 .02-.04 0-.05 0v.08h.05c0 .02.01.05 0 .06zm-.14-.02h.13v-.03c-.08.01-.04-.03-.05-.11 0-.02.04 0 .05 0v-.03s-.06 0-.05-.05h-.03c0 .05 0 .05-.05.05v.03c.08-.01.04.03.05.11 0 .02-.04 0-.05 0v.03z"/><path d="M5.86 17.73l-.09-.03-.03.05.03.04.12-.03-.03-.03z" class="M"/><path d="M5.77 17.81l-.04-.06.04-.06c.05.02.11.02.14.07l-.14.04zm-.01-.06l.02.03.1-.03-.02-.02-.08-.02-.02.04z"/><path d="M5.93 17.75c0 .05-.08.05-.08 0s.08-.05.08 0z" class="M"/><path d="M5.89 17.79c-.06 0-.06-.1 0-.1s.06.1 0 .1zm0-.08s-.04.06 0 .06.04-.06 0-.06z"/><path d="M6.52 17.9s-.06.03-.05-.01c0-.04.06-.03.05.01z" class="M"/><path d="M6.5 17.93c-.1-.03.04-.16.04-.04h0s-.02.04-.04.04zm0-.07s-.03.05 0 .05c.02 0 .03-.05 0-.05z"/><path d="M6.13 17.81s-.06.04-.05 0c0-.04.06-.04.05 0z" class="M"/><path d="M6.1 17.85c-.09-.03.03-.16.04-.04h0s-.02.04-.04.04zm0-.07s0 .09.01.03h0s0-.03-.01-.03z"/><path d="M5.26 17.9s.06.03.05-.01c0-.04-.06-.03-.05.01z" class="M"/><path d="M5.29 17.93s-.03-.02-.04-.04h0c0-.12.13 0 .04.04zm0-.07s-.01.02-.01.03h0c.02.06.05-.02.01-.03z"/><path d="M5.66 17.81s.06.04.05 0c0-.04-.06-.04-.05 0z" class="M"/><path d="M5.68 17.85s-.05-.08 0-.09c.05 0 .05.09 0 .09zm0-.07s-.02.05 0 .05a.03.03 0 0 0 0-.05z"/><path d="M6.31 17.78l-.04-.13.07-.03.06.05-.09.11z" class="M"/><path d="M6.31 17.8l-.05-.16.09-.03.07.06-.11.13zm-.03-.15l.04.11.07-.09-.05-.04-.06.02z"/><path d="M6.35 17.77l.09-.01.02.05-.04.04-.11-.06.04-.02z" class="M"/><path d="M6.43 17.86l-.13-.07s.1-.04.15-.05l.03.07-.05.05zm-.1-.07l.09.05.03-.03-.02-.04h-.08l-.02.02z"/><path d="M6.28 17.76l-.08-.05-.04.05.02.05.13-.02-.03-.03z" class="M"/><path d="M6.18 17.82l-.03-.06.05-.05.09.05.03.05-.15.02zm0-.06l.02.04h.1l-.09-.07-.03.03z"/><path d="M6.35 17.79c0 .05-.09.04-.08-.01 0-.05.09-.04.08.01z" class="M"/><path d="M6.31 17.83c-.13-.03.04-.18.05-.04h0s-.03.04-.05.04zm0-.08c-.07.01 0 .11.03.04h0s-.01-.04-.03-.04z"/><path d="M6.7 17.91s-.07 0-.04-.03c.03-.04.07 0 .04.03z" class="M"/><path d="M6.68 17.94c-.06 0-.01-.11.04-.08.03.02 0 .08-.04.08zm.02-.06s-.04.03-.02.04c.02.02.06-.04.02-.04z"/><path d="M4.99 18.35h1.8v.47h-1.8z" class="M"/><path d="M6.81 18.84H4.97v-.51h1.84v.51zm-1.8-.04h1.76v-.44H5.01v.44z"/><path d="M17.39 18.05c.22.02.45-.08.67-.05.16 0 .33.09.49.05.04-.03.02-.07-.02-.08-.21-.1-1.12-.15-1.14.09z" class="M"/><path d="M17.43 18.07s-.03 0-.04-.01h0s0-.08.03-.09c.35-.15.74-.13 1.12-.02.05 0 .07.07.02.1-.45 0-.59-.1-1.13.02zm-.03-.03c.83-.11.62-.01 1.16 0 .07-.12-.49-.15-.58-.15-.14 0-.58.04-.57.16h0z"/><path d="M18.53 18.22c-.05-.07-.25-.1-.32-.12h-.47c-.08.02-.27.05-.32.12-.05.08.25.12.56.13.31-.01.6-.06.56-.13z" class="M"/><path d="M17.97 18.36c-.26-.01-.76-.05-.49-.2.23-.09.5-.07.73-.07.09.03.26.04.33.12.05.11-.33.13-.56.14zm-.49-.19s-.08.06-.07.08c.14.11 1.04.15 1.12-.02-.05-.07-.25-.1-.32-.12-.23 0-.49-.02-.72.07z"/><path d="M18.57 18.08v-.03c-.17-.04-.41-.08-.58-.07h-.02c-.18 0-.43.03-.58.07v.03l.02.13a1.55 1.55 0 0 1 1.12 0s-.02-.1.04-.13z" class="M"/><path d="M18.53 18.22a1.55 1.55 0 0 0-1.12 0c-.02 0 .02-.09-.04-.13 0 0 .01-.04.02-.04.14-.03.45-.1.58-.06.13-.04.44.03.58.06.04.05-.03.04-.02.18zm-1.15-.14a.55.55 0 0 0 .04.12c.28-.13.82-.13 1.1 0 0-.03 0-.09.03-.12v-.02a2.28 2.28 0 0 0-.57-.07c-.02.01-.02.01-.04 0-.16 0-.4.03-.56.07v.02z"/><path d="M18.6 18.04c-.32-.1-.63-.09-.63-.09s-.3-.01-.63.09c-.03.12.19-.07.63-.05.43-.02.66.17.63.05z" class="M"/><path d="M18.58 18.09s-.19-.09-.61-.09c-.46 0-.55.11-.63.08v-.05c.32-.1.63-.09.63-.09s.31-.01.63.09c.01 0 .02.06-.01.06zm-.61-.11c.43-.02.62.15.62.06-.32-.09-.62-.08-.62-.08s-.31-.01-.62.08c0 .09.19-.08.62-.06z"/><path d="M18.46 18.24c-.15.08-.76.1-.99 0 .2-.08.43-.07.64-.07.12 0 .27.02.35.07z" class="O"/><path d="M17.99 18.32c-.18 0-.36-.01-.53-.08.2-.09.44-.08.66-.07.1 0 .28.02.36.07h-.01s-.34.09-.48.08zm-.07-.01a2.18 2.18 0 0 0 .52-.06c-.25-.09-.71-.09-.95 0a1.54 1.54 0 0 0 .43.06z"/><path d="M18.18 18.06s-.06.04-.06 0c0-.03.06-.03.06 0z" class="N"/><path d="M18.15 18.09s-.04-.06 0-.06.04.06 0 .06zm0-.05s-.03.04 0 .04a.02.02 0 0 0 0-.04z"/><path d="M18.06 18.08h-.17s-.03-.05 0-.05c.02 0 .19-.02.19.02 0 .01 0 .03-.02.03z" class="O"/><path d="M18.05 18.09s-.19.03-.19-.03.16-.02.19-.03c.05 0 .05.07 0 .07zm-.15-.05s-.03.04 0 .04c.02 0 .18.02.17-.02 0-.04-.16-.01-.17-.02z"/><path d="M18.37 18.12s-.15 0-.14-.05h0s.02-.02.04-.02c.02.01.15 0 .14.05h0s-.02.02-.04.02z" class="R"/><path d="M18.37 18.13s-.22-.02-.13-.08c.02 0 .12.02.15.02.04.01.02.07-.02.06zm0-.01c.1-.03-.09-.05-.11-.06-.03 0-.04.03 0 .04l.12.02z"/><path d="M17.76 18.06s.06.04.06 0c0-.03-.06-.03-.06 0z" class="N"/><path d="M17.76 18.06s.07-.04.07 0-.07.04-.07 0zm.01 0s.05.03.05 0-.05-.03-.05 0z"/><path d="M17.57 18.12s.15 0 .14-.05h0s-.02-.02-.04-.02c-.02.01-.15 0-.14.05h0s.02.02.04.02z" class="R"/><path d="M17.52 18.1c-.01-.06.12-.05.15-.06.02 0 .04 0 .04.03.01.06-.12.05-.15.06-.02 0-.04 0-.04-.03zm.16 0s.02-.04 0-.04-.21.02-.11.06l.12-.02z"/><path d="M18.48 18.12l.06-.01.02.03-.03.02-.05-.04z" class="O"/><path d="M18.53 18.17l-.06-.06h.09l.02.04-.04.02zm-.03-.05l.04.03h.03l-.01-.04h-.05z"/><path d="M17.47 18.12l-.07-.01-.02.03.03.02.06-.04z" class="O"/><path d="M17.42 18.17l-.04-.02.02-.05h.09l-.06.07zm-.03-.03h.03l.04-.02h-.05l-.01.02zm.11.09v.02h-.02s.01 0 .02-.01zm.03-.01v.04l-.02-.03z"/><path d="M17.56 18.21v.06l-.02-.05zm.04-.01v.07l-.02-.07zm.03-.01v.09l-.01-.08zm.03 0v.1l-.01-.09zm.03-.01v.1l-.01-.1zm.04 0v.11l-.01-.11zm.03 0v.12l-.01-.12zm.03 0v.12h-.01v-.12h.01zm.03-.01v.13h0v-.13h0zm.04 0v.14l-.01-.01v-.13h.01zm.03 0v.14h-.01v-.14h.01zm.06 0v.14h0v-.14h0zm.1 0v.14h0v-.14h0zm.07 0v.13h0v-.13h0z"/><path d="M17.87 17.56s-.29-.05-.4.05c0 0-.2-.04-.31.13v.09c.06.09.09.14.19.19.03-.02.05-.03.07-.07l.07.02h.05l.05-.09.06.05h.06l.08-.05.07.05.06-.02.06-.07c0-.07 0-.21-.02-.28h-.08z" class="O"/><path d="M17.34 18.03c-.1-.06-.13-.11-.19-.2v-.1a.33.33 0 0 1 .32-.13c.19-.13.38-.04.49-.04a1.43 1.43 0 0 1 .03.29l-.06.08-.07.03-.07-.05-.07.05h-.07l-.05-.05-.05.07-.06.02-.07-.02s-.04.05-.07.07zm-.1-.09l.1.07c.03-.01.05-.04.06-.07l.07.03h.05l.06-.09.06.06h.05l.08-.05.08.05.06-.02.05-.07c0-.06 0-.2-.02-.27-.09 0-.3-.08-.47.04 0 0-.2-.04-.31.12v.09l.08.12z"/><path d="M18.07 17.56s.29-.05.4.05c0 0 .2-.04.31.13v.09c-.06.09-.09.14-.19.19-.03-.02-.05-.03-.07-.07l-.07.02h-.05l-.05-.09-.06.05h-.06l-.08-.05-.07.05-.06-.02-.06-.07c0-.07 0-.21.02-.28h.08z" class="O"/><path d="M18.6 18.03s-.06-.03-.07-.07c-.06.02-.06.03-.12 0l-.05-.07-.05.05h-.07l-.07-.05-.07.05s-.07-.02-.07-.03c0 0-.06-.07-.06-.08 0-.07 0-.22.03-.29.11 0 .3-.09.49.04.03 0 .22-.02.32.13v.1c-.07.1-.09.14-.2.2zm-.04-.04l.04.02c.09-.05.12-.1.17-.19v-.09c-.1-.16-.29-.12-.3-.12-.17-.13-.38-.05-.47-.04-.02.06-.02.2-.02.27l.05.07.06.02.08-.05.08.06h.05l.06-.06.06.08h.05l.07-.01.03.05z"/><path d="M18 17.74l.09-.03.03.05-.03.04-.12-.03.03-.03z" class="M"/><path d="M18.09 17.82l-.14-.04c.04-.05.08-.05.14-.07l.04.06-.03.05zm-.1-.05l.1.03.02-.03-.02-.04-.08.02-.02.02z"/><path d="M18.74 17.88l-.09-.07-.05.03.01.05.12.01.01-.02z" class="M"/><path d="M18.73 17.91h0l-.12-.01v-.07l.05-.04.1.08-.02.03zm-.11-.03h.1l-.08-.06-.04.02v.04z"/><path d="M17.2 17.88l.09-.07.05.03-.01.05-.12.01-.01-.02z" class="M"/><path d="M17.21 17.91l-.02-.03.1-.08.06.04v.07l-.14.01zm0-.03h0 .1v-.04l-.03-.02-.08.06z"/><path d="M17.2 17.84s-.01-.06-.03-.05c-.01-.02-.09 0-.06.02.05 0 .11.15.1.02z" class="M"/><path d="M17.19 17.9s-.04-.05-.11-.08c0-.03.06-.04.08-.03.03-.02.05.03.05.05h0s0 .06-.02.06zm-.09-.09l.09.07v-.04h0s0-.03-.02-.04c-.01.02-.04-.02-.07 0z"/><path d="M18.72 17.9s-.18.19-.17.02h-.01c-.09.12-.19 0-.16-.11 0 0-.02-.05-.02 0-.02.17-.19.17-.19.02-.03.17-.2.08-.18-.06l-.02-.02-.02.02c.02.14-.14.23-.18.06-.01.15-.18.16-.2-.02 0-.04-.02 0-.02 0 .03.11-.07.23-.16.11h-.01c.01.17-.14.01-.17-.02v.04s.15.21.2.05c0 0 .1.09.17-.06 0 0 .1.12.19 0 0 0 .09.12.19-.02.1.14.19.02.19.02.09.13.19 0 .19 0 .07.15.17.06.17.06.05.16.19-.02.2-.05v-.04z" class="M"/><path d="M17.34 18.05c-.06 0-.13-.11-.14-.11v-.05s.08.1.13.1.02-.09.04-.08c.1.11.18.03.16-.1.04-.1.01.13.13.12.07 0 .08-.12.09-.12.03.15.18.12.17-.05.02-.03.02-.03.05 0 0 0 0 .16.08.15.1 0 .08-.09.09-.09.03.15.16.16.19 0 0-.03.02-.04.03 0 0 0 0 .14.06.15.07.01.09-.04.09-.04.04-.03 0 .03.03.06.05.06.15-.09.16-.08v.05s-.09.14-.16.11c0 0-.04 0-.05-.06-.05.04-.14.02-.17-.06-.04.05-.14.07-.19 0-.04.06-.14.06-.19-.02-.05.08-.15.08-.19.02-.05.08-.15.06-.19 0-.03.08-.12.1-.17.06-.03.07-.05.06-.07.06zm-.13-.12s.15.19.2.04c.05.04.13.04.17-.06.06.06.11.08.19 0 .05.07.13.05.19-.02.04.09.16.07.19.02.08.08.14.06.19 0 .04.09.12.1.17.06.05.15.17 0 .2-.04v-.02c-.05.06-.18.16-.18.01h0s-.12.08-.15.01c-.03-.06-.01-.11-.03-.14 0 .12-.16.22-.2.05-.06.15-.21.04-.18-.08h-.02c0 .12-.14.23-.2.08-.04.18-.21.07-.2-.05-.01.03 0 .08-.03.14-.03.07-.16.02-.15 0h0c0 .14-.13.04-.17-.01v.02z"/><path d="M17.19 17.92s.07 0 .04-.03-.07 0-.04.03z" class="M"/><path d="M17.22 17.94s-.07-.08-.01-.08c.04 0 .06.08.01.08zm-.02-.06s0 .04.01.04c.03 0 0-.04-.01-.04z"/><path d="M17.97 17.27s-.11.06-.11.22.11.26.11.26.11-.1.11-.26-.11-.22-.11-.22z" class="M"/><path d="M17.97 17.75s-.11-.11-.12-.27c0-.16.11-.22.11-.22.01 0 .12.06.12.22s-.1.27-.12.27zm0-.48c-.14.06-.1.38 0 .45.1-.07.14-.39 0-.45z"/><path d="M17.97 17.3c-.08.04-.05.36 0 .39.05-.03.08-.36 0-.39z" class="M"/><path d="M17.97 17.71c-.06-.01-.09-.41 0-.41.08.03.06.39 0 .41zm0-.39c-.06.03-.05.33 0 .36.05-.04.06-.33 0-.36z"/><path d="M17.97 17.76l-.07-.12.07-.04.07.04-.07.12z" class="M"/><path d="M17.97 17.78l-.08-.14.08-.05.08.05h0l-.07.14zm-.05-.13l.05.1.05-.1-.05-.03-.05.03z"/><path d="M18.04 17.28c0 .09-.15.09-.14 0 0-.09.15-.09.14 0z" class="M"/><path d="M17.97 17.36c-.1 0-.11-.16 0-.16s.1.16 0 .16zm0-.14c-.08 0-.08.13 0 .13s.08-.13 0-.13z"/><path d="M18.04 17.26h-.05v-.1h.05v-.05h-.05v-.04h-.05v.04h-.05v.05h.05v.1h-.04v.05h.14v-.05z" class="M"/><path d="M18.04 17.31h-.15c-.01-.04 0-.07.04-.06v-.08c-.06 0-.05 0-.05-.05 0-.02.04 0 .05 0 0-.06 0-.04.05-.04.02 0 0 .04 0 .04.06 0 .05 0 .05.05 0 .02-.04 0-.05 0v.08h.04c0 .02.01.05 0 .06zm-.13-.02h.12v-.03c-.08.01-.04-.03-.05-.11 0-.02.04 0 .05 0v-.03s-.05 0-.05-.04h-.03c0 .05 0 .05-.05.04v.03c.08-.01.04.03.05.11 0 .02-.04 0-.05 0v.03z"/><path d="M17.94 17.74l-.09-.03-.03.05.03.04.12-.03-.03-.03z" class="M"/><path d="M17.85 17.82l-.03-.05.04-.06s.1.02.14.07l-.14.04zm-.01-.05l.02.03.1-.03-.02-.02-.08-.02-.02.04z"/><path d="M18.01 17.76s-.08.05-.08 0 .08-.05.08 0z" class="M"/><path d="M17.97 17.81c-.06 0-.06-.1 0-.09.06 0 .06.1 0 .09zm0-.08s-.04.06 0 .06.04-.06 0-.06z"/><path d="M18.58 17.9s-.06.03-.05-.01c0-.04.06-.03.05.01z" class="M"/><path d="M18.55 17.94c-.09-.02.04-.15.04-.03h0s-.02.03-.04.03zm0-.07s-.03.04 0 .05c.02 0 .03-.05 0-.05z"/><path d="M18.2 17.82s-.05.04-.05 0 .05-.04.05 0z" class="M"/><path d="M18.17 17.86c-.09-.03.03-.15.04-.04h0s-.02.04-.04.04zm0-.07s0 .08.01.03h0s0-.02-.01-.03z"/><path d="M17.36 17.9s.06.03.05-.01c0-.04-.06-.03-.05.01z" class="M"/><path d="M17.39 17.94s-.03-.02-.04-.03h0c0-.12.13 0 .04.03zm0-.07s-.01.02-.01.03h0c.02.06.05-.02.01-.03z"/><path d="M17.74 17.82s.05.04.05 0-.05-.04-.05 0z" class="M"/><path d="M17.77 17.86s-.05-.08 0-.08.05.08 0 .08zm0-.07s-.01.05 0 .05a.03.03 0 0 0 0-.05zm.63-.13s.03-.04 0-.11c-.04-.17-.28-.11-.32-.07.18-.16.44.01.33.18z"/><path d="M18.78 17.81s.03-.19-.08-.28c-.06-.06-.16-.03-.27-.01.28-.16.41.14.34.29z"/><path d="M18.74 17.84s.01-.06.03-.05c.01-.02.09 0 .06.02-.05 0-.11.15-.1.02z" class="M"/><path d="M18.75 17.9s-.01-.15.03-.11c.02-.02.11.01.07.04-.05 0-.06.06-.1.08zm.02-.1l-.02.04h0v.04c.03-.02.05-.06.09-.07-.03-.03-.06.01-.07 0zm-.03.04h0z"/><path d="M18.75 17.92s-.07 0-.04-.03.07 0 .04.03z" class="M"/><path d="M18.72 17.94c-.06 0-.01-.11.03-.07.03.02 0 .07-.03.07zm.02-.06s-.04.03-.02.04.05-.03.02-.04z"/><use xlink:href="#f"/><use xlink:href="#f" x="0.11" y="-0.02"/><use xlink:href="#f" x="0.21"/><use xlink:href="#f" x="0.3" y="0.07"/><use xlink:href="#f" x="0.4" y="0.05"/><use xlink:href="#f" x="0.52" y="0.06"/><use xlink:href="#f" x="0.63" y="0.11"/><use xlink:href="#f" x="0.69" y="0.21"/><use xlink:href="#f" x="0.71" y="0.33"/><path d="M18.51 17.59s-.07.04-.07 0 .07-.04.07 0z" class="N"/><path d="M18.47 17.63c-.06 0-.05-.09 0-.08.05 0 .05.09 0 .08zm0-.07s-.03.05 0 .05.03-.05 0-.05zm-.93.1c-.11-.17.14-.34.33-.2-.04-.02-.27-.08-.32.09-.03.07.03.1 0 .11z"/><path d="M17.16 17.81c-.06-.14.07-.45.34-.29-.11-.02-.21-.05-.27.01-.11.09-.05.27-.08.28z"/><use xlink:href="#g"/><use xlink:href="#g" x="-0.11" y="-0.01"/><use xlink:href="#g" x="-0.22"/><use xlink:href="#g" x="-0.3" y="0.08"/><use xlink:href="#g" x="-0.41" y="0.06"/><use xlink:href="#g" x="-0.52" y="0.06"/><use xlink:href="#g" x="-0.63" y="0.12"/><use xlink:href="#g" x="-0.69" y="0.22"/><use xlink:href="#g" x="-0.72" y="0.33"/><path d="M17.43 17.59s.07.04.07 0-.07-.04-.07 0z" class="N"/><path d="M17.47 17.63c-.06 0-.05-.09 0-.08.05 0 .06.09 0 .08zm0-.07s-.03.05 0 .05.03-.05 0-.05z"/><path d="M18.37 17.79l-.04-.13.07-.02.06.05-.09.1z" class="M"/><path d="M18.37 17.81l-.05-.15.09-.03.07.06-.1.12zm-.03-.14l.04.1.07-.08-.05-.04-.06.02z"/><path d="M18.41 17.78l.09-.01.02.05-.04.04-.11-.06.04-.02z" class="M"/><path d="M18.48 17.87l-.13-.06s.09-.04.15-.05l.03.06-.04.05zm-.09-.07l.09.04.03-.03-.02-.04h-.08l-.02.02z"/><path d="M18.35 17.77l-.08-.04-.04.04.02.05.12-.02-.02-.03z" class="M"/><path d="M18.24 17.83l-.02-.06.05-.05c.05.03.09.03.12.09l-.14.02zm0-.06v.04l.11-.01v-.02l-.09-.04-.03.03z"/><path d="M18.41 17.8s-.08.04-.07-.01c0-.05.08-.04.07.01z" class="M"/><path d="M18.37 17.84c-.13-.03.04-.17.05-.04h0s-.02.04-.05.04zm0-.08c-.07 0 0 .1.03.03h0s-.01-.03-.03-.03z"/><path d="M17.57 17.79l.04-.13-.07-.02-.06.05.09.1z" class="M"/><path d="M17.57 17.81l-.1-.12.07-.06.09.03h0l-.05.15zm-.08-.12l.07.08.04-.1-.06-.02-.05.04z"/><path d="M17.53 17.78l-.09-.01-.02.05.04.04.11-.06-.04-.02z" class="M"/><path d="M17.46 17.87l-.04-.05.03-.06c.05 0 .1 0 .15.05l-.13.06zm-.02-.05l.03.03.09-.04-.02-.02h-.08l-.02.03z"/><path d="M17.59 17.77l.08-.04.04.04-.02.05-.12-.02.02-.03z" class="M"/><path d="M17.7 17.83l-.14-.02c.02-.06.07-.07.12-.09l.05.05-.02.06zm-.11-.03h.1l.01-.03-.03-.03s-.08.03-.09.06z"/><path d="M17.53 17.8s.08.04.07-.01c0-.05-.08-.04-.07.01z" class="M"/><path d="M17.57 17.84c-.06 0-.06-.09 0-.09.07-.01.07.09 0 .09zm0-.08s-.04.06 0 .06c.03 0 .03-.06 0-.06z"/><path d="M17.07 18.35h1.8v.47h-1.8z" class="M"/><path d="M18.89,18.84h-1.84v-.51h1.84v.51Zm-1.8-.04h1.76v-.44h-1.76v.44Z"/><defs ><path id="B" d="M17.34 27.42c.35 0 .58.22.9.07.37-.17.63.02.97.05v.2c-.32 0-.33-.12-.63-.12s-.3.12-.63.12c-.32 0-.33-.12-.63-.12s-.3.12-.63.12v-.2c.3 0 .3-.12.63-.12z"/><path id="C" d="M19.24 27.76c-.33.01-.35-.12-.64-.12-.3 0-.3.12-.63.12s-.33-.12-.63-.12-.32.13-.64.12v-.24c.3 0 .31-.12.64-.12s.33.12.63.12.3-.12.63-.12.34.13.64.12v.24zm-1.89-.16c.35.03.61.23.97.06.31-.15.56.05.89.07v-.17c-.28 0-.29-.12-.61-.12s-.32.12-.63.12c-.3 0-.3-.12-.63-.12-.31 0-.32.11-.61.12v.17c.31 0 .31-.12.61-.12z"/><path id="D" d="M18.64 19.28H17.3c-.12 0-.12-.19 0-.19h1.34c.12 0 .12.19 0 .19zm-1.34-.15c-.07 0-.07.11 0 .11.24-.02 1.48.06 1.4-.06.09-.12-1.18-.03-1.4-.06z"/><path id="E" d="M6.52 27.42c-.35 0-.58.22-.9.07-.37-.17-.63.02-.97.05v.2c.32 0 .33-.12.63-.12s.3.12.63.12c.32 0 .33-.12.63-.12s.3.12.63.12v-.2c-.3 0-.3-.12-.63-.12z"/><path id="F" d="M7.16 27.76c-.33.01-.35-.12-.64-.12-.3 0-.3.12-.63.12s-.33-.12-.63-.12-.32.13-.64.12v-.24c.3 0 .32-.12.64-.12.33 0 .33.12.63.12s.3-.12.63-.12.34.13.64.12v.24zm-1.9-.16c.35.03.61.23.97.05.31-.15.56.05.89.07v-.17c-.29 0-.29-.12-.61-.12s-.32.12-.63.12c-.3 0-.3-.12-.63-.12-.31 0-.32.11-.61.12v.17c.31 0 .31-.12.61-.12z"/><path id="G" d="M12.58 13.83c0 .13-.2.13-.2 0s.2-.13.2 0z"/><path id="H" d="M12.48 13.95c-.15 0-.15-.24 0-.24s.15.24 0 .24zm0-.2c-.11 0-.11.17 0 .16.11 0 .11-.17 0-.16z"/><path id="I" d="M11.21 13.83c0 .13.2.13.2 0s-.2-.13-.2 0z"/><path id="J" d="M16.01,22.75v2.6c0,1.13-.91,2.04-2.04,2.04s-2.04-.91-2.04-2.04v-2.6h4.08Z"/><path id="K" d="M13.97,27.42c-1.14,0-2.06-.93-2.06-2.07v-2.63h4.13v2.63c0,1.14-.93,2.07-2.06,2.07Zm-2.01-4.64v2.58c0,1.11,.9,2.02,2.01,2.02s2.01-.9,2.01-2.02v-2.58h-4.03Z"/><path id="L" d="M10.21,20.36h-.33v-.18h.33v.18Zm-.29-.04h.25v-.11h-.25v.11Z"/><path id="M" d="M10.07,20.51h-.33v-.18h.33v.18Zm-.29-.04h.25v-.11h-.25v.11Z"/><path id="N" d="M10.21,20.65h-.33v-.18h.33v.18Zm-.29-.04h.25v-.11h-.25v.11Z"/><path id="O" d="M10.21,20.94h-.33v-.18h.33v.18Zm-.29-.04h.25v-.11h-.25v.11Z"/><path id="P" d="M10.21,21.23h-.33v-.18h.33v.18Zm-.29-.04h.25v-.11h-.25v.11Z"/><path id="Q" d="M10.21,21.55h-.33v-.21h.33v.21Zm-.29-.04h.25v-.13h-.25v.13Z"/><path id="R" d="M10.48,21.88h-.33v-.19h.33v.19Zm-.29-.04h.25v-.12h-.25v.12Z"/><path id="S" d="M10.59,22.02h-.33v-.17h.33v.17Zm-.29-.04h.25v-.1h-.25v.1Z"/><path id="T" d="M10.63,20.22h-.31v-.13h.31v.13Zm-.27-.04h.24v-.05h-.24v.05Z"/><path id="U" d="M10.49,19.75h-.18v-.17h.18v.17Zm-.15-.04h.11v-.09h-.11v.09Z"/><path id="V" d="M10.77,20.03h-.18v-.19h.18v.19Zm-.15-.04h.11v-.12h-.11v.12Z"/><path id="W" d="M10.07,20.8h-.33v-.18h.33v.18Zm-.29-.04h.25v-.11h-.25v.11Z"/><path id="X" d="M10.07,21.09h-.33v-.18h.33v.18Zm-.29-.04h.25v-.11h-.25v.11Z"/><path id="Y" d="M10.07,21.38h-.33v-.18h.33v.18Zm-.29-.04h.25v-.11h-.25v.11Z"/><path id="Z" d="M10.34,21.73h-.33v-.22h.33v.22Zm-.29-.04h.25v-.14h-.25v.14Z"/><path id="a" d="M10.63 20.13h-.31l-.04-.42h.39l-.04.42zm-.27-.04h.24l.03-.34h-.31l.03.34z"/><path id="b" d="M10.63 21.15h-.45c.03-.19-.11-.69.22-.68.34-.01.2.49.22.68zm-.41-.04h.37c-.03-.16.1-.62-.19-.61-.29 0-.16.44-.19.61z"/><path id="c" d="M9.63 20.36H9.3v-.18h.33v.18zm-.29-.04h.25v-.11h-.25v.11z"/><path id="d" d="M12.53 22.78h-.34s-.01-.09-.02-.1c-.02-.04.35 0 .36-.02.03 0 .01.09.02.1 0 .01 0 .02-.02.02zm-.33-.04h.31v-.05h-.31v.05z"/><path id="e" d="M11.43 22.43c-.1-.23.07-.41.07-.41s.17.18.07.41c0 0 .33-.16.19.18 0 0-.17-.12-.17.07h-.19c0-.2-.17-.07-.17-.07-.14-.34.19-.18.19-.18z"/><path id="f" d="M18.13 17.42c-.06 0-.06-.09 0-.09s.06.09 0 .09zm0-.07s-.03.05 0 .05.03-.05 0-.05z"/><path id="g" d="M17.77 17.37c0-.06.09-.06.09 0s-.09.06-.09 0zm.02 0s.05.03.05 0-.05-.03-.05 0z"/></defs></svg>