<svg id="Layer_1" data-name="Layer 1" xmlns="http://www.w3.org/2000/svg" width="301.46" height="184.42" viewBox="0 0 301.46 184.42"><defs><style>.cls-1{fill:#00588e;}.cls-2{fill:#689fc9;}</style></defs><path class="cls-1" d="M120.66,49.19a3.56,3.56,0,0,0,.08.81.91.91,0,0,0,.39.56,2.9,2.9,0,0,0,.93.42,12.57,12.57,0,0,0,1.63.31c.33.07.49.34.49.83a4,4,0,0,1,0,.44,4.08,4.08,0,0,1-.07.49c-1-.06-2.16-.12-3.35-.17s-2.25-.07-3.16-.07-2,0-3.18.07l-3.32.17a1,1,0,0,1-.1-.49v-.44c0-.52.16-.79.49-.83a13.13,13.13,0,0,0,1.64-.31,2.61,2.61,0,0,0,.9-.42,1.11,1.11,0,0,0,.39-.56,2.63,2.63,0,0,0,.1-.81V24.69a2.71,2.71,0,0,0-.1-.81,1.15,1.15,0,0,0-.39-.56,2.44,2.44,0,0,0-.9-.41,12.88,12.88,0,0,0-1.64-.32c-.33-.1-.49-.37-.49-.83v-.44a1.33,1.33,0,0,1,.1-.54c1,.07,2.15.12,3.32.17s2.24.07,3.18.07,2,0,3.16-.07,2.3-.1,3.35-.17c0,.16,0,.34.07.54a4,4,0,0,1,0,.44c0,.46-.16.73-.49.83a12.33,12.33,0,0,0-1.63.32,2.71,2.71,0,0,0-.93.41.94.94,0,0,0-.39.56,3.69,3.69,0,0,0-.08.81v24.5"/><path class="cls-1" d="M163.26,22a1.43,1.43,0,0,1,.63-.68A5.46,5.46,0,0,1,166,21l1.15,0,1.64-.05,1.76-.07,1.52-.1a1.38,1.38,0,0,1,.1.49v.39q0,.78-.54.93a15.53,15.53,0,0,0-1.54.29,2.48,2.48,0,0,0-.86.37,1.12,1.12,0,0,0-.39.51,2.39,2.39,0,0,0-.1.69c0,.06,0,.68.08,1.86s.12,2.62.22,4.35.19,3.6.29,5.62.2,3.94.29,5.75.18,3.38.25,4.71.11,2.16.15,2.45a2.35,2.35,0,0,0,.12.81,1.29,1.29,0,0,0,.44.56,2.91,2.91,0,0,0,.9.42,12.11,12.11,0,0,0,1.52.31q.54.1.54.93a4.75,4.75,0,0,1-.1.83l-3.11-.17c-.93-.05-2-.07-3.15-.07s-2.23,0-3.45.07-2.24.11-3.06.17a4.63,4.63,0,0,1-.09-.83,1.1,1.1,0,0,1,.17-.73.46.46,0,0,1,.32-.2,6.59,6.59,0,0,0,2.59-.8,1.73,1.73,0,0,0,.58-1.45c0-.1,0-.61-.07-1.56s-.1-2.12-.15-3.52-.11-2.92-.19-4.55-.16-3.16-.25-4.6-.14-2.67-.19-3.71-.09-1.68-.12-1.91l-10,23.33a6.29,6.29,0,0,1-.41.66.58.58,0,0,1-.47.21h-.29a.8.8,0,0,1-.3,0L140.47,26.16c0,.42-.08,1.28-.12,2.57s-.12,2.76-.2,4.42-.16,3.42-.24,5.26-.16,3.54-.22,5.11-.13,2.87-.18,3.93-.07,1.64-.07,1.74a2.46,2.46,0,0,0,.1.76,1.11,1.11,0,0,0,.39.56,2.49,2.49,0,0,0,.88.41,16.21,16.21,0,0,0,1.61.37q.54.1.54.93c0,.1,0,.22,0,.37a4,4,0,0,1-.08.46l-2.44-.17c-.75-.05-1.5-.07-2.25-.07s-1.47,0-2.45.07-1.85.11-2.64.17a1,1,0,0,1-.09-.44v-.39a1.18,1.18,0,0,1,.14-.71.76.76,0,0,1,.39-.22,7.3,7.3,0,0,0,2.2-.78,1.7,1.7,0,0,0,.79-1.32q0-.39.09-2.37c.07-1.32.15-2.89.25-4.7s.2-3.73.29-5.77.19-3.93.27-5.67.15-3.2.2-4.37.07-1.8.07-1.86a1.33,1.33,0,0,0-.54-1.2,6.54,6.54,0,0,0-2.34-.66q-.54,0-.54-.93v-.39a1.19,1.19,0,0,1,.1-.49c.42,0,1,.07,1.76.1l2.29.07,2.2.05,1.47,0a9.37,9.37,0,0,1,1.37.08,4.25,4.25,0,0,1,.78.17.71.71,0,0,1,.42.29c.08.13.15.26.22.39l9.1,22,9.29-22"/><path class="cls-1" d="M198,53.4a18.88,18.88,0,0,1-7.19-1.27,14,14,0,0,1-5.09-3.5,14.58,14.58,0,0,1-3-5.23,20.37,20.37,0,0,1-1-6.48,18.32,18.32,0,0,1,1-5.82,15.12,15.12,0,0,1,3.08-5.31,15.8,15.8,0,0,1,5.38-3.86A18.83,18.83,0,0,1,199,20.44a29.89,29.89,0,0,1,4.67.34,45.32,45.32,0,0,1,4.72,1c.06.88.19,2,.39,3.37a31,31,0,0,0,.83,4l-.64.12a3.25,3.25,0,0,1-.58.07,1.44,1.44,0,0,1-.66-.12.69.69,0,0,1-.37-.51A13.26,13.26,0,0,0,206.15,26a5.8,5.8,0,0,0-1.64-1.76,6.53,6.53,0,0,0-2.23-1,13.74,13.74,0,0,0-3-.29,11.41,11.41,0,0,0-4.67.9,9.1,9.1,0,0,0-3.4,2.6,11.59,11.59,0,0,0-2.08,4,18.8,18.8,0,0,0-.71,5.36,19.68,19.68,0,0,0,.86,5.91,15.63,15.63,0,0,0,2.35,4.75,10.86,10.86,0,0,0,3.54,3.13,9.11,9.11,0,0,0,4.45,1.12,13.52,13.52,0,0,0,3.35-.36,6.84,6.84,0,0,0,2.4-1.13,6.67,6.67,0,0,0,1.71-1.93,17.12,17.12,0,0,0,1.3-2.74,1,1,0,0,1,.46-.56,1.41,1.41,0,0,1,.66-.17,3.07,3.07,0,0,1,.61.07,3.92,3.92,0,0,1,.61.17c-.19.56-.4,1.19-.61,1.89s-.43,1.41-.66,2.15-.43,1.46-.61,2.2-.33,1.44-.46,2.12a46,46,0,0,1-4.89.64c-1.67.13-3.49.2-5.48.2"/><path class="cls-1" d="M123,64.83a.56.56,0,0,1,.27-.3,2.51,2.51,0,0,1,.93-.1h.5l.71,0,.76,0,.65,0a.52.52,0,0,1,0,.21v.17c0,.22-.08.36-.23.4s-.5.09-.67.13a.86.86,0,0,0-.36.16.36.36,0,0,0-.17.22.85.85,0,0,0,0,.3s0,.29,0,.8.06,1.13.1,1.88.09,1.55.13,2.43.08,1.7.12,2.48.08,1.46.11,2,.05.93.06,1a.88.88,0,0,0,.06.35.51.51,0,0,0,.19.25,1,1,0,0,0,.39.17,4.73,4.73,0,0,0,.65.14c.16,0,.23.16.23.4a1.71,1.71,0,0,1,0,.36L126,78.19c-.4,0-.85,0-1.36,0l-1.49,0-1.32.07a1.71,1.71,0,0,1,0-.36.47.47,0,0,1,.07-.31c.05-.06.09-.09.14-.09a2.78,2.78,0,0,0,1.12-.35.76.76,0,0,0,.25-.62s0-.27,0-.68,0-.91-.06-1.52-.06-1.26-.09-2-.07-1.37-.11-2-.06-1.15-.08-1.6,0-.73,0-.83L118.64,78a2.61,2.61,0,0,1-.18.29.25.25,0,0,1-.2.09h-.13l-.13,0-4.9-11.75c0,.19,0,.56,0,1.11s0,1.2-.09,1.92-.07,1.47-.1,2.27-.07,1.53-.1,2.2-.05,1.25-.07,1.7,0,.71,0,.75a1.06,1.06,0,0,0,0,.33.49.49,0,0,0,.17.24.9.9,0,0,0,.38.18,5.83,5.83,0,0,0,.7.16c.15,0,.23.16.23.4,0,0,0,.1,0,.16l0,.2-1.06-.07c-.32,0-.65,0-1,0l-1.06,0-1.14.07a.38.38,0,0,1,0-.19V77.9a.52.52,0,0,1,.06-.3.32.32,0,0,1,.17-.1,3,3,0,0,0,1-.34.71.71,0,0,0,.34-.57c0-.11,0-.45,0-1s.06-1.25.11-2,.08-1.61.13-2.49.07-1.7.11-2.45.06-1.39.09-1.89,0-.78,0-.8a.58.58,0,0,0-.23-.52,3,3,0,0,0-1-.29c-.15,0-.23-.15-.23-.4v-.17a.52.52,0,0,1,0-.21l.76,0q.5,0,1,0l1,0h.63a3.22,3.22,0,0,1,.59,0,2,2,0,0,1,.34.07.35.35,0,0,1,.18.13l.09.17,3.93,9.48,4-9.48"/><path class="cls-1" d="M135.58,65.48v5.09h3a.54.54,0,0,0,.55-.32,4.32,4.32,0,0,0,.25-1.07.25.25,0,0,1,.13-.22.54.54,0,0,1,.27-.06h.2a.87.87,0,0,1,.21,0c0,.32-.06.7-.08,1.13s0,.79,0,1.09,0,.55,0,.89,0,.74.09,1.17a.53.53,0,0,1-.21.06h-.2c-.25,0-.39-.1-.4-.3a3.89,3.89,0,0,0-.28-1.09.57.57,0,0,0-.52-.28h-3v4.73c0,.3.18.49.55.59a7.89,7.89,0,0,0,1.86.15h.88a2.79,2.79,0,0,0,1.07-.17,2.42,2.42,0,0,0,.77-.47,3.15,3.15,0,0,0,.59-.72c.17-.28.34-.58.51-.92a.29.29,0,0,1,.3-.15.69.69,0,0,1,.25.06l.3.13a2.42,2.42,0,0,1-.1.32c0,.1-.07.2-.09.3a2.45,2.45,0,0,0-.17.5,3.5,3.5,0,0,1-.13.44q0,.21-.09.48c0,.18-.07.35-.11.51s-.07.3-.11.43-.06.21-.07.25a.34.34,0,0,1-.34.17,4.75,4.75,0,0,1-.48,0l-.69,0-.75,0c-.25,0-.47,0-.66,0h-4.79l-1.41,0-1.42.07a.46.46,0,0,1,0-.22v-.2c0-.21.07-.32.21-.34a4.72,4.72,0,0,0,1.15-.31.62.62,0,0,0,.35-.6V66a.88.88,0,0,0-.06-.35.56.56,0,0,0-.25-.23,1.86,1.86,0,0,0-.46-.17l-.73-.16c-.14,0-.21-.17-.21-.38v-.2a.51.51,0,0,1,0-.2l1.61.09,1.2,0h4.33a15.62,15.62,0,0,0,1.64-.07c.46,0,.77-.06.94-.06a.34.34,0,0,1,.33.19,2.39,2.39,0,0,1,.11.62,8,8,0,0,0,.15.94c0,.24.09.47.15.7a7.81,7.81,0,0,0,.25.82l-.23.09a.78.78,0,0,1-.26,0,.35.35,0,0,1-.33-.19,8.79,8.79,0,0,0-.5-.94,2.44,2.44,0,0,0-.55-.63,1.86,1.86,0,0,0-.72-.35,4,4,0,0,0-1-.11h-2.81"/><path class="cls-1" d="M159.22,64.83a.66.66,0,0,1,.27-.3,2.51,2.51,0,0,1,.93-.1h.5l.71,0c.25,0,.51,0,.76,0l.65,0a.54.54,0,0,1,.05.21v.17c0,.22-.08.36-.24.4a6.4,6.4,0,0,0-.66.13.91.91,0,0,0-.37.16.4.4,0,0,0-.17.22.87.87,0,0,0,0,.3s0,.29,0,.8.05,1.13.09,1.88.09,1.55.13,2.43.08,1.7.13,2.48.07,1.46.1,2,0,.93.07,1a.89.89,0,0,0,.05.35.51.51,0,0,0,.19.25,1,1,0,0,0,.39.17,4.92,4.92,0,0,0,.66.14c.15,0,.23.16.23.4a2.81,2.81,0,0,1,0,.36l-1.35-.07c-.4,0-.85,0-1.36,0l-1.49,0-1.32.07a1.71,1.71,0,0,1,0-.36.47.47,0,0,1,.07-.31.21.21,0,0,1,.14-.09,2.73,2.73,0,0,0,1.12-.35.73.73,0,0,0,.25-.62s0-.27,0-.68,0-.91-.06-1.52,0-1.26-.09-2-.07-1.37-.1-2-.06-1.15-.09-1.6,0-.73,0-.83L154.91,78a2.61,2.61,0,0,1-.18.29.25.25,0,0,1-.2.09h-.13l-.12,0-4.91-11.75c0,.19,0,.56-.05,1.11s0,1.2-.08,1.92-.07,1.47-.11,2.27-.07,1.53-.09,2.2-.06,1.25-.08,1.7,0,.71,0,.75a1.06,1.06,0,0,0,0,.33.56.56,0,0,0,.17.24,1,1,0,0,0,.38.18,5.83,5.83,0,0,0,.7.16c.15,0,.23.16.23.4a.92.92,0,0,1,0,.16l0,.2-1.06-.07c-.32,0-.64,0-1,0l-1,0-1.15.07a.53.53,0,0,1,0-.19V77.9a.44.44,0,0,1,.07-.3.29.29,0,0,1,.16-.1,3.13,3.13,0,0,0,1-.34.73.73,0,0,0,.33-.57c0-.11,0-.45.05-1s.06-1.25.1-2,.09-1.61.13-2.49.08-1.7.11-2.45.07-1.39.09-1.89,0-.78,0-.8a.58.58,0,0,0-.23-.52,3,3,0,0,0-1-.29c-.15,0-.23-.15-.23-.4v-.17a.78.78,0,0,1,0-.21l.76,0c.33,0,.66,0,1,0l.95,0h.63a3.16,3.16,0,0,1,.59,0,1.81,1.81,0,0,1,.34.07.28.28,0,0,1,.18.13,1,1,0,0,1,.1.17l3.93,9.48,4-9.48"/><path class="cls-1" d="M171.75,76.38a.6.6,0,0,0,.45.63,3.68,3.68,0,0,0,1.05.13,3.2,3.2,0,0,0,2.17-.62,2.53,2.53,0,0,0,.72-2,3.25,3.25,0,0,0-.26-1.33,2.69,2.69,0,0,0-.71-.94,3.31,3.31,0,0,0-1-.56,4,4,0,0,0-1.25-.19h-1.14v4.9m.34-5.95a3.64,3.64,0,0,0,1.37-.22,2.15,2.15,0,0,0,.88-.58,2.19,2.19,0,0,0,.46-.83,3.45,3.45,0,0,0,.14-1,2.54,2.54,0,0,0-.16-.92,1.9,1.9,0,0,0-.5-.75,2.34,2.34,0,0,0-.88-.5,4.28,4.28,0,0,0-1.31-.18h-.34v5Zm2.87.4a6.91,6.91,0,0,1,1.64.34,4.88,4.88,0,0,1,1.3.7,3.11,3.11,0,0,1,.85,1,2.72,2.72,0,0,1,.31,1.31,3.91,3.91,0,0,1-.37,1.71,3.43,3.43,0,0,1-1,1.23,4.52,4.52,0,0,1-1.61.75,8.21,8.21,0,0,1-2.12.26h-4.51c-.31,0-.61,0-.89,0a4.36,4.36,0,0,1-.51,0h-.49l0-.15a.43.43,0,0,1,0-.11v-.1a.44.44,0,0,1,.07-.3.4.4,0,0,1,.18-.1,3,3,0,0,0,1.05-.29.68.68,0,0,0,.31-.62V66a.65.65,0,0,0-.28-.6,3.14,3.14,0,0,0-1.08-.31.28.28,0,0,1-.21-.16.79.79,0,0,1,0-.28v-.1a.29.29,0,0,1,0-.09.61.61,0,0,1,0-.15l1.43.07c.53,0,1,0,1.3,0h2.91a7.87,7.87,0,0,1,2.24.26,3.65,3.65,0,0,1,1.42.73,2.61,2.61,0,0,1,.75,1.07,3.54,3.54,0,0,1,.22,1.25,2.54,2.54,0,0,1-.8,2,4.91,4.91,0,0,1-2,1.06Z"/><path class="cls-1" d="M187,65.48v5.09h3a.54.54,0,0,0,.55-.32,4.32,4.32,0,0,0,.25-1.07.27.27,0,0,1,.13-.22.55.55,0,0,1,.28-.06h.2a.69.69,0,0,1,.2,0c0,.32-.06.7-.08,1.13s0,.79,0,1.09,0,.55,0,.89,0,.74.09,1.17a.43.43,0,0,1-.2.06h-.2c-.26,0-.39-.1-.41-.3a3.89,3.89,0,0,0-.28-1.09.57.57,0,0,0-.52-.28h-3v4.73c0,.3.19.49.55.59a8,8,0,0,0,1.86.15h.89a2.83,2.83,0,0,0,1.07-.17,2.66,2.66,0,0,0,.77-.47,3.78,3.78,0,0,0,.59-.72c.17-.28.34-.58.51-.92,0-.1.13-.15.29-.15a.65.65,0,0,1,.25.06l.3.13c0,.12-.06.22-.09.32s-.07.2-.1.3a2.45,2.45,0,0,0-.17.5,2.36,2.36,0,0,1-.13.44c0,.14-.06.3-.09.48s-.07.35-.11.51-.07.3-.1.43a2.55,2.55,0,0,1-.08.25c0,.12-.16.17-.33.17a4.82,4.82,0,0,1-.49,0l-.69,0-.75,0c-.25,0-.47,0-.65,0h-4.8l-1.4,0-1.43.07a.46.46,0,0,1,0-.22v-.2c0-.21.07-.32.21-.34a4.59,4.59,0,0,0,1.15-.31.62.62,0,0,0,.35-.6V66a.88.88,0,0,0-.06-.35.52.52,0,0,0-.25-.23,1.86,1.86,0,0,0-.46-.17l-.73-.16c-.14,0-.21-.17-.21-.38v-.2a.51.51,0,0,1,0-.2l1.61.09,1.2,0h4.33a15.49,15.49,0,0,0,1.64-.07c.46,0,.77-.06.94-.06a.35.35,0,0,1,.34.19,3.12,3.12,0,0,1,.1.62,8,8,0,0,0,.15.94c0,.24.09.47.15.7s.14.5.25.82l-.23.09a.73.73,0,0,1-.25,0,.35.35,0,0,1-.34-.19,8.79,8.79,0,0,0-.5-.94,2.27,2.27,0,0,0-.55-.63,1.89,1.89,0,0,0-.71-.35,4.1,4.1,0,0,0-1-.11H187"/><path class="cls-1" d="M202.59,71a5.45,5.45,0,0,0,1.19-.12,2.23,2.23,0,0,0,.9-.44,1.9,1.9,0,0,0,.59-.81,3.6,3.6,0,0,0,.2-1.29,3.16,3.16,0,0,0-.64-2.07,2.81,2.81,0,0,0-2.24-.76H202V71h.63m.28,1.06H202v4.42a.7.7,0,0,0,.41.68,4.6,4.6,0,0,0,1.41.33c.19,0,.29.17.29.42a1.82,1.82,0,0,1,0,.38l-1.53-.07c-.62,0-1.28,0-2,0q-.76,0-1.47,0l-1.32.07a.38.38,0,0,1,0-.19V77.9c0-.24.08-.37.23-.4s.54-.11.72-.15a2.25,2.25,0,0,0,.42-.17.46.46,0,0,0,.2-.24.88.88,0,0,0,.06-.35V66a.67.67,0,0,0-.31-.61,3.12,3.12,0,0,0-1.17-.3.35.35,0,0,1-.17-.12.56.56,0,0,1-.06-.3v-.19a.29.29,0,0,1,0-.17l1.36.07c.51,0,1,0,1.38,0h3.19a6.89,6.89,0,0,1,2,.27,4.49,4.49,0,0,1,1.51.78,3.36,3.36,0,0,1,.95,1.21,3.54,3.54,0,0,1,.33,1.54,3.33,3.33,0,0,1-.69,2,4.15,4.15,0,0,1-1.89,1.38l3.32,4.84a2.1,2.1,0,0,0,.88.76,6.14,6.14,0,0,0,.91.31.35.35,0,0,1,.18.1.43.43,0,0,1,.06.26v.2a.54.54,0,0,1,0,.21c-.15,0-.37,0-.65,0l-.88,0-.91,0h-.75a1.35,1.35,0,0,1-.88-.37,4.48,4.48,0,0,1-.87-1Z"/><polyline class="cls-1" points="58.3 11.95 46.35 23.91 34.4 11.95 46.35 0 58.3 11.95"/><polyline class="cls-2" points="34.4 11.97 31.75 28.66 15.05 26.02 17.7 9.32 34.4 11.97"/><polyline class="cls-1" points="15.06 26.03 22.74 41.09 7.67 48.77 0 33.71 15.06 26.03"/><polyline class="cls-2" points="15.09 71.49 0.03 63.81 7.7 48.75 22.76 56.43 15.09 71.49"/><polyline class="cls-1" points="15.1 71.51 31.8 68.86 34.45 85.56 17.75 88.2 15.1 71.51"/><polyline class="cls-1" points="58.35 85.56 61 68.86 77.7 71.51 75.05 88.2 58.35 85.56"/><polyline class="cls-2" points="77.69 71.49 70.01 56.43 85.07 48.76 92.75 63.82 77.69 71.49"/><polyline class="cls-1" points="85.05 48.77 69.99 41.1 77.66 26.04 92.72 33.71 85.05 48.77"/><polyline class="cls-2" points="77.64 26.02 60.95 28.66 58.3 11.97 75 9.32 77.64 26.02"/><polyline class="cls-2" points="34.47 85.53 46.43 73.58 58.38 85.53 46.43 97.48 34.47 85.53"/></svg>